<svg xmlns="http://www.w3.org/2000/svg" width="105" height="99" viewBox="0 0 105 99">
  <g id="Group_25616" data-name="Group 25616" transform="translate(-1645 -1514)">
    <path id="Rectangle_271" data-name="Rectangle 271" d="M20,0H85a20,20,0,0,1,20,20V99a0,0,0,0,1,0,0H20A20,20,0,0,1,0,79V20A20,20,0,0,1,20,0Z" transform="translate(1645 1514)" fill="#b8d7fc"/>
    <g id="noun_Time_1958396" transform="translate(1669.968 1525.132)">
      <g id="Group_129" data-name="Group 129" transform="translate(-2.339 10.1)">
        <g id="Group_128" data-name="Group 128">
          <g id="Group_121" data-name="Group 121" transform="translate(44.195 45.338)">
            <path id="Path_1493" data-name="Path 1493" d="M50.734,49.271a1.953,1.953,0,0,0-2.762,2.762l2.286,2.286a1.841,1.841,0,0,0,2.667,0,1.955,1.955,0,0,0,0-2.762Z" transform="translate(-47.4 -48.7)" fill="#fff"/>
          </g>
          <g id="Group_122" data-name="Group 122" transform="translate(26.574 51.815)">
            <path id="Path_1494" data-name="Path 1494" d="M30.8,55.5a1.911,1.911,0,0,0-1.9,1.9v3.143a1.9,1.9,0,1,0,3.81,0V57.4A1.8,1.8,0,0,0,30.8,55.5Z" transform="translate(-28.9 -55.5)" fill="#fff"/>
          </g>
          <g id="Group_123" data-name="Group 123" transform="translate(7.239 43.909)">
            <path id="Path_1495" data-name="Path 1495" d="M11.457,47.771,9.171,50.057a1.955,1.955,0,0,0,0,2.762,1.841,1.841,0,0,0,2.667,0l2.286-2.286a1.955,1.955,0,0,0,0-2.762A1.841,1.841,0,0,0,11.457,47.771Z" transform="translate(-8.6 -47.2)" fill="#fff"/>
          </g>
          <g id="Group_124" data-name="Group 124" transform="translate(0 26.288)">
            <path id="Path_1496" data-name="Path 1496" d="M6.048,28.7H2.9a1.9,1.9,0,1,0,0,3.81H6.048a1.911,1.911,0,0,0,1.9-1.9A1.852,1.852,0,0,0,6.048,28.7Z" transform="translate(-1 -28.7)" fill="#fff"/>
          </g>
          <g id="Group_125" data-name="Group 125" transform="translate(8.763 7.048)">
            <path id="Path_1497" data-name="Path 1497" d="M13.534,9.071a1.953,1.953,0,0,0-2.762,2.762l2.286,2.286a1.841,1.841,0,0,0,2.667,0,1.955,1.955,0,0,0,0-2.762Z" transform="translate(-10.2 -8.5)" fill="#fff"/>
          </g>
          <g id="Group_126" data-name="Group 126" transform="translate(29.527)">
            <path id="Path_1498" data-name="Path 1498" d="M54.669,27.293l4.953.19a3.949,3.949,0,0,1,1.524.286A29.306,29.306,0,0,0,32,1.1V7.482A22.841,22.841,0,0,1,54.669,27.293Z" transform="translate(-32 -1.1)" fill="#fff"/>
          </g>
          <g id="Group_127" data-name="Group 127" transform="translate(23.717 26.669)">
            <path id="Path_1499" data-name="Path 1499" d="M59.237,31.862,34.663,31.1a4.7,4.7,0,0,0-3.905-2,4.858,4.858,0,1,0,0,9.715,4.7,4.7,0,0,0,3.905-2l24.574-.762a2.18,2.18,0,0,0,2.1-2.1A2.114,2.114,0,0,0,59.237,31.862Z" transform="translate(-25.9 -29.1)" fill="#fff"/>
          </g>
        </g>
      </g>
    </g>
  </g>
</svg>
