<svg xmlns="http://www.w3.org/2000/svg" xmlns:xlink="http://www.w3.org/1999/xlink" width="530" height="636" viewBox="0 0 530 636">
  <defs>
    <clipPath id="clip-path">
      <rect id="Rectangle_275" data-name="Rectangle 275" width="530" height="636" rx="15" transform="translate(3153 2208)" fill="#fff" stroke="#707070" stroke-width="1" opacity="0.237"/>
    </clipPath>
  </defs>
  <g id="Mask_Group_7" data-name="Mask Group 7" transform="translate(-3153 -2208)" clip-path="url(#clip-path)">
    <g id="Group_134" data-name="Group 134" transform="translate(3421.254 2057.254)" opacity="0.399">
      <g id="Ellipse_218" data-name="Ellipse 218" transform="translate(87.746 661.746)" fill="none" stroke="#b8d7fc" stroke-width="1">
        <circle cx="133.5" cy="133.5" r="133.5" stroke="none"/>
        <circle cx="133.5" cy="133.5" r="133" fill="none"/>
      </g>
      <g id="Ellipse_219" data-name="Ellipse 219" transform="translate(91.746 665.746)" fill="none" stroke="#b8d7fc" stroke-width="1">
        <circle cx="129.5" cy="129.5" r="129.5" stroke="none"/>
        <circle cx="129.5" cy="129.5" r="129" fill="none"/>
      </g>
      <g id="Ellipse_220" data-name="Ellipse 220" transform="translate(94.746 668.746)" fill="none" stroke="#b8d7fc" stroke-width="1">
        <circle cx="126.5" cy="126.5" r="126.5" stroke="none"/>
        <circle cx="126.5" cy="126.5" r="126" fill="none"/>
      </g>
      <g id="Ellipse_221" data-name="Ellipse 221" transform="translate(97.746 671.746)" fill="none" stroke="#b8d7fc" stroke-width="1">
        <circle cx="123.5" cy="123.5" r="123.5" stroke="none"/>
        <circle cx="123.5" cy="123.5" r="123" fill="none"/>
      </g>
      <g id="Ellipse_222" data-name="Ellipse 222" transform="translate(100.746 674.746)" fill="none" stroke="#b8d7fc" stroke-width="1">
        <circle cx="120.5" cy="120.5" r="120.5" stroke="none"/>
        <circle cx="120.5" cy="120.5" r="120" fill="none"/>
      </g>
      <g id="Ellipse_223" data-name="Ellipse 223" transform="translate(104.746 678.746)" fill="none" stroke="#b8d7fc" stroke-width="1">
        <circle cx="116.5" cy="116.5" r="116.5" stroke="none"/>
        <circle cx="116.5" cy="116.5" r="116" fill="none"/>
      </g>
      <g id="Ellipse_224" data-name="Ellipse 224" transform="translate(107.746 681.746)" fill="none" stroke="#b8d7fc" stroke-width="1">
        <circle cx="113.5" cy="113.5" r="113.5" stroke="none"/>
        <circle cx="113.5" cy="113.5" r="113" fill="none"/>
      </g>
      <g id="Ellipse_225" data-name="Ellipse 225" transform="translate(110.746 684.746)" fill="none" stroke="#b8d7fc" stroke-width="1">
        <circle cx="110.5" cy="110.5" r="110.5" stroke="none"/>
        <circle cx="110.5" cy="110.5" r="110" fill="none"/>
      </g>
      <g id="Ellipse_226" data-name="Ellipse 226" transform="translate(114.746 688.746)" fill="none" stroke="#b8d7fc" stroke-width="1">
        <circle cx="106.5" cy="106.5" r="106.5" stroke="none"/>
        <circle cx="106.5" cy="106.5" r="106" fill="none"/>
      </g>
      <g id="Ellipse_227" data-name="Ellipse 227" transform="translate(117.746 691.746)" fill="none" stroke="#b8d7fc" stroke-width="1">
        <circle cx="103.5" cy="103.5" r="103.5" stroke="none"/>
        <circle cx="103.5" cy="103.5" r="103" fill="none"/>
      </g>
      <g id="Ellipse_228" data-name="Ellipse 228" transform="translate(121.746 695.746)" fill="none" stroke="#b8d7fc" stroke-width="1">
        <circle cx="100" cy="100" r="100" stroke="none"/>
        <circle cx="100" cy="100" r="99.5" fill="none"/>
      </g>
      <g id="Ellipse_229" data-name="Ellipse 229" transform="translate(124.746 698.746)" fill="none" stroke="#b8d7fc" stroke-width="1">
        <circle cx="96.5" cy="96.5" r="96.5" stroke="none"/>
        <circle cx="96.5" cy="96.5" r="96" fill="none"/>
      </g>
      <g id="Ellipse_230" data-name="Ellipse 230" transform="translate(127.746 701.746)" fill="none" stroke="#b8d7fc" stroke-width="1">
        <circle cx="93.5" cy="93.5" r="93.5" stroke="none"/>
        <circle cx="93.5" cy="93.5" r="93" fill="none"/>
      </g>
      <g id="Ellipse_231" data-name="Ellipse 231" transform="translate(131.746 705.746)" fill="none" stroke="#b8d7fc" stroke-width="1">
        <circle cx="89.5" cy="89.5" r="89.5" stroke="none"/>
        <circle cx="89.5" cy="89.5" r="89" fill="none"/>
      </g>
      <g id="Ellipse_232" data-name="Ellipse 232" transform="translate(134.746 708.746)" fill="none" stroke="#b8d7fc" stroke-width="1">
        <circle cx="86.5" cy="86.5" r="86.5" stroke="none"/>
        <circle cx="86.5" cy="86.5" r="86" fill="none"/>
      </g>
      <g id="Ellipse_233" data-name="Ellipse 233" transform="translate(137.746 711.746)" fill="none" stroke="#b8d7fc" stroke-width="1">
        <circle cx="83.5" cy="83.5" r="83.5" stroke="none"/>
        <circle cx="83.5" cy="83.5" r="83" fill="none"/>
      </g>
      <g id="Ellipse_234" data-name="Ellipse 234" transform="translate(137.746 711.746)" fill="none" stroke="#b8d7fc" stroke-width="1">
        <circle cx="83.5" cy="83.5" r="83.5" stroke="none"/>
        <circle cx="83.5" cy="83.5" r="83" fill="none"/>
      </g>
      <g id="Ellipse_235" data-name="Ellipse 235" transform="translate(141.746 715.746)" fill="none" stroke="#b8d7fc" stroke-width="1">
        <circle cx="79.5" cy="79.5" r="79.5" stroke="none"/>
        <circle cx="79.5" cy="79.5" r="79" fill="none"/>
      </g>
      <g id="Ellipse_236" data-name="Ellipse 236" transform="translate(144.746 718.746)" fill="none" stroke="#b8d7fc" stroke-width="1">
        <circle cx="76.5" cy="76.5" r="76.5" stroke="none"/>
        <circle cx="76.5" cy="76.5" r="76" fill="none"/>
      </g>
      <g id="Ellipse_237" data-name="Ellipse 237" transform="translate(147.746 721.746)" fill="none" stroke="#b8d7fc" stroke-width="1">
        <circle cx="73.5" cy="73.5" r="73.5" stroke="none"/>
        <circle cx="73.5" cy="73.5" r="73" fill="none"/>
      </g>
      <g id="Ellipse_238" data-name="Ellipse 238" transform="translate(151.746 725.746)" fill="none" stroke="#b8d7fc" stroke-width="1">
        <circle cx="69.5" cy="69.5" r="69.5" stroke="none"/>
        <circle cx="69.5" cy="69.5" r="69" fill="none"/>
      </g>
      <g id="Ellipse_239" data-name="Ellipse 239" transform="translate(154.746 728.746)" fill="none" stroke="#b8d7fc" stroke-width="1">
        <circle cx="66.5" cy="66.5" r="66.5" stroke="none"/>
        <circle cx="66.5" cy="66.5" r="66" fill="none"/>
      </g>
      <g id="Ellipse_240" data-name="Ellipse 240" transform="translate(157.746 731.746)" fill="none" stroke="#b8d7fc" stroke-width="1">
        <circle cx="63.5" cy="63.5" r="63.5" stroke="none"/>
        <circle cx="63.5" cy="63.5" r="63" fill="none"/>
      </g>
      <g id="Ellipse_241" data-name="Ellipse 241" transform="translate(157.746 731.746)" fill="none" stroke="#b8d7fc" stroke-width="1">
        <circle cx="63.5" cy="63.5" r="63.5" stroke="none"/>
        <circle cx="63.5" cy="63.5" r="63" fill="none"/>
      </g>
      <g id="Ellipse_242" data-name="Ellipse 242" transform="translate(161.746 735.746)" fill="none" stroke="#b8d7fc" stroke-width="1">
        <circle cx="59.5" cy="59.5" r="59.5" stroke="none"/>
        <circle cx="59.5" cy="59.5" r="59" fill="none"/>
      </g>
      <g id="Ellipse_243" data-name="Ellipse 243" transform="translate(164.746 738.746)" fill="none" stroke="#b8d7fc" stroke-width="1">
        <circle cx="56.5" cy="56.5" r="56.5" stroke="none"/>
        <circle cx="56.5" cy="56.5" r="56" fill="none"/>
      </g>
      <g id="Ellipse_244" data-name="Ellipse 244" transform="translate(167.746 741.746)" fill="none" stroke="#b8d7fc" stroke-width="1">
        <circle cx="53.5" cy="53.5" r="53.5" stroke="none"/>
        <circle cx="53.5" cy="53.5" r="53" fill="none"/>
      </g>
      <g id="Ellipse_245" data-name="Ellipse 245" transform="translate(171.746 745.746)" fill="none" stroke="#b8d7fc" stroke-width="1">
        <circle cx="49.5" cy="49.5" r="49.5" stroke="none"/>
        <circle cx="49.5" cy="49.5" r="49" fill="none"/>
      </g>
      <g id="Ellipse_246" data-name="Ellipse 246" transform="translate(174.746 748.746)" fill="none" stroke="#b8d7fc" stroke-width="1">
        <circle cx="46.5" cy="46.5" r="46.5" stroke="none"/>
        <circle cx="46.5" cy="46.5" r="46" fill="none"/>
      </g>
      <g id="Ellipse_247" data-name="Ellipse 247" transform="translate(177.746 751.746)" fill="none" stroke="#b8d7fc" stroke-width="1">
        <circle cx="43.5" cy="43.5" r="43.5" stroke="none"/>
        <circle cx="43.5" cy="43.5" r="43" fill="none"/>
      </g>
      <g id="Ellipse_248" data-name="Ellipse 248" transform="translate(181.746 755.746)" fill="none" stroke="#b8d7fc" stroke-width="1">
        <circle cx="39.5" cy="39.5" r="39.5" stroke="none"/>
        <circle cx="39.5" cy="39.5" r="39" fill="none"/>
      </g>
      <g id="Ellipse_249" data-name="Ellipse 249" transform="translate(184.746 758.746)" fill="none" stroke="#b8d7fc" stroke-width="1">
        <circle cx="36.5" cy="36.5" r="36.5" stroke="none"/>
        <circle cx="36.5" cy="36.5" r="36" fill="none"/>
      </g>
      <g id="Ellipse_250" data-name="Ellipse 250" transform="translate(187.746 761.746)" fill="none" stroke="#b8d7fc" stroke-width="1">
        <circle cx="33.5" cy="33.5" r="33.5" stroke="none"/>
        <circle cx="33.5" cy="33.5" r="33" fill="none"/>
      </g>
      <g id="Ellipse_251" data-name="Ellipse 251" transform="translate(191.746 765.746)" fill="none" stroke="#b8d7fc" stroke-width="1">
        <circle cx="29.5" cy="29.5" r="29.5" stroke="none"/>
        <circle cx="29.5" cy="29.5" r="29" fill="none"/>
      </g>
      <g id="Ellipse_252" data-name="Ellipse 252" transform="translate(194.746 768.746)" fill="none" stroke="#b8d7fc" stroke-width="1">
        <circle cx="26.5" cy="26.5" r="26.5" stroke="none"/>
        <circle cx="26.5" cy="26.5" r="26" fill="none"/>
      </g>
      <g id="Ellipse_253" data-name="Ellipse 253" transform="translate(197.746 771.746)" fill="none" stroke="#b8d7fc" stroke-width="1">
        <circle cx="23.5" cy="23.5" r="23.5" stroke="none"/>
        <circle cx="23.5" cy="23.5" r="23" fill="none"/>
      </g>
      <g id="Ellipse_254" data-name="Ellipse 254" transform="translate(200.746 774.746)" fill="none" stroke="#b8d7fc" stroke-width="1">
        <circle cx="20.5" cy="20.5" r="20.5" stroke="none"/>
        <circle cx="20.5" cy="20.5" r="20" fill="none"/>
      </g>
      <g id="Ellipse_255" data-name="Ellipse 255" transform="translate(204.746 778.746)" fill="none" stroke="#b8d7fc" stroke-width="1">
        <circle cx="16.5" cy="16.5" r="16.5" stroke="none"/>
        <circle cx="16.5" cy="16.5" r="16" fill="none"/>
      </g>
      <g id="Ellipse_256" data-name="Ellipse 256" transform="translate(207.746 781.746)" fill="none" stroke="#b8d7fc" stroke-width="1">
        <circle cx="13.5" cy="13.5" r="13.5" stroke="none"/>
        <circle cx="13.5" cy="13.5" r="13" fill="none"/>
      </g>
      <g id="Ellipse_257" data-name="Ellipse 257" transform="translate(210.746 784.746)" fill="none" stroke="#b8d7fc" stroke-width="1">
        <circle cx="10.5" cy="10.5" r="10.5" stroke="none"/>
        <circle cx="10.5" cy="10.5" r="10" fill="none"/>
      </g>
      <g id="Ellipse_258" data-name="Ellipse 258" transform="translate(214.746 788.746)" fill="none" stroke="#b8d7fc" stroke-width="1">
        <circle cx="6.5" cy="6.5" r="6.5" stroke="none"/>
        <circle cx="6.5" cy="6.5" r="6" fill="none"/>
      </g>
      <g id="Ellipse_259" data-name="Ellipse 259" transform="translate(217.746 791.746)" fill="none" stroke="#b8d7fc" stroke-width="1">
        <circle cx="3.5" cy="3.5" r="3.5" stroke="none"/>
        <circle cx="3.5" cy="3.5" r="3" fill="none"/>
      </g>
    </g>
  </g>
</svg>
