<svg xmlns="http://www.w3.org/2000/svg" width="105" height="99" viewBox="0 0 105 99">
  <g id="Group_25615" data-name="Group 25615" transform="translate(-1074 -1514)">
    <path id="Rectangle_270" data-name="Rectangle 270" d="M20,0H85a20,20,0,0,1,20,20V99a0,0,0,0,1,0,0H20A20,20,0,0,1,0,79V20A20,20,0,0,1,20,0Z" transform="translate(1074 1514)" fill="#fade9d"/>
    <g id="noun_global_3135951" transform="translate(1077.273 1536.273)">
      <g id="Group_131" data-name="Group 131" transform="translate(23.3 1)">
        <g id="Group_130" data-name="Group 130">
          <path id="Path_1500" data-name="Path 1500" d="M55.377,13.382s-.582.582,0,2.576,1.5,2.41,4.321,1.33c1.163-.5,2.077-.249,1.994,1-.249,2.576-2.327,2.41-.748,6.565.914,2.493,3.158,3.49,3.989,5.4a5.072,5.072,0,0,0,2.077,1.828,17.559,17.559,0,0,0,.748-5.152A18.463,18.463,0,0,0,55.543,9.559a2.848,2.848,0,0,1-1.163,1.246A1.41,1.41,0,0,0,55.377,13.382Zm6.4,18.365a1.321,1.321,0,0,0-.083,2.161c.665.582,1.994,1.33,2.41,0S62.606,31.248,61.775,31.747ZM46.9,29c-3.075,0-4.9.665-4.155,4.82s2.992,2.244,2.825,5.485c-.249,3.158.582,3.906,1.08,4.654.249.415.831,1.33,1.413,1.413h.249c.332-.083.665-.5.831-1.579a14.359,14.359,0,0,1,2.825-6.4c1.163-1.5,2.493-3.49.083-5.568C49.643,29.919,49.975,29,46.9,29Zm2.327,23.85A25.927,25.927,0,1,0,23.3,26.927,25.96,25.96,0,0,0,49.227,52.854Zm0-48.115A22.188,22.188,0,1,1,27.039,26.927,22.183,22.183,0,0,1,49.227,4.739ZM33.106,24.683s1.08,2.41,7.4,5.4c0,0,1.163.083-.249-1.33s-2.992-3.075-1.163-3.989c1.745-.914,2.244-.831,2.659.831s1.828.665,1.994-.914,2.742-3.241,4.487-3.989,3.407-1,3.158-2.327-.665-2.244-3.49-2.244c-2.742,0-1.579,3.573-3.823,1.413s.5-1.579,1.662-2.077,2.244-2.493.249-2.659-1.579.831-3.075.249c-1.579-.582-2.244,1.911-3.241,1.579a9.818,9.818,0,0,1-2.493-1.745,18.435,18.435,0,0,0-5.817,9.058A9.444,9.444,0,0,0,33.106,24.683Z" transform="translate(-23.3 -1)" fill="#fff"/>
        </g>
      </g>
    </g>
  </g>
</svg>
