<svg xmlns="http://www.w3.org/2000/svg" width="174.011" height="48" viewBox="0 0 174.011 48">
  <g id="Group_25611" data-name="Group 25611" transform="translate(-376.989 -876)">
    <text id="Download_on_the" data-name="Download on the" transform="translate(427 891)" fill="#fff" font-size="15" font-family="AvenirNext-Medium, Avenir Next" font-weight="500" letter-spacing="0.022em"><tspan x="0" y="0">Download on the</tspan></text>
    <text id="App_Store" data-name="App Store" transform="translate(427 915)" fill="#fff" font-size="25" font-family="AvenirNext-DemiBold, Avenir Next" font-weight="300" letter-spacing="0.022em"><tspan x="0" y="0">App Store</tspan></text>
    <g id="apple" transform="translate(330.967 877)">
      <path id="Path_1489" data-name="Path 1489" d="M58.089,152.109c-6.6-.038-12.067-13.519-12.067-20.385,0-11.215,8.413-13.671,11.656-13.671a13.412,13.412,0,0,1,4.4,1.082,9.83,9.83,0,0,0,2.511.72,7.815,7.815,0,0,0,1.8-.584,14.438,14.438,0,0,1,5.43-1.313h.013a11.129,11.129,0,0,1,9.313,4.7l.679,1.021-.978.738c-1.4,1.054-3.945,2.976-3.945,6.783a7.656,7.656,0,0,0,4.272,7.078c.612.368,1.245.748,1.245,1.578,0,.542-4.327,12.183-10.61,12.183a8.532,8.532,0,0,1-3.583-.87,7.265,7.265,0,0,0-3.189-.768,8.2,8.2,0,0,0-2.525.683,12.369,12.369,0,0,1-4.38,1.022Z" transform="translate(0 -107.735)" fill="#fff"/>
      <path id="Path_1490" data-name="Path 1490" d="M263.491,0c.164,5.9-4.056,9.993-8.27,9.736C254.526,5.028,259.435,0,263.491,0Z" transform="translate(-191.007)" fill="#fff"/>
    </g>
  </g>
</svg>
