<svg xmlns="http://www.w3.org/2000/svg" xmlns:xlink="http://www.w3.org/1999/xlink" width="979.744" height="853.937" viewBox="0 0 979.744 853.937">
  <defs>
    <linearGradient id="linear-gradient" x1="1.669" y1="2.161" x2="2.277" y2="1.182" gradientUnits="objectBoundingBox">
      <stop offset="0.14" stop-color="#eee"/>
      <stop offset="0.14" stop-color="#ccc"/>
      <stop offset="0.36" stop-color="#ccc"/>
      <stop offset="0.36" stop-color="#999"/>
      <stop offset="0.44" stop-color="#999"/>
      <stop offset="0.44" stop-color="#eee"/>
      <stop offset="0.75" stop-color="#eee"/>
      <stop offset="0.75" stop-color="#ccc"/>
      <stop offset="0.95" stop-color="#ccc"/>
      <stop offset="0.96" stop-color="#eee"/>
    </linearGradient>
    <linearGradient id="linear-gradient-2" x1="2.354" y1="1.541" x2="2.962" y2="0.561" xlink:href="#linear-gradient"/>
    <linearGradient id="linear-gradient-3" x1="0.627" y1="2.072" x2="1.235" y2="1.093" xlink:href="#linear-gradient"/>
  </defs>
  <g id="Group_25624" data-name="Group 25624" transform="translate(-918.566 -3375.878)">
    <g id="Group_25622" data-name="Group 25622">
      <path id="Path_210" data-name="Path 210" d="M3296.813-454h245" transform="translate(-1292 1908.914) rotate(34)" fill="none" stroke="#fff" stroke-width="0.5"/>
      <path id="Path_210-2" data-name="Path 210" d="M3296.813-454h245" transform="translate(-1293.118 1910.572) rotate(34)" fill="none" stroke="#fff" stroke-width="0.5"/>
      <path id="Path_210-3" data-name="Path 210" d="M3296.813-454h245" transform="translate(-1294.236 1912.23) rotate(34)" fill="none" stroke="#fff" stroke-width="0.5"/>
      <path id="Path_210-4" data-name="Path 210" d="M3296.813-454h245" transform="translate(-1295.355 1913.888) rotate(34)" fill="none" stroke="#fff" stroke-width="0.5"/>
      <path id="Path_210-5" data-name="Path 210" d="M3296.813-454h245" transform="translate(-1296.473 1915.546) rotate(34)" fill="none" stroke="#fff" stroke-width="0.5"/>
      <path id="Path_210-6" data-name="Path 210" d="M3296.813-454h245" transform="translate(-1297.591 1917.204) rotate(34)" fill="none" stroke="#fff" stroke-width="0.5"/>
      <path id="Path_210-7" data-name="Path 210" d="M3296.813-454h245" transform="translate(-1298.71 1918.862) rotate(34)" fill="none" stroke="#fff" stroke-width="0.5"/>
      <path id="Path_210-8" data-name="Path 210" d="M3296.813-454h245" transform="translate(-1299.828 1920.52) rotate(34)" fill="none" stroke="#fff" stroke-width="0.5"/>
      <path id="Path_210-9" data-name="Path 210" d="M3296.813-454h245" transform="translate(-1300.947 1922.178) rotate(34)" fill="none" stroke="#fff" stroke-width="0.5"/>
      <path id="Path_210-10" data-name="Path 210" d="M3296.813-454h245" transform="translate(-1302.065 1923.836) rotate(34)" fill="none" stroke="#fff" stroke-width="0.5"/>
      <path id="Path_210-11" data-name="Path 210" d="M3296.813-454h245" transform="translate(-1303.183 1925.495) rotate(34)" fill="none" stroke="#fff" stroke-width="0.5"/>
      <path id="Path_210-12" data-name="Path 210" d="M3296.813-454h245" transform="translate(-1304.302 1927.153) rotate(34)" fill="none" stroke="#fff" stroke-width="0.5"/>
      <path id="Path_210-13" data-name="Path 210" d="M3296.813-454h245" transform="translate(-1305.42 1928.811) rotate(34)" fill="none" stroke="#fff" stroke-width="0.5"/>
      <path id="Path_210-14" data-name="Path 210" d="M3296.813-454h245" transform="translate(-1306.538 1930.469) rotate(34)" fill="none" stroke="#fff" stroke-width="0.5"/>
      <path id="Path_210-15" data-name="Path 210" d="M3296.813-454h245" transform="translate(-1307.657 1932.127) rotate(34)" fill="none" stroke="#fff" stroke-width="0.5"/>
      <path id="Path_210-16" data-name="Path 210" d="M3296.813-454h245" transform="translate(-1308.775 1933.785) rotate(34)" fill="none" stroke="#fff" stroke-width="0.5"/>
      <path id="Path_210-17" data-name="Path 210" d="M3296.813-454h245" transform="translate(-1309.894 1935.443) rotate(34)" fill="none" stroke="#fff" stroke-width="0.5"/>
      <path id="Path_210-18" data-name="Path 210" d="M3296.813-454h245" transform="translate(-1311.012 1937.101) rotate(34)" fill="none" stroke="#fff" stroke-width="0.5"/>
      <path id="Path_210-19" data-name="Path 210" d="M3296.813-454h245" transform="translate(-1312.13 1938.759) rotate(34)" fill="none" stroke="#fff" stroke-width="0.5"/>
      <path id="Path_210-20" data-name="Path 210" d="M3296.813-454h245" transform="translate(-1313.249 1940.417) rotate(34)" fill="none" stroke="#fff" stroke-width="0.5"/>
      <path id="Path_210-21" data-name="Path 210" d="M3296.813-454h245" transform="translate(-1314.367 1942.075) rotate(34)" fill="none" stroke="#fff" stroke-width="0.5"/>
      <path id="Path_210-22" data-name="Path 210" d="M3296.813-454h245" transform="translate(-1315.486 1943.733) rotate(34)" fill="none" stroke="#fff" stroke-width="0.5"/>
      <path id="Path_210-23" data-name="Path 210" d="M3296.813-454h245" transform="translate(-1316.604 1945.391) rotate(34)" fill="none" stroke="#fff" stroke-width="0.5"/>
      <path id="Path_210-24" data-name="Path 210" d="M3296.813-454h245" transform="translate(-1317.722 1947.049) rotate(34)" fill="none" stroke="#fff" stroke-width="0.5"/>
      <path id="Path_210-25" data-name="Path 210" d="M3296.813-454h245" transform="translate(-1318.841 1948.708) rotate(34)" fill="none" stroke="#fff" stroke-width="0.5"/>
      <path id="Path_210-26" data-name="Path 210" d="M3296.813-454h245" transform="translate(-1319.959 1950.366) rotate(34)" fill="none" stroke="#fff" stroke-width="0.5"/>
      <path id="Path_210-27" data-name="Path 210" d="M3296.813-454h245" transform="translate(-1321.078 1952.024) rotate(34)" fill="none" stroke="#fff" stroke-width="0.5"/>
      <path id="Path_210-28" data-name="Path 210" d="M3296.813-454h245" transform="translate(-1322.196 1953.682) rotate(34)" fill="none" stroke="#fff" stroke-width="0.5"/>
      <path id="Path_210-29" data-name="Path 210" d="M3296.813-454h245" transform="translate(-1323.314 1955.34) rotate(34)" fill="none" stroke="#fff" stroke-width="0.5"/>
      <path id="Path_210-30" data-name="Path 210" d="M3296.813-454h245" transform="translate(-1324.433 1956.998) rotate(34)" fill="none" stroke="#fff" stroke-width="0.5"/>
      <path id="Path_210-31" data-name="Path 210" d="M3296.813-454h245" transform="translate(-1325.551 1958.656) rotate(34)" fill="none" stroke="#fff" stroke-width="0.5"/>
      <path id="Path_210-32" data-name="Path 210" d="M3296.813-454h245" transform="translate(-1326.669 1960.314) rotate(34)" fill="none" stroke="#fff" stroke-width="0.5"/>
      <path id="Path_210-33" data-name="Path 210" d="M3296.813-454h245" transform="translate(-1327.788 1961.972) rotate(34)" fill="none" stroke="#fff" stroke-width="0.5"/>
      <path id="Path_210-34" data-name="Path 210" d="M3296.813-454h245" transform="translate(-1328.906 1963.63) rotate(34)" fill="none" stroke="#fff" stroke-width="0.5"/>
      <path id="Path_210-35" data-name="Path 210" d="M3296.813-454h245" transform="translate(-1330.025 1965.288) rotate(34)" fill="none" stroke="#fff" stroke-width="0.5"/>
      <path id="Path_210-36" data-name="Path 210" d="M3296.813-454h245" transform="translate(-1331.143 1966.946) rotate(34)" fill="none" stroke="#fff" stroke-width="0.5"/>
      <path id="Path_210-37" data-name="Path 210" d="M3296.813-454h245" transform="translate(-1332.261 1968.604) rotate(34)" fill="none" stroke="#fff" stroke-width="0.5"/>
      <path id="Path_210-38" data-name="Path 210" d="M3296.813-454h245" transform="translate(-1333.38 1970.262) rotate(34)" fill="none" stroke="#fff" stroke-width="0.5"/>
      <path id="Path_210-39" data-name="Path 210" d="M3296.813-454h245" transform="translate(-1334.498 1971.921) rotate(34)" fill="none" stroke="#fff" stroke-width="0.5"/>
      <path id="Path_210-40" data-name="Path 210" d="M3296.813-454h245" transform="translate(-1335.616 1973.579) rotate(34)" fill="none" stroke="#fff" stroke-width="0.5"/>
      <path id="Path_210-41" data-name="Path 210" d="M3296.813-454h245" transform="translate(-1336.735 1975.237) rotate(34)" fill="none" stroke="#fff" stroke-width="0.5"/>
      <path id="Path_210-42" data-name="Path 210" d="M3296.813-454h245" transform="translate(-1337.853 1976.895) rotate(34)" fill="none" stroke="#fff" stroke-width="0.5"/>
      <path id="Path_210-43" data-name="Path 210" d="M3296.813-454h245" transform="translate(-1338.972 1978.553) rotate(34)" fill="none" stroke="#fff" stroke-width="0.5"/>
      <path id="Path_210-44" data-name="Path 210" d="M3296.813-454h245" transform="translate(-1340.09 1980.211) rotate(34)" fill="none" stroke="#fff" stroke-width="0.5"/>
      <path id="Path_210-45" data-name="Path 210" d="M3296.813-454h245" transform="translate(-1341.208 1981.869) rotate(34)" fill="none" stroke="#fff" stroke-width="0.5"/>
      <path id="Path_210-46" data-name="Path 210" d="M3296.813-454h245" transform="translate(-1342.327 1983.527) rotate(34)" fill="none" stroke="#fff" stroke-width="0.5"/>
      <path id="Path_210-47" data-name="Path 210" d="M3296.813-454h245" transform="translate(-1343.445 1985.185) rotate(34)" fill="none" stroke="#fff" stroke-width="0.5"/>
      <path id="Path_210-48" data-name="Path 210" d="M3296.813-454h245" transform="translate(-1344.564 1986.843) rotate(34)" fill="none" stroke="#fff" stroke-width="0.5"/>
      <path id="Path_210-49" data-name="Path 210" d="M3296.813-454h245" transform="translate(-1345.682 1988.501) rotate(34)" fill="none" stroke="#fff" stroke-width="0.5"/>
      <path id="Path_210-50" data-name="Path 210" d="M3296.813-454h245" transform="translate(-1346.8 1990.159) rotate(34)" fill="none" stroke="#fff" stroke-width="0.5"/>
      <path id="Path_210-51" data-name="Path 210" d="M3296.813-454h245" transform="translate(-1347.919 1991.818) rotate(34)" fill="none" stroke="#fff" stroke-width="0.5"/>
      <path id="Path_210-52" data-name="Path 210" d="M3296.813-454h245" transform="translate(-1349.037 1993.476) rotate(34)" fill="none" stroke="#fff" stroke-width="0.5"/>
      <path id="Path_210-53" data-name="Path 210" d="M3296.813-454h245" transform="translate(-1350.156 1995.134) rotate(34)" fill="none" stroke="#fff" stroke-width="0.5"/>
      <path id="Path_210-54" data-name="Path 210" d="M3296.813-454h245" transform="translate(-1351.274 1996.792) rotate(34)" fill="none" stroke="#fff" stroke-width="0.5"/>
      <path id="Path_210-55" data-name="Path 210" d="M3296.813-454h245" transform="translate(-1352.392 1998.45) rotate(34)" fill="none" stroke="#fff" stroke-width="0.5"/>
      <path id="Path_210-56" data-name="Path 210" d="M3296.813-454h245" transform="translate(-1353.511 2000.108) rotate(34)" fill="none" stroke="#fff" stroke-width="0.5"/>
      <path id="Path_210-57" data-name="Path 210" d="M3296.813-454h245" transform="translate(-1354.629 2001.766) rotate(34)" fill="none" stroke="#fff" stroke-width="0.5"/>
      <path id="Path_210-58" data-name="Path 210" d="M3296.813-454h245" transform="translate(-1355.747 2003.424) rotate(34)" fill="none" stroke="#fff" stroke-width="0.5"/>
      <path id="Path_210-59" data-name="Path 210" d="M3296.813-454h245" transform="translate(-1356.866 2005.082) rotate(34)" fill="none" stroke="#fff" stroke-width="0.5"/>
      <path id="Path_210-60" data-name="Path 210" d="M3296.813-454h245" transform="translate(-1357.984 2006.74) rotate(34)" fill="none" stroke="#fff" stroke-width="0.5"/>
      <path id="Path_210-61" data-name="Path 210" d="M3296.813-454h245" transform="translate(-1359.103 2008.398) rotate(34)" fill="none" stroke="#fff" stroke-width="0.5"/>
      <path id="Path_210-62" data-name="Path 210" d="M3296.813-454h245" transform="translate(-1360.221 2010.056) rotate(34)" fill="none" stroke="#fff" stroke-width="0.5"/>
      <path id="Path_210-63" data-name="Path 210" d="M3296.813-454h245" transform="translate(-1361.339 2011.714) rotate(34)" fill="none" stroke="#fff" stroke-width="0.5"/>
      <path id="Path_210-64" data-name="Path 210" d="M3296.813-454h245" transform="translate(-1362.458 2013.372) rotate(34)" fill="none" stroke="#fff" stroke-width="0.5"/>
      <path id="Path_210-65" data-name="Path 210" d="M3296.813-454h245" transform="translate(-1363.576 2015.031) rotate(34)" fill="none" stroke="#fff" stroke-width="0.5"/>
      <path id="Path_210-66" data-name="Path 210" d="M3296.813-454h245" transform="translate(-1364.695 2016.689) rotate(34)" fill="none" stroke="#fff" stroke-width="0.5"/>
      <path id="Path_210-67" data-name="Path 210" d="M3296.813-454h245" transform="translate(-1365.813 2018.347) rotate(34)" fill="none" stroke="#fff" stroke-width="0.5"/>
      <path id="Path_210-68" data-name="Path 210" d="M3296.813-454h245" transform="translate(-1366.931 2020.005) rotate(34)" fill="none" stroke="#fff" stroke-width="0.5"/>
      <path id="Path_210-69" data-name="Path 210" d="M3296.813-454h245" transform="translate(-1368.05 2021.663) rotate(34)" fill="none" stroke="#fff" stroke-width="0.5"/>
      <path id="Path_210-70" data-name="Path 210" d="M3296.813-454h245" transform="translate(-1369.168 2023.321) rotate(34)" fill="none" stroke="#fff" stroke-width="0.5"/>
      <path id="Path_210-71" data-name="Path 210" d="M3296.813-454h245" transform="translate(-1370.286 2024.979) rotate(34)" fill="none" stroke="#fff" stroke-width="0.5"/>
      <path id="Path_210-72" data-name="Path 210" d="M3296.813-454h245" transform="translate(-1371.405 2026.637) rotate(34)" fill="none" stroke="#fff" stroke-width="0.5"/>
      <path id="Path_210-73" data-name="Path 210" d="M3296.813-454h245" transform="translate(-1372.523 2028.295) rotate(34)" fill="none" stroke="#fff" stroke-width="0.5"/>
      <path id="Path_210-74" data-name="Path 210" d="M3296.813-454h245" transform="translate(-1373.642 2029.953) rotate(34)" fill="none" stroke="#fff" stroke-width="0.5"/>
      <path id="Path_210-75" data-name="Path 210" d="M3296.813-454h245" transform="translate(-1374.76 2031.611) rotate(34)" fill="none" stroke="#fff" stroke-width="0.5"/>
      <path id="Path_210-76" data-name="Path 210" d="M3296.813-454h245" transform="translate(-1375.878 2033.269) rotate(34)" fill="none" stroke="#fff" stroke-width="0.5"/>
      <path id="Path_210-77" data-name="Path 210" d="M3296.813-454h245" transform="translate(-1376.997 2034.927) rotate(34)" fill="none" stroke="#fff" stroke-width="0.5"/>
      <path id="Path_210-78" data-name="Path 210" d="M3296.813-454h245" transform="translate(-1378.115 2036.586) rotate(34)" fill="none" stroke="#fff" stroke-width="0.5"/>
      <path id="Path_210-79" data-name="Path 210" d="M3296.813-454h245" transform="translate(-1379.234 2038.244) rotate(34)" fill="none" stroke="#fff" stroke-width="0.5"/>
      <path id="Path_210-80" data-name="Path 210" d="M3296.813-454h245" transform="translate(-1380.352 2039.902) rotate(34)" fill="none" stroke="#fff" stroke-width="0.5"/>
      <path id="Path_210-81" data-name="Path 210" d="M3296.813-454h245" transform="translate(-1381.47 2041.56) rotate(34)" fill="none" stroke="#fff" stroke-width="0.5"/>
      <path id="Path_210-82" data-name="Path 210" d="M3296.813-454h245" transform="translate(-1382.589 2043.218) rotate(34)" fill="none" stroke="#fff" stroke-width="0.5"/>
      <path id="Path_210-83" data-name="Path 210" d="M3296.813-454h245" transform="translate(-1383.707 2044.876) rotate(34)" fill="none" stroke="#fff" stroke-width="0.5"/>
      <path id="Path_210-84" data-name="Path 210" d="M3296.813-454h245" transform="translate(-1384.825 2046.534) rotate(34)" fill="none" stroke="#fff" stroke-width="0.5"/>
      <path id="Path_210-85" data-name="Path 210" d="M3296.813-454h245" transform="translate(-1385.944 2048.192) rotate(34)" fill="none" stroke="#fff" stroke-width="0.5"/>
      <path id="Path_210-86" data-name="Path 210" d="M3296.813-454h245" transform="translate(-1387.062 2049.85) rotate(34)" fill="none" stroke="#fff" stroke-width="0.5"/>
      <path id="Path_210-87" data-name="Path 210" d="M3296.813-454h245" transform="translate(-1388.181 2051.508) rotate(34)" fill="none" stroke="#fff" stroke-width="0.5"/>
      <path id="Path_210-88" data-name="Path 210" d="M3296.813-454h245" transform="translate(-1389.299 2053.166) rotate(34)" fill="none" stroke="#fff" stroke-width="0.5"/>
      <path id="Path_210-89" data-name="Path 210" d="M3296.813-454h245" transform="translate(-1390.417 2054.824) rotate(34)" fill="none" stroke="#fff" stroke-width="0.5"/>
      <path id="Path_210-90" data-name="Path 210" d="M3296.813-454h245" transform="translate(-1391.536 2056.482) rotate(34)" fill="none" stroke="#fff" stroke-width="0.5"/>
      <path id="Path_210-91" data-name="Path 210" d="M3296.813-454h245" transform="translate(-1392.654 2058.14) rotate(34)" fill="none" stroke="#fff" stroke-width="0.5"/>
      <path id="Path_210-92" data-name="Path 210" d="M3296.813-454h245" transform="translate(-1393.773 2059.799) rotate(34)" fill="none" stroke="#fff" stroke-width="0.5"/>
      <path id="Path_210-93" data-name="Path 210" d="M3296.813-454h245" transform="translate(-1394.891 2061.457) rotate(34)" fill="none" stroke="#fff" stroke-width="0.5"/>
      <path id="Path_210-94" data-name="Path 210" d="M3296.813-454h245" transform="translate(-1396.009 2063.115) rotate(34)" fill="none" stroke="#fff" stroke-width="0.5"/>
      <path id="Path_210-95" data-name="Path 210" d="M3296.813-454h245" transform="translate(-1397.128 2064.773) rotate(34)" fill="none" stroke="#fff" stroke-width="0.5"/>
      <path id="Path_210-96" data-name="Path 210" d="M3296.813-454h245" transform="translate(-1398.246 2066.431) rotate(34)" fill="none" stroke="#fff" stroke-width="0.5"/>
      <path id="Path_210-97" data-name="Path 210" d="M3296.813-454h245" transform="translate(-1399.365 2068.089) rotate(34)" fill="none" stroke="#fff" stroke-width="0.5"/>
      <path id="Path_210-98" data-name="Path 210" d="M3296.813-454h245" transform="translate(-1400.483 2069.747) rotate(34)" fill="none" stroke="#fff" stroke-width="0.5"/>
      <path id="Path_210-99" data-name="Path 210" d="M3296.813-454h245" transform="translate(-1401.601 2071.405) rotate(34)" fill="none" stroke="#fff" stroke-width="0.5"/>
      <path id="Path_210-100" data-name="Path 210" d="M3296.813-454h245" transform="translate(-1402.72 2073.063) rotate(34)" fill="none" stroke="#fff" stroke-width="0.5"/>
      <path id="Path_210-101" data-name="Path 210" d="M3296.813-454h245" transform="translate(-1403.838 2074.721) rotate(34)" fill="none" stroke="#fff" stroke-width="0.5"/>
      <path id="Path_210-102" data-name="Path 210" d="M3296.813-454h245" transform="translate(-1404.956 2076.379) rotate(34)" fill="none" stroke="#fff" stroke-width="0.5"/>
      <path id="Path_210-103" data-name="Path 210" d="M3296.813-454h245" transform="translate(-1406.075 2078.037) rotate(34)" fill="none" stroke="#fff" stroke-width="0.5"/>
      <path id="Path_210-104" data-name="Path 210" d="M3296.813-454h245" transform="translate(-1407.193 2079.696) rotate(34)" fill="none" stroke="#fff" stroke-width="0.5"/>
      <path id="Path_210-105" data-name="Path 210" d="M3296.813-454h245" transform="translate(-1408.312 2081.354) rotate(34)" fill="none" stroke="#fff" stroke-width="0.5"/>
      <path id="Path_210-106" data-name="Path 210" d="M3296.813-454h245" transform="translate(-1409.43 2083.012) rotate(34)" fill="none" stroke="#fff" stroke-width="0.5"/>
      <path id="Path_210-107" data-name="Path 210" d="M3296.813-454h245" transform="translate(-1410.548 2084.67) rotate(34)" fill="none" stroke="#fff" stroke-width="0.5"/>
      <path id="Path_210-108" data-name="Path 210" d="M3296.813-454h245" transform="translate(-1411.667 2086.328) rotate(34)" fill="none" stroke="#fff" stroke-width="0.5"/>
      <path id="Path_210-109" data-name="Path 210" d="M3296.813-454h245" transform="translate(-1412.785 2087.986) rotate(34)" fill="none" stroke="#fff" stroke-width="0.5"/>
      <path id="Path_210-110" data-name="Path 210" d="M3296.813-454h245" transform="translate(-1413.904 2089.644) rotate(34)" fill="none" stroke="#fff" stroke-width="0.5"/>
      <path id="Path_210-111" data-name="Path 210" d="M3296.813-454h245" transform="translate(-1415.022 2091.302) rotate(34)" fill="none" stroke="#fff" stroke-width="0.5"/>
      <path id="Path_210-112" data-name="Path 210" d="M3296.813-454h245" transform="translate(-1416.14 2092.96) rotate(34)" fill="none" stroke="#fff" stroke-width="0.5"/>
      <path id="Path_210-113" data-name="Path 210" d="M3296.813-454h245" transform="translate(-1417.259 2094.618) rotate(34)" fill="none" stroke="#fff" stroke-width="0.5"/>
      <path id="Path_210-114" data-name="Path 210" d="M3296.813-454h245" transform="translate(-1418.377 2096.276) rotate(34)" fill="none" stroke="#fff" stroke-width="0.5"/>
      <path id="Path_210-115" data-name="Path 210" d="M3296.813-454h245" transform="translate(-1419.495 2097.934) rotate(34)" fill="none" stroke="#fff" stroke-width="0.5"/>
      <path id="Path_210-116" data-name="Path 210" d="M3296.813-454h245" transform="translate(-1420.614 2099.592) rotate(34)" fill="none" stroke="#fff" stroke-width="0.5"/>
      <path id="Path_210-117" data-name="Path 210" d="M3296.813-454h245" transform="translate(-1421.732 2101.25) rotate(34)" fill="none" stroke="#fff" stroke-width="0.5"/>
    </g>
    <g id="Group_25621" data-name="Group 25621">
      <path id="Path_210-118" data-name="Path 210" d="M3296.813-454h246.521" transform="translate(-369.629 1272.073) rotate(60)" fill="none" stroke="#fff" stroke-width="0.5"/>
      <path id="Path_210-119" data-name="Path 210" d="M3296.813-454h246.521" transform="translate(-371.361 1273.073) rotate(60)" fill="none" stroke="#fff" stroke-width="0.5"/>
      <path id="Path_210-120" data-name="Path 210" d="M3296.813-454h246.521" transform="translate(-373.093 1274.073) rotate(60)" fill="none" stroke="#fff" stroke-width="0.5"/>
      <path id="Path_210-121" data-name="Path 210" d="M3296.813-454h246.521" transform="translate(-374.825 1275.073) rotate(60)" fill="none" stroke="#fff" stroke-width="0.5"/>
      <path id="Path_210-122" data-name="Path 210" d="M3296.813-454h246.521" transform="translate(-376.557 1276.073) rotate(60)" fill="none" stroke="#fff" stroke-width="0.5"/>
      <path id="Path_210-123" data-name="Path 210" d="M3296.813-454h246.521" transform="translate(-378.289 1277.073) rotate(60)" fill="none" stroke="#fff" stroke-width="0.5"/>
      <path id="Path_210-124" data-name="Path 210" d="M3296.813-454h246.521" transform="translate(-380.021 1278.073) rotate(60)" fill="none" stroke="#fff" stroke-width="0.5"/>
      <path id="Path_210-125" data-name="Path 210" d="M3296.813-454h246.521" transform="translate(-381.753 1279.073) rotate(60)" fill="none" stroke="#fff" stroke-width="0.5"/>
      <path id="Path_210-126" data-name="Path 210" d="M3296.813-454h246.521" transform="translate(-383.485 1280.073) rotate(60)" fill="none" stroke="#fff" stroke-width="0.5"/>
      <path id="Path_210-127" data-name="Path 210" d="M3296.813-454h246.521" transform="translate(-385.217 1281.073) rotate(60)" fill="none" stroke="#fff" stroke-width="0.5"/>
      <path id="Path_210-128" data-name="Path 210" d="M3296.813-454h246.521" transform="translate(-386.949 1282.073) rotate(60)" fill="none" stroke="#fff" stroke-width="0.5"/>
      <path id="Path_210-129" data-name="Path 210" d="M3296.813-454h246.521" transform="translate(-388.681 1283.073) rotate(60)" fill="none" stroke="#fff" stroke-width="0.5"/>
      <path id="Path_210-130" data-name="Path 210" d="M3296.813-454h246.521" transform="translate(-390.413 1284.073) rotate(60)" fill="none" stroke="#fff" stroke-width="0.5"/>
      <path id="Path_210-131" data-name="Path 210" d="M3296.813-454h246.521" transform="translate(-392.145 1285.073) rotate(60)" fill="none" stroke="#fff" stroke-width="0.5"/>
      <path id="Path_210-132" data-name="Path 210" d="M3296.813-454h246.521" transform="translate(-393.877 1286.073) rotate(60)" fill="none" stroke="#fff" stroke-width="0.5"/>
      <path id="Path_210-133" data-name="Path 210" d="M3296.813-454h246.521" transform="translate(-395.609 1287.073) rotate(60)" fill="none" stroke="#fff" stroke-width="0.5"/>
      <path id="Path_210-134" data-name="Path 210" d="M3296.813-454h246.521" transform="translate(-397.341 1288.073) rotate(60)" fill="none" stroke="#fff" stroke-width="0.5"/>
      <path id="Path_210-135" data-name="Path 210" d="M3296.813-454h246.521" transform="translate(-399.073 1289.073) rotate(60)" fill="none" stroke="#fff" stroke-width="0.5"/>
      <path id="Path_210-136" data-name="Path 210" d="M3296.813-454h246.521" transform="translate(-400.806 1290.073) rotate(60)" fill="none" stroke="#fff" stroke-width="0.5"/>
      <path id="Path_210-137" data-name="Path 210" d="M3296.813-454h246.521" transform="translate(-402.538 1291.073) rotate(60)" fill="none" stroke="#fff" stroke-width="0.5"/>
      <path id="Path_210-138" data-name="Path 210" d="M3296.813-454h246.521" transform="translate(-404.27 1292.073) rotate(60)" fill="none" stroke="#fff" stroke-width="0.5"/>
      <path id="Path_210-139" data-name="Path 210" d="M3296.813-454h246.521" transform="translate(-406.002 1293.073) rotate(60)" fill="none" stroke="#fff" stroke-width="0.5"/>
      <path id="Path_210-140" data-name="Path 210" d="M3296.813-454h246.521" transform="translate(-407.734 1294.073) rotate(60)" fill="none" stroke="#fff" stroke-width="0.5"/>
      <path id="Path_210-141" data-name="Path 210" d="M3296.813-454h246.521" transform="translate(-409.466 1295.073) rotate(60)" fill="none" stroke="#fff" stroke-width="0.5"/>
      <path id="Path_210-142" data-name="Path 210" d="M3296.813-454h246.521" transform="translate(-411.198 1296.073) rotate(60)" fill="none" stroke="#fff" stroke-width="0.5"/>
      <path id="Path_210-143" data-name="Path 210" d="M3296.813-454h246.521" transform="translate(-412.93 1297.073) rotate(60)" fill="none" stroke="#fff" stroke-width="0.5"/>
      <path id="Path_210-144" data-name="Path 210" d="M3296.813-454h246.521" transform="translate(-414.662 1298.073) rotate(60)" fill="none" stroke="#fff" stroke-width="0.5"/>
      <path id="Path_210-145" data-name="Path 210" d="M3296.813-454h246.521" transform="translate(-416.394 1299.073) rotate(60)" fill="none" stroke="#fff" stroke-width="0.5"/>
      <path id="Path_210-146" data-name="Path 210" d="M3296.813-454h246.521" transform="translate(-418.126 1300.073) rotate(60)" fill="none" stroke="#fff" stroke-width="0.5"/>
      <path id="Path_210-147" data-name="Path 210" d="M3296.813-454h246.521" transform="translate(-419.858 1301.073) rotate(60)" fill="none" stroke="#fff" stroke-width="0.5"/>
      <path id="Path_210-148" data-name="Path 210" d="M3296.813-454h246.521" transform="translate(-421.59 1302.073) rotate(60)" fill="none" stroke="#fff" stroke-width="0.5"/>
      <path id="Path_210-149" data-name="Path 210" d="M3296.813-454h246.521" transform="translate(-423.322 1303.073) rotate(60)" fill="none" stroke="#fff" stroke-width="0.5"/>
      <path id="Path_210-150" data-name="Path 210" d="M3296.813-454h246.521" transform="translate(-425.054 1304.073) rotate(60)" fill="none" stroke="#fff" stroke-width="0.5"/>
      <path id="Path_210-151" data-name="Path 210" d="M3296.813-454h246.521" transform="translate(-426.786 1305.073) rotate(60)" fill="none" stroke="#fff" stroke-width="0.5"/>
      <path id="Path_210-152" data-name="Path 210" d="M3296.813-454h246.521" transform="translate(-428.518 1306.073) rotate(60)" fill="none" stroke="#fff" stroke-width="0.5"/>
      <path id="Path_210-153" data-name="Path 210" d="M3296.813-454h246.521" transform="translate(-430.25 1307.073) rotate(60)" fill="none" stroke="#fff" stroke-width="0.5"/>
      <path id="Path_210-154" data-name="Path 210" d="M3296.813-454h246.521" transform="translate(-431.982 1308.073) rotate(60)" fill="none" stroke="#fff" stroke-width="0.5"/>
      <path id="Path_210-155" data-name="Path 210" d="M3296.813-454h246.521" transform="translate(-433.715 1309.073) rotate(60)" fill="none" stroke="#fff" stroke-width="0.5"/>
      <path id="Path_210-156" data-name="Path 210" d="M3296.813-454h246.521" transform="translate(-435.447 1310.073) rotate(60)" fill="none" stroke="#fff" stroke-width="0.5"/>
      <path id="Path_210-157" data-name="Path 210" d="M3296.813-454h246.521" transform="translate(-437.179 1311.073) rotate(60)" fill="none" stroke="#fff" stroke-width="0.5"/>
      <path id="Path_210-158" data-name="Path 210" d="M3296.813-454h246.521" transform="translate(-438.911 1312.073) rotate(60)" fill="none" stroke="#fff" stroke-width="0.5"/>
      <path id="Path_210-159" data-name="Path 210" d="M3296.813-454h246.521" transform="translate(-440.643 1313.073) rotate(60)" fill="none" stroke="#fff" stroke-width="0.5"/>
      <path id="Path_210-160" data-name="Path 210" d="M3296.813-454h246.521" transform="translate(-442.375 1314.073) rotate(60)" fill="none" stroke="#fff" stroke-width="0.5"/>
      <path id="Path_210-161" data-name="Path 210" d="M3296.813-454h246.521" transform="translate(-444.107 1315.073) rotate(60)" fill="none" stroke="#fff" stroke-width="0.5"/>
      <path id="Path_210-162" data-name="Path 210" d="M3296.813-454h246.521" transform="translate(-445.839 1316.073) rotate(60)" fill="none" stroke="#fff" stroke-width="0.5"/>
      <path id="Path_210-163" data-name="Path 210" d="M3296.813-454h246.521" transform="translate(-447.571 1317.073) rotate(60)" fill="none" stroke="#fff" stroke-width="0.5"/>
      <path id="Path_210-164" data-name="Path 210" d="M3296.813-454h246.521" transform="translate(-449.303 1318.073) rotate(60)" fill="none" stroke="#fff" stroke-width="0.5"/>
      <path id="Path_210-165" data-name="Path 210" d="M3296.813-454h246.521" transform="translate(-451.035 1319.073) rotate(60)" fill="none" stroke="#fff" stroke-width="0.5"/>
      <path id="Path_210-166" data-name="Path 210" d="M3296.813-454h246.521" transform="translate(-452.767 1320.073) rotate(60)" fill="none" stroke="#fff" stroke-width="0.5"/>
      <path id="Path_210-167" data-name="Path 210" d="M3296.813-454h246.521" transform="translate(-454.499 1321.073) rotate(60)" fill="none" stroke="#fff" stroke-width="0.5"/>
      <path id="Path_210-168" data-name="Path 210" d="M3296.813-454h246.521" transform="translate(-456.231 1322.073) rotate(60)" fill="none" stroke="#fff" stroke-width="0.5"/>
      <path id="Path_210-169" data-name="Path 210" d="M3296.813-454h246.521" transform="translate(-457.963 1323.073) rotate(60)" fill="none" stroke="#fff" stroke-width="0.5"/>
      <path id="Path_210-170" data-name="Path 210" d="M3296.813-454h246.521" transform="translate(-459.695 1324.073) rotate(60)" fill="none" stroke="#fff" stroke-width="0.5"/>
      <path id="Path_210-171" data-name="Path 210" d="M3296.813-454h246.521" transform="translate(-461.427 1325.073) rotate(60)" fill="none" stroke="#fff" stroke-width="0.5"/>
      <path id="Path_210-172" data-name="Path 210" d="M3296.813-454h246.521" transform="translate(-463.159 1326.073) rotate(60)" fill="none" stroke="#fff" stroke-width="0.5"/>
      <path id="Path_210-173" data-name="Path 210" d="M3296.813-454h246.521" transform="translate(-464.891 1327.073) rotate(60)" fill="none" stroke="#fff" stroke-width="0.5"/>
      <path id="Path_210-174" data-name="Path 210" d="M3296.813-454h246.521" transform="translate(-466.623 1328.073) rotate(60)" fill="none" stroke="#fff" stroke-width="0.5"/>
      <path id="Path_210-175" data-name="Path 210" d="M3296.813-454h246.521" transform="translate(-468.356 1329.073) rotate(60)" fill="none" stroke="#fff" stroke-width="0.5"/>
      <path id="Path_210-176" data-name="Path 210" d="M3296.813-454h246.521" transform="translate(-470.088 1330.073) rotate(60)" fill="none" stroke="#fff" stroke-width="0.5"/>
      <path id="Path_210-177" data-name="Path 210" d="M3296.813-454h246.521" transform="translate(-471.82 1331.073) rotate(60)" fill="none" stroke="#fff" stroke-width="0.5"/>
      <path id="Path_210-178" data-name="Path 210" d="M3296.813-454h246.521" transform="translate(-473.552 1332.073) rotate(60)" fill="none" stroke="#fff" stroke-width="0.5"/>
      <path id="Path_210-179" data-name="Path 210" d="M3296.813-454h246.521" transform="translate(-475.284 1333.073) rotate(60)" fill="none" stroke="#fff" stroke-width="0.5"/>
      <path id="Path_210-180" data-name="Path 210" d="M3296.813-454h246.521" transform="translate(-477.016 1334.073) rotate(60)" fill="none" stroke="#fff" stroke-width="0.5"/>
      <path id="Path_210-181" data-name="Path 210" d="M3296.813-454h246.521" transform="translate(-478.748 1335.073) rotate(60)" fill="none" stroke="#fff" stroke-width="0.5"/>
      <path id="Path_210-182" data-name="Path 210" d="M3296.813-454h246.521" transform="translate(-480.48 1336.073) rotate(60)" fill="none" stroke="#fff" stroke-width="0.5"/>
      <path id="Path_210-183" data-name="Path 210" d="M3296.813-454h246.521" transform="translate(-482.212 1337.073) rotate(60)" fill="none" stroke="#fff" stroke-width="0.5"/>
      <path id="Path_210-184" data-name="Path 210" d="M3296.813-454h246.521" transform="translate(-483.944 1338.073) rotate(60)" fill="none" stroke="#fff" stroke-width="0.5"/>
      <path id="Path_210-185" data-name="Path 210" d="M3296.813-454h246.521" transform="translate(-485.676 1339.073) rotate(60)" fill="none" stroke="#fff" stroke-width="0.5"/>
      <path id="Path_210-186" data-name="Path 210" d="M3296.813-454h246.521" transform="translate(-487.408 1340.073) rotate(60)" fill="none" stroke="#fff" stroke-width="0.5"/>
      <path id="Path_210-187" data-name="Path 210" d="M3296.813-454h246.521" transform="translate(-489.14 1341.073) rotate(60)" fill="none" stroke="#fff" stroke-width="0.5"/>
      <path id="Path_210-188" data-name="Path 210" d="M3296.813-454h246.521" transform="translate(-490.872 1342.073) rotate(60)" fill="none" stroke="#fff" stroke-width="0.5"/>
      <path id="Path_210-189" data-name="Path 210" d="M3296.813-454h246.521" transform="translate(-492.604 1343.073) rotate(60)" fill="none" stroke="#fff" stroke-width="0.5"/>
      <path id="Path_210-190" data-name="Path 210" d="M3296.813-454h246.521" transform="translate(-494.336 1344.073) rotate(60)" fill="none" stroke="#fff" stroke-width="0.5"/>
      <path id="Path_210-191" data-name="Path 210" d="M3296.813-454h246.521" transform="translate(-496.068 1345.073) rotate(60)" fill="none" stroke="#fff" stroke-width="0.5"/>
      <path id="Path_210-192" data-name="Path 210" d="M3296.813-454h246.521" transform="translate(-497.8 1346.073) rotate(60)" fill="none" stroke="#fff" stroke-width="0.5"/>
      <path id="Path_210-193" data-name="Path 210" d="M3296.813-454h246.521" transform="translate(-499.532 1347.073) rotate(60)" fill="none" stroke="#fff" stroke-width="0.5"/>
      <path id="Path_210-194" data-name="Path 210" d="M3296.813-454h246.521" transform="translate(-501.264 1348.073) rotate(60)" fill="none" stroke="#fff" stroke-width="0.5"/>
      <path id="Path_210-195" data-name="Path 210" d="M3296.813-454h246.521" transform="translate(-502.997 1349.073) rotate(60)" fill="none" stroke="#fff" stroke-width="0.5"/>
      <path id="Path_210-196" data-name="Path 210" d="M3296.813-454h246.521" transform="translate(-504.729 1350.073) rotate(60)" fill="none" stroke="#fff" stroke-width="0.5"/>
      <path id="Path_210-197" data-name="Path 210" d="M3296.813-454h246.521" transform="translate(-506.461 1351.073) rotate(60)" fill="none" stroke="#fff" stroke-width="0.5"/>
      <path id="Path_210-198" data-name="Path 210" d="M3296.813-454h246.521" transform="translate(-508.193 1352.073) rotate(60)" fill="none" stroke="#fff" stroke-width="0.5"/>
      <path id="Path_210-199" data-name="Path 210" d="M3296.813-454h246.521" transform="translate(-509.925 1353.073) rotate(60)" fill="none" stroke="#fff" stroke-width="0.5"/>
      <path id="Path_210-200" data-name="Path 210" d="M3296.813-454h246.521" transform="translate(-511.657 1354.073) rotate(60)" fill="none" stroke="#fff" stroke-width="0.5"/>
      <path id="Path_210-201" data-name="Path 210" d="M3296.813-454h246.521" transform="translate(-513.389 1355.073) rotate(60)" fill="none" stroke="#fff" stroke-width="0.5"/>
      <path id="Path_210-202" data-name="Path 210" d="M3296.813-454h246.521" transform="translate(-515.121 1356.073) rotate(60)" fill="none" stroke="#fff" stroke-width="0.5"/>
      <path id="Path_210-203" data-name="Path 210" d="M3296.813-454h246.521" transform="translate(-516.853 1357.073) rotate(60)" fill="none" stroke="#fff" stroke-width="0.5"/>
      <path id="Path_210-204" data-name="Path 210" d="M3296.813-454h246.521" transform="translate(-518.585 1358.073) rotate(60)" fill="none" stroke="#fff" stroke-width="0.5"/>
      <path id="Path_210-205" data-name="Path 210" d="M3296.813-454h246.521" transform="translate(-520.317 1359.073) rotate(60)" fill="none" stroke="#fff" stroke-width="0.5"/>
      <path id="Path_210-206" data-name="Path 210" d="M3296.813-454h246.521" transform="translate(-522.049 1360.073) rotate(60)" fill="none" stroke="#fff" stroke-width="0.5"/>
      <path id="Path_210-207" data-name="Path 210" d="M3296.813-454h246.521" transform="translate(-523.781 1361.073) rotate(60)" fill="none" stroke="#fff" stroke-width="0.5"/>
      <path id="Path_210-208" data-name="Path 210" d="M3296.813-454h246.521" transform="translate(-525.513 1362.073) rotate(60)" fill="none" stroke="#fff" stroke-width="0.5"/>
      <path id="Path_210-209" data-name="Path 210" d="M3296.813-454h246.521" transform="translate(-527.245 1363.073) rotate(60)" fill="none" stroke="#fff" stroke-width="0.5"/>
      <path id="Path_210-210" data-name="Path 210" d="M3296.813-454h246.521" transform="translate(-528.977 1364.073) rotate(60)" fill="none" stroke="#fff" stroke-width="0.5"/>
      <path id="Path_210-211" data-name="Path 210" d="M3296.813-454h246.521" transform="translate(-530.709 1365.073) rotate(60)" fill="none" stroke="#fff" stroke-width="0.5"/>
      <path id="Path_210-212" data-name="Path 210" d="M3296.813-454h246.521" transform="translate(-532.441 1366.073) rotate(60)" fill="none" stroke="#fff" stroke-width="0.5"/>
      <path id="Path_210-213" data-name="Path 210" d="M3296.813-454h246.521" transform="translate(-534.173 1367.073) rotate(60)" fill="none" stroke="#fff" stroke-width="0.5"/>
      <path id="Path_210-214" data-name="Path 210" d="M3296.813-454h246.521" transform="translate(-535.906 1368.073) rotate(60)" fill="none" stroke="#fff" stroke-width="0.5"/>
      <path id="Path_210-215" data-name="Path 210" d="M3296.813-454h246.521" transform="translate(-537.638 1369.073) rotate(60)" fill="none" stroke="#fff" stroke-width="0.5"/>
      <path id="Path_210-216" data-name="Path 210" d="M3296.813-454h246.521" transform="translate(-539.37 1370.073) rotate(60)" fill="none" stroke="#fff" stroke-width="0.5"/>
      <path id="Path_210-217" data-name="Path 210" d="M3296.813-454h246.521" transform="translate(-541.102 1371.073) rotate(60)" fill="none" stroke="#fff" stroke-width="0.5"/>
      <path id="Path_210-218" data-name="Path 210" d="M3296.813-454h246.521" transform="translate(-542.834 1372.073) rotate(60)" fill="none" stroke="#fff" stroke-width="0.5"/>
      <path id="Path_210-219" data-name="Path 210" d="M3296.813-454h246.521" transform="translate(-544.566 1373.073) rotate(60)" fill="none" stroke="#fff" stroke-width="0.5"/>
      <path id="Path_210-220" data-name="Path 210" d="M3296.813-454h246.521" transform="translate(-546.298 1374.073) rotate(60)" fill="none" stroke="#fff" stroke-width="0.5"/>
      <path id="Path_210-221" data-name="Path 210" d="M3296.813-454h246.521" transform="translate(-548.03 1375.073) rotate(60)" fill="none" stroke="#fff" stroke-width="0.5"/>
      <path id="Path_210-222" data-name="Path 210" d="M3296.813-454h246.521" transform="translate(-549.762 1376.073) rotate(60)" fill="none" stroke="#fff" stroke-width="0.5"/>
      <path id="Path_210-223" data-name="Path 210" d="M3296.813-454h246.521" transform="translate(-551.494 1377.073) rotate(60)" fill="none" stroke="#fff" stroke-width="0.5"/>
      <path id="Path_210-224" data-name="Path 210" d="M3296.813-454h246.521" transform="translate(-553.226 1378.073) rotate(60)" fill="none" stroke="#fff" stroke-width="0.5"/>
      <path id="Path_210-225" data-name="Path 210" d="M3296.813-454h246.521" transform="translate(-554.958 1379.073) rotate(60)" fill="none" stroke="#fff" stroke-width="0.5"/>
      <path id="Path_210-226" data-name="Path 210" d="M3296.813-454h246.521" transform="translate(-556.69 1380.073) rotate(60)" fill="none" stroke="#fff" stroke-width="0.5"/>
      <path id="Path_210-227" data-name="Path 210" d="M3296.813-454h246.521" transform="translate(-558.422 1381.073) rotate(60)" fill="none" stroke="#fff" stroke-width="0.5"/>
      <path id="Path_210-228" data-name="Path 210" d="M3296.813-454h246.521" transform="translate(-560.154 1382.073) rotate(60)" fill="none" stroke="#fff" stroke-width="0.5"/>
      <path id="Path_210-229" data-name="Path 210" d="M3296.813-454h246.521" transform="translate(-561.886 1383.073) rotate(60)" fill="none" stroke="#fff" stroke-width="0.5"/>
      <path id="Path_210-230" data-name="Path 210" d="M3296.813-454h246.521" transform="translate(-563.618 1384.073) rotate(60)" fill="none" stroke="#fff" stroke-width="0.5"/>
      <path id="Path_210-231" data-name="Path 210" d="M3296.813-454h246.521" transform="translate(-565.35 1385.073) rotate(60)" fill="none" stroke="#fff" stroke-width="0.5"/>
      <path id="Path_210-232" data-name="Path 210" d="M3296.813-454h246.521" transform="translate(-567.082 1386.073) rotate(60)" fill="none" stroke="#fff" stroke-width="0.5"/>
      <path id="Path_210-233" data-name="Path 210" d="M3296.813-454h246.521" transform="translate(-568.815 1387.073) rotate(60)" fill="none" stroke="#fff" stroke-width="0.5"/>
      <path id="Path_210-234" data-name="Path 210" d="M3296.813-454h246.521" transform="translate(-570.547 1388.073) rotate(60)" fill="none" stroke="#fff" stroke-width="0.5"/>
    </g>
    <g id="Group_25623" data-name="Group 25623">
      <path id="Path_210-235" data-name="Path 210" d="M3296.813-454h245" transform="translate(-1938.617 2045.791) rotate(34)" fill="none" stroke="#fff" stroke-width="0.5"/>
      <path id="Path_210-236" data-name="Path 210" d="M3296.813-454h245" transform="translate(-1939.735 2047.449) rotate(34)" fill="none" stroke="#fff" stroke-width="0.5"/>
      <path id="Path_210-237" data-name="Path 210" d="M3296.813-454h245" transform="translate(-1940.854 2049.108) rotate(34)" fill="none" stroke="#fff" stroke-width="0.5"/>
      <path id="Path_210-238" data-name="Path 210" d="M3296.813-454h245" transform="translate(-1941.972 2050.766) rotate(34)" fill="none" stroke="#fff" stroke-width="0.5"/>
      <path id="Path_210-239" data-name="Path 210" d="M3296.813-454h245" transform="translate(-1943.09 2052.424) rotate(34)" fill="none" stroke="#fff" stroke-width="0.5"/>
      <path id="Path_210-240" data-name="Path 210" d="M3296.813-454h245" transform="translate(-1944.209 2054.082) rotate(34)" fill="none" stroke="#fff" stroke-width="0.5"/>
      <path id="Path_210-241" data-name="Path 210" d="M3296.813-454h245" transform="translate(-1945.327 2055.74) rotate(34)" fill="none" stroke="#fff" stroke-width="0.5"/>
      <path id="Path_210-242" data-name="Path 210" d="M3296.813-454h245" transform="translate(-1946.446 2057.398) rotate(34)" fill="none" stroke="#fff" stroke-width="0.5"/>
      <path id="Path_210-243" data-name="Path 210" d="M3296.813-454h245" transform="translate(-1947.564 2059.056) rotate(34)" fill="none" stroke="#fff" stroke-width="0.5"/>
      <path id="Path_210-244" data-name="Path 210" d="M3296.813-454h245" transform="translate(-1948.682 2060.714) rotate(34)" fill="none" stroke="#fff" stroke-width="0.5"/>
      <path id="Path_210-245" data-name="Path 210" d="M3296.813-454h245" transform="translate(-1949.801 2062.372) rotate(34)" fill="none" stroke="#fff" stroke-width="0.5"/>
      <path id="Path_210-246" data-name="Path 210" d="M3296.813-454h245" transform="translate(-1950.919 2064.03) rotate(34)" fill="none" stroke="#fff" stroke-width="0.5"/>
      <path id="Path_210-247" data-name="Path 210" d="M3296.813-454h245" transform="translate(-1952.037 2065.688) rotate(34)" fill="none" stroke="#fff" stroke-width="0.5"/>
      <path id="Path_210-248" data-name="Path 210" d="M3296.813-454h245" transform="translate(-1953.156 2067.346) rotate(34)" fill="none" stroke="#fff" stroke-width="0.5"/>
      <path id="Path_210-249" data-name="Path 210" d="M3296.813-454h245" transform="translate(-1954.274 2069.004) rotate(34)" fill="none" stroke="#fff" stroke-width="0.5"/>
      <path id="Path_210-250" data-name="Path 210" d="M3296.813-454h245" transform="translate(-1955.393 2070.663) rotate(34)" fill="none" stroke="#fff" stroke-width="0.5"/>
      <path id="Path_210-251" data-name="Path 210" d="M3296.813-454h245" transform="translate(-1956.511 2072.321) rotate(34)" fill="none" stroke="#fff" stroke-width="0.5"/>
      <path id="Path_210-252" data-name="Path 210" d="M3296.813-454h245" transform="translate(-1957.629 2073.979) rotate(34)" fill="none" stroke="#fff" stroke-width="0.5"/>
      <path id="Path_210-253" data-name="Path 210" d="M3296.813-454h245" transform="translate(-1958.748 2075.637) rotate(34)" fill="none" stroke="#fff" stroke-width="0.5"/>
      <path id="Path_210-254" data-name="Path 210" d="M3296.813-454h245" transform="translate(-1959.866 2077.295) rotate(34)" fill="none" stroke="#fff" stroke-width="0.5"/>
      <path id="Path_210-255" data-name="Path 210" d="M3296.813-454h245" transform="translate(-1960.985 2078.953) rotate(34)" fill="none" stroke="#fff" stroke-width="0.5"/>
      <path id="Path_210-256" data-name="Path 210" d="M3296.813-454h245" transform="translate(-1962.103 2080.611) rotate(34)" fill="none" stroke="#fff" stroke-width="0.5"/>
      <path id="Path_210-257" data-name="Path 210" d="M3296.813-454h245" transform="translate(-1963.221 2082.269) rotate(34)" fill="none" stroke="#fff" stroke-width="0.5"/>
      <path id="Path_210-258" data-name="Path 210" d="M3296.813-454h245" transform="translate(-1964.34 2083.927) rotate(34)" fill="none" stroke="#fff" stroke-width="0.5"/>
      <path id="Path_210-259" data-name="Path 210" d="M3296.813-454h245" transform="translate(-1965.458 2085.585) rotate(34)" fill="none" stroke="#fff" stroke-width="0.5"/>
      <path id="Path_210-260" data-name="Path 210" d="M3296.813-454h245" transform="translate(-1966.577 2087.243) rotate(34)" fill="none" stroke="#fff" stroke-width="0.5"/>
      <path id="Path_210-261" data-name="Path 210" d="M3296.813-454h245" transform="translate(-1967.695 2088.901) rotate(34)" fill="none" stroke="#fff" stroke-width="0.5"/>
      <path id="Path_210-262" data-name="Path 210" d="M3296.813-454h245" transform="translate(-1968.813 2090.559) rotate(34)" fill="none" stroke="#fff" stroke-width="0.5"/>
      <path id="Path_210-263" data-name="Path 210" d="M3296.813-454h245" transform="translate(-1969.932 2092.218) rotate(34)" fill="none" stroke="#fff" stroke-width="0.5"/>
      <path id="Path_210-264" data-name="Path 210" d="M3296.813-454h245" transform="translate(-1971.05 2093.875) rotate(34)" fill="none" stroke="#fff" stroke-width="0.5"/>
      <path id="Path_210-265" data-name="Path 210" d="M3296.813-454h245" transform="translate(-1972.168 2095.534) rotate(34)" fill="none" stroke="#fff" stroke-width="0.5"/>
      <path id="Path_210-266" data-name="Path 210" d="M3296.813-454h245" transform="translate(-1973.287 2097.192) rotate(34)" fill="none" stroke="#fff" stroke-width="0.5"/>
      <path id="Path_210-267" data-name="Path 210" d="M3296.813-454h245" transform="translate(-1974.405 2098.85) rotate(34)" fill="none" stroke="#fff" stroke-width="0.5"/>
      <path id="Path_210-268" data-name="Path 210" d="M3296.813-454h245" transform="translate(-1975.524 2100.508) rotate(34)" fill="none" stroke="#fff" stroke-width="0.5"/>
      <path id="Path_210-269" data-name="Path 210" d="M3296.813-454h245" transform="translate(-1976.642 2102.166) rotate(34)" fill="none" stroke="#fff" stroke-width="0.5"/>
      <path id="Path_210-270" data-name="Path 210" d="M3296.813-454h245" transform="translate(-1977.76 2103.824) rotate(34)" fill="none" stroke="#fff" stroke-width="0.5"/>
      <path id="Path_210-271" data-name="Path 210" d="M3296.813-454h245" transform="translate(-1978.879 2105.482) rotate(34)" fill="none" stroke="#fff" stroke-width="0.5"/>
      <path id="Path_210-272" data-name="Path 210" d="M3296.813-454h245" transform="translate(-1979.997 2107.14) rotate(34)" fill="none" stroke="#fff" stroke-width="0.5"/>
      <path id="Path_210-273" data-name="Path 210" d="M3296.813-454h245" transform="translate(-1981.116 2108.798) rotate(34)" fill="none" stroke="#fff" stroke-width="0.5"/>
      <path id="Path_210-274" data-name="Path 210" d="M3296.813-454h245" transform="translate(-1982.234 2110.456) rotate(34)" fill="none" stroke="#fff" stroke-width="0.5"/>
      <path id="Path_210-275" data-name="Path 210" d="M3296.813-454h245" transform="translate(-1983.352 2112.115) rotate(34)" fill="none" stroke="#fff" stroke-width="0.5"/>
      <path id="Path_210-276" data-name="Path 210" d="M3296.813-454h245" transform="translate(-1984.471 2113.772) rotate(34)" fill="none" stroke="#fff" stroke-width="0.5"/>
      <path id="Path_210-277" data-name="Path 210" d="M3296.813-454h245" transform="translate(-1985.589 2115.431) rotate(34)" fill="none" stroke="#fff" stroke-width="0.5"/>
      <path id="Path_210-278" data-name="Path 210" d="M3296.813-454h245" transform="translate(-1986.708 2117.089) rotate(34)" fill="none" stroke="#fff" stroke-width="0.5"/>
      <path id="Path_210-279" data-name="Path 210" d="M3296.813-454h245" transform="translate(-1987.826 2118.747) rotate(34)" fill="none" stroke="#fff" stroke-width="0.5"/>
      <path id="Path_210-280" data-name="Path 210" d="M3296.813-454h245" transform="translate(-1988.944 2120.405) rotate(34)" fill="none" stroke="#fff" stroke-width="0.5"/>
      <path id="Path_210-281" data-name="Path 210" d="M3296.813-454h245" transform="translate(-1990.063 2122.063) rotate(34)" fill="none" stroke="#fff" stroke-width="0.5"/>
      <path id="Path_210-282" data-name="Path 210" d="M3296.813-454h245" transform="translate(-1991.181 2123.721) rotate(34)" fill="none" stroke="#fff" stroke-width="0.5"/>
      <path id="Path_210-283" data-name="Path 210" d="M3296.813-454h245" transform="translate(-1992.299 2125.379) rotate(34)" fill="none" stroke="#fff" stroke-width="0.5"/>
      <path id="Path_210-284" data-name="Path 210" d="M3296.813-454h245" transform="translate(-1993.418 2127.037) rotate(34)" fill="none" stroke="#fff" stroke-width="0.5"/>
      <path id="Path_210-285" data-name="Path 210" d="M3296.813-454h245" transform="translate(-1994.536 2128.695) rotate(34)" fill="none" stroke="#fff" stroke-width="0.5"/>
      <path id="Path_210-286" data-name="Path 210" d="M3296.813-454h245" transform="translate(-1995.655 2130.353) rotate(34)" fill="none" stroke="#fff" stroke-width="0.5"/>
      <path id="Path_210-287" data-name="Path 210" d="M3296.813-454h245" transform="translate(-1996.773 2132.011) rotate(34)" fill="none" stroke="#fff" stroke-width="0.5"/>
      <path id="Path_210-288" data-name="Path 210" d="M3296.813-454h245" transform="translate(-1997.891 2133.669) rotate(34)" fill="none" stroke="#fff" stroke-width="0.5"/>
      <path id="Path_210-289" data-name="Path 210" d="M3296.813-454h245" transform="translate(-1999.01 2135.327) rotate(34)" fill="none" stroke="#fff" stroke-width="0.5"/>
      <path id="Path_210-290" data-name="Path 210" d="M3296.813-454h245" transform="translate(-2000.128 2136.986) rotate(34)" fill="none" stroke="#fff" stroke-width="0.5"/>
      <path id="Path_210-291" data-name="Path 210" d="M3296.813-454h245" transform="translate(-2001.246 2138.644) rotate(34)" fill="none" stroke="#fff" stroke-width="0.5"/>
      <path id="Path_210-292" data-name="Path 210" d="M3296.813-454h245" transform="translate(-2002.365 2140.302) rotate(34)" fill="none" stroke="#fff" stroke-width="0.5"/>
      <path id="Path_210-293" data-name="Path 210" d="M3296.813-454h245" transform="translate(-2003.483 2141.96) rotate(34)" fill="none" stroke="#fff" stroke-width="0.5"/>
      <path id="Path_210-294" data-name="Path 210" d="M3296.813-454h245" transform="translate(-2004.602 2143.618) rotate(34)" fill="none" stroke="#fff" stroke-width="0.5"/>
      <path id="Path_210-295" data-name="Path 210" d="M3296.813-454h245" transform="translate(-2005.72 2145.276) rotate(34)" fill="none" stroke="#fff" stroke-width="0.5"/>
      <path id="Path_210-296" data-name="Path 210" d="M3296.813-454h245" transform="translate(-2006.838 2146.934) rotate(34)" fill="none" stroke="#fff" stroke-width="0.5"/>
      <path id="Path_210-297" data-name="Path 210" d="M3296.813-454h245" transform="translate(-2007.957 2148.592) rotate(34)" fill="none" stroke="#fff" stroke-width="0.5"/>
      <path id="Path_210-298" data-name="Path 210" d="M3296.813-454h245" transform="translate(-2009.075 2150.25) rotate(34)" fill="none" stroke="#fff" stroke-width="0.5"/>
      <path id="Path_210-299" data-name="Path 210" d="M3296.813-454h245" transform="translate(-2010.194 2151.908) rotate(34)" fill="none" stroke="#fff" stroke-width="0.5"/>
      <path id="Path_210-300" data-name="Path 210" d="M3296.813-454h245" transform="translate(-2011.312 2153.566) rotate(34)" fill="none" stroke="#fff" stroke-width="0.5"/>
      <path id="Path_210-301" data-name="Path 210" d="M3296.813-454h245" transform="translate(-2012.43 2155.224) rotate(34)" fill="none" stroke="#fff" stroke-width="0.5"/>
      <path id="Path_210-302" data-name="Path 210" d="M3296.813-454h245" transform="translate(-2013.549 2156.883) rotate(34)" fill="none" stroke="#fff" stroke-width="0.5"/>
      <path id="Path_210-303" data-name="Path 210" d="M3296.813-454h245" transform="translate(-2014.667 2158.541) rotate(34)" fill="none" stroke="#fff" stroke-width="0.5"/>
      <path id="Path_210-304" data-name="Path 210" d="M3296.813-454h245" transform="translate(-2015.786 2160.198) rotate(34)" fill="none" stroke="#fff" stroke-width="0.5"/>
      <path id="Path_210-305" data-name="Path 210" d="M3296.813-454h245" transform="translate(-2016.904 2161.857) rotate(34)" fill="none" stroke="#fff" stroke-width="0.5"/>
      <path id="Path_210-306" data-name="Path 210" d="M3296.813-454h245" transform="translate(-2018.022 2163.515) rotate(34)" fill="none" stroke="#fff" stroke-width="0.5"/>
      <path id="Path_210-307" data-name="Path 210" d="M3296.813-454h245" transform="translate(-2019.141 2165.173) rotate(34)" fill="none" stroke="#fff" stroke-width="0.5"/>
      <path id="Path_210-308" data-name="Path 210" d="M3296.813-454h245" transform="translate(-2020.259 2166.831) rotate(34)" fill="none" stroke="#fff" stroke-width="0.5"/>
      <path id="Path_210-309" data-name="Path 210" d="M3296.813-454h245" transform="translate(-2021.377 2168.489) rotate(34)" fill="none" stroke="#fff" stroke-width="0.5"/>
      <path id="Path_210-310" data-name="Path 210" d="M3296.813-454h245" transform="translate(-2022.496 2170.147) rotate(34)" fill="none" stroke="#fff" stroke-width="0.5"/>
      <path id="Path_210-311" data-name="Path 210" d="M3296.813-454h245" transform="translate(-2023.614 2171.805) rotate(34)" fill="none" stroke="#fff" stroke-width="0.5"/>
      <path id="Path_210-312" data-name="Path 210" d="M3296.813-454h245" transform="translate(-2024.733 2173.463) rotate(34)" fill="none" stroke="#fff" stroke-width="0.5"/>
      <path id="Path_210-313" data-name="Path 210" d="M3296.813-454h245" transform="translate(-2025.851 2175.121) rotate(34)" fill="none" stroke="#fff" stroke-width="0.5"/>
      <path id="Path_210-314" data-name="Path 210" d="M3296.813-454h245" transform="translate(-2026.969 2176.779) rotate(34)" fill="none" stroke="#fff" stroke-width="0.5"/>
      <path id="Path_210-315" data-name="Path 210" d="M3296.813-454h245" transform="translate(-2028.088 2178.438) rotate(34)" fill="none" stroke="#fff" stroke-width="0.5"/>
      <path id="Path_210-316" data-name="Path 210" d="M3296.813-454h245" transform="translate(-2029.206 2180.095) rotate(34)" fill="none" stroke="#fff" stroke-width="0.5"/>
      <path id="Path_210-317" data-name="Path 210" d="M3296.813-454h245" transform="translate(-2030.325 2181.754) rotate(34)" fill="none" stroke="#fff" stroke-width="0.5"/>
      <path id="Path_210-318" data-name="Path 210" d="M3296.813-454h245" transform="translate(-2031.443 2183.412) rotate(34)" fill="none" stroke="#fff" stroke-width="0.5"/>
      <path id="Path_210-319" data-name="Path 210" d="M3296.813-454h245" transform="translate(-2032.561 2185.07) rotate(34)" fill="none" stroke="#fff" stroke-width="0.5"/>
      <path id="Path_210-320" data-name="Path 210" d="M3296.813-454h245" transform="translate(-2033.68 2186.728) rotate(34)" fill="none" stroke="#fff" stroke-width="0.5"/>
      <path id="Path_210-321" data-name="Path 210" d="M3296.813-454h245" transform="translate(-2034.798 2188.386) rotate(34)" fill="none" stroke="#fff" stroke-width="0.5"/>
      <path id="Path_210-322" data-name="Path 210" d="M3296.813-454h245" transform="translate(-2035.917 2190.044) rotate(34)" fill="none" stroke="#fff" stroke-width="0.5"/>
      <path id="Path_210-323" data-name="Path 210" d="M3296.813-454h245" transform="translate(-2037.035 2191.702) rotate(34)" fill="none" stroke="#fff" stroke-width="0.5"/>
      <path id="Path_210-324" data-name="Path 210" d="M3296.813-454h245" transform="translate(-2038.153 2193.36) rotate(34)" fill="none" stroke="#fff" stroke-width="0.5"/>
      <path id="Path_210-325" data-name="Path 210" d="M3296.813-454h245" transform="translate(-2039.272 2195.018) rotate(34)" fill="none" stroke="#fff" stroke-width="0.5"/>
      <path id="Path_210-326" data-name="Path 210" d="M3296.813-454h245" transform="translate(-2040.39 2196.676) rotate(34)" fill="none" stroke="#fff" stroke-width="0.5"/>
      <path id="Path_210-327" data-name="Path 210" d="M3296.813-454h245" transform="translate(-2041.508 2198.334) rotate(34)" fill="none" stroke="#fff" stroke-width="0.5"/>
      <path id="Path_210-328" data-name="Path 210" d="M3296.813-454h245" transform="translate(-2042.627 2199.992) rotate(34)" fill="none" stroke="#fff" stroke-width="0.5"/>
      <path id="Path_210-329" data-name="Path 210" d="M3296.813-454h245" transform="translate(-2043.745 2201.65) rotate(34)" fill="none" stroke="#fff" stroke-width="0.5"/>
      <path id="Path_210-330" data-name="Path 210" d="M3296.813-454h245" transform="translate(-2044.864 2203.309) rotate(34)" fill="none" stroke="#fff" stroke-width="0.5"/>
      <path id="Path_210-331" data-name="Path 210" d="M3296.813-454h245" transform="translate(-2045.982 2204.967) rotate(34)" fill="none" stroke="#fff" stroke-width="0.5"/>
      <path id="Path_210-332" data-name="Path 210" d="M3296.813-454h245" transform="translate(-2047.1 2206.625) rotate(34)" fill="none" stroke="#fff" stroke-width="0.5"/>
      <path id="Path_210-333" data-name="Path 210" d="M3296.813-454h245" transform="translate(-2048.219 2208.283) rotate(34)" fill="none" stroke="#fff" stroke-width="0.5"/>
      <path id="Path_210-334" data-name="Path 210" d="M3296.813-454h245" transform="translate(-2049.337 2209.941) rotate(34)" fill="none" stroke="#fff" stroke-width="0.5"/>
      <path id="Path_210-335" data-name="Path 210" d="M3296.813-454h245" transform="translate(-2050.456 2211.599) rotate(34)" fill="none" stroke="#fff" stroke-width="0.5"/>
      <path id="Path_210-336" data-name="Path 210" d="M3296.813-454h245" transform="translate(-2051.574 2213.257) rotate(34)" fill="none" stroke="#fff" stroke-width="0.5"/>
      <path id="Path_210-337" data-name="Path 210" d="M3296.813-454h245" transform="translate(-2052.692 2214.915) rotate(34)" fill="none" stroke="#fff" stroke-width="0.5"/>
      <path id="Path_210-338" data-name="Path 210" d="M3296.813-454h245" transform="translate(-2053.811 2216.573) rotate(34)" fill="none" stroke="#fff" stroke-width="0.5"/>
      <path id="Path_210-339" data-name="Path 210" d="M3296.813-454h245" transform="translate(-2054.929 2218.231) rotate(34)" fill="none" stroke="#fff" stroke-width="0.5"/>
      <path id="Path_210-340" data-name="Path 210" d="M3296.813-454h245" transform="translate(-2056.047 2219.889) rotate(34)" fill="none" stroke="#fff" stroke-width="0.5"/>
      <path id="Path_210-341" data-name="Path 210" d="M3296.813-454h245" transform="translate(-2057.166 2221.547) rotate(34)" fill="none" stroke="#fff" stroke-width="0.5"/>
      <path id="Path_210-342" data-name="Path 210" d="M3296.813-454h245" transform="translate(-2058.284 2223.206) rotate(34)" fill="none" stroke="#fff" stroke-width="0.5"/>
      <path id="Path_210-343" data-name="Path 210" d="M3296.813-454h245" transform="translate(-2059.403 2224.864) rotate(34)" fill="none" stroke="#fff" stroke-width="0.5"/>
      <path id="Path_210-344" data-name="Path 210" d="M3296.813-454h245" transform="translate(-2060.521 2226.522) rotate(34)" fill="none" stroke="#fff" stroke-width="0.5"/>
      <path id="Path_210-345" data-name="Path 210" d="M3296.813-454h245" transform="translate(-2061.639 2228.18) rotate(34)" fill="none" stroke="#fff" stroke-width="0.5"/>
      <path id="Path_210-346" data-name="Path 210" d="M3296.813-454h245" transform="translate(-2062.758 2229.838) rotate(34)" fill="none" stroke="#fff" stroke-width="0.5"/>
      <path id="Path_210-347" data-name="Path 210" d="M3296.813-454h245" transform="translate(-2063.876 2231.496) rotate(34)" fill="none" stroke="#fff" stroke-width="0.5"/>
      <path id="Path_210-348" data-name="Path 210" d="M3296.813-454h245" transform="translate(-2064.994 2233.154) rotate(34)" fill="none" stroke="#fff" stroke-width="0.5"/>
      <path id="Path_210-349" data-name="Path 210" d="M3296.813-454h245" transform="translate(-2066.113 2234.812) rotate(34)" fill="none" stroke="#fff" stroke-width="0.5"/>
      <path id="Path_210-350" data-name="Path 210" d="M3296.813-454h245" transform="translate(-2067.231 2236.47) rotate(34)" fill="none" stroke="#fff" stroke-width="0.5"/>
      <path id="Path_210-351" data-name="Path 210" d="M3296.813-454h245" transform="translate(-2068.35 2238.128) rotate(34)" fill="none" stroke="#fff" stroke-width="0.5"/>
    </g>
    <g id="Layer_2" data-name="Layer 2" transform="translate(1194.109 3602.284)" opacity="0.551">
      <g id="Layer">
        <path id="Path_512" data-name="Path 512" d="M149.23,297.673l332.3-191.859L344.019,26.42,11.72,218.279Z" transform="translate(29.163 65.742)" fill="#f2f2f2"/>
        <path id="Path_513" data-name="Path 513" d="M131.5,245.786,374.22,105.659,262.384,41.09,19.7,181.217Z" transform="translate(49.02 102.246)" fill="#622586"/>
        <path id="Path_514" data-name="Path 514" d="M145.158,61.58,37.02,123.986l87,50.232,108.138-62.406Z" transform="translate(92.118 153.232)" fill="#622586"/>
        <path id="Path_515" data-name="Path 515" d="M167.18,41.09,57.96,104.159l15,8.651L182.145,49.741Z" transform="translate(144.224 102.246)" fill="#d9ccff"/>
        <path id="Path_516" data-name="Path 516" d="M125.152,63.8,19.7,124.706l60.7,35.058L185.884,98.858Z" transform="translate(49.02 158.756)" fill="#d9ccff"/>
        <path id="Path_517" data-name="Path 517" d="M155.234,44.9,109.119,71.553,89.27,60.076,135.386,33.46Z" transform="translate(222.134 83.26)" fill="#2250c4"/>
        <path id="Path_518" data-name="Path 518" d="M110.851,41.37l5.163-.942-4.43-1.814.1-3.1-4.36,1.884-5.093-1.012,1.709,2.965L100.7,41.859l5.407-.07,3.1,2.546Z" transform="translate(250.575 88.361)" fill="#ffeb66"/>
        <path id="Path_519" data-name="Path 519" d="M107.011,43.58l5.2-.942-4.43-1.779.1-3.14-4.36,1.884-5.128-1.012,1.744,2.965L96.86,44.069l5.442-.035,3.1,2.546Z" transform="translate(241.02 93.86)" fill="#ffeb66"/>
        <path id="Path_520" data-name="Path 520" d="M103.181,45.79l5.163-.942-4.4-1.779.07-3.14-4.326,1.884-5.128-.977,1.709,2.93L93.03,46.279l5.407-.035,3.1,2.546Z" transform="translate(231.49 99.359)" fill="#ffeb66"/>
        <path id="Path_524" data-name="Path 524" d="M122.8,34.909l1.046.628c2.023,1.186,2.163,2.442.209,3.488a6.07,6.07,0,0,1-6.244,0l-2.826-1.64c-1.884-1.116-2.163-2.128-.7-3a4.186,4.186,0,0,1,2.686-.488l-3.174-1.64-3.488,2.023L108.5,33.235l5.3-3.1,7.779,4.081-1.919,1.081-.384-.209a2.128,2.128,0,0,0-2.3,0c-.628.349-.7.8.209,1.326l2.826,1.6a2.058,2.058,0,0,0,2.267,0c.663-.349.733-.767,0-1.326l-1.186-.663Z" transform="translate(269.984 74.974)"/>
        <path id="Path_525" data-name="Path 525" d="M121.148,36.206c2.023,1.186,2.093,2.477,0,3.488a6,6,0,0,1-6.244,0l-6.663-3.8c-2.023-1.186-2.093-2.477,0-3.488a6.07,6.07,0,0,1,6.279,0Zm-8.791-2.756a2.128,2.128,0,0,0-2.3,0c-.663.384-.7.8.209,1.326l6.977,3.977a2.233,2.233,0,0,0,2.3,0c.663-.384.7-.8-.209-1.326Z" transform="translate(265.499 78.455)"/>
        <path id="Path_526" data-name="Path 526" d="M119.067,37.431c2.058,1.186,2.128,2.477,0,3.488a6.07,6.07,0,0,1-6.279,0l-6.628-3.837c-2.023-1.186-2.128-2.477,0-3.488a6.07,6.07,0,0,1,6.279,0Zm-8.791-2.721a2.233,2.233,0,0,0-2.3,0c-.628.384-.7.8.209,1.326l6.977,3.977a2.058,2.058,0,0,0,2.3,0c.628-.384.7-.8-.209-1.326Z" transform="translate(260.289 81.416)"/>
        <path id="Path_527" data-name="Path 527" d="M100.316,86.059l4.4,2.546c8.477,4.884,9.035,10.116.837,14.86a24.837,24.837,0,0,1-25.779-.488L67.979,96c-7.779-4.5-8.965-8.791-2.826-12.349a17.442,17.442,0,0,1,11.163-1.988L62.991,74.687,48.48,83.059l-7.57-3.977L62.956,66.35,95.189,83.2l-7.919,4.43-1.57-.907a8.93,8.93,0,0,0-9.593-.663c-2.686,1.535-2.9,3.314.872,5.512L88.63,98.3a8.826,8.826,0,0,0,9.453.453c2.686-1.535,3-3.279-.8-5.477l-4.919-2.826Z" transform="translate(101.798 165.101)"/>
        <path id="Path_528" data-name="Path 528" d="M93.073,91.687c8.477,4.884,8.825,10.256.628,15a25.186,25.186,0,0,1-26.023-.349L40.155,90.466C31.678,85.582,31.365,80,39.562,75.431a25.186,25.186,0,0,1,25.988.384ZM56.655,80.315a8.93,8.93,0,0,0-9.523-.488c-2.686,1.535-2.9,3.488.872,5.512l28.569,16.5a9,9,0,0,0,9.558.488c2.651-1.535,2.9-3.488-.872-5.512Z" transform="translate(83.611 179.183)"/>
        <path id="Path_529" data-name="Path 529" d="M84.433,96.654c8.477,4.884,8.825,10.465.593,15.035a25.186,25.186,0,0,1-25.988-.349L31.515,95.433c-8.477-4.884-8.825-10.256-.593-15a25.186,25.186,0,0,1,25.988.349ZM48.084,85.317a8.93,8.93,0,0,0-9.558-.523c-2.651,1.535-2.9,3.488.907,5.512L68,106.805a8.93,8.93,0,0,0,9.558.523c2.651-1.535,2.9-3.488-.907-5.512Z" transform="translate(62.077 191.587)"/>
        <path id="Path_534" data-name="Path 534" d="M65.128,57.838c1.57.907,3.488,0,5.128.977l.663.384-2.477,1.465-.767-.453,1.6-.942h0c-.872-.523-3.244,0-4.953-.907-.872-.488-.907-1.012,0-1.5a2.581,2.581,0,0,1,2.651,0l.523.314-.8.453L66.1,57.28a.977.977,0,0,0-.977,0C64.849,57.385,64.64,57.559,65.128,57.838Z" transform="translate(158.404 140.579)"/>
        <path id="Path_535" data-name="Path 535" d="M68.743,59.015c.837.488.872,1.047,0,1.535a2.581,2.581,0,0,1-2.651,0l-2.616-1.674c-.872-.488-.907-1.046,0-1.535a2.651,2.651,0,0,1,2.686,0Zm-3.767-1.186a.907.907,0,0,0-.977,0c-.279,0-.279.349,0,.558l2.93,1.674a.837.837,0,0,0,.977,0c.279,0,.314-.349,0-.558Z" transform="translate(156.289 141.774)"/>
        <path id="Path_536" data-name="Path 536" d="M67.978,59.6c.872.488.907,1.046,0,1.535a2.651,2.651,0,0,1-2.686,0l-2.756-1.779c-.872-.488-.907-1.047,0-1.535a2.581,2.581,0,0,1,2.651,0Zm-3.733-1.186a.907.907,0,0,0-.977,0c-.279,0-.314.349,0,.558l2.93,1.709a.977.977,0,0,0,1.012,0c.244-.174.279-.349,0-.558Z" transform="translate(153.95 142.967)"/>
        <path id="Path_537" data-name="Path 537" d="M67.073,60.06c.872.488.872,1.046,0,1.535a2.581,2.581,0,0,1-2.581-.07l-2.826-1.64c-.872-.488-.907-1.047,0-1.535a2.651,2.651,0,0,1,2.686,0Zm-3.767-1.186a.907.907,0,0,0-.977,0c-.279,0-.279.349,0,.558l2.93,1.709a.907.907,0,0,0,.977,0c.279,0,.314-.349,0-.558Z" transform="translate(151.785 144.287)"/>
        <path id="Path_538" data-name="Path 538" d="M87.546,64.952l7.5-1.36-6.419-2.616.14-4.535-6.314,2.721-7.43-1.43,2.512,4.291L72.79,65.649l7.884-.07,4.5,3.7Z" transform="translate(181.126 140.442)" fill="#ffeb66"/>
        <path id="Path_539" data-name="Path 539" d="M86.041,68.913,89.7,64.9l-7.744.8L76.518,62.46l-1.151,4.5L68.32,68.983l7.012,1.988,1.151,4.5,5.477-3.279,7.744.733Z" transform="translate(170.003 155.422)" fill="#ffeb66"/>
        <path id="Path_540" data-name="Path 540" d="M88.011,72.7,85.674,68.37l-4.535,3.7H73.29l4.674,3.593-2.512,4.326,7.43-1.5L89.2,81.172l-.1-4.535,6.419-2.651Z" transform="translate(182.37 170.128)" fill="#ffeb66"/>
        <path id="Path_541" data-name="Path 541" d="M94.957,73.158,87.981,71.1l1.326,4.465L83.69,78.739l7.779.628,3.488,4.046,3.488-4.081,7.779-.7-5.651-3.14L101.9,71.03Z" transform="translate(208.249 176.747)" fill="#ffeb66"/>
        <path id="Path_542" data-name="Path 542" d="M101.44,72.306l-7.5,1.4,6.453,2.581-.07,4.535,6.279-2.756,7.43,1.43L111.486,75.2l4.674-3.663-7.849.1-4.57-3.663Z" transform="translate(233.754 169.157)" fill="#ffeb66"/>
        <path id="Path_543" data-name="Path 543" d="M102.253,68.448,98.66,72.495l7.744-.837,5.512,3.244L113,70.4l7.012-2.058-7.046-1.953-1.186-4.5-5.442,3.279-7.744-.7Z" transform="translate(245.325 154.003)" fill="#ffeb66"/>
        <path id="Path_544" data-name="Path 544" d="M100.83,64.537l2.407,4.326L107.7,65.13h7.884l-4.744-3.593,2.477-4.326-7.43,1.535L99.539,56.06l.174,4.535L93.33,63.281Z" transform="translate(232.236 139.496)" fill="#ffeb66"/>
        <path id="Path_545" data-name="Path 545" d="M94.137,63.816l6.977,2.023-1.36-4.43,5.546-3.244-7.779-.558L94,53.56l-3.419,4.081-7.779.733,5.686,3.1-1.256,4.5Z" transform="translate(206.034 133.275)" fill="#ffeb66"/>
        <path id="Path_546" data-name="Path 546" d="M98.15,104.839,68.918,121.722,39.86,104.944,69.092,88.06Z" transform="translate(99.185 219.123)" fill="#f2f2f2"/>
        <path id="Path_547" data-name="Path 547" d="M86.1,101.928,64.056,89.23l-22.186,12.8,22.046,12.732Z" transform="translate(104.187 222.034)" fill="url(#linear-gradient)"/>
        <path id="Path_548" data-name="Path 548" d="M50.693,105.634l26.756-5.372-.558-.942L50.1,104.692Z" transform="translate(124.666 247.142)" fill="#666"/>
        <path id="Path_549" data-name="Path 549" d="M49.548,104.994l26.79-5.372-.558-.942-26.79,5.372Z" transform="translate(121.904 245.549)" fill="#666"/>
        <path id="Path_550" data-name="Path 550" d="M48.438,104.379l26.79-5.372-.593-.977L47.88,103.4Z" transform="translate(119.142 243.932)" fill="#666"/>
        <path id="Path_551" data-name="Path 551" d="M47.353,103.7l26.756-5.337-.558-.977-26.79,5.372Z" transform="translate(116.355 242.339)" fill="#666"/>
        <path id="Path_552" data-name="Path 552" d="M46.208,103.064,73,97.692l-.558-.942-26.79,5.372Z" transform="translate(113.593 240.747)" fill="#666"/>
        <path id="Path_553" data-name="Path 553" d="M129.954,75.078l-2.86-1.64L151.338,59.45l6.732,3.872L133.861,77.31l-22.6,13.046-3.907-2.233Z" transform="translate(267.123 147.932)" fill="#8f5eab"/>
        <path id="Path_554" data-name="Path 554" d="M163.329,43.538,63.842,100.991l-.872-.523L162.492,43.05Z" transform="translate(156.691 107.123)" fill="#8f73e6"/>
        <path id="Path_555" data-name="Path 555" d="M11.72,81.42v32.372l137.51,79.395V160.815Z" transform="translate(29.163 202.6)" fill="#e6e6e6"/>
        <path id="Path_556" data-name="Path 556" d="M59.625,112.966l-11.9-7.046,11.9,8.023Z" transform="translate(118.768 263.565)" fill="#999"/>
        <path id="Path_557" data-name="Path 557" d="M11.72,85.93l22.43,14.511L11.72,87.186Z" transform="translate(29.163 213.823)" fill="#999"/>
        <path id="Path_558" data-name="Path 558" d="M383.439,49.18V81.552L51.14,273.41V241.039Z" transform="translate(127.254 122.376)" fill="#ccc"/>
        <path id="Path_559" data-name="Path 559" d="M51.14,109.831l8.581-2.651-8.581,3.628Z" transform="translate(127.254 266.7)" fill="#ccc"/>
        <path id="Path_560" data-name="Path 560" d="M61.705,117.5,46.88,108.71l14.825,9.977Z" transform="translate(116.653 270.507)" fill="#999"/>
        <path id="Path_561" data-name="Path 561" d="M51.13,113.594,61.8,110.28l-10.674,4.5Z" transform="translate(127.229 274.414)" fill="#ccc"/>
        <path id="Path_562" data-name="Path 562" d="M163.171,50.95,139.66,65.985l23.511-13.744Z" transform="translate(347.521 126.781)" fill="#ccc"/>
        <path id="Path_563" data-name="Path 563" d="M173.448,55.11,135.53,75.9l37.918-19.709Z" transform="translate(337.244 137.132)" fill="#ccc"/>
        <path id="Path_564" data-name="Path 564" d="M154.988,103.118,90,140.687V108.594L154.988,71.06Z" transform="translate(223.95 176.821)" fill="#401857"/>
        <path id="Path_565" data-name="Path 565" d="M135.3,105.127V72.93l-42,24.279v32.2Z" transform="translate(232.162 181.474)" fill="#e6c9f5"/>
        <path id="Path_566" data-name="Path 566" d="M50.37,85.85l138.208,79.185,53.546-30.907,11.477-6.593L115.393,48.35,104.2,54.8l-42,24.244Z" transform="translate(125.337 120.311)" fill="#401857"/>
        <path id="Path_567" data-name="Path 567" d="M53.76,74.444l137.859,79.325,42.069-24.244L95.76,50.2Z" transform="translate(133.773 124.915)" fill="#e6c9f5"/>
        <path id="Path_568" data-name="Path 568" d="M137.51,287.853,469.844,95.995,332.3,16.6,0,208.459Z" transform="translate(0 41.306)" fill="#f2f2f2"/>
        <path id="Path_569" data-name="Path 569" d="M119.781,235.966,362.5,95.839,250.664,31.27,7.98,171.4Z" transform="translate(19.857 77.81)" fill="#8f5eab"/>
        <path id="Path_570" data-name="Path 570" d="M133.438,51.76,25.3,114.166l87,50.267,108.138-62.441Z" transform="translate(62.955 128.796)" fill="#622586"/>
        <path id="Path_571" data-name="Path 571" d="M155.46,31.27,46.24,94.339l15,8.651L170.46,39.921Z" transform="translate(115.061 77.81)" fill="#d9ccff"/>
        <path id="Path_572" data-name="Path 572" d="M113.467,53.98,7.98,114.886l60.732,35.058L174.2,89.038Z" transform="translate(19.857 134.32)" fill="#d9ccff"/>
        <path id="Path_573" data-name="Path 573" d="M143.549,35.082,97.4,61.733,77.55,50.256,123.666,23.64Z" transform="translate(192.97 58.824)" fill="#2250c4"/>
        <path id="Path_574" data-name="Path 574" d="M99.131,31.55l5.163-.942-4.4-1.779.07-3.139-4.326,1.884-5.128-1.012,1.709,2.965L88.98,32.039,94.387,32l3.1,2.546Z" transform="translate(221.412 63.925)" fill="#ffeb66"/>
        <path id="Path_575" data-name="Path 575" d="M95.3,33.76l5.163-.942-4.43-1.779.1-3.14-4.36,1.884-5.128-.977,1.744,2.93L85.15,34.249l5.407-.035,3.1,2.547Z" transform="translate(211.882 69.425)" fill="#ffeb66"/>
        <path id="Path_576" data-name="Path 576" d="M91.461,35.98l5.2-.942-4.43-1.814.1-3.1-4.36,1.849-5.128-.977,1.744,2.965L81.31,36.434l5.442-.035,3.1,2.546Z" transform="translate(202.327 74.949)" fill="#ffeb66"/>
        <path id="Path_580" data-name="Path 580" d="M111.207,25.089l1.081.628c2.023,1.186,2.163,2.442,0,3.488a6,6,0,0,1-6.209,0l-2.86-1.64c-1.884-1.081-2.163-2.128-.663-3a4.151,4.151,0,0,1,2.686-.488l-3.209-1.64-3.488,2.023L96.73,23.415l5.337-3.1,7.779,4.081-1.919,1.116-.384-.244a2.128,2.128,0,0,0-2.3,0c-.663.349-.7.8.209,1.326l2.791,1.6a2.128,2.128,0,0,0,2.3,0c.628-.349.7-.767-.209-1.291l-1.186-.7Z" transform="translate(240.697 50.538)"/>
        <path id="Path_581" data-name="Path 581" d="M109.338,26.279c2.023,1.186,2.128,2.477,0,3.488a6.14,6.14,0,0,1-6.279,0L96.571,26.1c-2.023-1.186-2.128-2.477,0-3.488a6.139,6.139,0,0,1,6.279,0Zm-8.791-2.721a2.233,2.233,0,0,0-2.3,0c-.628.384-.7.8.209,1.326l6.977,3.977a2.233,2.233,0,0,0,2.3,0c.628-.384.7-.8-.209-1.326Z" transform="translate(236.426 54.127)"/>
        <path id="Path_582" data-name="Path 582" d="M107.3,27.612c2.023,1.186,2.093,2.477,0,3.488a6,6,0,0,1-6.244,0L94.43,27.263c-2.058-1.186-2.128-2.477,0-3.488a6,6,0,0,1,6.244,0Zm-8.791-2.721a2.233,2.233,0,0,0-2.3,0c-.663.384-.7.8.209,1.326l6.977,4.012a2.128,2.128,0,0,0,2.3,0c.663-.384.733-.8-.209-1.326Z" transform="translate(231.067 56.98)"/>
        <path id="Path_583" data-name="Path 583" d="M88.606,76.3l4.36,2.546c8.477,4.884,9.07,10.116.837,14.86a24.767,24.767,0,0,1-25.779-.558L56.235,86.176c-7.779-4.5-8.965-8.791-2.826-12.349a17.023,17.023,0,0,1,11.163-1.953L51.281,64.9,36.735,73.269,29.2,69.222,51.246,56.49l32.2,16.849-7.919,4.57L73.851,77a8.93,8.93,0,0,0-9.558-.523c-2.651,1.535-2.9,3.488.872,5.512l11.651,6.732a8.86,8.86,0,0,0,9.488.453c2.651-1.535,2.965-3.279-.8-5.477l-4.674-2.826Z" transform="translate(72.659 140.566)"/>
        <path id="Path_584" data-name="Path 584" d="M81.376,81.953c8.442,4.884,8.791,10.465.593,15A25.256,25.256,0,0,1,55.946,96.5L28.458,80.592c-8.477-4.884-8.826-10.256-.628-15a25.256,25.256,0,0,1,26.023.349ZM44.958,70.581a9,9,0,0,0-9.558-.488c-2.651,1.535-2.9,3.314.872,5.512L64.841,92.1a8.93,8.93,0,0,0,9.558.488c2.686-1.535,2.9-3.314-.872-5.512Z" transform="translate(54.46 154.661)"/>
        <path id="Path_585" data-name="Path 585" d="M72.764,86.884c8.477,4.919,8.825,10.465.628,15.035A25.256,25.256,0,0,1,47.3,101.5L19.776,85.593c-8.442-4.884-8.791-10.256-.593-15a25.186,25.186,0,0,1,25.988.349ZM36.346,75.547a8.9,8.9,0,0,0-9.523-.523c-2.686,1.535-2.9,3.488.872,5.512l28.569,16.5a8.93,8.93,0,0,0,9.558.523c2.651-1.535,2.9-3.488-.872-5.512Z" transform="translate(32.933 167.102)"/>
        <path id="Path_586" data-name="Path 586" d="M107.509,49.368l-3.244,1.849-1.674-.977,5.093-2.93,11.791,6.8-4.988,2.93-1.674-.977,3.209-1.849-3.488-1.988-2.547,1.465-1.709-.942,2.581-1.5Z" transform="translate(255.278 117.723)"/>
        <path id="Path_587" data-name="Path 587" d="M106.406,48.33l8.965,5.163c1.884,1.116,1.988,2.267,0,3.314a5.511,5.511,0,0,1-5.756,0l-8.965-5.2,1.744-1.012,9.1,5.233a1.988,1.988,0,0,0,2.128,0c.593-.349.663-.733,0-1.221l-9.1-5.233Z" transform="translate(250.451 120.261)"/>
        <path id="Path_588" data-name="Path 588" d="M109.276,59.611a4.117,4.117,0,0,0-1.221-.942l-1.814-1.047c-1.256-.7-1.814-1.4-1.291-2.163a4.988,4.988,0,0,1-3.488-.663l-.942-.558c-1.814-1.046-1.849-2.023,0-3.14l2.826-1.64,11.756,6.8-1.849,1.081-4.814-2.756-.628.349c-.837.488-.837.942.279,1.57l1.849,1.081a4.186,4.186,0,0,1,1.291.942Zm-6.977-7.57c-.663.384-.593.767.244,1.256l1.151.663a2.233,2.233,0,0,0,2.372,0l.733-.419-3.488-2.093Z" transform="translate(246.709 123.073)"/>
        <path id="Path_589" data-name="Path 589" d="M110.537,55.058c1.884,1.116,1.953,2.3,0,3.488a5.581,5.581,0,0,1-5.791,0l-6.139-3.488c-1.884-1.081-1.953-2.3,0-3.488a5.651,5.651,0,0,1,5.791,0Zm-8.128-2.512a1.988,1.988,0,0,0-2.128,0c-.593.349-.663.733,0,1.221l6.384,3.488a2.058,2.058,0,0,0,2.128,0c.593-.349.628-.767-.209-1.256Z" transform="translate(241.785 126.336)"/>
        <path id="Path_590" data-name="Path 590" d="M53.393,48.018c1.57.907,3.488,0,5.163.977l.663.384-2.512,1.465-.767-.453,1.64-.942h0c-.907-.523-3.244,0-4.953-.872-.872-.523-.942-1.046,0-1.535a2.581,2.581,0,0,1,2.651,0l.558.314L55,47.809l-.593-.314a.907.907,0,0,0-.977,0C52.939,47.565,52.9,47.809,53.393,48.018Z" transform="translate(129.256 116.143)"/>
        <path id="Path_591" data-name="Path 591" d="M57.2,49.17c.872.488.907,1.046,0,1.535a2.651,2.651,0,0,1-2.686,0l-2.826-1.64c-.872-.488-.907-1.046,0-1.535a2.651,2.651,0,0,1,2.686,0Zm-3.733-1.186a.907.907,0,0,0-.977,0c-.279,0-.314.349,0,.558l2.93,1.709a.907.907,0,0,0,.977,0c.279,0,.314-.349,0-.558Z" transform="translate(126.952 117.363)"/>
        <path id="Path_592" data-name="Path 592" d="M56.308,49.681c.872.488.907,1.046,0,1.535a2.581,2.581,0,0,1-2.686,0L50.8,49.576c-.872-.488-.907-1.047,0-1.535a2.581,2.581,0,0,1,2.651,0Zm-3.733-1.186a.907.907,0,0,0-.977,0c-.279,0-.279.349,0,.558l2.93,1.709a.907.907,0,0,0,.977,0c.279,0,.279-.349,0-.558Z" transform="translate(124.737 118.631)"/>
        <path id="Path_593" data-name="Path 593" d="M55.408,50.19c.872.488.907,1.047,0,1.535a2.581,2.581,0,0,1-2.686,0L49.9,50.085c-.872-.488-.907-1.047,0-1.535a2.651,2.651,0,0,1,2.686,0Zm-3.488-1.151a.837.837,0,0,0-.977,0c-.279.174-.314.349,0,.558l2.93,1.709a.907.907,0,0,0,.977,0c.279,0,.314-.349,0-.558Z" transform="translate(122.498 119.901)"/>
        <path id="Path_594" data-name="Path 594" d="M75.8,55.132l7.5-1.36-6.384-2.616.1-4.535-6.314,2.721-7.43-1.43L65.789,52.2,61.08,55.829l7.849-.07,4.5,3.7Z" transform="translate(151.988 116.006)" fill="#ffeb66"/>
        <path id="Path_595" data-name="Path 595" d="M74.356,59.128l3.663-4.046-7.744.8L64.8,52.64l-1.151,4.5L56.6,59.163l7.046,1.988,1.116,4.5,5.477-3.279,7.744.767Z" transform="translate(140.84 130.986)" fill="#ffeb66"/>
        <path id="Path_596" data-name="Path 596" d="M76.291,62.876,73.954,58.55l-4.535,3.733-7.849-.035,4.709,3.628-2.546,4.291,7.465-1.5,6.279,2.721-.1-4.57L83.791,64.2Z" transform="translate(153.207 145.692)" fill="#ffeb66"/>
        <path id="Path_597" data-name="Path 597" d="M83.212,63.338,76.236,61.28l1.36,4.465L71.98,68.919l7.779.628,3.488,4.047L86.7,69.512l7.779-.7-5.651-3.139,1.326-4.465Z" transform="translate(179.11 152.311)" fill="#ffeb66"/>
        <path id="Path_598" data-name="Path 598" d="M89.73,62.486l-7.5,1.4,6.419,2.581L88.579,71l6.279-2.756,7.465,1.43-2.581-4.291,4.709-3.663-7.884.1L92.032,58.16Z" transform="translate(204.616 144.722)" fill="#ffeb66"/>
        <path id="Path_599" data-name="Path 599" d="M90.568,58.628,86.94,62.675l7.744-.8,5.512,3.209,1.081-4.5,7.046-2.058-7.081-1.953-1.151-4.5-5.477,3.279-7.744-.7Z" transform="translate(216.162 129.568)" fill="#ffeb66"/>
        <path id="Path_600" data-name="Path 600" d="M89.11,54.752l2.407,4.291,4.5-3.733h7.849l-4.744-3.593,2.477-4.326-7.43,1.535L87.854,46.24l.14,4.535L81.61,53.461Z" transform="translate(203.073 115.061)" fill="#ffeb66"/>
        <path id="Path_601" data-name="Path 601" d="M82.392,54,89.4,56.054l-1.4-4.465,5.581-3.209-7.779-.593L82.253,43.74l-3.419,4.081-7.744.733,5.651,3.1-1.256,4.5Z" transform="translate(176.896 108.84)" fill="#ffeb66"/>
        <path id="Path_602" data-name="Path 602" d="M86.43,95.019,57.2,111.9,28.14,95.124,57.372,78.24Z" transform="translate(70.022 194.688)" fill="#f2f2f2"/>
        <path id="Path_603" data-name="Path 603" d="M74.357,92.142,52.346,79.41,30.16,92.212l22.046,12.732Z" transform="translate(75.048 197.599)" fill="url(#linear-gradient-2)"/>
        <path id="Path_604" data-name="Path 604" d="M38.948,95.814l26.79-5.337-.593-.977L38.39,94.872Z" transform="translate(95.527 222.706)" fill="#666"/>
        <path id="Path_605" data-name="Path 605" d="M37.863,95.174,64.619,89.8l-.558-.942L37.27,94.232Z" transform="translate(92.74 221.114)" fill="#666"/>
        <path id="Path_606" data-name="Path 606" d="M36.718,94.559l26.79-5.372-.558-.977L36.16,93.582Z" transform="translate(89.978 219.496)" fill="#666"/>
        <path id="Path_607" data-name="Path 607" d="M35.608,93.919l26.756-5.372-.558-.977L35.05,92.942Z" transform="translate(87.216 217.904)" fill="#666"/>
        <path id="Path_608" data-name="Path 608" d="M34.488,93.244l26.79-5.372-.558-.942L33.93,92.3Z" transform="translate(84.429 216.311)" fill="#666"/>
        <path id="Path_609" data-name="Path 609" d="M118.21,65.258l-2.826-1.639L139.593,49.63,146.36,53.5,122.116,67.525l-22.6,13.012L95.64,78.3Z" transform="translate(237.984 123.496)" fill="#622586"/>
        <path id="Path_610" data-name="Path 610" d="M151.619,33.718,52.1,91.171l-.837-.488L150.747,33.23Z" transform="translate(127.552 82.687)" fill="#8f73e6"/>
        <path id="Path_611" data-name="Path 611" d="M0,71.6v32.372l137.51,79.395V150.995Z" transform="translate(0 178.165)" fill="#e6e6e6"/>
        <path id="Path_612" data-name="Path 612" d="M47.905,103.146,36.01,96.1l11.9,8.023Z" transform="translate(89.605 239.129)" fill="#999"/>
        <path id="Path_613" data-name="Path 613" d="M0,76.11,22.43,90.621,0,77.4Z" transform="translate(0 189.387)" fill="#999"/>
        <path id="Path_614" data-name="Path 614" d="M371.754,39.36V71.732L39.42,263.59V231.219Z" transform="translate(98.09 97.941)" fill="#ccc"/>
        <path id="Path_615" data-name="Path 615" d="M39.42,100.011,48,97.36l-8.581,3.628Z" transform="translate(98.09 242.264)" fill="#ccc"/>
        <path id="Path_616" data-name="Path 616" d="M49.985,107.681,35.16,98.89l14.825,9.977Z" transform="translate(87.49 246.072)" fill="#999"/>
        <path id="Path_617" data-name="Path 617" d="M39.41,103.774l10.674-3.314-10.674,4.5Z" transform="translate(98.065 249.978)" fill="#ccc"/>
        <path id="Path_618" data-name="Path 618" d="M151.461,41.14l-23.511,15L151.461,42.4Z" transform="translate(318.383 102.37)" fill="#ccc"/>
        <path id="Path_619" data-name="Path 619" d="M161.763,45.29,123.81,66.08l37.953-19.709Z" transform="translate(308.081 112.697)" fill="#ccc"/>
        <path id="Path_620" data-name="Path 620" d="M143.243,93.333,78.29,130.867V98.775L143.243,61.24Z" transform="translate(194.812 152.386)" fill="#401857"/>
        <path id="Path_621" data-name="Path 621" d="M123.58,95.307V63.11l-42,24.314v32.162Z" transform="translate(202.998 157.039)" fill="#e6c9f5"/>
        <path id="Path_622" data-name="Path 622" d="M38.65,76.03l138.243,79.185L230.4,124.343l11.511-6.628L103.673,38.53l-11.2,6.453-42,24.244Z" transform="translate(96.174 95.876)" fill="#401857"/>
        <path id="Path_623" data-name="Path 623" d="M42.04,64.624l137.894,79.325,42.034-24.209L84.04,40.38Z" transform="translate(104.61 100.479)" fill="#e6c9f5"/>
        <path id="Path_624" data-name="Path 624" d="M140.885,271.253l332.3-191.859L335.639,0,3.34,191.859Z" transform="translate(8.311)" fill="#f2f2f2"/>
        <path id="Path_625" data-name="Path 625" d="M123.156,219.366,365.84,79.239,254,14.67,11.32,154.8Z" transform="translate(28.168 36.504)" fill="#8f5eab"/>
        <path id="Path_626" data-name="Path 626" d="M136.778,35.16,28.64,97.566,115.674,147.8l108.1-62.406Z" transform="translate(71.266 87.49)" fill="#622586"/>
        <path id="Path_627" data-name="Path 627" d="M158.8,14.67,49.58,77.739l15,8.651L173.8,23.321Z" transform="translate(123.372 36.504)" fill="#e6c9f5"/>
        <path id="Path_628" data-name="Path 628" d="M116.807,37.38,11.32,98.286l60.732,35.058L177.539,72.438Z" transform="translate(28.168 93.014)" fill="#e6c9f5"/>
        <path id="Path_629" data-name="Path 629" d="M146.889,18.482,100.739,45.133,80.89,33.656,127.006,7.04Z" transform="translate(201.281 17.518)" fill="#622586"/>
        <path id="Path_646" data-name="Path 646" d="M56.768,31.419c1.535.907,3.488,0,5.128.977l.663.384-2.512,1.465-.767-.453,1.64-.942h0c-.907-.523-3.244,0-4.953-.907-.872-.488-.942-1.012,0-1.5a2.512,2.512,0,0,1,2.616,0l.558.314-.837.453L57.71,30.9a.872.872,0,0,0-.942,0C56.314,30.965,56.279,31.14,56.768,31.419Z" transform="translate(137.567 74.836)"/>
        <path id="Path_647" data-name="Path 647" d="M60.538,32.578c.872.488.907,1.047,0,1.535a2.651,2.651,0,0,1-2.686,0l-2.826-1.64c-.872-.488-.907-1.046,0-1.535a2.581,2.581,0,0,1,2.686,0Zm-3.732-1.186a.907.907,0,0,0-.977,0c-.279,0-.314.349,0,.558l2.93,1.674a.907.907,0,0,0,1.012,0c.244,0,.279-.349,0-.558Z" transform="translate(135.263 76.048)"/>
        <path id="Path_648" data-name="Path 648" d="M59.623,33.081c.872.488.942,1.047,0,1.535a2.581,2.581,0,0,1-2.651,0l-2.826-1.64c-.872-.488-.907-1.046,0-1.535a2.581,2.581,0,0,1,2.651,0ZM55.89,31.895a.907.907,0,0,0-.977,0c-.279.174-.279.349,0,.558l2.93,1.709a.907.907,0,0,0,.942.14c.279,0,.279-.349,0-.558Z" transform="translate(133.073 77.325)"/>
        <path id="Path_649" data-name="Path 649" d="M58.768,33.59c.872.488.907,1.047,0,1.535a2.651,2.651,0,0,1-2.686,0l-2.826-1.64c-.872-.488-.907-1.046,0-1.535a2.651,2.651,0,0,1,2.686,0ZM55.035,32.4a.977.977,0,0,0-.977,0c-.279.174-.314.349,0,.558l2.93,1.709a.977.977,0,0,0,1.012,0c.244,0,.279-.349,0-.558Z" transform="translate(130.858 78.595)"/>
        <path id="Path_650" data-name="Path 650" d="M79.141,38.532l7.5-1.36-6.384-2.616.14-4.535-6.314,2.721-7.43-1.43L69.129,35.6,64.42,39.229l7.849-.07,4.535,3.7Z" transform="translate(160.299 74.7)" fill="#ffeb66"/>
        <path id="Path_651" data-name="Path 651" d="M77.7,42.528l3.663-4.046-7.744.8L68.138,36.04l-1.151,4.5L59.94,42.563l7.046,1.988,1.116,4.5,5.477-3.279,7.744.733Z" transform="translate(149.151 89.68)" fill="#ffeb66"/>
        <path id="Path_652" data-name="Path 652" d="M79.631,46.276,77.294,41.95l-4.535,3.733-7.849-.035,4.709,3.593-2.546,4.326,7.465-1.5,6.279,2.686-.1-4.535L87.131,47.6Z" transform="translate(161.518 104.386)" fill="#ffeb66"/>
        <path id="Path_653" data-name="Path 653" d="M86.552,46.738,79.576,44.68l1.36,4.465L75.32,52.319l7.779.628,3.488,4.046,3.453-4.081,7.779-.7-5.651-3.14,1.326-4.465Z" transform="translate(187.421 111.005)" fill="#ffeb66"/>
        <path id="Path_654" data-name="Path 654" d="M93.07,45.886l-7.5,1.4,6.419,2.581-.07,4.535L98.2,51.641l7.465,1.43-2.546-4.291,4.674-3.663-7.849.1-4.57-3.663Z" transform="translate(212.927 103.415)" fill="#ffeb66"/>
        <path id="Path_658" data-name="Path 658" d="M89.77,78.419,60.538,95.3,31.48,78.524,60.712,61.64Z" transform="translate(78.333 153.381)" fill="#f2f2f2"/>
        <path id="Path_659" data-name="Path 659" d="M77.732,75.508,55.686,62.81,33.5,75.612,55.546,88.345Z" transform="translate(83.359 156.292)" fill="url(#linear-gradient-3)"/>
        <path id="Path_660" data-name="Path 660" d="M42.288,79.214l26.79-5.372-.593-.942L41.73,78.272Z" transform="translate(103.838 181.4)" fill="#666"/>
        <path id="Path_661" data-name="Path 661" d="M41.2,78.574,67.959,73.2,67.4,72.26,40.61,77.632Z" transform="translate(101.051 179.807)" fill="#666"/>
        <path id="Path_662" data-name="Path 662" d="M40.058,77.959l26.79-5.372-.558-.977L39.5,76.982Z" transform="translate(98.289 178.19)" fill="#666"/>
        <path id="Path_663" data-name="Path 663" d="M38.948,77.284l26.79-5.337-.593-.977L38.39,76.342Z" transform="translate(95.527 176.597)" fill="#666"/>
        <path id="Path_664" data-name="Path 664" d="M37.863,76.644l26.756-5.372-.558-.942L37.27,75.7Z" transform="translate(92.74 175.005)" fill="#666"/>
        <path id="Path_665" data-name="Path 665" d="M121.55,48.658l-2.826-1.64L142.968,33.03,149.7,36.9,125.456,50.89l-22.6,13.046L98.98,61.7Z" transform="translate(246.295 82.19)" fill="#8f73e6"/>
        <path id="Path_666" data-name="Path 666" d="M154.959,17.118,55.472,74.571l-.872-.523L154.087,16.63Z" transform="translate(135.863 41.381)" fill="#8f73e6"/>
        <path id="Path_667" data-name="Path 667" d="M3.34,55V87.372l137.545,79.395V134.395Z" transform="translate(8.311 136.859)" fill="#e6e6e6"/>
        <path id="Path_668" data-name="Path 668" d="M51.28,86.546,39.35,79.5l11.93,8.023Z" transform="translate(97.916 197.823)" fill="#999"/>
        <path id="Path_669" data-name="Path 669" d="M3.34,59.51,25.77,74.021,3.34,60.8Z" transform="translate(8.311 148.081)" fill="#999"/>
        <path id="Path_670" data-name="Path 670" d="M375.069,22.76V55.132L42.77,246.99V214.619Z" transform="translate(106.426 56.635)" fill="#ccc"/>
        <path id="Path_671" data-name="Path 671" d="M42.77,83.411l8.546-2.651L42.77,84.388Z" transform="translate(106.426 200.958)" fill="#ccc"/>
        <path id="Path_672" data-name="Path 672" d="M53.3,91.081,38.51,82.29,53.3,92.267Z" transform="translate(95.826 204.765)" fill="#999"/>
        <path id="Path_673" data-name="Path 673" d="M42.75,87.174,53.424,83.86,42.75,88.36Z" transform="translate(106.376 208.672)" fill="#ccc"/>
        <path id="Path_674" data-name="Path 674" d="M154.8,24.54l-23.511,15L154.8,25.8Z" transform="translate(326.694 61.064)" fill="#ccc"/>
        <path id="Path_675" data-name="Path 675" d="M165.078,28.69,127.16,49.48l37.918-19.709Z" transform="translate(316.417 71.39)" fill="#ccc"/>
        <path id="Path_676" data-name="Path 676" d="M146.583,76.733,81.63,114.267V82.174L146.583,44.64Z" transform="translate(203.123 111.079)" fill="#401857"/>
        <path id="Path_677" data-name="Path 677" d="M126.92,78.707V46.51l-42,24.279v32.2Z" transform="translate(211.309 115.733)" fill="#e6c9f5"/>
        <path id="Path_678" data-name="Path 678" d="M41.99,59.43l138.243,79.185,53.546-30.907,11.477-6.593L107.013,21.93l-11.2,6.453-42,24.244Z" transform="translate(104.485 54.569)" fill="#401857"/>
        <path id="Path_679" data-name="Path 679" d="M45.38,48.024l137.894,79.325L225.343,103.1,87.38,23.78Z" transform="translate(112.921 59.173)" fill="#e6c9f5"/>
      </g>
    </g>
  </g>
</svg>
