<svg xmlns="http://www.w3.org/2000/svg" xmlns:xlink="http://www.w3.org/1999/xlink" width="2355.354" height="696.901" viewBox="0 0 2355.354 696.901">
  <defs>
    <clipPath id="clip-path">
      <ellipse id="Ellipse_283" data-name="Ellipse 283" cx="304.366" cy="304.366" rx="304.366" ry="304.366" transform="translate(0 0)" fill="#fff" stroke="#9bf49f" stroke-width="1"/>
    </clipPath>
  </defs>
  <g id="Group_25630" data-name="Group 25630" transform="translate(0 -207.253)">
    <g id="Mask_Group_12" data-name="Mask Group 12" transform="translate(21.244 207.253) rotate(2)" opacity="0.665" clip-path="url(#clip-path)">
      <g id="Group_25515" data-name="Group 25515" transform="translate(-437.852 -505.644)">
        <path id="Path_1508" data-name="Path 1508" d="M0,0H910.645" transform="translate(777.419 0) rotate(34)" fill="#fff" stroke="#9bf49f" stroke-width="0.5"/>
        <path id="Path_1509" data-name="Path 1509" d="M0,0H910.645" transform="translate(774.024 5.033) rotate(34)" fill="#fff" stroke="#9bf49f" stroke-width="0.5"/>
        <path id="Path_1510" data-name="Path 1510" d="M0,0H910.645" transform="translate(770.63 10.066) rotate(34)" fill="#fff" stroke="#9bf49f" stroke-width="0.5"/>
        <path id="Path_1511" data-name="Path 1511" d="M0,0H910.645" transform="translate(767.235 15.099) rotate(34)" fill="#fff" stroke="#9bf49f" stroke-width="0.5"/>
        <path id="Path_1512" data-name="Path 1512" d="M0,0H910.645" transform="translate(763.84 20.132) rotate(34)" fill="#fff" stroke="#9bf49f" stroke-width="0.5"/>
        <path id="Path_1513" data-name="Path 1513" d="M0,0H910.645" transform="translate(760.445 25.165) rotate(34)" fill="#fff" stroke="#9bf49f" stroke-width="0.5"/>
        <path id="Path_1514" data-name="Path 1514" d="M0,0H910.645" transform="translate(757.05 30.198) rotate(34)" fill="#fff" stroke="#9bf49f" stroke-width="0.5"/>
        <path id="Path_1515" data-name="Path 1515" d="M0,0H910.645" transform="translate(753.655 35.231) rotate(34)" fill="#fff" stroke="#9bf49f" stroke-width="0.5"/>
        <path id="Path_1516" data-name="Path 1516" d="M0,0H910.645" transform="translate(750.261 40.265) rotate(34)" fill="#fff" stroke="#9bf49f" stroke-width="0.5"/>
        <path id="Path_1517" data-name="Path 1517" d="M0,0H910.645" transform="translate(746.866 45.298) rotate(34)" fill="#fff" stroke="#9bf49f" stroke-width="0.5"/>
        <path id="Path_1518" data-name="Path 1518" d="M0,0H910.645" transform="translate(743.471 50.331) rotate(34)" fill="#fff" stroke="#9bf49f" stroke-width="0.5"/>
        <path id="Path_1519" data-name="Path 1519" d="M0,0H910.645" transform="translate(740.076 55.364) rotate(34)" fill="#fff" stroke="#9bf49f" stroke-width="0.5"/>
        <path id="Path_1520" data-name="Path 1520" d="M0,0H910.645" transform="translate(736.681 60.397) rotate(34)" fill="#fff" stroke="#9bf49f" stroke-width="0.5"/>
        <path id="Path_1521" data-name="Path 1521" d="M0,0H910.645" transform="translate(733.286 65.43) rotate(34)" fill="#fff" stroke="#9bf49f" stroke-width="0.5"/>
        <path id="Path_1522" data-name="Path 1522" d="M0,0H910.645" transform="translate(729.891 70.463) rotate(34)" fill="#fff" stroke="#9bf49f" stroke-width="0.5"/>
        <path id="Path_1523" data-name="Path 1523" d="M0,0H910.645" transform="translate(726.497 75.496) rotate(34)" fill="#fff" stroke="#9bf49f" stroke-width="0.5"/>
        <path id="Path_1524" data-name="Path 1524" d="M0,0H910.645" transform="translate(723.102 80.529) rotate(34)" fill="#fff" stroke="#9bf49f" stroke-width="0.5"/>
        <path id="Path_1525" data-name="Path 1525" d="M0,0H910.645" transform="translate(719.707 85.562) rotate(34)" fill="#fff" stroke="#9bf49f" stroke-width="0.5"/>
        <path id="Path_1526" data-name="Path 1526" d="M0,0H910.645" transform="translate(716.312 90.595) rotate(34)" fill="#fff" stroke="#9bf49f" stroke-width="0.5"/>
        <path id="Path_1527" data-name="Path 1527" d="M0,0H910.645" transform="translate(712.917 95.628) rotate(34)" fill="#fff" stroke="#9bf49f" stroke-width="0.5"/>
        <path id="Path_1528" data-name="Path 1528" d="M0,0H910.645" transform="translate(709.522 100.661) rotate(34)" fill="#fff" stroke="#9bf49f" stroke-width="0.5"/>
        <path id="Path_1529" data-name="Path 1529" d="M0,0H910.645" transform="translate(706.128 105.694) rotate(34)" fill="#fff" stroke="#9bf49f" stroke-width="0.5"/>
        <path id="Path_1530" data-name="Path 1530" d="M0,0H910.645" transform="translate(702.733 110.727) rotate(34)" fill="#fff" stroke="#9bf49f" stroke-width="0.5"/>
        <path id="Path_1531" data-name="Path 1531" d="M0,0H910.645" transform="translate(699.338 115.76) rotate(34)" fill="#fff" stroke="#9bf49f" stroke-width="0.5"/>
        <path id="Path_1532" data-name="Path 1532" d="M0,0H910.645" transform="translate(695.943 120.793) rotate(34)" fill="#fff" stroke="#9bf49f" stroke-width="0.5"/>
        <path id="Path_1533" data-name="Path 1533" d="M0,0H910.645" transform="translate(692.548 125.826) rotate(34)" fill="#fff" stroke="#9bf49f" stroke-width="0.5"/>
        <path id="Path_1534" data-name="Path 1534" d="M0,0H910.645" transform="translate(689.153 130.859) rotate(34)" fill="#fff" stroke="#9bf49f" stroke-width="0.5"/>
        <path id="Path_1535" data-name="Path 1535" d="M0,0H910.645" transform="translate(685.759 135.893) rotate(34)" fill="#fff" stroke="#9bf49f" stroke-width="0.5"/>
        <path id="Path_1536" data-name="Path 1536" d="M0,0H910.645" transform="translate(682.364 140.926) rotate(34)" fill="#fff" stroke="#9bf49f" stroke-width="0.5"/>
        <path id="Path_1537" data-name="Path 1537" d="M0,0H910.645" transform="translate(678.969 145.959) rotate(34)" fill="#fff" stroke="#9bf49f" stroke-width="0.5"/>
        <path id="Path_1538" data-name="Path 1538" d="M0,0H910.645" transform="translate(675.574 150.992) rotate(34)" fill="#fff" stroke="#9bf49f" stroke-width="0.5"/>
        <path id="Path_1539" data-name="Path 1539" d="M0,0H910.645" transform="translate(672.179 156.025) rotate(34)" fill="#fff" stroke="#9bf49f" stroke-width="0.5"/>
        <path id="Path_1540" data-name="Path 1540" d="M0,0H910.645" transform="translate(668.784 161.058) rotate(34)" fill="#fff" stroke="#9bf49f" stroke-width="0.5"/>
        <path id="Path_1541" data-name="Path 1541" d="M0,0H910.645" transform="translate(665.389 166.091) rotate(34)" fill="#fff" stroke="#9bf49f" stroke-width="0.5"/>
        <path id="Path_1542" data-name="Path 1542" d="M0,0H910.645" transform="translate(661.995 171.124) rotate(34)" fill="#fff" stroke="#9bf49f" stroke-width="0.5"/>
        <path id="Path_1543" data-name="Path 1543" d="M0,0H910.645" transform="translate(658.6 176.157) rotate(34)" fill="#fff" stroke="#9bf49f" stroke-width="0.5"/>
        <path id="Path_1544" data-name="Path 1544" d="M0,0H910.645" transform="translate(655.205 181.19) rotate(34)" fill="#fff" stroke="#9bf49f" stroke-width="0.5"/>
        <path id="Path_1545" data-name="Path 1545" d="M0,0H910.645" transform="translate(651.81 186.223) rotate(34)" fill="#fff" stroke="#9bf49f" stroke-width="0.5"/>
        <path id="Path_1546" data-name="Path 1546" d="M0,0H910.645" transform="translate(648.415 191.256) rotate(34)" fill="#fff" stroke="#9bf49f" stroke-width="0.5"/>
        <path id="Path_1547" data-name="Path 1547" d="M0,0H910.645" transform="translate(645.02 196.289) rotate(34)" fill="#fff" stroke="#9bf49f" stroke-width="0.5"/>
        <path id="Path_1548" data-name="Path 1548" d="M0,0H910.645" transform="translate(641.626 201.322) rotate(34)" fill="#fff" stroke="#9bf49f" stroke-width="0.5"/>
        <path id="Path_1549" data-name="Path 1549" d="M0,0H910.645" transform="translate(638.231 206.355) rotate(34)" fill="#fff" stroke="#9bf49f" stroke-width="0.5"/>
        <path id="Path_1550" data-name="Path 1550" d="M0,0H910.645" transform="translate(634.836 211.388) rotate(34)" fill="#fff" stroke="#9bf49f" stroke-width="0.5"/>
        <path id="Path_1551" data-name="Path 1551" d="M0,0H910.645" transform="translate(631.441 216.421) rotate(34)" fill="#fff" stroke="#9bf49f" stroke-width="0.5"/>
        <path id="Path_1552" data-name="Path 1552" d="M0,0H910.645" transform="translate(628.046 221.454) rotate(34)" fill="#fff" stroke="#9bf49f" stroke-width="0.5"/>
        <path id="Path_1553" data-name="Path 1553" d="M0,0H910.645" transform="translate(624.651 226.487) rotate(34)" fill="#fff" stroke="#9bf49f" stroke-width="0.5"/>
        <path id="Path_1554" data-name="Path 1554" d="M0,0H910.645" transform="translate(621.257 231.521) rotate(34)" fill="#fff" stroke="#9bf49f" stroke-width="0.5"/>
        <path id="Path_1555" data-name="Path 1555" d="M0,0H910.645" transform="translate(617.862 236.554) rotate(34)" fill="#fff" stroke="#9bf49f" stroke-width="0.5"/>
        <path id="Path_1556" data-name="Path 1556" d="M0,0H910.645" transform="translate(614.467 241.587) rotate(34)" fill="#fff" stroke="#9bf49f" stroke-width="0.5"/>
        <path id="Path_1557" data-name="Path 1557" d="M0,0H910.645" transform="translate(611.072 246.62) rotate(34)" fill="#fff" stroke="#9bf49f" stroke-width="0.5"/>
        <path id="Path_1558" data-name="Path 1558" d="M0,0H910.645" transform="translate(607.677 251.653) rotate(34)" fill="#fff" stroke="#9bf49f" stroke-width="0.5"/>
        <path id="Path_1559" data-name="Path 1559" d="M0,0H910.645" transform="translate(604.282 256.686) rotate(34)" fill="#fff" stroke="#9bf49f" stroke-width="0.5"/>
        <path id="Path_1560" data-name="Path 1560" d="M0,0H910.645" transform="translate(600.887 261.719) rotate(34)" fill="#fff" stroke="#9bf49f" stroke-width="0.5"/>
        <path id="Path_1561" data-name="Path 1561" d="M0,0H910.645" transform="translate(597.493 266.752) rotate(34)" fill="#fff" stroke="#9bf49f" stroke-width="0.5"/>
        <path id="Path_1562" data-name="Path 1562" d="M0,0H910.645" transform="translate(594.098 271.785) rotate(34)" fill="#fff" stroke="#9bf49f" stroke-width="0.5"/>
        <path id="Path_1563" data-name="Path 1563" d="M0,0H910.645" transform="translate(590.703 276.818) rotate(34)" fill="#fff" stroke="#9bf49f" stroke-width="0.5"/>
        <path id="Path_1564" data-name="Path 1564" d="M0,0H910.645" transform="translate(587.308 281.851) rotate(34)" fill="#fff" stroke="#9bf49f" stroke-width="0.5"/>
        <path id="Path_1565" data-name="Path 1565" d="M0,0H910.645" transform="translate(583.913 286.884) rotate(34)" fill="#fff" stroke="#9bf49f" stroke-width="0.5"/>
        <path id="Path_1566" data-name="Path 1566" d="M0,0H910.645" transform="translate(580.519 291.917) rotate(34)" fill="#fff" stroke="#9bf49f" stroke-width="0.5"/>
        <path id="Path_1567" data-name="Path 1567" d="M0,0H910.645" transform="translate(577.124 296.95) rotate(34)" fill="#fff" stroke="#9bf49f" stroke-width="0.5"/>
        <path id="Path_1568" data-name="Path 1568" d="M0,0H910.645" transform="translate(573.729 301.983) rotate(34)" fill="#fff" stroke="#9bf49f" stroke-width="0.5"/>
        <path id="Path_1569" data-name="Path 1569" d="M0,0H910.645" transform="translate(570.334 307.016) rotate(34)" fill="#fff" stroke="#9bf49f" stroke-width="0.5"/>
        <path id="Path_1570" data-name="Path 1570" d="M0,0H910.645" transform="translate(566.939 312.049) rotate(34)" fill="#fff" stroke="#9bf49f" stroke-width="0.5"/>
        <path id="Path_1571" data-name="Path 1571" d="M0,0H910.645" transform="translate(563.544 317.082) rotate(34)" fill="#fff" stroke="#9bf49f" stroke-width="0.5"/>
        <path id="Path_1572" data-name="Path 1572" d="M0,0H910.645" transform="translate(560.149 322.115) rotate(34)" fill="#fff" stroke="#9bf49f" stroke-width="0.5"/>
        <path id="Path_1573" data-name="Path 1573" d="M0,0H910.645" transform="translate(556.755 327.148) rotate(34)" fill="#fff" stroke="#9bf49f" stroke-width="0.5"/>
        <path id="Path_1574" data-name="Path 1574" d="M0,0H910.645" transform="translate(553.36 332.182) rotate(34)" fill="#fff" stroke="#9bf49f" stroke-width="0.5"/>
        <path id="Path_1575" data-name="Path 1575" d="M0,0H910.645" transform="translate(549.965 337.215) rotate(34)" fill="#fff" stroke="#9bf49f" stroke-width="0.5"/>
        <path id="Path_1576" data-name="Path 1576" d="M0,0H910.645" transform="translate(546.57 342.248) rotate(34)" fill="#fff" stroke="#9bf49f" stroke-width="0.5"/>
        <path id="Path_1577" data-name="Path 1577" d="M0,0H910.645" transform="translate(543.175 347.281) rotate(34)" fill="#fff" stroke="#9bf49f" stroke-width="0.5"/>
        <path id="Path_1578" data-name="Path 1578" d="M0,0H910.645" transform="translate(539.78 352.314) rotate(34)" fill="#fff" stroke="#9bf49f" stroke-width="0.5"/>
        <path id="Path_1579" data-name="Path 1579" d="M0,0H910.645" transform="translate(536.385 357.347) rotate(34)" fill="#fff" stroke="#9bf49f" stroke-width="0.5"/>
        <path id="Path_1580" data-name="Path 1580" d="M0,0H910.645" transform="translate(532.991 362.38) rotate(34)" fill="#fff" stroke="#9bf49f" stroke-width="0.5"/>
        <path id="Path_1581" data-name="Path 1581" d="M0,0H910.645" transform="translate(529.596 367.413) rotate(34)" fill="#fff" stroke="#9bf49f" stroke-width="0.5"/>
        <path id="Path_1582" data-name="Path 1582" d="M0,0H910.645" transform="translate(526.201 372.446) rotate(34)" fill="#fff" stroke="#9bf49f" stroke-width="0.5"/>
        <path id="Path_1583" data-name="Path 1583" d="M0,0H910.645" transform="translate(522.806 377.479) rotate(34)" fill="#fff" stroke="#9bf49f" stroke-width="0.5"/>
        <path id="Path_1584" data-name="Path 1584" d="M0,0H910.645" transform="translate(519.411 382.512) rotate(34)" fill="#fff" stroke="#9bf49f" stroke-width="0.5"/>
        <path id="Path_1585" data-name="Path 1585" d="M0,0H910.645" transform="translate(516.016 387.545) rotate(34)" fill="#fff" stroke="#9bf49f" stroke-width="0.5"/>
        <path id="Path_1586" data-name="Path 1586" d="M0,0H910.645" transform="translate(512.622 392.578) rotate(34)" fill="#fff" stroke="#9bf49f" stroke-width="0.5"/>
        <path id="Path_1587" data-name="Path 1587" d="M0,0H910.645" transform="translate(509.227 397.611) rotate(34)" fill="#fff" stroke="#9bf49f" stroke-width="0.5"/>
        <path id="Path_1588" data-name="Path 1588" d="M0,0H910.645" transform="translate(505.832 402.644) rotate(34)" fill="#fff" stroke="#9bf49f" stroke-width="0.5"/>
        <path id="Path_1589" data-name="Path 1589" d="M0,0H910.645" transform="translate(502.437 407.677) rotate(34)" fill="#fff" stroke="#9bf49f" stroke-width="0.5"/>
        <path id="Path_1590" data-name="Path 1590" d="M0,0H910.645" transform="translate(499.042 412.71) rotate(34)" fill="#fff" stroke="#9bf49f" stroke-width="0.5"/>
        <path id="Path_1591" data-name="Path 1591" d="M0,0H910.645" transform="translate(495.647 417.744) rotate(34)" fill="#fff" stroke="#9bf49f" stroke-width="0.5"/>
        <path id="Path_1592" data-name="Path 1592" d="M0,0H910.645" transform="translate(492.252 422.777) rotate(34)" fill="#fff" stroke="#9bf49f" stroke-width="0.5"/>
        <path id="Path_1593" data-name="Path 1593" d="M0,0H910.645" transform="translate(488.858 427.809) rotate(34)" fill="#fff" stroke="#9bf49f" stroke-width="0.5"/>
        <path id="Path_1594" data-name="Path 1594" d="M0,0H910.645" transform="translate(485.463 432.843) rotate(34)" fill="#fff" stroke="#9bf49f" stroke-width="0.5"/>
        <path id="Path_1595" data-name="Path 1595" d="M0,0H910.645" transform="translate(482.068 437.876) rotate(34)" fill="#fff" stroke="#9bf49f" stroke-width="0.5"/>
        <path id="Path_1596" data-name="Path 1596" d="M0,0H910.645" transform="translate(478.673 442.909) rotate(34)" fill="#fff" stroke="#9bf49f" stroke-width="0.5"/>
        <path id="Path_1597" data-name="Path 1597" d="M0,0H910.645" transform="translate(475.278 447.942) rotate(34)" fill="#fff" stroke="#9bf49f" stroke-width="0.5"/>
        <path id="Path_1598" data-name="Path 1598" d="M0,0H910.645" transform="translate(471.884 452.975) rotate(34)" fill="#fff" stroke="#9bf49f" stroke-width="0.5"/>
        <path id="Path_1599" data-name="Path 1599" d="M0,0H910.645" transform="translate(468.489 458.008) rotate(34)" fill="#fff" stroke="#9bf49f" stroke-width="0.5"/>
        <path id="Path_1600" data-name="Path 1600" d="M0,0H910.645" transform="translate(465.094 463.041) rotate(34)" fill="#fff" stroke="#9bf49f" stroke-width="0.5"/>
        <path id="Path_1601" data-name="Path 1601" d="M0,0H910.645" transform="translate(461.699 468.074) rotate(34)" fill="#fff" stroke="#9bf49f" stroke-width="0.5"/>
        <path id="Path_1602" data-name="Path 1602" d="M0,0H910.645" transform="translate(458.304 473.107) rotate(34)" fill="#fff" stroke="#9bf49f" stroke-width="0.5"/>
        <path id="Path_1603" data-name="Path 1603" d="M0,0H910.645" transform="translate(454.909 478.14) rotate(34)" fill="#fff" stroke="#9bf49f" stroke-width="0.5"/>
        <path id="Path_1604" data-name="Path 1604" d="M0,0H910.645" transform="translate(451.514 483.173) rotate(34)" fill="#fff" stroke="#9bf49f" stroke-width="0.5"/>
        <path id="Path_1605" data-name="Path 1605" d="M0,0H910.645" transform="translate(448.12 488.206) rotate(34)" fill="#fff" stroke="#9bf49f" stroke-width="0.5"/>
        <path id="Path_1606" data-name="Path 1606" d="M0,0H910.645" transform="translate(444.725 493.239) rotate(34)" fill="#fff" stroke="#9bf49f" stroke-width="0.5"/>
        <path id="Path_1607" data-name="Path 1607" d="M0,0H910.645" transform="translate(441.33 498.272) rotate(34)" fill="#fff" stroke="#9bf49f" stroke-width="0.5"/>
        <path id="Path_1608" data-name="Path 1608" d="M0,0H910.645" transform="translate(437.935 503.305) rotate(34)" fill="#fff" stroke="#9bf49f" stroke-width="0.5"/>
        <path id="Path_1609" data-name="Path 1609" d="M0,0H910.645" transform="translate(434.54 508.338) rotate(34)" fill="#fff" stroke="#9bf49f" stroke-width="0.5"/>
        <path id="Path_1610" data-name="Path 1610" d="M0,0H910.645" transform="translate(431.145 513.371) rotate(34)" fill="#fff" stroke="#9bf49f" stroke-width="0.5"/>
        <path id="Path_1611" data-name="Path 1611" d="M0,0H910.645" transform="translate(427.75 518.405) rotate(34)" fill="#fff" stroke="#9bf49f" stroke-width="0.5"/>
        <path id="Path_1612" data-name="Path 1612" d="M0,0H910.645" transform="translate(424.356 523.438) rotate(34)" fill="#fff" stroke="#9bf49f" stroke-width="0.5"/>
        <path id="Path_1613" data-name="Path 1613" d="M0,0H910.645" transform="translate(420.961 528.471) rotate(34)" fill="#fff" stroke="#9bf49f" stroke-width="0.5"/>
        <path id="Path_1614" data-name="Path 1614" d="M0,0H910.645" transform="translate(417.566 533.504) rotate(34)" fill="#fff" stroke="#9bf49f" stroke-width="0.5"/>
        <path id="Path_1615" data-name="Path 1615" d="M0,0H910.645" transform="translate(414.171 538.537) rotate(34)" fill="#fff" stroke="#9bf49f" stroke-width="0.5"/>
        <path id="Path_1616" data-name="Path 1616" d="M0,0H910.645" transform="translate(410.776 543.57) rotate(34)" fill="#fff" stroke="#9bf49f" stroke-width="0.5"/>
        <path id="Path_1617" data-name="Path 1617" d="M0,0H910.645" transform="translate(407.382 548.603) rotate(34)" fill="#fff" stroke="#9bf49f" stroke-width="0.5"/>
        <path id="Path_1618" data-name="Path 1618" d="M0,0H910.645" transform="translate(403.987 553.636) rotate(34)" fill="#fff" stroke="#9bf49f" stroke-width="0.5"/>
        <path id="Path_1619" data-name="Path 1619" d="M0,0H910.645" transform="translate(400.592 558.669) rotate(34)" fill="#fff" stroke="#9bf49f" stroke-width="0.5"/>
        <path id="Path_1620" data-name="Path 1620" d="M0,0H910.645" transform="translate(397.197 563.702) rotate(34)" fill="#fff" stroke="#9bf49f" stroke-width="0.5"/>
        <path id="Path_1621" data-name="Path 1621" d="M0,0H910.645" transform="translate(393.802 568.735) rotate(34)" fill="#fff" stroke="#9bf49f" stroke-width="0.5"/>
        <path id="Path_1622" data-name="Path 1622" d="M0,0H910.645" transform="translate(390.407 573.768) rotate(34)" fill="#fff" stroke="#9bf49f" stroke-width="0.5"/>
        <path id="Path_1623" data-name="Path 1623" d="M0,0H910.645" transform="translate(387.012 578.801) rotate(34)" fill="#fff" stroke="#9bf49f" stroke-width="0.5"/>
        <path id="Path_1624" data-name="Path 1624" d="M0,0H910.645" transform="translate(383.618 583.834) rotate(34)" fill="#fff" stroke="#9bf49f" stroke-width="0.5"/>
        <path id="Path_1625" data-name="Path 1625" d="M0,0H910.645" transform="translate(380.223 588.867) rotate(34)" fill="#fff" stroke="#9bf49f" stroke-width="0.5"/>
        <path id="Path_1626" data-name="Path 1626" d="M0,0H910.645" transform="translate(376.828 593.9) rotate(34)" fill="#fff" stroke="#9bf49f" stroke-width="0.5"/>
        <path id="Path_1627" data-name="Path 1627" d="M0,0H910.645" transform="translate(373.433 598.933) rotate(34)" fill="#fff" stroke="#9bf49f" stroke-width="0.5"/>
        <path id="Path_1628" data-name="Path 1628" d="M0,0H910.645" transform="translate(370.038 603.966) rotate(34)" fill="#fff" stroke="#9bf49f" stroke-width="0.5"/>
        <path id="Path_1629" data-name="Path 1629" d="M0,0H910.645" transform="translate(366.643 608.999) rotate(34)" fill="#fff" stroke="#9bf49f" stroke-width="0.5"/>
        <path id="Path_1630" data-name="Path 1630" d="M0,0H910.645" transform="translate(363.248 614.032) rotate(34)" fill="#fff" stroke="#9bf49f" stroke-width="0.5"/>
        <path id="Path_1631" data-name="Path 1631" d="M0,0H910.645" transform="translate(359.854 619.065) rotate(34)" fill="#fff" stroke="#9bf49f" stroke-width="0.5"/>
        <path id="Path_1632" data-name="Path 1632" d="M0,0H910.645" transform="translate(356.459 624.098) rotate(34)" fill="#fff" stroke="#9bf49f" stroke-width="0.5"/>
        <path id="Path_1633" data-name="Path 1633" d="M0,0H910.645" transform="translate(353.064 629.132) rotate(34)" fill="#fff" stroke="#9bf49f" stroke-width="0.5"/>
        <path id="Path_1634" data-name="Path 1634" d="M0,0H910.645" transform="translate(349.669 634.165) rotate(34)" fill="#fff" stroke="#9bf49f" stroke-width="0.5"/>
        <path id="Path_1635" data-name="Path 1635" d="M0,0H910.645" transform="translate(346.274 639.198) rotate(34)" fill="#fff" stroke="#9bf49f" stroke-width="0.5"/>
        <path id="Path_1636" data-name="Path 1636" d="M0,0H910.645" transform="translate(342.88 644.231) rotate(34)" fill="#fff" stroke="#9bf49f" stroke-width="0.5"/>
        <path id="Path_1637" data-name="Path 1637" d="M0,0H910.645" transform="translate(339.485 649.264) rotate(34)" fill="#fff" stroke="#9bf49f" stroke-width="0.5"/>
        <path id="Path_1638" data-name="Path 1638" d="M0,0H910.645" transform="translate(336.09 654.297) rotate(34)" fill="#fff" stroke="#9bf49f" stroke-width="0.5"/>
        <path id="Path_1639" data-name="Path 1639" d="M0,0H910.645" transform="translate(332.695 659.33) rotate(34)" fill="#fff" stroke="#9bf49f" stroke-width="0.5"/>
        <path id="Path_1640" data-name="Path 1640" d="M0,0H910.645" transform="translate(329.3 664.363) rotate(34)" fill="#fff" stroke="#9bf49f" stroke-width="0.5"/>
        <path id="Path_1641" data-name="Path 1641" d="M0,0H910.645" transform="translate(325.905 669.396) rotate(34)" fill="#fff" stroke="#9bf49f" stroke-width="0.5"/>
        <path id="Path_1642" data-name="Path 1642" d="M0,0H910.645" transform="translate(322.51 674.429) rotate(34)" fill="#fff" stroke="#9bf49f" stroke-width="0.5"/>
        <path id="Path_1643" data-name="Path 1643" d="M0,0H910.645" transform="translate(319.116 679.462) rotate(34)" fill="#fff" stroke="#9bf49f" stroke-width="0.5"/>
        <path id="Path_1644" data-name="Path 1644" d="M0,0H910.645" transform="translate(315.721 684.495) rotate(34)" fill="#fff" stroke="#9bf49f" stroke-width="0.5"/>
        <path id="Path_1645" data-name="Path 1645" d="M0,0H910.645" transform="translate(312.326 689.528) rotate(34)" fill="#fff" stroke="#9bf49f" stroke-width="0.5"/>
        <path id="Path_1646" data-name="Path 1646" d="M0,0H910.645" transform="translate(308.931 694.561) rotate(34)" fill="#fff" stroke="#9bf49f" stroke-width="0.5"/>
        <path id="Path_1647" data-name="Path 1647" d="M0,0H910.645" transform="translate(305.536 699.595) rotate(34)" fill="#fff" stroke="#9bf49f" stroke-width="0.5"/>
        <path id="Path_1648" data-name="Path 1648" d="M0,0H910.645" transform="translate(302.141 704.628) rotate(34)" fill="#fff" stroke="#9bf49f" stroke-width="0.5"/>
        <path id="Path_1649" data-name="Path 1649" d="M0,0H910.645" transform="translate(298.746 709.661) rotate(34)" fill="#fff" stroke="#9bf49f" stroke-width="0.5"/>
        <path id="Path_1650" data-name="Path 1650" d="M0,0H910.645" transform="translate(295.352 714.694) rotate(34)" fill="#fff" stroke="#9bf49f" stroke-width="0.5"/>
        <path id="Path_1651" data-name="Path 1651" d="M0,0H910.645" transform="translate(291.957 719.727) rotate(34)" fill="#fff" stroke="#9bf49f" stroke-width="0.5"/>
        <path id="Path_1652" data-name="Path 1652" d="M0,0H910.645" transform="translate(288.562 724.759) rotate(34)" fill="#fff" stroke="#9bf49f" stroke-width="0.5"/>
        <path id="Path_1653" data-name="Path 1653" d="M0,0H910.645" transform="translate(285.167 729.793) rotate(34)" fill="#fff" stroke="#9bf49f" stroke-width="0.5"/>
        <path id="Path_1654" data-name="Path 1654" d="M0,0H910.645" transform="translate(281.772 734.826) rotate(34)" fill="#fff" stroke="#9bf49f" stroke-width="0.5"/>
        <path id="Path_1655" data-name="Path 1655" d="M0,0H910.645" transform="translate(278.377 739.859) rotate(34)" fill="#fff" stroke="#9bf49f" stroke-width="0.5"/>
        <path id="Path_1656" data-name="Path 1656" d="M0,0H910.645" transform="translate(274.983 744.892) rotate(34)" fill="#fff" stroke="#9bf49f" stroke-width="0.5"/>
        <path id="Path_1657" data-name="Path 1657" d="M0,0H910.645" transform="translate(271.588 749.925) rotate(34)" fill="#fff" stroke="#9bf49f" stroke-width="0.5"/>
        <path id="Path_1658" data-name="Path 1658" d="M0,0H910.645" transform="translate(268.193 754.958) rotate(34)" fill="#fff" stroke="#9bf49f" stroke-width="0.5"/>
        <path id="Path_1659" data-name="Path 1659" d="M0,0H910.645" transform="translate(264.798 759.991) rotate(34)" fill="#fff" stroke="#9bf49f" stroke-width="0.5"/>
        <path id="Path_1660" data-name="Path 1660" d="M0,0H910.645" transform="translate(261.403 765.024) rotate(34)" fill="#fff" stroke="#9bf49f" stroke-width="0.5"/>
        <path id="Path_1661" data-name="Path 1661" d="M0,0H910.645" transform="translate(258.008 770.057) rotate(34)" fill="#fff" stroke="#9bf49f" stroke-width="0.5"/>
        <path id="Path_1662" data-name="Path 1662" d="M0,0H910.645" transform="translate(254.614 775.09) rotate(34)" fill="#fff" stroke="#9bf49f" stroke-width="0.5"/>
        <path id="Path_1663" data-name="Path 1663" d="M0,0H910.645" transform="translate(251.219 780.123) rotate(34)" fill="#fff" stroke="#9bf49f" stroke-width="0.5"/>
        <path id="Path_1664" data-name="Path 1664" d="M0,0H910.645" transform="translate(247.824 785.156) rotate(34)" fill="#fff" stroke="#9bf49f" stroke-width="0.5"/>
        <path id="Path_1665" data-name="Path 1665" d="M0,0H910.645" transform="translate(244.429 790.19) rotate(34)" fill="#fff" stroke="#9bf49f" stroke-width="0.5"/>
        <path id="Path_1666" data-name="Path 1666" d="M0,0H910.645" transform="translate(241.034 795.222) rotate(34)" fill="#fff" stroke="#9bf49f" stroke-width="0.5"/>
        <path id="Path_1667" data-name="Path 1667" d="M0,0H910.645" transform="translate(237.639 800.256) rotate(34)" fill="#fff" stroke="#9bf49f" stroke-width="0.5"/>
        <path id="Path_1668" data-name="Path 1668" d="M0,0H910.645" transform="translate(234.244 805.289) rotate(34)" fill="#fff" stroke="#9bf49f" stroke-width="0.5"/>
        <path id="Path_1669" data-name="Path 1669" d="M0,0H910.645" transform="translate(230.85 810.322) rotate(34)" fill="#fff" stroke="#9bf49f" stroke-width="0.5"/>
        <path id="Path_1670" data-name="Path 1670" d="M0,0H910.645" transform="translate(227.455 815.355) rotate(34)" fill="#fff" stroke="#9bf49f" stroke-width="0.5"/>
        <path id="Path_1671" data-name="Path 1671" d="M0,0H910.645" transform="translate(224.06 820.388) rotate(34)" fill="#fff" stroke="#9bf49f" stroke-width="0.5"/>
        <path id="Path_1672" data-name="Path 1672" d="M0,0H910.645" transform="translate(220.665 825.421) rotate(34)" fill="#fff" stroke="#9bf49f" stroke-width="0.5"/>
        <path id="Path_1673" data-name="Path 1673" d="M0,0H910.645" transform="translate(217.27 830.454) rotate(34)" fill="#fff" stroke="#9bf49f" stroke-width="0.5"/>
        <path id="Path_1674" data-name="Path 1674" d="M0,0H910.645" transform="translate(213.875 835.487) rotate(34)" fill="#fff" stroke="#9bf49f" stroke-width="0.5"/>
        <path id="Path_1675" data-name="Path 1675" d="M0,0H910.645" transform="translate(210.481 840.52) rotate(34)" fill="#fff" stroke="#9bf49f" stroke-width="0.5"/>
        <path id="Path_1676" data-name="Path 1676" d="M0,0H910.645" transform="translate(207.086 845.553) rotate(34)" fill="#fff" stroke="#9bf49f" stroke-width="0.5"/>
        <path id="Path_1677" data-name="Path 1677" d="M0,0H910.645" transform="translate(203.691 850.586) rotate(34)" fill="#fff" stroke="#9bf49f" stroke-width="0.5"/>
        <path id="Path_1678" data-name="Path 1678" d="M0,0H910.645" transform="translate(200.296 855.619) rotate(34)" fill="#fff" stroke="#9bf49f" stroke-width="0.5"/>
        <path id="Path_1679" data-name="Path 1679" d="M0,0H910.645" transform="translate(196.901 860.652) rotate(34)" fill="#fff" stroke="#9bf49f" stroke-width="0.5"/>
        <path id="Path_1680" data-name="Path 1680" d="M0,0H910.645" transform="translate(193.506 865.685) rotate(34)" fill="#fff" stroke="#9bf49f" stroke-width="0.5"/>
        <path id="Path_1681" data-name="Path 1681" d="M0,0H910.645" transform="translate(190.112 870.718) rotate(34)" fill="#fff" stroke="#9bf49f" stroke-width="0.5"/>
        <path id="Path_1682" data-name="Path 1682" d="M0,0H910.645" transform="translate(186.717 875.751) rotate(34)" fill="#fff" stroke="#9bf49f" stroke-width="0.5"/>
        <path id="Path_1683" data-name="Path 1683" d="M0,0H910.645" transform="translate(183.322 880.784) rotate(34)" fill="#fff" stroke="#9bf49f" stroke-width="0.5"/>
        <path id="Path_1684" data-name="Path 1684" d="M0,0H910.645" transform="translate(179.927 885.817) rotate(34)" fill="#fff" stroke="#9bf49f" stroke-width="0.5"/>
        <path id="Path_1685" data-name="Path 1685" d="M0,0H910.645" transform="translate(176.532 890.851) rotate(34)" fill="#fff" stroke="#9bf49f" stroke-width="0.5"/>
        <path id="Path_1686" data-name="Path 1686" d="M0,0H910.645" transform="translate(173.137 895.883) rotate(34)" fill="#fff" stroke="#9bf49f" stroke-width="0.5"/>
        <path id="Path_1687" data-name="Path 1687" d="M0,0H910.645" transform="translate(169.742 900.917) rotate(34)" fill="#fff" stroke="#9bf49f" stroke-width="0.5"/>
        <path id="Path_1688" data-name="Path 1688" d="M0,0H910.645" transform="translate(166.348 905.95) rotate(34)" fill="#fff" stroke="#9bf49f" stroke-width="0.5"/>
        <path id="Path_1689" data-name="Path 1689" d="M0,0H910.645" transform="translate(162.953 910.983) rotate(34)" fill="#fff" stroke="#9bf49f" stroke-width="0.5"/>
        <path id="Path_1690" data-name="Path 1690" d="M0,0H910.645" transform="translate(159.558 916.016) rotate(34)" fill="#fff" stroke="#9bf49f" stroke-width="0.5"/>
        <path id="Path_1691" data-name="Path 1691" d="M0,0H910.645" transform="translate(156.163 921.049) rotate(34)" fill="#fff" stroke="#9bf49f" stroke-width="0.5"/>
        <path id="Path_1692" data-name="Path 1692" d="M0,0H910.645" transform="translate(152.768 926.082) rotate(34)" fill="#fff" stroke="#9bf49f" stroke-width="0.5"/>
        <path id="Path_1693" data-name="Path 1693" d="M0,0H910.645" transform="translate(149.373 931.115) rotate(34)" fill="#fff" stroke="#9bf49f" stroke-width="0.5"/>
        <path id="Path_1694" data-name="Path 1694" d="M0,0H910.645" transform="translate(145.979 936.148) rotate(34)" fill="#fff" stroke="#9bf49f" stroke-width="0.5"/>
        <path id="Path_1695" data-name="Path 1695" d="M0,0H910.645" transform="translate(142.584 941.181) rotate(34)" fill="#fff" stroke="#9bf49f" stroke-width="0.5"/>
        <path id="Path_1696" data-name="Path 1696" d="M0,0H910.645" transform="translate(139.189 946.214) rotate(34)" fill="#fff" stroke="#9bf49f" stroke-width="0.5"/>
        <path id="Path_1697" data-name="Path 1697" d="M0,0H910.645" transform="translate(135.794 951.247) rotate(34)" fill="#fff" stroke="#9bf49f" stroke-width="0.5"/>
        <path id="Path_1698" data-name="Path 1698" d="M0,0H910.645" transform="translate(132.399 956.28) rotate(34)" fill="#fff" stroke="#9bf49f" stroke-width="0.5"/>
        <path id="Path_1699" data-name="Path 1699" d="M0,0H910.645" transform="translate(129.004 961.313) rotate(34)" fill="#fff" stroke="#9bf49f" stroke-width="0.5"/>
        <path id="Path_1700" data-name="Path 1700" d="M0,0H910.645" transform="translate(125.61 966.346) rotate(34)" fill="#fff" stroke="#9bf49f" stroke-width="0.5"/>
        <path id="Path_1701" data-name="Path 1701" d="M0,0H910.645" transform="translate(122.215 971.379) rotate(34)" fill="#fff" stroke="#9bf49f" stroke-width="0.5"/>
        <path id="Path_1702" data-name="Path 1702" d="M0,0H910.645" transform="translate(118.82 976.412) rotate(34)" fill="#fff" stroke="#9bf49f" stroke-width="0.5"/>
        <path id="Path_1703" data-name="Path 1703" d="M0,0H910.645" transform="translate(115.425 981.445) rotate(34)" fill="#fff" stroke="#9bf49f" stroke-width="0.5"/>
        <path id="Path_1704" data-name="Path 1704" d="M0,0H910.645" transform="translate(112.03 986.478) rotate(34)" fill="#fff" stroke="#9bf49f" stroke-width="0.5"/>
        <path id="Path_1705" data-name="Path 1705" d="M0,0H910.645" transform="translate(108.635 991.511) rotate(34)" fill="#fff" stroke="#9bf49f" stroke-width="0.5"/>
        <path id="Path_1706" data-name="Path 1706" d="M0,0H910.645" transform="translate(105.24 996.545) rotate(34)" fill="#fff" stroke="#9bf49f" stroke-width="0.5"/>
        <path id="Path_1707" data-name="Path 1707" d="M0,0H910.645" transform="translate(101.846 1001.578) rotate(34)" fill="#fff" stroke="#9bf49f" stroke-width="0.5"/>
        <path id="Path_1708" data-name="Path 1708" d="M0,0H910.645" transform="translate(98.451 1006.611) rotate(34)" fill="#fff" stroke="#9bf49f" stroke-width="0.5"/>
        <path id="Path_1709" data-name="Path 1709" d="M0,0H910.645" transform="translate(95.056 1011.644) rotate(34)" fill="#fff" stroke="#9bf49f" stroke-width="0.5"/>
        <path id="Path_1710" data-name="Path 1710" d="M0,0H910.645" transform="translate(91.661 1016.677) rotate(34)" fill="#fff" stroke="#9bf49f" stroke-width="0.5"/>
        <path id="Path_1711" data-name="Path 1711" d="M0,0H910.645" transform="translate(88.266 1021.71) rotate(34)" fill="#fff" stroke="#9bf49f" stroke-width="0.5"/>
        <path id="Path_1712" data-name="Path 1712" d="M0,0H910.645" transform="translate(84.871 1026.743) rotate(34)" fill="#fff" stroke="#9bf49f" stroke-width="0.5"/>
        <path id="Path_1713" data-name="Path 1713" d="M0,0H910.645" transform="translate(81.477 1031.776) rotate(34)" fill="#fff" stroke="#9bf49f" stroke-width="0.5"/>
        <path id="Path_1714" data-name="Path 1714" d="M0,0H910.645" transform="translate(78.082 1036.809) rotate(34)" fill="#fff" stroke="#9bf49f" stroke-width="0.5"/>
        <path id="Path_1715" data-name="Path 1715" d="M0,0H910.645" transform="translate(74.687 1041.842) rotate(34)" fill="#fff" stroke="#9bf49f" stroke-width="0.5"/>
        <path id="Path_1716" data-name="Path 1716" d="M0,0H910.645" transform="translate(71.292 1046.875) rotate(34)" fill="#fff" stroke="#9bf49f" stroke-width="0.5"/>
        <path id="Path_1717" data-name="Path 1717" d="M0,0H910.645" transform="translate(67.897 1051.908) rotate(34)" fill="#fff" stroke="#9bf49f" stroke-width="0.5"/>
        <path id="Path_1718" data-name="Path 1718" d="M0,0H910.645" transform="translate(64.502 1056.941) rotate(34)" fill="#fff" stroke="#9bf49f" stroke-width="0.5"/>
        <path id="Path_1719" data-name="Path 1719" d="M0,0H910.645" transform="translate(61.108 1061.974) rotate(34)" fill="#fff" stroke="#9bf49f" stroke-width="0.5"/>
        <path id="Path_1720" data-name="Path 1720" d="M0,0H910.645" transform="translate(57.713 1067.007) rotate(34)" fill="#fff" stroke="#9bf49f" stroke-width="0.5"/>
        <path id="Path_1721" data-name="Path 1721" d="M0,0H910.645" transform="translate(54.318 1072.04) rotate(34)" fill="#fff" stroke="#9bf49f" stroke-width="0.5"/>
        <path id="Path_1722" data-name="Path 1722" d="M0,0H910.645" transform="translate(50.923 1077.073) rotate(34)" fill="#fff" stroke="#9bf49f" stroke-width="0.5"/>
        <path id="Path_1723" data-name="Path 1723" d="M0,0H910.645" transform="translate(47.528 1082.106) rotate(34)" fill="#fff" stroke="#9bf49f" stroke-width="0.5"/>
        <path id="Path_1724" data-name="Path 1724" d="M0,0H910.645" transform="translate(44.133 1087.14) rotate(34)" fill="#fff" stroke="#9bf49f" stroke-width="0.5"/>
        <path id="Path_1725" data-name="Path 1725" d="M0,0H910.645" transform="translate(40.738 1092.172) rotate(34)" fill="#fff" stroke="#9bf49f" stroke-width="0.5"/>
        <path id="Path_1726" data-name="Path 1726" d="M0,0H910.645" transform="translate(37.344 1097.206) rotate(34)" fill="#fff" stroke="#9bf49f" stroke-width="0.5"/>
        <path id="Path_1727" data-name="Path 1727" d="M0,0H910.645" transform="translate(33.949 1102.239) rotate(34)" fill="#fff" stroke="#9bf49f" stroke-width="0.5"/>
        <path id="Path_1728" data-name="Path 1728" d="M0,0H910.645" transform="translate(30.554 1107.272) rotate(34)" fill="#fff" stroke="#9bf49f" stroke-width="0.5"/>
        <path id="Path_1729" data-name="Path 1729" d="M0,0H910.645" transform="translate(27.159 1112.305) rotate(34)" fill="#fff" stroke="#9bf49f" stroke-width="0.5"/>
        <path id="Path_1730" data-name="Path 1730" d="M0,0H910.645" transform="translate(23.764 1117.338) rotate(34)" fill="#fff" stroke="#9bf49f" stroke-width="0.5"/>
        <path id="Path_1731" data-name="Path 1731" d="M0,0H910.645" transform="translate(20.369 1122.371) rotate(34)" fill="#fff" stroke="#9bf49f" stroke-width="0.5"/>
        <path id="Path_1732" data-name="Path 1732" d="M0,0H910.645" transform="translate(16.975 1127.404) rotate(34)" fill="#fff" stroke="#9bf49f" stroke-width="0.5"/>
        <path id="Path_1733" data-name="Path 1733" d="M0,0H910.645" transform="translate(13.58 1132.437) rotate(34)" fill="#fff" stroke="#9bf49f" stroke-width="0.5"/>
        <path id="Path_1734" data-name="Path 1734" d="M0,0H910.645" transform="translate(10.185 1137.47) rotate(34)" fill="#fff" stroke="#9bf49f" stroke-width="0.5"/>
        <path id="Path_1735" data-name="Path 1735" d="M0,0H910.645" transform="translate(6.79 1142.503) rotate(34)" fill="#fff" stroke="#9bf49f" stroke-width="0.5"/>
        <path id="Path_1736" data-name="Path 1736" d="M0,0H910.645" transform="translate(3.395 1147.536) rotate(34)" fill="#fff" stroke="#9bf49f" stroke-width="0.5"/>
        <path id="Path_1737" data-name="Path 1737" d="M0,0H910.645" transform="translate(0 1152.569) rotate(34)" fill="#fff" stroke="#9bf49f" stroke-width="0.5"/>
      </g>
    </g>
    <path id="Intersection_14" data-name="Intersection 14" d="M20,393.95a20,20,0,0,1-20-20V42.7C90.091,15.127,188.111,0,290.657,0S491.223,15.127,581.314,42.7V373.949a20,20,0,0,1-20,20Z" transform="translate(1654.172 566.473) rotate(-31)" fill="#e6c9f5" opacity="0.071"/>
    <path id="Intersection_13" data-name="Intersection 13" d="M20,280.345a20,20,0,0,1-20-20V42.7C90.091,15.127,188.111,0,290.657,0S491.223,15.127,581.314,42.7V260.345a20,20,0,0,1-20,20Z" transform="translate(1712.682 663.851) rotate(-31)" fill="#e6c9f5" opacity="0.071"/>
  </g>
</svg>
