<svg xmlns="http://www.w3.org/2000/svg" xmlns:xlink="http://www.w3.org/1999/xlink" width="825.499" height="476.33" viewBox="0 0 825.499 476.33">
  <defs>
    <clipPath id="clip-path">
      <ellipse id="Ellipse_278" data-name="Ellipse 278" cx="41.225" cy="41.225" rx="41.225" ry="41.225" transform="translate(0 0)" fill="none" stroke="#fff" stroke-width="1"/>
    </clipPath>
    <linearGradient id="linear-gradient" x1="0.5" x2="0.5" y2="1" gradientUnits="objectBoundingBox">
      <stop offset="0" stop-color="#b187cb"/>
      <stop offset="0.394" stop-color="#ad84c7"/>
      <stop offset="1" stop-color="#ccb2dd" stop-opacity="0.82"/>
    </linearGradient>
    <linearGradient id="linear-gradient-2" x1="0.569" y1="0.245" x2="0.5" y2="1" gradientUnits="objectBoundingBox">
      <stop offset="0" stop-color="#fff" stop-opacity="0"/>
      <stop offset="1" stop-color="#aa81c3"/>
    </linearGradient>
    <linearGradient id="linear-gradient-3" x1="0.591" y1="0.367" x2="0.5" y2="1" gradientUnits="objectBoundingBox">
      <stop offset="0" stop-color="#fff" stop-opacity="0"/>
      <stop offset="0.483" stop-color="#e7dbef" stop-opacity="0.11"/>
      <stop offset="1" stop-color="#b088c9"/>
    </linearGradient>
  </defs>
  <g id="Group_25627" data-name="Group 25627" transform="translate(-974 -6342)">
    <path id="Path_1504" data-name="Path 1504" d="M993.2,6818s-52.2-127.806,63.845-191.809c120.31-66.358,412.422-65.061,638,191.809" fill="none" stroke="#fff" stroke-width="1" opacity="0.292"/>
    <g id="Mask_Group_11" data-name="Mask Group 11" transform="translate(1278.239 6546.361) rotate(2)" opacity="0.5" clip-path="url(#clip-path)">
      <g id="Group_25514" data-name="Group 25514" transform="translate(-59.305 -68.487)">
        <path id="Path_210" data-name="Path 210" d="M0,0H123.342" transform="translate(105.297 0) rotate(34)" fill="none" stroke="#fff" stroke-width="0.5"/>
        <path id="Path_210-2" data-name="Path 210" d="M0,0H123.342" transform="translate(104.837 0.682) rotate(34)" fill="none" stroke="#fff" stroke-width="0.5"/>
        <path id="Path_210-3" data-name="Path 210" d="M0,0H123.342" transform="translate(104.378 1.363) rotate(34)" fill="none" stroke="#fff" stroke-width="0.5"/>
        <path id="Path_210-4" data-name="Path 210" d="M0,0H123.342" transform="translate(103.918 2.045) rotate(34)" fill="none" stroke="#fff" stroke-width="0.5"/>
        <path id="Path_210-5" data-name="Path 210" d="M0,0H123.342" transform="translate(103.458 2.727) rotate(34)" fill="none" stroke="#fff" stroke-width="0.5"/>
        <path id="Path_210-6" data-name="Path 210" d="M0,0H123.342" transform="translate(102.998 3.408) rotate(34)" fill="none" stroke="#fff" stroke-width="0.5"/>
        <path id="Path_210-7" data-name="Path 210" d="M0,0H123.342" transform="translate(102.538 4.09) rotate(34)" fill="none" stroke="#fff" stroke-width="0.5"/>
        <path id="Path_210-8" data-name="Path 210" d="M0,0H123.342" transform="translate(102.079 4.772) rotate(34)" fill="none" stroke="#fff" stroke-width="0.5"/>
        <path id="Path_210-9" data-name="Path 210" d="M0,0H123.342" transform="translate(101.619 5.454) rotate(34)" fill="none" stroke="#fff" stroke-width="0.5"/>
        <path id="Path_210-10" data-name="Path 210" d="M0,0H123.342" transform="translate(101.159 6.135) rotate(34)" fill="none" stroke="#fff" stroke-width="0.5"/>
        <path id="Path_210-11" data-name="Path 210" d="M0,0H123.342" transform="translate(100.699 6.817) rotate(34)" fill="none" stroke="#fff" stroke-width="0.5"/>
        <path id="Path_210-12" data-name="Path 210" d="M0,0H123.342" transform="translate(100.239 7.499) rotate(34)" fill="none" stroke="#fff" stroke-width="0.5"/>
        <path id="Path_210-13" data-name="Path 210" d="M0,0H123.342" transform="translate(99.78 8.18) rotate(34)" fill="none" stroke="#fff" stroke-width="0.5"/>
        <path id="Path_210-14" data-name="Path 210" d="M0,0H123.342" transform="translate(99.32 8.862) rotate(34)" fill="none" stroke="#fff" stroke-width="0.5"/>
        <path id="Path_210-15" data-name="Path 210" d="M0,0H123.342" transform="translate(98.86 9.544) rotate(34)" fill="none" stroke="#fff" stroke-width="0.5"/>
        <path id="Path_210-16" data-name="Path 210" d="M0,0H123.342" transform="translate(98.4 10.225) rotate(34)" fill="none" stroke="#fff" stroke-width="0.5"/>
        <path id="Path_210-17" data-name="Path 210" d="M0,0H123.342" transform="translate(97.94 10.907) rotate(34)" fill="none" stroke="#fff" stroke-width="0.5"/>
        <path id="Path_210-18" data-name="Path 210" d="M0,0H123.342" transform="translate(97.48 11.589) rotate(34)" fill="none" stroke="#fff" stroke-width="0.5"/>
        <path id="Path_210-19" data-name="Path 210" d="M0,0H123.342" transform="translate(97.021 12.271) rotate(34)" fill="none" stroke="#fff" stroke-width="0.5"/>
        <path id="Path_210-20" data-name="Path 210" d="M0,0H123.342" transform="translate(96.561 12.952) rotate(34)" fill="none" stroke="#fff" stroke-width="0.5"/>
        <path id="Path_210-21" data-name="Path 210" d="M0,0H123.342" transform="translate(96.101 13.634) rotate(34)" fill="none" stroke="#fff" stroke-width="0.5"/>
        <path id="Path_210-22" data-name="Path 210" d="M0,0H123.342" transform="translate(95.641 14.316) rotate(34)" fill="none" stroke="#fff" stroke-width="0.5"/>
        <path id="Path_210-23" data-name="Path 210" d="M0,0H123.342" transform="translate(95.181 14.997) rotate(34)" fill="none" stroke="#fff" stroke-width="0.5"/>
        <path id="Path_210-24" data-name="Path 210" d="M0,0H123.342" transform="translate(94.722 15.679) rotate(34)" fill="none" stroke="#fff" stroke-width="0.5"/>
        <path id="Path_210-25" data-name="Path 210" d="M0,0H123.342" transform="translate(94.262 16.361) rotate(34)" fill="none" stroke="#fff" stroke-width="0.5"/>
        <path id="Path_210-26" data-name="Path 210" d="M0,0H123.342" transform="translate(93.802 17.042) rotate(34)" fill="none" stroke="#fff" stroke-width="0.5"/>
        <path id="Path_210-27" data-name="Path 210" d="M0,0H123.342" transform="translate(93.342 17.724) rotate(34)" fill="none" stroke="#fff" stroke-width="0.5"/>
        <path id="Path_210-28" data-name="Path 210" d="M0,0H123.342" transform="translate(92.882 18.406) rotate(34)" fill="none" stroke="#fff" stroke-width="0.5"/>
        <path id="Path_210-29" data-name="Path 210" d="M0,0H123.342" transform="translate(92.423 19.088) rotate(34)" fill="none" stroke="#fff" stroke-width="0.5"/>
        <path id="Path_210-30" data-name="Path 210" d="M0,0H123.342" transform="translate(91.963 19.769) rotate(34)" fill="none" stroke="#fff" stroke-width="0.5"/>
        <path id="Path_210-31" data-name="Path 210" d="M0,0H123.342" transform="translate(91.503 20.451) rotate(34)" fill="none" stroke="#fff" stroke-width="0.5"/>
        <path id="Path_210-32" data-name="Path 210" d="M0,0H123.342" transform="translate(91.043 21.133) rotate(34)" fill="none" stroke="#fff" stroke-width="0.5"/>
        <path id="Path_210-33" data-name="Path 210" d="M0,0H123.342" transform="translate(90.583 21.814) rotate(34)" fill="none" stroke="#fff" stroke-width="0.5"/>
        <path id="Path_210-34" data-name="Path 210" d="M0,0H123.342" transform="translate(90.123 22.496) rotate(34)" fill="none" stroke="#fff" stroke-width="0.5"/>
        <path id="Path_210-35" data-name="Path 210" d="M0,0H123.342" transform="translate(89.664 23.178) rotate(34)" fill="none" stroke="#fff" stroke-width="0.5"/>
        <path id="Path_210-36" data-name="Path 210" d="M0,0H123.342" transform="translate(89.204 23.859) rotate(34)" fill="none" stroke="#fff" stroke-width="0.5"/>
        <path id="Path_210-37" data-name="Path 210" d="M0,0H123.342" transform="translate(88.744 24.541) rotate(34)" fill="none" stroke="#fff" stroke-width="0.5"/>
        <path id="Path_210-38" data-name="Path 210" d="M0,0H123.342" transform="translate(88.284 25.223) rotate(34)" fill="none" stroke="#fff" stroke-width="0.5"/>
        <path id="Path_210-39" data-name="Path 210" d="M0,0H123.342" transform="translate(87.824 25.905) rotate(34)" fill="none" stroke="#fff" stroke-width="0.5"/>
        <path id="Path_210-40" data-name="Path 210" d="M0,0H123.342" transform="translate(87.365 26.586) rotate(34)" fill="none" stroke="#fff" stroke-width="0.5"/>
        <path id="Path_210-41" data-name="Path 210" d="M0,0H123.342" transform="translate(86.905 27.268) rotate(34)" fill="none" stroke="#fff" stroke-width="0.5"/>
        <path id="Path_210-42" data-name="Path 210" d="M0,0H123.342" transform="translate(86.445 27.95) rotate(34)" fill="none" stroke="#fff" stroke-width="0.5"/>
        <path id="Path_210-43" data-name="Path 210" d="M0,0H123.342" transform="translate(85.985 28.631) rotate(34)" fill="none" stroke="#fff" stroke-width="0.5"/>
        <path id="Path_210-44" data-name="Path 210" d="M0,0H123.342" transform="translate(85.525 29.313) rotate(34)" fill="none" stroke="#fff" stroke-width="0.5"/>
        <path id="Path_210-45" data-name="Path 210" d="M0,0H123.342" transform="translate(85.066 29.995) rotate(34)" fill="none" stroke="#fff" stroke-width="0.5"/>
        <path id="Path_210-46" data-name="Path 210" d="M0,0H123.342" transform="translate(84.606 30.676) rotate(34)" fill="none" stroke="#fff" stroke-width="0.5"/>
        <path id="Path_210-47" data-name="Path 210" d="M0,0H123.342" transform="translate(84.146 31.358) rotate(34)" fill="none" stroke="#fff" stroke-width="0.5"/>
        <path id="Path_210-48" data-name="Path 210" d="M0,0H123.342" transform="translate(83.686 32.04) rotate(34)" fill="none" stroke="#fff" stroke-width="0.5"/>
        <path id="Path_210-49" data-name="Path 210" d="M0,0H123.342" transform="translate(83.226 32.722) rotate(34)" fill="none" stroke="#fff" stroke-width="0.5"/>
        <path id="Path_210-50" data-name="Path 210" d="M0,0H123.342" transform="translate(82.766 33.403) rotate(34)" fill="none" stroke="#fff" stroke-width="0.5"/>
        <path id="Path_210-51" data-name="Path 210" d="M0,0H123.342" transform="translate(82.307 34.085) rotate(34)" fill="none" stroke="#fff" stroke-width="0.5"/>
        <path id="Path_210-52" data-name="Path 210" d="M0,0H123.342" transform="translate(81.847 34.767) rotate(34)" fill="none" stroke="#fff" stroke-width="0.5"/>
        <path id="Path_210-53" data-name="Path 210" d="M0,0H123.342" transform="translate(81.387 35.448) rotate(34)" fill="none" stroke="#fff" stroke-width="0.5"/>
        <path id="Path_210-54" data-name="Path 210" d="M0,0H123.342" transform="translate(80.927 36.13) rotate(34)" fill="none" stroke="#fff" stroke-width="0.5"/>
        <path id="Path_210-55" data-name="Path 210" d="M0,0H123.342" transform="translate(80.467 36.812) rotate(34)" fill="none" stroke="#fff" stroke-width="0.5"/>
        <path id="Path_210-56" data-name="Path 210" d="M0,0H123.342" transform="translate(80.008 37.493) rotate(34)" fill="none" stroke="#fff" stroke-width="0.5"/>
        <path id="Path_210-57" data-name="Path 210" d="M0,0H123.342" transform="translate(79.548 38.175) rotate(34)" fill="none" stroke="#fff" stroke-width="0.5"/>
        <path id="Path_210-58" data-name="Path 210" d="M0,0H123.342" transform="translate(79.088 38.857) rotate(34)" fill="none" stroke="#fff" stroke-width="0.5"/>
        <path id="Path_210-59" data-name="Path 210" d="M0,0H123.342" transform="translate(78.628 39.539) rotate(34)" fill="none" stroke="#fff" stroke-width="0.5"/>
        <path id="Path_210-60" data-name="Path 210" d="M0,0H123.342" transform="translate(78.168 40.22) rotate(34)" fill="none" stroke="#fff" stroke-width="0.5"/>
        <path id="Path_210-61" data-name="Path 210" d="M0,0H123.342" transform="translate(77.709 40.902) rotate(34)" fill="none" stroke="#fff" stroke-width="0.5"/>
        <path id="Path_210-62" data-name="Path 210" d="M0,0H123.342" transform="translate(77.249 41.584) rotate(34)" fill="none" stroke="#fff" stroke-width="0.5"/>
        <path id="Path_210-63" data-name="Path 210" d="M0,0H123.342" transform="translate(76.789 42.265) rotate(34)" fill="none" stroke="#fff" stroke-width="0.5"/>
        <path id="Path_210-64" data-name="Path 210" d="M0,0H123.342" transform="translate(76.329 42.947) rotate(34)" fill="none" stroke="#fff" stroke-width="0.5"/>
        <path id="Path_210-65" data-name="Path 210" d="M0,0H123.342" transform="translate(75.869 43.629) rotate(34)" fill="none" stroke="#fff" stroke-width="0.5"/>
        <path id="Path_210-66" data-name="Path 210" d="M0,0H123.342" transform="translate(75.409 44.31) rotate(34)" fill="none" stroke="#fff" stroke-width="0.5"/>
        <path id="Path_210-67" data-name="Path 210" d="M0,0H123.342" transform="translate(74.95 44.992) rotate(34)" fill="none" stroke="#fff" stroke-width="0.5"/>
        <path id="Path_210-68" data-name="Path 210" d="M0,0H123.342" transform="translate(74.49 45.674) rotate(34)" fill="none" stroke="#fff" stroke-width="0.5"/>
        <path id="Path_210-69" data-name="Path 210" d="M0,0H123.342" transform="translate(74.03 46.356) rotate(34)" fill="none" stroke="#fff" stroke-width="0.5"/>
        <path id="Path_210-70" data-name="Path 210" d="M0,0H123.342" transform="translate(73.57 47.037) rotate(34)" fill="none" stroke="#fff" stroke-width="0.5"/>
        <path id="Path_210-71" data-name="Path 210" d="M0,0H123.342" transform="translate(73.11 47.719) rotate(34)" fill="none" stroke="#fff" stroke-width="0.5"/>
        <path id="Path_210-72" data-name="Path 210" d="M0,0H123.342" transform="translate(72.651 48.401) rotate(34)" fill="none" stroke="#fff" stroke-width="0.5"/>
        <path id="Path_210-73" data-name="Path 210" d="M0,0H123.342" transform="translate(72.191 49.082) rotate(34)" fill="none" stroke="#fff" stroke-width="0.5"/>
        <path id="Path_210-74" data-name="Path 210" d="M0,0H123.342" transform="translate(71.731 49.764) rotate(34)" fill="none" stroke="#fff" stroke-width="0.5"/>
        <path id="Path_210-75" data-name="Path 210" d="M0,0H123.342" transform="translate(71.271 50.446) rotate(34)" fill="none" stroke="#fff" stroke-width="0.5"/>
        <path id="Path_210-76" data-name="Path 210" d="M0,0H123.342" transform="translate(70.811 51.127) rotate(34)" fill="none" stroke="#fff" stroke-width="0.5"/>
        <path id="Path_210-77" data-name="Path 210" d="M0,0H123.342" transform="translate(70.351 51.809) rotate(34)" fill="none" stroke="#fff" stroke-width="0.5"/>
        <path id="Path_210-78" data-name="Path 210" d="M0,0H123.342" transform="translate(69.892 52.491) rotate(34)" fill="none" stroke="#fff" stroke-width="0.5"/>
        <path id="Path_210-79" data-name="Path 210" d="M0,0H123.342" transform="translate(69.432 53.173) rotate(34)" fill="none" stroke="#fff" stroke-width="0.5"/>
        <path id="Path_210-80" data-name="Path 210" d="M0,0H123.342" transform="translate(68.972 53.854) rotate(34)" fill="none" stroke="#fff" stroke-width="0.5"/>
        <path id="Path_210-81" data-name="Path 210" d="M0,0H123.342" transform="translate(68.512 54.536) rotate(34)" fill="none" stroke="#fff" stroke-width="0.5"/>
        <path id="Path_210-82" data-name="Path 210" d="M0,0H123.342" transform="translate(68.052 55.218) rotate(34)" fill="none" stroke="#fff" stroke-width="0.5"/>
        <path id="Path_210-83" data-name="Path 210" d="M0,0H123.342" transform="translate(67.593 55.899) rotate(34)" fill="none" stroke="#fff" stroke-width="0.5"/>
        <path id="Path_210-84" data-name="Path 210" d="M0,0H123.342" transform="translate(67.133 56.581) rotate(34)" fill="none" stroke="#fff" stroke-width="0.5"/>
        <path id="Path_210-85" data-name="Path 210" d="M0,0H123.342" transform="translate(66.673 57.263) rotate(34)" fill="none" stroke="#fff" stroke-width="0.5"/>
        <path id="Path_210-86" data-name="Path 210" d="M0,0H123.342" transform="translate(66.213 57.944) rotate(34)" fill="none" stroke="#fff" stroke-width="0.5"/>
        <path id="Path_210-87" data-name="Path 210" d="M0,0H123.342" transform="translate(65.753 58.626) rotate(34)" fill="none" stroke="#fff" stroke-width="0.5"/>
        <path id="Path_210-88" data-name="Path 210" d="M0,0H123.342" transform="translate(65.294 59.308) rotate(34)" fill="none" stroke="#fff" stroke-width="0.5"/>
        <path id="Path_210-89" data-name="Path 210" d="M0,0H123.342" transform="translate(64.834 59.99) rotate(34)" fill="none" stroke="#fff" stroke-width="0.5"/>
        <path id="Path_210-90" data-name="Path 210" d="M0,0H123.342" transform="translate(64.374 60.671) rotate(34)" fill="none" stroke="#fff" stroke-width="0.5"/>
        <path id="Path_210-91" data-name="Path 210" d="M0,0H123.342" transform="translate(63.914 61.353) rotate(34)" fill="none" stroke="#fff" stroke-width="0.5"/>
        <path id="Path_210-92" data-name="Path 210" d="M0,0H123.342" transform="translate(63.454 62.035) rotate(34)" fill="none" stroke="#fff" stroke-width="0.5"/>
        <path id="Path_210-93" data-name="Path 210" d="M0,0H123.342" transform="translate(62.994 62.716) rotate(34)" fill="none" stroke="#fff" stroke-width="0.5"/>
        <path id="Path_210-94" data-name="Path 210" d="M0,0H123.342" transform="translate(62.535 63.398) rotate(34)" fill="none" stroke="#fff" stroke-width="0.5"/>
        <path id="Path_210-95" data-name="Path 210" d="M0,0H123.342" transform="translate(62.075 64.08) rotate(34)" fill="none" stroke="#fff" stroke-width="0.5"/>
        <path id="Path_210-96" data-name="Path 210" d="M0,0H123.342" transform="translate(61.615 64.761) rotate(34)" fill="none" stroke="#fff" stroke-width="0.5"/>
        <path id="Path_210-97" data-name="Path 210" d="M0,0H123.342" transform="translate(61.155 65.443) rotate(34)" fill="none" stroke="#fff" stroke-width="0.5"/>
        <path id="Path_210-98" data-name="Path 210" d="M0,0H123.342" transform="translate(60.695 66.125) rotate(34)" fill="none" stroke="#fff" stroke-width="0.5"/>
        <path id="Path_210-99" data-name="Path 210" d="M0,0H123.342" transform="translate(60.236 66.807) rotate(34)" fill="none" stroke="#fff" stroke-width="0.5"/>
        <path id="Path_210-100" data-name="Path 210" d="M0,0H123.342" transform="translate(59.776 67.488) rotate(34)" fill="none" stroke="#fff" stroke-width="0.5"/>
        <path id="Path_210-101" data-name="Path 210" d="M0,0H123.342" transform="translate(59.316 68.17) rotate(34)" fill="none" stroke="#fff" stroke-width="0.5"/>
        <path id="Path_210-102" data-name="Path 210" d="M0,0H123.342" transform="translate(58.856 68.852) rotate(34)" fill="none" stroke="#fff" stroke-width="0.5"/>
        <path id="Path_210-103" data-name="Path 210" d="M0,0H123.342" transform="translate(58.396 69.533) rotate(34)" fill="none" stroke="#fff" stroke-width="0.5"/>
        <path id="Path_210-104" data-name="Path 210" d="M0,0H123.342" transform="translate(57.937 70.215) rotate(34)" fill="none" stroke="#fff" stroke-width="0.5"/>
        <path id="Path_210-105" data-name="Path 210" d="M0,0H123.342" transform="translate(57.477 70.897) rotate(34)" fill="none" stroke="#fff" stroke-width="0.5"/>
        <path id="Path_210-106" data-name="Path 210" d="M0,0H123.342" transform="translate(57.017 71.578) rotate(34)" fill="none" stroke="#fff" stroke-width="0.5"/>
        <path id="Path_210-107" data-name="Path 210" d="M0,0H123.342" transform="translate(56.557 72.26) rotate(34)" fill="none" stroke="#fff" stroke-width="0.5"/>
        <path id="Path_210-108" data-name="Path 210" d="M0,0H123.342" transform="translate(56.097 72.942) rotate(34)" fill="none" stroke="#fff" stroke-width="0.5"/>
        <path id="Path_210-109" data-name="Path 210" d="M0,0H123.342" transform="translate(55.637 73.624) rotate(34)" fill="none" stroke="#fff" stroke-width="0.5"/>
        <path id="Path_210-110" data-name="Path 210" d="M0,0H123.342" transform="translate(55.178 74.305) rotate(34)" fill="none" stroke="#fff" stroke-width="0.5"/>
        <path id="Path_210-111" data-name="Path 210" d="M0,0H123.342" transform="translate(54.718 74.987) rotate(34)" fill="none" stroke="#fff" stroke-width="0.5"/>
        <path id="Path_210-112" data-name="Path 210" d="M0,0H123.342" transform="translate(54.258 75.669) rotate(34)" fill="none" stroke="#fff" stroke-width="0.5"/>
        <path id="Path_210-113" data-name="Path 210" d="M0,0H123.342" transform="translate(53.798 76.35) rotate(34)" fill="none" stroke="#fff" stroke-width="0.5"/>
        <path id="Path_210-114" data-name="Path 210" d="M0,0H123.342" transform="translate(53.338 77.032) rotate(34)" fill="none" stroke="#fff" stroke-width="0.5"/>
        <path id="Path_210-115" data-name="Path 210" d="M0,0H123.342" transform="translate(52.879 77.714) rotate(34)" fill="none" stroke="#fff" stroke-width="0.5"/>
        <path id="Path_210-116" data-name="Path 210" d="M0,0H123.342" transform="translate(52.419 78.395) rotate(34)" fill="none" stroke="#fff" stroke-width="0.5"/>
        <path id="Path_210-117" data-name="Path 210" d="M0,0H123.342" transform="translate(51.959 79.077) rotate(34)" fill="none" stroke="#fff" stroke-width="0.5"/>
        <path id="Path_210-118" data-name="Path 210" d="M0,0H123.342" transform="translate(51.499 79.759) rotate(34)" fill="none" stroke="#fff" stroke-width="0.5"/>
        <path id="Path_210-119" data-name="Path 210" d="M0,0H123.342" transform="translate(51.039 80.441) rotate(34)" fill="none" stroke="#fff" stroke-width="0.5"/>
        <path id="Path_210-120" data-name="Path 210" d="M0,0H123.342" transform="translate(50.58 81.122) rotate(34)" fill="none" stroke="#fff" stroke-width="0.5"/>
        <path id="Path_210-121" data-name="Path 210" d="M0,0H123.342" transform="translate(50.12 81.804) rotate(34)" fill="none" stroke="#fff" stroke-width="0.5"/>
        <path id="Path_210-122" data-name="Path 210" d="M0,0H123.342" transform="translate(49.66 82.486) rotate(34)" fill="none" stroke="#fff" stroke-width="0.5"/>
        <path id="Path_210-123" data-name="Path 210" d="M0,0H123.342" transform="translate(49.2 83.167) rotate(34)" fill="none" stroke="#fff" stroke-width="0.5"/>
        <path id="Path_210-124" data-name="Path 210" d="M0,0H123.342" transform="translate(48.74 83.849) rotate(34)" fill="none" stroke="#fff" stroke-width="0.5"/>
        <path id="Path_210-125" data-name="Path 210" d="M0,0H123.342" transform="translate(48.28 84.531) rotate(34)" fill="none" stroke="#fff" stroke-width="0.5"/>
        <path id="Path_210-126" data-name="Path 210" d="M0,0H123.342" transform="translate(47.821 85.212) rotate(34)" fill="none" stroke="#fff" stroke-width="0.5"/>
        <path id="Path_210-127" data-name="Path 210" d="M0,0H123.342" transform="translate(47.361 85.894) rotate(34)" fill="none" stroke="#fff" stroke-width="0.5"/>
        <path id="Path_210-128" data-name="Path 210" d="M0,0H123.342" transform="translate(46.901 86.576) rotate(34)" fill="none" stroke="#fff" stroke-width="0.5"/>
        <path id="Path_210-129" data-name="Path 210" d="M0,0H123.342" transform="translate(46.441 87.258) rotate(34)" fill="none" stroke="#fff" stroke-width="0.5"/>
        <path id="Path_210-130" data-name="Path 210" d="M0,0H123.342" transform="translate(45.981 87.939) rotate(34)" fill="none" stroke="#fff" stroke-width="0.5"/>
        <path id="Path_210-131" data-name="Path 210" d="M0,0H123.342" transform="translate(45.522 88.621) rotate(34)" fill="none" stroke="#fff" stroke-width="0.5"/>
        <path id="Path_210-132" data-name="Path 210" d="M0,0H123.342" transform="translate(45.062 89.303) rotate(34)" fill="none" stroke="#fff" stroke-width="0.5"/>
        <path id="Path_210-133" data-name="Path 210" d="M0,0H123.342" transform="translate(44.602 89.984) rotate(34)" fill="none" stroke="#fff" stroke-width="0.5"/>
        <path id="Path_210-134" data-name="Path 210" d="M0,0H123.342" transform="translate(44.142 90.666) rotate(34)" fill="none" stroke="#fff" stroke-width="0.5"/>
        <path id="Path_210-135" data-name="Path 210" d="M0,0H123.342" transform="translate(43.682 91.348) rotate(34)" fill="none" stroke="#fff" stroke-width="0.5"/>
        <path id="Path_210-136" data-name="Path 210" d="M0,0H123.342" transform="translate(43.223 92.029) rotate(34)" fill="none" stroke="#fff" stroke-width="0.5"/>
        <path id="Path_210-137" data-name="Path 210" d="M0,0H123.342" transform="translate(42.763 92.711) rotate(34)" fill="none" stroke="#fff" stroke-width="0.5"/>
        <path id="Path_210-138" data-name="Path 210" d="M0,0H123.342" transform="translate(42.303 93.393) rotate(34)" fill="none" stroke="#fff" stroke-width="0.5"/>
        <path id="Path_210-139" data-name="Path 210" d="M0,0H123.342" transform="translate(41.843 94.075) rotate(34)" fill="none" stroke="#fff" stroke-width="0.5"/>
        <path id="Path_210-140" data-name="Path 210" d="M0,0H123.342" transform="translate(41.383 94.756) rotate(34)" fill="none" stroke="#fff" stroke-width="0.5"/>
        <path id="Path_210-141" data-name="Path 210" d="M0,0H123.342" transform="translate(40.923 95.438) rotate(34)" fill="none" stroke="#fff" stroke-width="0.5"/>
        <path id="Path_210-142" data-name="Path 210" d="M0,0H123.342" transform="translate(40.464 96.12) rotate(34)" fill="none" stroke="#fff" stroke-width="0.5"/>
        <path id="Path_210-143" data-name="Path 210" d="M0,0H123.342" transform="translate(40.004 96.801) rotate(34)" fill="none" stroke="#fff" stroke-width="0.5"/>
        <path id="Path_210-144" data-name="Path 210" d="M0,0H123.342" transform="translate(39.544 97.483) rotate(34)" fill="none" stroke="#fff" stroke-width="0.5"/>
        <path id="Path_210-145" data-name="Path 210" d="M0,0H123.342" transform="translate(39.084 98.165) rotate(34)" fill="none" stroke="#fff" stroke-width="0.5"/>
        <path id="Path_210-146" data-name="Path 210" d="M0,0H123.342" transform="translate(38.624 98.846) rotate(34)" fill="none" stroke="#fff" stroke-width="0.5"/>
        <path id="Path_210-147" data-name="Path 210" d="M0,0H123.342" transform="translate(38.165 99.528) rotate(34)" fill="none" stroke="#fff" stroke-width="0.5"/>
        <path id="Path_210-148" data-name="Path 210" d="M0,0H123.342" transform="translate(37.705 100.21) rotate(34)" fill="none" stroke="#fff" stroke-width="0.5"/>
        <path id="Path_210-149" data-name="Path 210" d="M0,0H123.342" transform="translate(37.245 100.892) rotate(34)" fill="none" stroke="#fff" stroke-width="0.5"/>
        <path id="Path_210-150" data-name="Path 210" d="M0,0H123.342" transform="translate(36.785 101.573) rotate(34)" fill="none" stroke="#fff" stroke-width="0.5"/>
        <path id="Path_210-151" data-name="Path 210" d="M0,0H123.342" transform="translate(36.325 102.255) rotate(34)" fill="none" stroke="#fff" stroke-width="0.5"/>
        <path id="Path_210-152" data-name="Path 210" d="M0,0H123.342" transform="translate(35.865 102.937) rotate(34)" fill="none" stroke="#fff" stroke-width="0.5"/>
        <path id="Path_210-153" data-name="Path 210" d="M0,0H123.342" transform="translate(35.406 103.618) rotate(34)" fill="none" stroke="#fff" stroke-width="0.5"/>
        <path id="Path_210-154" data-name="Path 210" d="M0,0H123.342" transform="translate(34.946 104.3) rotate(34)" fill="none" stroke="#fff" stroke-width="0.5"/>
        <path id="Path_210-155" data-name="Path 210" d="M0,0H123.342" transform="translate(34.486 104.982) rotate(34)" fill="none" stroke="#fff" stroke-width="0.5"/>
        <path id="Path_210-156" data-name="Path 210" d="M0,0H123.342" transform="translate(34.026 105.663) rotate(34)" fill="none" stroke="#fff" stroke-width="0.5"/>
        <path id="Path_210-157" data-name="Path 210" d="M0,0H123.342" transform="translate(33.566 106.345) rotate(34)" fill="none" stroke="#fff" stroke-width="0.5"/>
        <path id="Path_210-158" data-name="Path 210" d="M0,0H123.342" transform="translate(33.107 107.027) rotate(34)" fill="none" stroke="#fff" stroke-width="0.5"/>
        <path id="Path_210-159" data-name="Path 210" d="M0,0H123.342" transform="translate(32.647 107.709) rotate(34)" fill="none" stroke="#fff" stroke-width="0.5"/>
        <path id="Path_210-160" data-name="Path 210" d="M0,0H123.342" transform="translate(32.187 108.39) rotate(34)" fill="none" stroke="#fff" stroke-width="0.5"/>
        <path id="Path_210-161" data-name="Path 210" d="M0,0H123.342" transform="translate(31.727 109.072) rotate(34)" fill="none" stroke="#fff" stroke-width="0.5"/>
        <path id="Path_210-162" data-name="Path 210" d="M0,0H123.342" transform="translate(31.267 109.754) rotate(34)" fill="none" stroke="#fff" stroke-width="0.5"/>
        <path id="Path_210-163" data-name="Path 210" d="M0,0H123.342" transform="translate(30.808 110.435) rotate(34)" fill="none" stroke="#fff" stroke-width="0.5"/>
        <path id="Path_210-164" data-name="Path 210" d="M0,0H123.342" transform="translate(30.348 111.117) rotate(34)" fill="none" stroke="#fff" stroke-width="0.5"/>
        <path id="Path_210-165" data-name="Path 210" d="M0,0H123.342" transform="translate(29.888 111.799) rotate(34)" fill="none" stroke="#fff" stroke-width="0.5"/>
        <path id="Path_210-166" data-name="Path 210" d="M0,0H123.342" transform="translate(29.428 112.48) rotate(34)" fill="none" stroke="#fff" stroke-width="0.5"/>
        <path id="Path_210-167" data-name="Path 210" d="M0,0H123.342" transform="translate(28.968 113.162) rotate(34)" fill="none" stroke="#fff" stroke-width="0.5"/>
        <path id="Path_210-168" data-name="Path 210" d="M0,0H123.342" transform="translate(28.508 113.844) rotate(34)" fill="none" stroke="#fff" stroke-width="0.5"/>
        <path id="Path_210-169" data-name="Path 210" d="M0,0H123.342" transform="translate(28.049 114.526) rotate(34)" fill="none" stroke="#fff" stroke-width="0.5"/>
        <path id="Path_210-170" data-name="Path 210" d="M0,0H123.342" transform="translate(27.589 115.207) rotate(34)" fill="none" stroke="#fff" stroke-width="0.5"/>
        <path id="Path_210-171" data-name="Path 210" d="M0,0H123.342" transform="translate(27.129 115.889) rotate(34)" fill="none" stroke="#fff" stroke-width="0.5"/>
        <path id="Path_210-172" data-name="Path 210" d="M0,0H123.342" transform="translate(26.669 116.571) rotate(34)" fill="none" stroke="#fff" stroke-width="0.5"/>
        <path id="Path_210-173" data-name="Path 210" d="M0,0H123.342" transform="translate(26.209 117.252) rotate(34)" fill="none" stroke="#fff" stroke-width="0.5"/>
        <path id="Path_210-174" data-name="Path 210" d="M0,0H123.342" transform="translate(25.75 117.934) rotate(34)" fill="none" stroke="#fff" stroke-width="0.5"/>
        <path id="Path_210-175" data-name="Path 210" d="M0,0H123.342" transform="translate(25.29 118.616) rotate(34)" fill="none" stroke="#fff" stroke-width="0.5"/>
        <path id="Path_210-176" data-name="Path 210" d="M0,0H123.342" transform="translate(24.83 119.297) rotate(34)" fill="none" stroke="#fff" stroke-width="0.5"/>
        <path id="Path_210-177" data-name="Path 210" d="M0,0H123.342" transform="translate(24.37 119.979) rotate(34)" fill="none" stroke="#fff" stroke-width="0.5"/>
        <path id="Path_210-178" data-name="Path 210" d="M0,0H123.342" transform="translate(23.91 120.661) rotate(34)" fill="none" stroke="#fff" stroke-width="0.5"/>
        <path id="Path_210-179" data-name="Path 210" d="M0,0H123.342" transform="translate(23.451 121.343) rotate(34)" fill="none" stroke="#fff" stroke-width="0.5"/>
        <path id="Path_210-180" data-name="Path 210" d="M0,0H123.342" transform="translate(22.991 122.024) rotate(34)" fill="none" stroke="#fff" stroke-width="0.5"/>
        <path id="Path_210-181" data-name="Path 210" d="M0,0H123.342" transform="translate(22.531 122.706) rotate(34)" fill="none" stroke="#fff" stroke-width="0.5"/>
        <path id="Path_210-182" data-name="Path 210" d="M0,0H123.342" transform="translate(22.071 123.388) rotate(34)" fill="none" stroke="#fff" stroke-width="0.5"/>
        <path id="Path_210-183" data-name="Path 210" d="M0,0H123.342" transform="translate(21.611 124.069) rotate(34)" fill="none" stroke="#fff" stroke-width="0.5"/>
        <path id="Path_210-184" data-name="Path 210" d="M0,0H123.342" transform="translate(21.151 124.751) rotate(34)" fill="none" stroke="#fff" stroke-width="0.5"/>
        <path id="Path_210-185" data-name="Path 210" d="M0,0H123.342" transform="translate(20.692 125.433) rotate(34)" fill="none" stroke="#fff" stroke-width="0.5"/>
        <path id="Path_210-186" data-name="Path 210" d="M0,0H123.342" transform="translate(20.232 126.114) rotate(34)" fill="none" stroke="#fff" stroke-width="0.5"/>
        <path id="Path_210-187" data-name="Path 210" d="M0,0H123.342" transform="translate(19.772 126.796) rotate(34)" fill="none" stroke="#fff" stroke-width="0.5"/>
        <path id="Path_210-188" data-name="Path 210" d="M0,0H123.342" transform="translate(19.312 127.478) rotate(34)" fill="none" stroke="#fff" stroke-width="0.5"/>
        <path id="Path_210-189" data-name="Path 210" d="M0,0H123.342" transform="translate(18.852 128.16) rotate(34)" fill="none" stroke="#fff" stroke-width="0.5"/>
        <path id="Path_210-190" data-name="Path 210" d="M0,0H123.342" transform="translate(18.393 128.841) rotate(34)" fill="none" stroke="#fff" stroke-width="0.5"/>
        <path id="Path_210-191" data-name="Path 210" d="M0,0H123.342" transform="translate(17.933 129.523) rotate(34)" fill="none" stroke="#fff" stroke-width="0.5"/>
        <path id="Path_210-192" data-name="Path 210" d="M0,0H123.342" transform="translate(17.473 130.205) rotate(34)" fill="none" stroke="#fff" stroke-width="0.5"/>
        <path id="Path_210-193" data-name="Path 210" d="M0,0H123.342" transform="translate(17.013 130.886) rotate(34)" fill="none" stroke="#fff" stroke-width="0.5"/>
        <path id="Path_210-194" data-name="Path 210" d="M0,0H123.342" transform="translate(16.553 131.568) rotate(34)" fill="none" stroke="#fff" stroke-width="0.5"/>
        <path id="Path_210-195" data-name="Path 210" d="M0,0H123.342" transform="translate(16.094 132.25) rotate(34)" fill="none" stroke="#fff" stroke-width="0.5"/>
        <path id="Path_210-196" data-name="Path 210" d="M0,0H123.342" transform="translate(15.634 132.931) rotate(34)" fill="none" stroke="#fff" stroke-width="0.5"/>
        <path id="Path_210-197" data-name="Path 210" d="M0,0H123.342" transform="translate(15.174 133.613) rotate(34)" fill="none" stroke="#fff" stroke-width="0.5"/>
        <path id="Path_210-198" data-name="Path 210" d="M0,0H123.342" transform="translate(14.714 134.295) rotate(34)" fill="none" stroke="#fff" stroke-width="0.5"/>
        <path id="Path_210-199" data-name="Path 210" d="M0,0H123.342" transform="translate(14.254 134.977) rotate(34)" fill="none" stroke="#fff" stroke-width="0.5"/>
        <path id="Path_210-200" data-name="Path 210" d="M0,0H123.342" transform="translate(13.794 135.658) rotate(34)" fill="none" stroke="#fff" stroke-width="0.5"/>
        <path id="Path_210-201" data-name="Path 210" d="M0,0H123.342" transform="translate(13.335 136.34) rotate(34)" fill="none" stroke="#fff" stroke-width="0.5"/>
        <path id="Path_210-202" data-name="Path 210" d="M0,0H123.342" transform="translate(12.875 137.022) rotate(34)" fill="none" stroke="#fff" stroke-width="0.5"/>
        <path id="Path_210-203" data-name="Path 210" d="M0,0H123.342" transform="translate(12.415 137.703) rotate(34)" fill="none" stroke="#fff" stroke-width="0.5"/>
        <path id="Path_210-204" data-name="Path 210" d="M0,0H123.342" transform="translate(11.955 138.385) rotate(34)" fill="none" stroke="#fff" stroke-width="0.5"/>
        <path id="Path_210-205" data-name="Path 210" d="M0,0H123.342" transform="translate(11.495 139.067) rotate(34)" fill="none" stroke="#fff" stroke-width="0.5"/>
        <path id="Path_210-206" data-name="Path 210" d="M0,0H123.342" transform="translate(11.036 139.748) rotate(34)" fill="none" stroke="#fff" stroke-width="0.5"/>
        <path id="Path_210-207" data-name="Path 210" d="M0,0H123.342" transform="translate(10.576 140.43) rotate(34)" fill="none" stroke="#fff" stroke-width="0.5"/>
        <path id="Path_210-208" data-name="Path 210" d="M0,0H123.342" transform="translate(10.116 141.112) rotate(34)" fill="none" stroke="#fff" stroke-width="0.5"/>
        <path id="Path_210-209" data-name="Path 210" d="M0,0H123.342" transform="translate(9.656 141.794) rotate(34)" fill="none" stroke="#fff" stroke-width="0.5"/>
        <path id="Path_210-210" data-name="Path 210" d="M0,0H123.342" transform="translate(9.196 142.475) rotate(34)" fill="none" stroke="#fff" stroke-width="0.5"/>
        <path id="Path_210-211" data-name="Path 210" d="M0,0H123.342" transform="translate(8.737 143.157) rotate(34)" fill="none" stroke="#fff" stroke-width="0.5"/>
        <path id="Path_210-212" data-name="Path 210" d="M0,0H123.342" transform="translate(8.277 143.839) rotate(34)" fill="none" stroke="#fff" stroke-width="0.5"/>
        <path id="Path_210-213" data-name="Path 210" d="M0,0H123.342" transform="translate(7.817 144.52) rotate(34)" fill="none" stroke="#fff" stroke-width="0.5"/>
        <path id="Path_210-214" data-name="Path 210" d="M0,0H123.342" transform="translate(7.357 145.202) rotate(34)" fill="none" stroke="#fff" stroke-width="0.5"/>
        <path id="Path_210-215" data-name="Path 210" d="M0,0H123.342" transform="translate(6.897 145.884) rotate(34)" fill="none" stroke="#fff" stroke-width="0.5"/>
        <path id="Path_210-216" data-name="Path 210" d="M0,0H123.342" transform="translate(6.437 146.565) rotate(34)" fill="none" stroke="#fff" stroke-width="0.5"/>
        <path id="Path_210-217" data-name="Path 210" d="M0,0H123.342" transform="translate(5.978 147.247) rotate(34)" fill="none" stroke="#fff" stroke-width="0.5"/>
        <path id="Path_210-218" data-name="Path 210" d="M0,0H123.342" transform="translate(5.518 147.929) rotate(34)" fill="none" stroke="#fff" stroke-width="0.5"/>
        <path id="Path_210-219" data-name="Path 210" d="M0,0H123.342" transform="translate(5.058 148.611) rotate(34)" fill="none" stroke="#fff" stroke-width="0.5"/>
        <path id="Path_210-220" data-name="Path 210" d="M0,0H123.342" transform="translate(4.598 149.292) rotate(34)" fill="none" stroke="#fff" stroke-width="0.5"/>
        <path id="Path_210-221" data-name="Path 210" d="M0,0H123.342" transform="translate(4.138 149.974) rotate(34)" fill="none" stroke="#fff" stroke-width="0.5"/>
        <path id="Path_210-222" data-name="Path 210" d="M0,0H123.342" transform="translate(3.679 150.656) rotate(34)" fill="none" stroke="#fff" stroke-width="0.5"/>
        <path id="Path_210-223" data-name="Path 210" d="M0,0H123.342" transform="translate(3.219 151.337) rotate(34)" fill="none" stroke="#fff" stroke-width="0.5"/>
        <path id="Path_210-224" data-name="Path 210" d="M0,0H123.342" transform="translate(2.759 152.019) rotate(34)" fill="none" stroke="#fff" stroke-width="0.5"/>
        <path id="Path_210-225" data-name="Path 210" d="M0,0H123.342" transform="translate(2.299 152.701) rotate(34)" fill="none" stroke="#fff" stroke-width="0.5"/>
        <path id="Path_210-226" data-name="Path 210" d="M0,0H123.342" transform="translate(1.839 153.382) rotate(34)" fill="none" stroke="#fff" stroke-width="0.5"/>
        <path id="Path_210-227" data-name="Path 210" d="M0,0H123.342" transform="translate(1.38 154.064) rotate(34)" fill="none" stroke="#fff" stroke-width="0.5"/>
        <path id="Path_210-228" data-name="Path 210" d="M0,0H123.342" transform="translate(0.92 154.746) rotate(34)" fill="none" stroke="#fff" stroke-width="0.5"/>
        <path id="Path_210-229" data-name="Path 210" d="M0,0H123.342" transform="translate(0.46 155.428) rotate(34)" fill="none" stroke="#fff" stroke-width="0.5"/>
        <path id="Path_210-230" data-name="Path 210" d="M0,0H123.342" transform="translate(0 156.109) rotate(34)" fill="none" stroke="#fff" stroke-width="0.5"/>
      </g>
    </g>
    <path id="Subtraction_1" data-name="Subtraction 1" d="M41.224,43.286a40.967,40.967,0,0,1-16.046-3.24,41.228,41.228,0,0,1-7-3.8A41.45,41.45,0,0,1,7.04,25.111a41.227,41.227,0,0,1-3.8-7A40.967,40.967,0,0,1,0,2.062C0,1.377.017.684.051,0H82.4c.034.689.051,1.382.051,2.062a40.966,40.966,0,0,1-3.24,16.046,41.227,41.227,0,0,1-3.8,7A41.452,41.452,0,0,1,64.274,36.246a41.23,41.23,0,0,1-7,3.8A40.968,40.968,0,0,1,41.224,43.286Z" transform="translate(1276.872 6585.5) rotate(2)" fill="url(#linear-gradient)"/>
    <path id="Subtraction_2" data-name="Subtraction 2" d="M41.224,43.286a40.967,40.967,0,0,1-16.046-3.24,41.228,41.228,0,0,1-7-3.8A41.45,41.45,0,0,1,7.04,25.111a41.227,41.227,0,0,1-3.8-7A40.967,40.967,0,0,1,0,2.062C0,1.377.017.684.051,0H82.4c.034.689.051,1.382.051,2.062a40.966,40.966,0,0,1-3.24,16.046,41.227,41.227,0,0,1-3.8,7A41.452,41.452,0,0,1,64.274,36.246a41.23,41.23,0,0,1-7,3.8A40.968,40.968,0,0,1,41.224,43.286Z" transform="translate(1218.541 6818.212) rotate(180)" fill="url(#linear-gradient-2)"/>
    <path id="Intersection_9" data-name="Intersection 9" d="M5,322.5a5,5,0,0,1-5-5V34.954C73.751,12.384,153.994,0,237.941,0s164.19,12.384,237.941,34.954V317.5a5,5,0,0,1-5,5Z" transform="translate(1477 6817.883) rotate(-90)" fill="#e6c9f5" opacity="0.066"/>
    <path id="Intersection_10" data-name="Intersection 10" d="M5,229.5a5,5,0,0,1-5-5V34.954C73.751,12.384,153.994,0,237.941,0s164.19,12.384,237.941,34.954V224.5a5,5,0,0,1-5,5Z" transform="translate(1569.999 6817.883) rotate(-90)" fill="#e6c9f5" opacity="0.066"/>
    <path id="Subtraction_3" data-name="Subtraction 3" d="M31.224,33.286A30.627,30.627,0,0,1,19.07,30.795a31.083,31.083,0,0,1-5.3-2.923A31.557,31.557,0,0,1,9.145,24,31.782,31.782,0,0,1,2.454,13.925,31.918,31.918,0,0,1,0,1.585C0,1.059.013.526.038,0H62.411c.026.53.038,1.063.038,1.585A31.865,31.865,0,0,1,57.117,19.31,31.829,31.829,0,0,1,53.3,24a31.557,31.557,0,0,1-4.621,3.871,31.084,31.084,0,0,1-5.3,2.923A30.628,30.628,0,0,1,31.224,33.286Z" transform="translate(1208.541 6813.212) rotate(180)" fill="url(#linear-gradient-3)"/>
    <g id="Ellipse_279" data-name="Ellipse 279" transform="translate(974 6676)" fill="none" stroke="#a777c4" stroke-width="1">
      <circle cx="19" cy="19" r="19" stroke="none"/>
      <circle cx="19" cy="19" r="18.5" fill="none"/>
    </g>
    <g id="Ellipse_280" data-name="Ellipse 280" transform="translate(985 6687)" fill="none" stroke="#a777c4" stroke-width="1">
      <circle cx="8" cy="8" r="8" stroke="none"/>
      <circle cx="8" cy="8" r="7.5" fill="none"/>
    </g>
  </g>
</svg>
