<svg xmlns="http://www.w3.org/2000/svg" width="435.638" height="808.864" viewBox="0 0 435.638 808.864">
  <g id="Group_25613" data-name="Group 25613" transform="translate(-1697 -194.136)">
    <g id="Group_87" data-name="Group 87" transform="translate(1609 -90)" opacity="0.431">
      <g id="Ellipse_20" data-name="Ellipse 20" transform="translate(88 662)" fill="none" stroke="#58d329" stroke-width="1">
        <circle cx="215.5" cy="215.5" r="215.5" stroke="none"/>
        <circle cx="215.5" cy="215.5" r="215" fill="none"/>
      </g>
      <g id="Ellipse_21" data-name="Ellipse 21" transform="translate(93 667)" fill="none" stroke="#58d329" stroke-width="1">
        <circle cx="210.5" cy="210.5" r="210.5" stroke="none"/>
        <circle cx="210.5" cy="210.5" r="210" fill="none"/>
      </g>
      <g id="Ellipse_22" data-name="Ellipse 22" transform="translate(99 673)" fill="none" stroke="#58d329" stroke-width="1">
        <circle cx="204.5" cy="204.5" r="204.5" stroke="none"/>
        <circle cx="204.5" cy="204.5" r="204" fill="none"/>
      </g>
      <g id="Ellipse_23" data-name="Ellipse 23" transform="translate(104 678)" fill="none" stroke="#58d329" stroke-width="1">
        <circle cx="199.5" cy="199.5" r="199.5" stroke="none"/>
        <circle cx="199.5" cy="199.5" r="199" fill="none"/>
      </g>
      <g id="Ellipse_24" data-name="Ellipse 24" transform="translate(109 683)" fill="none" stroke="#58d329" stroke-width="1">
        <circle cx="194.5" cy="194.5" r="194.5" stroke="none"/>
        <circle cx="194.5" cy="194.5" r="194" fill="none"/>
      </g>
      <g id="Ellipse_25" data-name="Ellipse 25" transform="translate(115 689)" fill="none" stroke="#58d329" stroke-width="1">
        <circle cx="188.5" cy="188.5" r="188.5" stroke="none"/>
        <circle cx="188.5" cy="188.5" r="188" fill="none"/>
      </g>
      <g id="Ellipse_26" data-name="Ellipse 26" transform="translate(120 694)" fill="none" stroke="#58d329" stroke-width="1">
        <circle cx="183.5" cy="183.5" r="183.5" stroke="none"/>
        <circle cx="183.5" cy="183.5" r="183" fill="none"/>
      </g>
      <g id="Ellipse_27" data-name="Ellipse 27" transform="translate(125 699)" fill="none" stroke="#58d329" stroke-width="1">
        <circle cx="178.5" cy="178.5" r="178.5" stroke="none"/>
        <circle cx="178.5" cy="178.5" r="178" fill="none"/>
      </g>
      <g id="Ellipse_28" data-name="Ellipse 28" transform="translate(131 705)" fill="none" stroke="#58d329" stroke-width="1">
        <circle cx="172.5" cy="172.5" r="172.5" stroke="none"/>
        <circle cx="172.5" cy="172.5" r="172" fill="none"/>
      </g>
      <g id="Ellipse_29" data-name="Ellipse 29" transform="translate(136 710)" fill="none" stroke="#58d329" stroke-width="1">
        <circle cx="167.5" cy="167.5" r="167.5" stroke="none"/>
        <circle cx="167.5" cy="167.5" r="167" fill="none"/>
      </g>
      <g id="Ellipse_30" data-name="Ellipse 30" transform="translate(142 716)" fill="none" stroke="#58d329" stroke-width="1">
        <circle cx="162" cy="162" r="162" stroke="none"/>
        <circle cx="162" cy="162" r="161.5" fill="none"/>
      </g>
      <g id="Ellipse_31" data-name="Ellipse 31" transform="translate(147 721)" fill="none" stroke="#58d329" stroke-width="1">
        <circle cx="156.5" cy="156.5" r="156.5" stroke="none"/>
        <circle cx="156.5" cy="156.5" r="156" fill="none"/>
      </g>
      <g id="Ellipse_32" data-name="Ellipse 32" transform="translate(152 726)" fill="none" stroke="#58d329" stroke-width="1">
        <circle cx="151.5" cy="151.5" r="151.5" stroke="none"/>
        <circle cx="151.5" cy="151.5" r="151" fill="none"/>
      </g>
      <g id="Ellipse_33" data-name="Ellipse 33" transform="translate(158 732)" fill="none" stroke="#58d329" stroke-width="1">
        <circle cx="145.5" cy="145.5" r="145.5" stroke="none"/>
        <circle cx="145.5" cy="145.5" r="145" fill="none"/>
      </g>
      <g id="Ellipse_34" data-name="Ellipse 34" transform="translate(164 738)" fill="none" stroke="#58d329" stroke-width="1">
        <circle cx="139.5" cy="139.5" r="139.5" stroke="none"/>
        <circle cx="139.5" cy="139.5" r="139" fill="none"/>
      </g>
      <g id="Ellipse_35" data-name="Ellipse 35" transform="translate(169 743)" fill="none" stroke="#58d329" stroke-width="1">
        <circle cx="134.5" cy="134.5" r="134.5" stroke="none"/>
        <circle cx="134.5" cy="134.5" r="134" fill="none"/>
      </g>
      <g id="Ellipse_36" data-name="Ellipse 36" transform="translate(169 743)" fill="none" stroke="#58d329" stroke-width="1">
        <circle cx="134.5" cy="134.5" r="134.5" stroke="none"/>
        <circle cx="134.5" cy="134.5" r="134" fill="none"/>
      </g>
      <g id="Ellipse_37" data-name="Ellipse 37" transform="translate(175 749)" fill="none" stroke="#58d329" stroke-width="1">
        <circle cx="128.5" cy="128.5" r="128.5" stroke="none"/>
        <circle cx="128.5" cy="128.5" r="128" fill="none"/>
      </g>
      <g id="Ellipse_38" data-name="Ellipse 38" transform="translate(180 754)" fill="none" stroke="#58d329" stroke-width="1">
        <circle cx="123.5" cy="123.5" r="123.5" stroke="none"/>
        <circle cx="123.5" cy="123.5" r="123" fill="none"/>
      </g>
      <g id="Ellipse_39" data-name="Ellipse 39" transform="translate(185 759)" fill="none" stroke="#58d329" stroke-width="1">
        <circle cx="118.5" cy="118.5" r="118.5" stroke="none"/>
        <circle cx="118.5" cy="118.5" r="118" fill="none"/>
      </g>
      <g id="Ellipse_40" data-name="Ellipse 40" transform="translate(191 765)" fill="none" stroke="#58d329" stroke-width="1">
        <circle cx="112.5" cy="112.5" r="112.5" stroke="none"/>
        <circle cx="112.5" cy="112.5" r="112" fill="none"/>
      </g>
      <g id="Ellipse_41" data-name="Ellipse 41" transform="translate(196 770)" fill="none" stroke="#58d329" stroke-width="1">
        <circle cx="107.5" cy="107.5" r="107.5" stroke="none"/>
        <circle cx="107.5" cy="107.5" r="107" fill="none"/>
      </g>
      <g id="Ellipse_42" data-name="Ellipse 42" transform="translate(201 775)" fill="none" stroke="#58d329" stroke-width="1">
        <circle cx="102.5" cy="102.5" r="102.5" stroke="none"/>
        <circle cx="102.5" cy="102.5" r="102" fill="none"/>
      </g>
      <g id="Ellipse_43" data-name="Ellipse 43" transform="translate(201 775)" fill="none" stroke="#58d329" stroke-width="1">
        <circle cx="102.5" cy="102.5" r="102.5" stroke="none"/>
        <circle cx="102.5" cy="102.5" r="102" fill="none"/>
      </g>
      <g id="Ellipse_44" data-name="Ellipse 44" transform="translate(207 781)" fill="none" stroke="#58d329" stroke-width="1">
        <circle cx="96.5" cy="96.5" r="96.5" stroke="none"/>
        <circle cx="96.5" cy="96.5" r="96" fill="none"/>
      </g>
      <g id="Ellipse_45" data-name="Ellipse 45" transform="translate(212 786)" fill="none" stroke="#58d329" stroke-width="1">
        <circle cx="91.5" cy="91.5" r="91.5" stroke="none"/>
        <circle cx="91.5" cy="91.5" r="91" fill="none"/>
      </g>
      <g id="Ellipse_46" data-name="Ellipse 46" transform="translate(217 791)" fill="none" stroke="#58d329" stroke-width="1">
        <circle cx="86.5" cy="86.5" r="86.5" stroke="none"/>
        <circle cx="86.5" cy="86.5" r="86" fill="none"/>
      </g>
      <g id="Ellipse_47" data-name="Ellipse 47" transform="translate(223 797)" fill="none" stroke="#58d329" stroke-width="1">
        <circle cx="80.5" cy="80.5" r="80.5" stroke="none"/>
        <circle cx="80.5" cy="80.5" r="80" fill="none"/>
      </g>
      <g id="Ellipse_48" data-name="Ellipse 48" transform="translate(228 802)" fill="none" stroke="#58d329" stroke-width="1">
        <circle cx="75.5" cy="75.5" r="75.5" stroke="none"/>
        <circle cx="75.5" cy="75.5" r="75" fill="none"/>
      </g>
      <g id="Ellipse_49" data-name="Ellipse 49" transform="translate(233 807)" fill="none" stroke="#58d329" stroke-width="1">
        <circle cx="70.5" cy="70.5" r="70.5" stroke="none"/>
        <circle cx="70.5" cy="70.5" r="70" fill="none"/>
      </g>
      <g id="Ellipse_50" data-name="Ellipse 50" transform="translate(239 813)" fill="none" stroke="#58d329" stroke-width="1">
        <circle cx="64.5" cy="64.5" r="64.5" stroke="none"/>
        <circle cx="64.5" cy="64.5" r="64" fill="none"/>
      </g>
      <g id="Ellipse_51" data-name="Ellipse 51" transform="translate(244 818)" fill="none" stroke="#58d329" stroke-width="1">
        <circle cx="59.5" cy="59.5" r="59.5" stroke="none"/>
        <circle cx="59.5" cy="59.5" r="59" fill="none"/>
      </g>
      <g id="Ellipse_52" data-name="Ellipse 52" transform="translate(250 824)" fill="none" stroke="#58d329" stroke-width="1">
        <circle cx="54" cy="54" r="54" stroke="none"/>
        <circle cx="54" cy="54" r="53.5" fill="none"/>
      </g>
      <g id="Ellipse_53" data-name="Ellipse 53" transform="translate(255 829)" fill="none" stroke="#58d329" stroke-width="1">
        <circle cx="48.5" cy="48.5" r="48.5" stroke="none"/>
        <circle cx="48.5" cy="48.5" r="48" fill="none"/>
      </g>
      <g id="Ellipse_54" data-name="Ellipse 54" transform="translate(260 834)" fill="none" stroke="#58d329" stroke-width="1">
        <circle cx="43.5" cy="43.5" r="43.5" stroke="none"/>
        <circle cx="43.5" cy="43.5" r="43" fill="none"/>
      </g>
      <g id="Ellipse_55" data-name="Ellipse 55" transform="translate(266 840)" fill="none" stroke="#58d329" stroke-width="1">
        <circle cx="37.5" cy="37.5" r="37.5" stroke="none"/>
        <circle cx="37.5" cy="37.5" r="37" fill="none"/>
      </g>
      <g id="Ellipse_56" data-name="Ellipse 56" transform="translate(271 845)" fill="none" stroke="#58d329" stroke-width="1">
        <circle cx="32.5" cy="32.5" r="32.5" stroke="none"/>
        <circle cx="32.5" cy="32.5" r="32" fill="none"/>
      </g>
      <g id="Ellipse_57" data-name="Ellipse 57" transform="translate(276 850)" fill="none" stroke="#58d329" stroke-width="1">
        <circle cx="27.5" cy="27.5" r="27.5" stroke="none"/>
        <circle cx="27.5" cy="27.5" r="27" fill="none"/>
      </g>
      <g id="Ellipse_171" data-name="Ellipse 171" transform="translate(282 856)" fill="none" stroke="#58d329" stroke-width="1">
        <circle cx="21.5" cy="21.5" r="21.5" stroke="none"/>
        <circle cx="21.5" cy="21.5" r="21" fill="none"/>
      </g>
      <g id="Ellipse_172" data-name="Ellipse 172" transform="translate(287 861)" fill="none" stroke="#58d329" stroke-width="1">
        <circle cx="16.5" cy="16.5" r="16.5" stroke="none"/>
        <circle cx="16.5" cy="16.5" r="16" fill="none"/>
      </g>
      <g id="Ellipse_173" data-name="Ellipse 173" transform="translate(292 866)" fill="none" stroke="#58d329" stroke-width="1">
        <circle cx="11.5" cy="11.5" r="11.5" stroke="none"/>
        <circle cx="11.5" cy="11.5" r="11" fill="none"/>
      </g>
      <g id="Ellipse_174" data-name="Ellipse 174" transform="translate(298 872)" fill="none" stroke="#58d329" stroke-width="1">
        <circle cx="5.5" cy="5.5" r="5.5" stroke="none"/>
        <circle cx="5.5" cy="5.5" r="5" fill="none"/>
      </g>
    </g>
    <g id="Group_25612" data-name="Group 25612" transform="translate(-50)">
      <path id="Path_210" data-name="Path 210" d="M3296.813-454h300" transform="translate(-1067.807 -1251.273) rotate(34)" fill="none" stroke="#fade9d" stroke-width="0.5"/>
      <path id="Path_210-2" data-name="Path 210" d="M3296.813-454h300" transform="translate(-1068.926 -1249.615) rotate(34)" fill="none" stroke="#fade9d" stroke-width="0.5"/>
      <path id="Path_210-3" data-name="Path 210" d="M3296.813-454h300" transform="translate(-1070.044 -1247.957) rotate(34)" fill="none" stroke="#fade9d" stroke-width="0.5"/>
      <path id="Path_210-4" data-name="Path 210" d="M3296.813-454h300" transform="translate(-1071.163 -1246.299) rotate(34)" fill="none" stroke="#fade9d" stroke-width="0.5"/>
      <path id="Path_210-5" data-name="Path 210" d="M3296.813-454h300" transform="translate(-1072.281 -1244.641) rotate(34)" fill="none" stroke="#fade9d" stroke-width="0.5"/>
      <path id="Path_210-6" data-name="Path 210" d="M3296.813-454h300" transform="translate(-1073.399 -1242.982) rotate(34)" fill="none" stroke="#fade9d" stroke-width="0.5"/>
      <path id="Path_210-7" data-name="Path 210" d="M3296.813-454h300" transform="translate(-1074.518 -1241.324) rotate(34)" fill="none" stroke="#fade9d" stroke-width="0.5"/>
      <path id="Path_210-8" data-name="Path 210" d="M3296.813-454h300" transform="translate(-1075.636 -1239.666) rotate(34)" fill="none" stroke="#fade9d" stroke-width="0.5"/>
      <path id="Path_210-9" data-name="Path 210" d="M3296.813-454h300" transform="translate(-1076.755 -1238.008) rotate(34)" fill="none" stroke="#fade9d" stroke-width="0.5"/>
      <path id="Path_210-10" data-name="Path 210" d="M3296.813-454h300" transform="translate(-1077.873 -1236.35) rotate(34)" fill="none" stroke="#fade9d" stroke-width="0.5"/>
      <path id="Path_210-11" data-name="Path 210" d="M3296.813-454h300" transform="translate(-1078.991 -1234.692) rotate(34)" fill="none" stroke="#fade9d" stroke-width="0.5"/>
      <path id="Path_210-12" data-name="Path 210" d="M3296.813-454h300" transform="translate(-1080.11 -1233.034) rotate(34)" fill="none" stroke="#fade9d" stroke-width="0.5"/>
      <path id="Path_210-13" data-name="Path 210" d="M3296.813-454h300" transform="translate(-1081.228 -1231.376) rotate(34)" fill="none" stroke="#fade9d" stroke-width="0.5"/>
      <path id="Path_210-14" data-name="Path 210" d="M3296.813-454h300" transform="translate(-1082.346 -1229.718) rotate(34)" fill="none" stroke="#fade9d" stroke-width="0.5"/>
      <path id="Path_210-15" data-name="Path 210" d="M3296.813-454h300" transform="translate(-1083.465 -1228.06) rotate(34)" fill="none" stroke="#fade9d" stroke-width="0.5"/>
      <path id="Path_210-16" data-name="Path 210" d="M3296.813-454h300" transform="translate(-1084.583 -1226.402) rotate(34)" fill="none" stroke="#fade9d" stroke-width="0.5"/>
      <path id="Path_210-17" data-name="Path 210" d="M3296.813-454h300" transform="translate(-1085.702 -1224.744) rotate(34)" fill="none" stroke="#fade9d" stroke-width="0.5"/>
      <path id="Path_210-18" data-name="Path 210" d="M3296.813-454h300" transform="translate(-1086.82 -1223.085) rotate(34)" fill="none" stroke="#fade9d" stroke-width="0.5"/>
      <path id="Path_210-19" data-name="Path 210" d="M3296.813-454h300" transform="translate(-1087.938 -1221.427) rotate(34)" fill="none" stroke="#fade9d" stroke-width="0.5"/>
      <path id="Path_210-20" data-name="Path 210" d="M3296.813-454h300" transform="translate(-1089.057 -1219.769) rotate(34)" fill="none" stroke="#fade9d" stroke-width="0.5"/>
      <path id="Path_210-21" data-name="Path 210" d="M3296.813-454h300" transform="translate(-1090.175 -1218.111) rotate(34)" fill="none" stroke="#fade9d" stroke-width="0.5"/>
      <path id="Path_210-22" data-name="Path 210" d="M3296.813-454h300" transform="translate(-1091.293 -1216.453) rotate(34)" fill="none" stroke="#fade9d" stroke-width="0.5"/>
      <path id="Path_210-23" data-name="Path 210" d="M3296.813-454h300" transform="translate(-1092.412 -1214.795) rotate(34)" fill="none" stroke="#fade9d" stroke-width="0.5"/>
      <path id="Path_210-24" data-name="Path 210" d="M3296.813-454h300" transform="translate(-1093.53 -1213.137) rotate(34)" fill="none" stroke="#fade9d" stroke-width="0.5"/>
      <path id="Path_210-25" data-name="Path 210" d="M3296.813-454h300" transform="translate(-1094.649 -1211.479) rotate(34)" fill="none" stroke="#fade9d" stroke-width="0.5"/>
      <path id="Path_210-26" data-name="Path 210" d="M3296.813-454h300" transform="translate(-1095.767 -1209.821) rotate(34)" fill="none" stroke="#fade9d" stroke-width="0.5"/>
      <path id="Path_210-27" data-name="Path 210" d="M3296.813-454h300" transform="translate(-1096.885 -1208.163) rotate(34)" fill="none" stroke="#fade9d" stroke-width="0.5"/>
      <path id="Path_210-28" data-name="Path 210" d="M3296.813-454h300" transform="translate(-1098.004 -1206.505) rotate(34)" fill="none" stroke="#fade9d" stroke-width="0.5"/>
      <path id="Path_210-29" data-name="Path 210" d="M3296.813-454h300" transform="translate(-1099.122 -1204.847) rotate(34)" fill="none" stroke="#fade9d" stroke-width="0.5"/>
      <path id="Path_210-30" data-name="Path 210" d="M3296.813-454h300" transform="translate(-1100.241 -1203.189) rotate(34)" fill="none" stroke="#fade9d" stroke-width="0.5"/>
      <path id="Path_210-31" data-name="Path 210" d="M3296.813-454h300" transform="translate(-1101.359 -1201.531) rotate(34)" fill="none" stroke="#fade9d" stroke-width="0.5"/>
      <path id="Path_210-32" data-name="Path 210" d="M3296.813-454h300" transform="translate(-1102.477 -1199.872) rotate(34)" fill="none" stroke="#fade9d" stroke-width="0.5"/>
      <path id="Path_210-33" data-name="Path 210" d="M3296.813-454h300" transform="translate(-1103.596 -1198.214) rotate(34)" fill="none" stroke="#fade9d" stroke-width="0.5"/>
      <path id="Path_210-34" data-name="Path 210" d="M3296.813-454h300" transform="translate(-1104.714 -1196.556) rotate(34)" fill="none" stroke="#fade9d" stroke-width="0.5"/>
      <path id="Path_210-35" data-name="Path 210" d="M3296.813-454h300" transform="translate(-1105.833 -1194.898) rotate(34)" fill="none" stroke="#fade9d" stroke-width="0.5"/>
      <path id="Path_210-36" data-name="Path 210" d="M3296.813-454h300" transform="translate(-1106.951 -1193.24) rotate(34)" fill="none" stroke="#fade9d" stroke-width="0.5"/>
      <path id="Path_210-37" data-name="Path 210" d="M3296.813-454h300" transform="translate(-1108.069 -1191.582) rotate(34)" fill="none" stroke="#fade9d" stroke-width="0.5"/>
      <path id="Path_210-38" data-name="Path 210" d="M3296.813-454h300" transform="translate(-1109.188 -1189.924) rotate(34)" fill="none" stroke="#fade9d" stroke-width="0.5"/>
      <path id="Path_210-39" data-name="Path 210" d="M3296.813-454h300" transform="translate(-1110.306 -1188.266) rotate(34)" fill="none" stroke="#fade9d" stroke-width="0.5"/>
      <path id="Path_210-40" data-name="Path 210" d="M3296.813-454h300" transform="translate(-1111.424 -1186.608) rotate(34)" fill="none" stroke="#fade9d" stroke-width="0.5"/>
      <path id="Path_210-41" data-name="Path 210" d="M3296.813-454h300" transform="translate(-1112.543 -1184.95) rotate(34)" fill="none" stroke="#fade9d" stroke-width="0.5"/>
      <path id="Path_210-42" data-name="Path 210" d="M3296.813-454h300" transform="translate(-1113.661 -1183.292) rotate(34)" fill="none" stroke="#fade9d" stroke-width="0.5"/>
      <path id="Path_210-43" data-name="Path 210" d="M3296.813-454h300" transform="translate(-1114.78 -1181.634) rotate(34)" fill="none" stroke="#fade9d" stroke-width="0.5"/>
      <path id="Path_210-44" data-name="Path 210" d="M3296.813-454h300" transform="translate(-1115.898 -1179.976) rotate(34)" fill="none" stroke="#fade9d" stroke-width="0.5"/>
      <path id="Path_210-45" data-name="Path 210" d="M3296.813-454h300" transform="translate(-1117.016 -1178.318) rotate(34)" fill="none" stroke="#fade9d" stroke-width="0.5"/>
      <path id="Path_210-46" data-name="Path 210" d="M3296.813-454h300" transform="translate(-1118.135 -1176.659) rotate(34)" fill="none" stroke="#fade9d" stroke-width="0.5"/>
      <path id="Path_210-47" data-name="Path 210" d="M3296.813-454h300" transform="translate(-1119.253 -1175.001) rotate(34)" fill="none" stroke="#fade9d" stroke-width="0.5"/>
      <path id="Path_210-48" data-name="Path 210" d="M3296.813-454h300" transform="translate(-1120.372 -1173.343) rotate(34)" fill="none" stroke="#fade9d" stroke-width="0.5"/>
      <path id="Path_210-49" data-name="Path 210" d="M3296.813-454h300" transform="translate(-1121.49 -1171.685) rotate(34)" fill="none" stroke="#fade9d" stroke-width="0.5"/>
      <path id="Path_210-50" data-name="Path 210" d="M3296.813-454h300" transform="translate(-1122.608 -1170.027) rotate(34)" fill="none" stroke="#fade9d" stroke-width="0.5"/>
      <path id="Path_210-51" data-name="Path 210" d="M3296.813-454h300" transform="translate(-1123.727 -1168.369) rotate(34)" fill="none" stroke="#fade9d" stroke-width="0.5"/>
      <path id="Path_210-52" data-name="Path 210" d="M3296.813-454h300" transform="translate(-1124.845 -1166.711) rotate(34)" fill="none" stroke="#fade9d" stroke-width="0.5"/>
      <path id="Path_210-53" data-name="Path 210" d="M3296.813-454h300" transform="translate(-1125.964 -1165.053) rotate(34)" fill="none" stroke="#fade9d" stroke-width="0.5"/>
      <path id="Path_210-54" data-name="Path 210" d="M3296.813-454h300" transform="translate(-1127.082 -1163.395) rotate(34)" fill="none" stroke="#fade9d" stroke-width="0.5"/>
      <path id="Path_210-55" data-name="Path 210" d="M3296.813-454h300" transform="translate(-1128.2 -1161.737) rotate(34)" fill="none" stroke="#fade9d" stroke-width="0.5"/>
      <path id="Path_210-56" data-name="Path 210" d="M3296.813-454h300" transform="translate(-1129.319 -1160.079) rotate(34)" fill="none" stroke="#fade9d" stroke-width="0.5"/>
      <path id="Path_210-57" data-name="Path 210" d="M3296.813-454h300" transform="translate(-1130.437 -1158.421) rotate(34)" fill="none" stroke="#fade9d" stroke-width="0.5"/>
      <path id="Path_210-58" data-name="Path 210" d="M3296.813-454h300" transform="translate(-1131.555 -1156.762) rotate(34)" fill="none" stroke="#fade9d" stroke-width="0.5"/>
      <path id="Path_210-59" data-name="Path 210" d="M3296.813-454h300" transform="translate(-1132.674 -1155.104) rotate(34)" fill="none" stroke="#fade9d" stroke-width="0.5"/>
      <path id="Path_210-60" data-name="Path 210" d="M3296.813-454h300" transform="translate(-1133.792 -1153.446) rotate(34)" fill="none" stroke="#fade9d" stroke-width="0.5"/>
      <path id="Path_210-61" data-name="Path 210" d="M3296.813-454h300" transform="translate(-1134.911 -1151.788) rotate(34)" fill="none" stroke="#fade9d" stroke-width="0.5"/>
      <path id="Path_210-62" data-name="Path 210" d="M3296.813-454h300" transform="translate(-1136.029 -1150.13) rotate(34)" fill="none" stroke="#fade9d" stroke-width="0.5"/>
      <path id="Path_210-63" data-name="Path 210" d="M3296.813-454h300" transform="translate(-1137.147 -1148.472) rotate(34)" fill="none" stroke="#fade9d" stroke-width="0.5"/>
      <path id="Path_210-64" data-name="Path 210" d="M3296.813-454h300" transform="translate(-1138.266 -1146.814) rotate(34)" fill="none" stroke="#fade9d" stroke-width="0.5"/>
      <path id="Path_210-65" data-name="Path 210" d="M3296.813-454h300" transform="translate(-1139.384 -1145.156) rotate(34)" fill="none" stroke="#fade9d" stroke-width="0.5"/>
      <path id="Path_210-66" data-name="Path 210" d="M3296.813-454h300" transform="translate(-1140.502 -1143.498) rotate(34)" fill="none" stroke="#fade9d" stroke-width="0.5"/>
      <path id="Path_210-67" data-name="Path 210" d="M3296.813-454h300" transform="translate(-1141.621 -1141.84) rotate(34)" fill="none" stroke="#fade9d" stroke-width="0.5"/>
      <path id="Path_210-68" data-name="Path 210" d="M3296.813-454h300" transform="translate(-1142.739 -1140.182) rotate(34)" fill="none" stroke="#fade9d" stroke-width="0.5"/>
      <path id="Path_210-69" data-name="Path 210" d="M3296.813-454h300" transform="translate(-1143.858 -1138.524) rotate(34)" fill="none" stroke="#fade9d" stroke-width="0.5"/>
      <path id="Path_210-70" data-name="Path 210" d="M3296.813-454h300" transform="translate(-1144.976 -1136.866) rotate(34)" fill="none" stroke="#fade9d" stroke-width="0.5"/>
      <path id="Path_210-71" data-name="Path 210" d="M3296.813-454h300" transform="translate(-1146.094 -1135.208) rotate(34)" fill="none" stroke="#fade9d" stroke-width="0.5"/>
      <path id="Path_210-72" data-name="Path 210" d="M3296.813-454h300" transform="translate(-1147.213 -1133.549) rotate(34)" fill="none" stroke="#fade9d" stroke-width="0.5"/>
      <path id="Path_210-73" data-name="Path 210" d="M3296.813-454h300" transform="translate(-1148.331 -1131.891) rotate(34)" fill="none" stroke="#fade9d" stroke-width="0.5"/>
      <path id="Path_210-74" data-name="Path 210" d="M3296.813-454h300" transform="translate(-1149.45 -1130.233) rotate(34)" fill="none" stroke="#fade9d" stroke-width="0.5"/>
      <path id="Path_210-75" data-name="Path 210" d="M3296.813-454h300" transform="translate(-1150.568 -1128.575) rotate(34)" fill="none" stroke="#fade9d" stroke-width="0.5"/>
      <path id="Path_210-76" data-name="Path 210" d="M3296.813-454h300" transform="translate(-1151.686 -1126.917) rotate(34)" fill="none" stroke="#fade9d" stroke-width="0.5"/>
      <path id="Path_210-77" data-name="Path 210" d="M3296.813-454h300" transform="translate(-1152.805 -1125.259) rotate(34)" fill="none" stroke="#fade9d" stroke-width="0.5"/>
      <path id="Path_210-78" data-name="Path 210" d="M3296.813-454h300" transform="translate(-1153.923 -1123.601) rotate(34)" fill="none" stroke="#fade9d" stroke-width="0.5"/>
      <path id="Path_210-79" data-name="Path 210" d="M3296.813-454h300" transform="translate(-1155.042 -1121.943) rotate(34)" fill="none" stroke="#fade9d" stroke-width="0.5"/>
      <path id="Path_210-80" data-name="Path 210" d="M3296.813-454h300" transform="translate(-1156.16 -1120.285) rotate(34)" fill="none" stroke="#fade9d" stroke-width="0.5"/>
      <path id="Path_210-81" data-name="Path 210" d="M3296.813-454h300" transform="translate(-1157.278 -1118.627) rotate(34)" fill="none" stroke="#fade9d" stroke-width="0.5"/>
      <path id="Path_210-82" data-name="Path 210" d="M3296.813-454h300" transform="translate(-1158.397 -1116.969) rotate(34)" fill="none" stroke="#fade9d" stroke-width="0.5"/>
      <path id="Path_210-83" data-name="Path 210" d="M3296.813-454h300" transform="translate(-1159.515 -1115.311) rotate(34)" fill="none" stroke="#fade9d" stroke-width="0.5"/>
      <path id="Path_210-84" data-name="Path 210" d="M3296.813-454h300" transform="translate(-1160.633 -1113.653) rotate(34)" fill="none" stroke="#fade9d" stroke-width="0.5"/>
      <path id="Path_210-85" data-name="Path 210" d="M3296.813-454h300" transform="translate(-1161.752 -1111.995) rotate(34)" fill="none" stroke="#fade9d" stroke-width="0.5"/>
      <path id="Path_210-86" data-name="Path 210" d="M3296.813-454h300" transform="translate(-1162.87 -1110.336) rotate(34)" fill="none" stroke="#fade9d" stroke-width="0.5"/>
      <path id="Path_210-87" data-name="Path 210" d="M3296.813-454h300" transform="translate(-1163.989 -1108.678) rotate(34)" fill="none" stroke="#fade9d" stroke-width="0.5"/>
      <path id="Path_210-88" data-name="Path 210" d="M3296.813-454h300" transform="translate(-1165.107 -1107.02) rotate(34)" fill="none" stroke="#fade9d" stroke-width="0.5"/>
      <path id="Path_210-89" data-name="Path 210" d="M3296.813-454h300" transform="translate(-1166.225 -1105.362) rotate(34)" fill="none" stroke="#fade9d" stroke-width="0.5"/>
      <path id="Path_210-90" data-name="Path 210" d="M3296.813-454h300" transform="translate(-1167.344 -1103.704) rotate(34)" fill="none" stroke="#fade9d" stroke-width="0.5"/>
      <path id="Path_210-91" data-name="Path 210" d="M3296.813-454h300" transform="translate(-1168.462 -1102.046) rotate(34)" fill="none" stroke="#fade9d" stroke-width="0.5"/>
      <path id="Path_210-92" data-name="Path 210" d="M3296.813-454h300" transform="translate(-1169.581 -1100.388) rotate(34)" fill="none" stroke="#fade9d" stroke-width="0.5"/>
      <path id="Path_210-93" data-name="Path 210" d="M3296.813-454h300" transform="translate(-1170.699 -1098.73) rotate(34)" fill="none" stroke="#fade9d" stroke-width="0.5"/>
      <path id="Path_210-94" data-name="Path 210" d="M3296.813-454h300" transform="translate(-1171.817 -1097.072) rotate(34)" fill="none" stroke="#fade9d" stroke-width="0.5"/>
      <path id="Path_210-95" data-name="Path 210" d="M3296.813-454h300" transform="translate(-1172.936 -1095.414) rotate(34)" fill="none" stroke="#fade9d" stroke-width="0.5"/>
      <path id="Path_210-96" data-name="Path 210" d="M3296.813-454h300" transform="translate(-1174.054 -1093.756) rotate(34)" fill="none" stroke="#fade9d" stroke-width="0.5"/>
      <path id="Path_210-97" data-name="Path 210" d="M3296.813-454h300" transform="translate(-1175.172 -1092.098) rotate(34)" fill="none" stroke="#fade9d" stroke-width="0.5"/>
      <path id="Path_210-98" data-name="Path 210" d="M3296.813-454h300" transform="translate(-1176.291 -1090.439) rotate(34)" fill="none" stroke="#fade9d" stroke-width="0.5"/>
      <path id="Path_210-99" data-name="Path 210" d="M3296.813-454h300" transform="translate(-1177.409 -1088.781) rotate(34)" fill="none" stroke="#fade9d" stroke-width="0.5"/>
      <path id="Path_210-100" data-name="Path 210" d="M3296.813-454h300" transform="translate(-1178.528 -1087.123) rotate(34)" fill="none" stroke="#fade9d" stroke-width="0.5"/>
      <path id="Path_210-101" data-name="Path 210" d="M3296.813-454h300" transform="translate(-1179.646 -1085.465) rotate(34)" fill="none" stroke="#fade9d" stroke-width="0.5"/>
      <path id="Path_210-102" data-name="Path 210" d="M3296.813-454h300" transform="translate(-1180.764 -1083.807) rotate(34)" fill="none" stroke="#fade9d" stroke-width="0.5"/>
      <path id="Path_210-103" data-name="Path 210" d="M3296.813-454h300" transform="translate(-1181.883 -1082.149) rotate(34)" fill="none" stroke="#fade9d" stroke-width="0.5"/>
      <path id="Path_210-104" data-name="Path 210" d="M3296.813-454h300" transform="translate(-1183.001 -1080.491) rotate(34)" fill="none" stroke="#fade9d" stroke-width="0.5"/>
      <path id="Path_210-105" data-name="Path 210" d="M3296.813-454h300" transform="translate(-1184.12 -1078.833) rotate(34)" fill="none" stroke="#fade9d" stroke-width="0.5"/>
      <path id="Path_210-106" data-name="Path 210" d="M3296.813-454h300" transform="translate(-1185.238 -1077.175) rotate(34)" fill="none" stroke="#fade9d" stroke-width="0.5"/>
      <path id="Path_210-107" data-name="Path 210" d="M3296.813-454h300" transform="translate(-1186.356 -1075.517) rotate(34)" fill="none" stroke="#fade9d" stroke-width="0.5"/>
      <path id="Path_210-108" data-name="Path 210" d="M3296.813-454h300" transform="translate(-1053.269 -1272.828) rotate(34)" fill="none" stroke="#fade9d" stroke-width="0.5"/>
      <path id="Path_210-109" data-name="Path 210" d="M3296.813-454h300" transform="translate(-1054.387 -1271.17) rotate(34)" fill="none" stroke="#fade9d" stroke-width="0.5"/>
      <path id="Path_210-110" data-name="Path 210" d="M3296.813-454h300" transform="translate(-1055.505 -1269.512) rotate(34)" fill="none" stroke="#fade9d" stroke-width="0.5"/>
      <path id="Path_210-111" data-name="Path 210" d="M3296.813-454h300" transform="translate(-1056.624 -1267.854) rotate(34)" fill="none" stroke="#fade9d" stroke-width="0.5"/>
      <path id="Path_210-112" data-name="Path 210" d="M3296.813-454h300" transform="translate(-1057.742 -1266.195) rotate(34)" fill="none" stroke="#fade9d" stroke-width="0.5"/>
      <path id="Path_210-113" data-name="Path 210" d="M3296.813-454h300" transform="translate(-1058.86 -1264.537) rotate(34)" fill="none" stroke="#fade9d" stroke-width="0.5"/>
      <path id="Path_210-114" data-name="Path 210" d="M3296.813-454h300" transform="translate(-1059.979 -1262.879) rotate(34)" fill="none" stroke="#fade9d" stroke-width="0.5"/>
      <path id="Path_210-115" data-name="Path 210" d="M3296.813-454h300" transform="translate(-1061.097 -1261.221) rotate(34)" fill="none" stroke="#fade9d" stroke-width="0.5"/>
      <path id="Path_210-116" data-name="Path 210" d="M3296.813-454h300" transform="translate(-1062.215 -1259.563) rotate(34)" fill="none" stroke="#fade9d" stroke-width="0.5"/>
      <path id="Path_210-117" data-name="Path 210" d="M3296.813-454h300" transform="translate(-1063.334 -1257.905) rotate(34)" fill="none" stroke="#fade9d" stroke-width="0.5"/>
      <path id="Path_210-118" data-name="Path 210" d="M3296.813-454h300" transform="translate(-1064.452 -1256.247) rotate(34)" fill="none" stroke="#fade9d" stroke-width="0.5"/>
      <path id="Path_210-119" data-name="Path 210" d="M3296.813-454h300" transform="translate(-1065.571 -1254.589) rotate(34)" fill="none" stroke="#fade9d" stroke-width="0.5"/>
      <path id="Path_210-120" data-name="Path 210" d="M3296.813-454h300" transform="translate(-1066.689 -1252.931) rotate(34)" fill="none" stroke="#fade9d" stroke-width="0.5"/>
    </g>
  </g>
</svg>
