<svg id="invest" xmlns="http://www.w3.org/2000/svg" width="26.209" height="52.847" viewBox="0 0 26.209 52.847">
  <g id="Layer_4" data-name="Layer 4" transform="translate(0 0)">
    <path id="Path_5692" data-name="Path 5692" d="M39.188,14.886A13.1,13.1,0,1,0,24.895,27.929v4.157a8.166,8.166,0,0,0-2.988-2.095,11.178,11.178,0,0,0-8.261.472,1.19,1.19,0,0,0-.656,1.229c1.5,10.952,8.918,12.89,11.9,13.224v8.516a1.189,1.189,0,0,0,2.378,0v-25.5A13.117,13.117,0,0,0,39.188,14.886Zm-23.7,17.4A8.219,8.219,0,0,1,21.02,32.2a7.245,7.245,0,0,1,3.875,4.471v5.875C22.493,42.251,17,40.663,15.491,32.284Zm10.592-6.672A10.726,10.726,0,1,1,36.81,14.886,10.726,10.726,0,0,1,26.084,25.611Z" transform="translate(-12.979 -1.775)" fill="#8f5eab"/>
    <path id="Path_5693" data-name="Path 5693" d="M25,7.528a6.27,6.27,0,1,0,6.27,6.27A6.27,6.27,0,0,0,25,7.528ZM25,17.69A3.892,3.892,0,1,1,28.889,13.8,3.892,3.892,0,0,1,25,17.69Z" transform="translate(-11.892 -0.687)" fill="#8f5eab"/>
  </g>
</svg>
