<svg xmlns="http://www.w3.org/2000/svg" width="122.752" height="48.477" viewBox="0 0 122.752 48.477">
  <g id="Group_25638" data-name="Group 25638" transform="translate(-120 -54)">
    <g id="Layer_2" data-name="Layer 2" transform="translate(120 54)">
      <g id="Window" transform="translate(0 0)">
        <path id="Path_393" data-name="Path 393" d="M30.014,71.351c.478-.341,1.032-.554,1.5-.908a6.18,6.18,0,0,0,1.779-2.171,3.932,3.932,0,0,0,.367-1.2v-.486c0-.162-.034-.307.111-.426.239,0,.2.2.2.337A4.773,4.773,0,0,1,33.716,68c-.175.546-.154.589.422.589H36.7c.427,0,.542-.124.563-.537v-.819a1.1,1.1,0,0,1,.021-.29c0-.1.051-.213.171-.2s.094.128.1.209a2.324,2.324,0,0,0,.03.456A6.44,6.44,0,0,1,37.5,68.89a4.154,4.154,0,0,1-.542,1.557c-.124-.115-.026-.222,0-.324a1.927,1.927,0,0,0,.141-.426,5.852,5.852,0,0,1-1.22,2.132,9.9,9.9,0,0,1-3.3,2.3c-.482.247-.951.525-1.425.789-1.13.631-2.273,1.245-3.374,1.928-.853.533-1.706,1.036-2.58,1.54a12.24,12.24,0,0,1-2.316,1.288,6.824,6.824,0,0,1-3.246.3,10.151,10.151,0,0,1-2.248-.653,11.539,11.539,0,0,1-1.279-.755c-.49-.277-.972-.58-1.454-.879s-1.071-.6-1.582-.908c-1.915-1.126-3.881-2.167-5.835-3.22a8,8,0,0,1-1.911-1.4,6.018,6.018,0,0,1-1.437-2.516,3.548,3.548,0,0,0,.226.653c.047.1.141.209.034.328a4.657,4.657,0,0,1-.529-1.493A10.441,10.441,0,0,1,3.465,66.8a.853.853,0,0,1,0-.23c.209-.021.213.136.23.273.026.213,0,.426.026.648a.341.341,0,0,0,.388.345,22.5,22.5,0,0,1,2.627-.081c.375,0,.384-.026.375-.427,0-.162-.047-.32-.047-.482s0-.264.183-.3c.09.043.043.124.055.188a5.655,5.655,0,0,0,.375,1.433,5.715,5.715,0,0,0,1.305,1.958,6.914,6.914,0,0,0,1.378.917,4.342,4.342,0,0,1,.78.456c.23.107.226-.051.226-.2V68.732c0-.751-.06-1.5-.034-2.252v-.2c0-.068,0-.226.115-.235s.154.132.166.239c.026.269,0,.542,0,.815a2.239,2.239,0,0,0,.043.584.427.427,0,0,0,.469.358c.5-.043,1,0,1.5,0,.691-.043,1.39.047,2.081,0s1.322.043,1.987,0c.746-.043,1.5-.064,2.248-.038h1.663c.554,0,1.071.064,1.6.047,1.117-.03,2.239.068,3.357-.034.452-.043.908.064,1.369.055.392,0,.78-.068,1.173-.038.188,0,.252-.1.277-.252a5.22,5.22,0,0,0,.077-.682.542.542,0,0,1,.068-.281c.03-.047.073-.094.128-.085s.081.068.09.124,0,.192,0,.29c0,.926-.026,1.851,0,2.777.026.427,0,.853,0,1.28C29.8,71.313,29.814,71.44,30.014,71.351Z" transform="translate(-3.371 -37.878)" fill="#622586"/>
        <path id="Path_394" data-name="Path 394" d="M21.456,9.271V4.694a.426.426,0,0,1,.23-.431c1.877-1.1,3.74-2.239,5.626-3.331A6.714,6.714,0,0,1,34.23.984c1.889,1.032,3.723,2.171,5.587,3.28a.461.461,0,0,1,.269.426v9.153c0,.081.051.183-.055.235s-.158-.047-.23-.085c-2.188-1.156-4.265-2.486-6.444-3.672a5.088,5.088,0,0,0-5.4.124c-2.034,1.245-4.09,2.461-6.184,3.6-.2.107-.247.064-.247-.149V9.253Z" transform="translate(-13.693 0.003)" fill="#622586"/>
        <path id="Path_395" data-name="Path 395" d="M40.415,55.371c-.2.154-.235,0-.235-.149V53.943c-.051-.81-.03-1.621,0-2.431,0-.576-.132-1.139-.081-1.706,0-1.305.047-2.614-.043-3.92a18.228,18.228,0,0,1,0-1.868c-.064.49-.183.606-.755.618-1.25.034-2.5,0-3.749,0-1.045,0-2.09-.055-3.135,0a28.025,28.025,0,0,1-2.87.043c-1.48-.064-2.96.055-4.436,0-.827-.03-1.651.068-2.478,0-.606-.038-.657-.064-.815-.67a5.822,5.822,0,0,1,.051,1.22v3.365c.026,1.041-.132,2.077-.077,3.118a.179.179,0,0,1-.043.119.546.546,0,0,1-.034-.32c-.038-3.156-.068-6.316-.111-9.473a6.308,6.308,0,0,1,.073-1.527,3.412,3.412,0,0,1,.708-1.433c.209-.2.426-.4.606-.61l.32-.239c.073-.03.158-.06.2.021s0,.124-.051.175a1.868,1.868,0,0,1-.3.252,2.738,2.738,0,0,0-.755.887c-.162.311-.073.465.264.465,1.74,0,3.485.055,5.225,0,1.587-.064,3.173-.03,4.76-.038h6.56c.256,0,.3-.073.209-.328a2.589,2.589,0,0,0-.853-1.053,1.194,1.194,0,0,1-.264-.243c-.068-.115-.085-.213.107-.171l.465.324a1.749,1.749,0,0,1,.4.392,3.8,3.8,0,0,1,.934,2.606q0,6.777.034,13.554C40.253,55.192,40.159,55.384,40.415,55.371Z" transform="translate(-13.772 -21.899)" fill="#622586"/>
        <path id="Path_396" data-name="Path 396" d="M40.1,60.912V65.1c-.094-.1-.055-.226-.055-.341V62.273a.584.584,0,0,0-.064-.375,5.583,5.583,0,0,0-.119.981c-.077.427-.043.427-.473.427s-.819.047-1.224.047c-.78-.034-1.557,0-2.337,0H34.09c-.576,0-1.19-.051-1.787-.055H29.258a18.263,18.263,0,0,1-1.868.043,11.866,11.866,0,0,0-1.74,0,17.4,17.4,0,0,0-2.056,0,7.566,7.566,0,0,1-1.045.013c-.5.03-.678-.149-.7-.661V61.548c0-.081.034-.175-.073-.252-.09.1-.055.222-.055.328v4.832c0,.162.047.4-.256.23.218.026.175-.132.175-.256v-8.76c.26-.047.213.162.222.29a9.587,9.587,0,0,0,.064,1.1c.077.428.1.475.533.47h5.382a28.151,28.151,0,0,0,2.985-.03,4.128,4.128,0,0,1,.687.047c.58.026,1.147-.107,1.706-.119.964-.026,1.928,0,2.892,0H39.37a.3.3,0,0,0,.32-.26,2.645,2.645,0,0,0,.128-.512.371.371,0,0,1,.23-.371C40.112,59.172,40.036,60.047,40.1,60.912Z" transform="translate(-13.703 -33.069)" fill="#622586"/>
        <path id="Path_397" data-name="Path 397" d="M39.18,33.137c-.209.081-.034.128,0,.175a3.979,3.979,0,0,1,.917.917,1.6,1.6,0,0,1,.252.542c.038.188.038.3-.26.29-1.032-.043-2.064-.047-3.1,0h-4c-3.177-.021-6.355.115-9.532.068-.5,0-.635-.222-.363-.661a3.114,3.114,0,0,1,1.032-1.062c.055-.034.128-.073.1-.145s-.1-.026-.154-.034c.908-.512,1.825-1.015,2.725-1.535,1.045-.606,2.069-1.245,3.122-1.834a3.51,3.51,0,0,1,3.612.077c1.813,1,3.57,2.047,5.4,3.015C39.018,33,39.129,33.031,39.18,33.137Z" transform="translate(-14.554 -16.857)" fill="#622586"/>
        <path id="Path_399" data-name="Path 399" d="M71.341,40.668V38.386a5.284,5.284,0,0,0-1.97-4.423c-.047-.043-.09-.094-.132-.141a1.86,1.86,0,0,1,0-.486c0-.055,0-.115.064-.132a.129.129,0,0,1,.162.077.452.452,0,0,1,.068.145.972.972,0,0,0,1.071.729,6.308,6.308,0,0,1,1.331,0,17.15,17.15,0,0,0,2.132-.034c.218,0,.252-.128.209-.307a2.222,2.222,0,0,0-.341-.7.593.593,0,0,1-.145-.354c0-.119.051-.213.171-.064A7.314,7.314,0,0,1,75.3,36.475c.03.469-.026.934-.026,1.4,0,1.066,0,2.132-.03,3.2a.554.554,0,0,1-.038.32.29.29,0,0,1-.094-.235V38.177c-.2.661-.192.576-1.1.576H72.258c-.426,0-.64-.158-.725-.7-.047.759,0,1.476-.03,2.188C71.5,40.412,71.567,40.6,71.341,40.668Z" transform="translate(-41.089 -18.706)" fill="#622586"/>
        <path id="Path_400" data-name="Path 400" d="M3.371,40.68a1.343,1.343,0,0,1-.038-.222c-.026-1.48-.073-2.96-.073-4.423a6.039,6.039,0,0,1,1.48-4.009,2.337,2.337,0,0,1,.384-.426c.141.124.149.145.043.32s-.294.38-.426.593-.09.294.158.269c.486-.047.977,0,1.463-.068a1.424,1.424,0,0,1,.52.026,6.1,6.1,0,0,0,1.625.043.52.52,0,0,0,.554-.448.708.708,0,0,1,.06-.183c.03-.064.073-.115.149-.094s.068.081.068.136c0,.38.026.759,0,1.139A8.312,8.312,0,0,0,7.755,35.14c-.171-.047-.162.111-.2.192-.111.222-.209.452-.324.674a.785.785,0,0,1-.78.456H4.2c-.6,0-.734-.136-.755-.755.055,1.092.021,2.188.03,3.28V40.33A.419.419,0,0,1,3.371,40.68Z" transform="translate(-3.26 -18.121)" fill="#622586"/>
        <path id="Path_402" data-name="Path 402" d="M73.9,28.44c-.252,0-.085.154-.051.209a2.691,2.691,0,0,1,.473.951c.043.226.09.392-.273.358a8.026,8.026,0,0,0-1.152.047,16.049,16.049,0,0,1-1.753-.06,1.889,1.889,0,0,0-.512.043,1.386,1.386,0,0,1-1.194-.426c-.073-.06-.047-.162-.047-.247a.375.375,0,0,0-.175-.345l-.03.614c-.094-.1-.051-.23-.051-.345V25.523c0-.1-.06-.23.047-.3s.192.051.281.1q1.343.729,2.683,1.476a5.971,5.971,0,0,1,1.706,1.514.555.555,0,0,1,.047.128Z" transform="translate(-41.031 -14.45)" fill="#622586"/>
        <path id="Path_404" data-name="Path 404" d="M74.1,47.516c.085-.06.064-.154.068-.239a21.547,21.547,0,0,1,.064-2.405A1.075,1.075,0,0,0,74.2,44.6c.166,0,.158.128.171.235.055.635.2.691.815.678a7.2,7.2,0,0,1,1.574,0c.239.047.486-.073.738-.026.115,0,.166-.119.2-.226a2.158,2.158,0,0,0,.162-.7h.115v3.685l.064,4.691a.068.068,0,0,1-.1,0,2.367,2.367,0,0,1-.077-.9,17.242,17.242,0,0,0-.06-1.744c0-.751.03-1.5.034-2.252v.674c-.021.337-.183.469-.52.49-.751.051-1.5,0-2.248.047-.674.06-.823-.1-.823-.785a1.659,1.659,0,0,1,0-.252,27.378,27.378,0,0,0,0,3.131V52.57a10.731,10.731,0,0,1-.09,1.706v.516c0,.034-.043.034-.06,0,.055-2.132-.085-4.231-.051-6.346C74.064,48.121,74.09,47.818,74.1,47.516Z" transform="translate(-43.851 -25.554)" fill="#622586"/>
        <path id="Path_405" data-name="Path 405" d="M3.55,48.514v-.043c.209-.085.23.085.277.209.145.426.154.392.576.426.678,0,1.361-.051,2.043,0,.473.026.533-.026.618-.495a.674.674,0,0,1,.179-.426c.064-.055.115-.043.124.055.068,2.009.077,4.018.064,6.031a.994.994,0,0,1-.021.354v1.9c-.021.038-.043.043-.068,0v-.192a.375.375,0,0,1-.09-.3V52.617c-.128.375-.256.473-.687.486-.785.021-1.565-.047-2.35-.026-.358,0-.465-.132-.495-.5a14.074,14.074,0,0,1-.073-1.5.815.815,0,0,0-.068-.35V48.847A.678.678,0,0,0,3.55,48.514Z" transform="translate(-3.426 -27.615)" fill="#622586"/>
        <path id="Path_408" data-name="Path 408" d="M7.345,43.026a.759.759,0,0,0-.179.473c-.064.537-.171.665-.7.546a7.02,7.02,0,0,0-1.16,0,3.582,3.582,0,0,0-1.024,0c-.341.068-.478-.141-.516-.426,0-.136,0-.269-.2-.277V39.652c.179.047.115.166.124.247a2.388,2.388,0,0,0,.06.512.388.388,0,0,0,.426.324c.827,0,1.655-.021,2.482,0a.67.67,0,0,0,.665-.427A5.907,5.907,0,0,1,7.92,39.23c.115.09,0,.166,0,.243l-.188.392a4.188,4.188,0,0,0-.371,1.753A7.208,7.208,0,0,1,7.345,43.026Z" transform="translate(-3.438 -22.497)" fill="#622586"/>
        <path id="Path_409" data-name="Path 409" d="M11.054,29.678V28.484c-.107-.038-.124,0-.128.026-.141.691-.3.708-.994.751s-1.4-.192-2.132-.081c-.452.073-.93.026-1.395.068-.2,0-.158-.128-.115-.239a3.032,3.032,0,0,1,.482-.738c.064-.09.226-.179.068-.324a7.1,7.1,0,0,1,2.1-1.574l1.9-1.036c.162-.094.269-.1.269.124,0,1.361,0,2.717.026,4.077A1.145,1.145,0,0,1,11.054,29.678Z" transform="translate(-4.976 -14.494)" fill="#622586"/>
        <path id="Path_410" data-name="Path 410" d="M4.55,75.016c-.026-.341-.26-.661-.32-1.015,0-.1-.1-.2-.043-.311.115,0,.09.107.111.175a6.206,6.206,0,0,0,2.359,3.369,12.074,12.074,0,0,0,1.651.964c1.237.648,2.44,1.365,3.681,2.013.827.426,1.6.955,2.414,1.4,1.071.589,2.09,1.28,3.156,1.86a6.278,6.278,0,0,0,2.393.763,9.748,9.748,0,0,0,1.224.115,6.909,6.909,0,0,0,3.868-1.326c.542-.375,1.147-.687,1.706-1.024.768-.426,1.531-.9,2.286-1.369.593-.371,1.228-.682,1.847-1.019.478-.26.968-.5,1.425-.789.648-.426,1.348-.734,2.013-1.117a6.986,6.986,0,0,0,3.122-3.5c.034-.09.085-.171.162-.333,0,.392-.243.64-.23.947a6.722,6.722,0,0,1-2.858,3.045c-2.892,1.616-5.8,3.2-8.624,4.935-.64.392-1.279.806-1.941,1.139a6.568,6.568,0,0,1-6.483-.26c-3.412-1.97-6.8-3.941-10.262-5.809A5.856,5.856,0,0,1,4.55,75.016Z" transform="translate(-3.782 -42.26)" fill="#622586"/>
        <path id="Path_416" data-name="Path 416" d="M12.411,43.9v-1.8A2.661,2.661,0,0,1,12.8,40.76a12.575,12.575,0,0,0-.281,4.653c.026,1.557,0,3.241,0,4.862a.256.256,0,0,1-.034.09V46.607C12.479,45.707,12.377,44.807,12.411,43.9Z" transform="translate(-8.504 -23.375)" fill="#622586"/>
        <path id="Path_417" data-name="Path 417" d="M3.458,49c.107.111.055.247.06.375v1.855a.533.533,0,0,1,.06.281c.085,1.646-.038,3.293-.026,4.939a.427.427,0,0,1-.1.328v.2c0,.03-.043.03-.06,0V54.664c.038-1.339.047-2.678.038-4.013Z" transform="translate(-3.334 -28.1)" fill="#622586"/>
        <path id="Path_418" data-name="Path 418" d="M83.083,64.21h.068a22.046,22.046,0,0,1,0,3.357.371.371,0,0,1-.068.247,14.839,14.839,0,0,0,.051-1.51c0-.495-.115-.981-.149-1.471A.785.785,0,0,1,83.083,64.21Z" transform="translate(-48.968 -36.823)" fill="#622586"/>
        <path id="Path_419" data-name="Path 419" d="M3.343,67.72a.145.145,0,0,0,.06,0,16.339,16.339,0,0,0,.128,2.371,6.581,6.581,0,0,1-.188-2.371Z" transform="translate(-3.288 -38.836)" fill="#622586"/>
        <path id="Path_420" data-name="Path 420" d="M12.43,67.74H12.5c.111.461.218.917.328,1.378A3.233,3.233,0,0,1,12.43,67.74Z" transform="translate(-8.519 -38.848)" fill="#622586"/>
        <path id="Path_421" data-name="Path 421" d="M73.757,68.5a.277.277,0,0,0,.06,0,2.5,2.5,0,0,1-.4,1.177Z" transform="translate(-43.497 -39.284)" fill="#622586"/>
        <path id="Path_422" data-name="Path 422" d="M24.006,38.86a1.544,1.544,0,0,1-.606.61A2.226,2.226,0,0,1,24.006,38.86Z" transform="translate(-14.81 -22.285)" fill="#622586"/>
        <path id="Path_423" data-name="Path 423" d="M62.461,39.322a1.305,1.305,0,0,1-.4-.392A.665.665,0,0,1,62.461,39.322Z" transform="translate(-36.982 -22.325)" fill="#622586"/>
        <path id="Path_424" data-name="Path 424" d="M3.534,59.824c-.03-1.851.111-3.7.068-5.544.158.068.132.213.124.337-.034.525.064,1.041.068,1.561,0,.452.384.316.572.3.682-.055,1.352.047,2.03.026s.64,0,.793-.618a.264.264,0,0,1,.132-.222v4.171c-.183.1-.149.264-.107.4a2.87,2.87,0,0,1,.043.712c0,.094,0,.209-.128.179-.256-.068-.5.038-.768-.026a8.639,8.639,0,0,0-1.322.038,2.866,2.866,0,0,0-.806.055c-.392.073-.559-.1-.567-.5v-.554C3.667,60.012,3.671,59.888,3.534,59.824Z" transform="translate(-3.415 -31.128)" fill="#622586"/>
        <path id="Path_425" data-name="Path 425" d="M77.868,61.525c-.026.7.115,1.395.055,2.094-.132-.179,0-.426-.085-.6-.141.038-.1.154-.1.239v1.075c0,.426-.175.593-.58.593h-2.93c-.367,0-.426-.064-.3-.426a5.715,5.715,0,0,0,.341-1.774c0-.107.055-.252-.128-.286a5.971,5.971,0,0,1-.034-.955.853.853,0,0,0-.026-.35V59.9c.277.03.264.252.281.426a3.224,3.224,0,0,0,.09.806.358.358,0,0,0,.426.273,13.1,13.1,0,0,1,1.919,0c.593.064.7-.021.776-.618a7.049,7.049,0,0,0,0-.853,1.309,1.309,0,0,1,0-.226c0-.085.043-.188.158-.175s.077.115.081.188a5.971,5.971,0,0,0,.026.853Z" transform="translate(-43.753 -34.138)" fill="#622586"/>
        <path id="Path_426" data-name="Path 426" d="M74.37,63.3a6.075,6.075,0,0,1,.06,1.305c0,.132.043.277-.055.4C74.374,64.452,74.37,63.867,74.37,63.3Z" transform="translate(-44.041 -36.301)" fill="#622586"/>
        <path id="Path_427" data-name="Path 427" d="M40.25,56.827c-.094-.1-.055-.226-.055-.341V54.263a.294.294,0,0,0-.132.311,1.377,1.377,0,0,1-.077.546c-.06.2-.128.294-.426.3a9.647,9.647,0,0,0-1.889.026.235.235,0,0,1-.094,0,11.81,11.81,0,0,0-1.821-.043,3.2,3.2,0,0,0-1.109.021.559.559,0,0,1-.324,0,3.084,3.084,0,0,0-1.587.06,1.637,1.637,0,0,1-.29,0H26.837c-.891,0-1.783.021-2.67,0-.618,0-1.233.043-1.847,0-.281,0-.26-.269-.3-.452a6,6,0,0,1-.068-1.279c0-.1.03-.23-.132-.252a24.122,24.122,0,0,0-.081-2.87c.209.081.2.209.213.337.06.537.175.627.712.64.682,0,1.361-.034,2.034-.043.469,0,.947.026,1.42.03.853,0,1.668-.094,2.491-.038,1.015.064,2.026.06,3.032.034.853,0,1.672-.081,2.5-.043.691.03,1.378,0,2.073,0a8.752,8.752,0,0,0,1.378,0,16.749,16.749,0,0,1,1.732,0c.576,0,.67-.115.729-.674a.7.7,0,0,1,.038-.286s.034,0,.09-.051C40.19,52.685,40.31,54.758,40.25,56.827Z" transform="translate(-13.858 -28.984)" fill="#622586"/>
        <path id="Path_428" data-name="Path 428" d="M55.049,112.224h-1.2c-.141,0-.264,0-.171-.2a1.467,1.467,0,0,1,1.339-.853,1.339,1.339,0,0,1,1.416.712c.115.239.085.328-.209.311H55.049Z" transform="translate(-32.155 -63.747)" fill="#fdfdfd"/>
        <path id="Path_429" data-name="Path 429" d="M78.059,55.979c-.154-.32,0-.678-.111-1.041a.427.427,0,0,0-.077.358,4.845,4.845,0,0,1-.119,1.356c-.06.188-.132.252-.311.243a9.057,9.057,0,0,0-.96-.034,10.159,10.159,0,0,0-1.442.026.35.35,0,0,1-.465-.273,2.67,2.67,0,0,1-.1-.9.465.465,0,0,0-.2-.456,18.108,18.108,0,0,1,.038-3.412c.145.136.094.32.085.482-.034.883.269.763.917.751a6.823,6.823,0,0,1,1.181,0,8.364,8.364,0,0,0,1.126-.043c.179,0,.239-.26.243-.448V51.68c0-.064,0-.128.124-.23C78.008,53,77.961,54.5,78.059,55.979Z" transform="translate(-43.952 -29.505)" fill="#622586"/>
      </g>
    </g>
    <path id="Path_6918" data-name="Path 6918" d="M1.776-11.52h2.88V0H1.776Zm-.408-3.912a1.659,1.659,0,0,1,.516-1.212,1.772,1.772,0,0,1,1.308-.516,1.9,1.9,0,0,1,1.332.492,1.6,1.6,0,0,1,.54,1.236,1.6,1.6,0,0,1-.54,1.236,1.9,1.9,0,0,1-1.332.492,1.772,1.772,0,0,1-1.308-.516A1.659,1.659,0,0,1,1.368-15.432ZM13.68-4.68H7.92V-7.128h5.76Zm3.264-6.84h2.88V0h-2.88Zm-.408-3.912a1.659,1.659,0,0,1,.516-1.212,1.772,1.772,0,0,1,1.308-.516,1.9,1.9,0,0,1,1.332.492,1.6,1.6,0,0,1,.54,1.236,1.6,1.6,0,0,1-.54,1.236,1.9,1.9,0,0,1-1.332.492,1.772,1.772,0,0,1-1.308-.516A1.659,1.659,0,0,1,16.536-15.432Zm7.32,3.912h2.736v1.848h.048A3.725,3.725,0,0,1,27.972-11.2a3.828,3.828,0,0,1,2.244-.66,4.334,4.334,0,0,1,1.932.4,3.809,3.809,0,0,1,1.32,1.044,4.223,4.223,0,0,1,.756,1.488,6.259,6.259,0,0,1,.24,1.728V0h-2.88V-6.384a8.173,8.173,0,0,0-.072-1.056,2.85,2.85,0,0,0-.312-1,2.069,2.069,0,0,0-.66-.732,1.94,1.94,0,0,0-1.116-.288,2.463,2.463,0,0,0-1.2.276,2.548,2.548,0,0,0-.828.708,3.135,3.135,0,0,0-.492,1,3.974,3.974,0,0,0-.168,1.14V0h-2.88Zm12.768,0h3.144l3.024,8.4h.048l3.048-8.4h3.048L44.352,0H41.28ZM59.3-6.912a3.551,3.551,0,0,0-.156-1.056,2.417,2.417,0,0,0-.492-.888,2.4,2.4,0,0,0-.852-.612A2.979,2.979,0,0,0,56.592-9.7a3.237,3.237,0,0,0-2.2.78,2.843,2.843,0,0,0-1,2Zm2.88,1.3v.384a3.093,3.093,0,0,1-.024.384H53.4a2.853,2.853,0,0,0,.324,1.14,2.9,2.9,0,0,0,.732.888,3.642,3.642,0,0,0,1.032.588,3.39,3.39,0,0,0,1.2.216,3.842,3.842,0,0,0,1.824-.4A3.417,3.417,0,0,0,59.736-3.5l1.92,1.536a5.77,5.77,0,0,1-4.944,2.3,7.033,7.033,0,0,1-2.472-.42,5.834,5.834,0,0,1-1.956-1.188,5.354,5.354,0,0,1-1.3-1.884,6.494,6.494,0,0,1-.468-2.532,6.608,6.608,0,0,1,.468-2.532,5.764,5.764,0,0,1,1.284-1.944A5.743,5.743,0,0,1,54.2-11.412a6.465,6.465,0,0,1,2.412-.444,6.082,6.082,0,0,1,2.22.4A4.814,4.814,0,0,1,60.6-10.284,5.454,5.454,0,0,1,61.764-8.34,8.021,8.021,0,0,1,62.184-5.616Zm9.624-2.832a3.325,3.325,0,0,0-1.056-.876A2.973,2.973,0,0,0,69.288-9.7a2.8,2.8,0,0,0-1.272.288.993.993,0,0,0-.576.96.964.964,0,0,0,.636.948,11.638,11.638,0,0,0,1.86.564,10.481,10.481,0,0,1,1.308.384,4.777,4.777,0,0,1,1.2.636,3.134,3.134,0,0,1,.876.984A2.836,2.836,0,0,1,73.656-3.5a3.715,3.715,0,0,1-.4,1.788A3.366,3.366,0,0,1,72.2-.528a4.447,4.447,0,0,1-1.536.66,7.963,7.963,0,0,1-1.812.2A7.193,7.193,0,0,1,66.24-.156a5.531,5.531,0,0,1-2.112-1.4l1.9-1.776A3.788,3.788,0,0,0,67.272-2.3a3.575,3.575,0,0,0,1.7.408,2.926,2.926,0,0,0,.636-.072,2.167,2.167,0,0,0,.6-.228,1.242,1.242,0,0,0,.444-.42,1.183,1.183,0,0,0,.168-.648,1.064,1.064,0,0,0-.66-1.032,10.639,10.639,0,0,0-1.98-.624,9.52,9.52,0,0,1-1.26-.372,4.113,4.113,0,0,1-1.092-.6,2.78,2.78,0,0,1-.768-.924,2.934,2.934,0,0,1-.288-1.368,3.3,3.3,0,0,1,.4-1.656,3.4,3.4,0,0,1,1.044-1.14,4.69,4.69,0,0,1,1.464-.66,6.537,6.537,0,0,1,1.68-.216,7.076,7.076,0,0,1,2.436.432A4.113,4.113,0,0,1,73.68-10.1Zm3.216-.768v-2.3H77.04v-3.336h2.832v3.336h2.88v2.3h-2.88v5.352a2.627,2.627,0,0,0,.276,1.272q.276.5,1.236.5a3.564,3.564,0,0,0,.624-.06,2.516,2.516,0,0,0,.6-.18l.1,2.256a4.735,4.735,0,0,1-.912.228A6.422,6.422,0,0,1,80.784.24a4.6,4.6,0,0,1-1.872-.324,2.838,2.838,0,0,1-1.14-.888,3.287,3.287,0,0,1-.576-1.3A7.535,7.535,0,0,1,77.04-3.84V-9.216Z" transform="translate(160 86)"/>
  </g>
</svg>
