<svg xmlns="http://www.w3.org/2000/svg" width="159" height="61.769" viewBox="0 0 159 61.769">
  <g id="Group_25523" data-name="Group 25523" transform="translate(-120 -54)">
    <g id="Layer_2" data-name="Layer 2" transform="translate(118.226 54.003)">
      <g id="Window" transform="translate(0.005 -0.003)">
        <path id="Path_393" data-name="Path 393" d="M37.3,72.8c.609-.435,1.315-.706,1.913-1.158a7.874,7.874,0,0,0,2.266-2.766,5.01,5.01,0,0,0,.467-1.533v-.62c0-.207-.043-.391.141-.543.3,0,.255.255.261.429a6.081,6.081,0,0,1-.332,1.918c-.223.7-.2.75.538.75h3.261c.543,0,.69-.158.717-.685V67.555a1.4,1.4,0,0,1,.027-.37c0-.125.065-.272.217-.261s.12.163.125.266a2.961,2.961,0,0,0,.038.581,8.206,8.206,0,0,1-.109,1.9,5.293,5.293,0,0,1-.69,1.984c-.158-.147-.033-.283,0-.413a2.456,2.456,0,0,0,.179-.543,7.456,7.456,0,0,1-1.554,2.717,12.62,12.62,0,0,1-4.206,2.935c-.614.315-1.212.668-1.815,1.005-1.44.8-2.9,1.587-4.3,2.456-1.087.679-2.174,1.321-3.288,1.962a15.6,15.6,0,0,1-2.951,1.641,8.7,8.7,0,0,1-4.136.38,12.934,12.934,0,0,1-2.864-.831A14.7,14.7,0,0,1,19.576,82c-.625-.353-1.239-.739-1.853-1.119s-1.364-.766-2.016-1.158c-2.44-1.435-4.945-2.761-7.434-4.1a10.2,10.2,0,0,1-2.435-1.788,7.668,7.668,0,0,1-1.831-3.206,4.521,4.521,0,0,0,.288.831c.06.13.179.266.043.418a5.934,5.934,0,0,1-.674-1.9A13.3,13.3,0,0,1,3.468,67a1.087,1.087,0,0,1,0-.293c.266-.027.272.174.293.348.033.272,0,.543.033.826a.435.435,0,0,0,.495.44,28.669,28.669,0,0,1,3.348-.1c.478,0,.489-.033.478-.543,0-.207-.06-.408-.06-.614s0-.337.234-.386c.114.054.054.158.071.239a7.206,7.206,0,0,0,.478,1.826A7.282,7.282,0,0,0,10.5,71.234,8.809,8.809,0,0,0,12.255,72.4a5.532,5.532,0,0,1,.994.581c.293.136.288-.065.288-.255V69.468c0-.956-.076-1.913-.043-2.869v-.25c0-.087,0-.288.147-.3s.2.168.212.3c.033.342,0,.69,0,1.038a2.853,2.853,0,0,0,.054.745.543.543,0,0,0,.6.456c.641-.054,1.277,0,1.913,0,.88-.054,1.772.06,2.652,0s1.685.054,2.532,0c.951-.054,1.907-.082,2.864-.049h2.119c.706,0,1.364.082,2.038.06,1.424-.038,2.853.087,4.277-.043.576-.054,1.158.082,1.744.071.5,0,.994-.087,1.494-.049.239,0,.321-.125.353-.321a6.652,6.652,0,0,0,.1-.87.69.69,0,0,1,.087-.359c.038-.06.092-.12.163-.109s.1.087.114.158,0,.245,0,.37c0,1.179-.033,2.359,0,3.538.033.543,0,1.087,0,1.63C37.026,72.756,37.042,72.919,37.3,72.8Z" transform="translate(-1.579 -30.154)" fill="#622586"/>
        <path id="Path_394" data-name="Path 394" d="M21.457,11.813V5.982a.543.543,0,0,1,.293-.549c2.391-1.408,4.766-2.853,7.168-4.244a8.554,8.554,0,0,1,8.815.065c2.407,1.315,4.744,2.766,7.119,4.179a.587.587,0,0,1,.342.543V17.639c0,.1.065.234-.071.3s-.2-.06-.293-.109c-2.788-1.473-5.434-3.168-8.211-4.679a6.483,6.483,0,0,0-6.885.158c-2.592,1.587-5.212,3.136-7.88,4.587-.25.136-.315.082-.315-.19V11.791Z" transform="translate(-9.797 0.003)" fill="#622586"/>
        <path id="Path_395" data-name="Path 395" d="M45.577,60.084c-.261.2-.3,0-.3-.19v-1.63c-.065-1.033-.038-2.065,0-3.1,0-.734-.168-1.451-.1-2.174,0-1.663.06-3.331-.054-4.994a23.228,23.228,0,0,1,0-2.38c-.082.625-.234.772-.962.788-1.592.043-3.185,0-4.777,0-1.331,0-2.663-.071-3.994,0a35.71,35.71,0,0,1-3.657.054c-1.886-.082-3.771.071-5.652,0-1.054-.038-2.1.087-3.157,0-.772-.049-.837-.082-1.038-.853a7.418,7.418,0,0,1,.065,1.554v4.288c.033,1.326-.168,2.647-.1,3.973a.228.228,0,0,1-.054.152.7.7,0,0,1-.043-.408c-.049-4.021-.087-8.048-.141-12.07A8.038,8.038,0,0,1,21.7,41.15a4.348,4.348,0,0,1,.9-1.826c.266-.255.543-.511.772-.777l.408-.3c.092-.038.2-.076.261.027s0,.158-.065.223a2.38,2.38,0,0,1-.38.321,3.489,3.489,0,0,0-.962,1.13c-.207.4-.092.592.337.592,2.217,0,4.44.071,6.657,0,2.022-.082,4.043-.038,6.065-.049h8.358c.326,0,.386-.092.266-.418a3.3,3.3,0,0,0-1.087-1.342,1.521,1.521,0,0,1-.337-.31c-.087-.147-.109-.272.136-.217l.592.413a2.228,2.228,0,0,1,.511.5,4.837,4.837,0,0,1,1.19,3.32q0,8.635.043,17.271C45.371,59.855,45.251,60.1,45.577,60.084Z" transform="translate(-9.859 -17.433)" fill="#622586"/>
        <path id="Path_396" data-name="Path 396" d="M45.2,61.8v5.331c-.12-.13-.071-.288-.071-.435V63.537a.744.744,0,0,0-.082-.478,7.113,7.113,0,0,0-.152,1.25c-.1.543-.054.543-.6.543s-1.043.06-1.56.06c-.995-.043-1.984,0-2.978,0H37.55c-.734,0-1.516-.065-2.277-.071h-3.88a23.271,23.271,0,0,1-2.38.054,15.119,15.119,0,0,0-2.217,0,22.171,22.171,0,0,0-2.619,0,9.641,9.641,0,0,1-1.331.016c-.641.038-.864-.19-.886-.842V62.613c0-.1.043-.223-.092-.321-.114.13-.071.283-.071.418v6.157c0,.207.06.511-.326.293.277.033.223-.168.223-.326V57.673c.331-.06.272.207.283.37a12.215,12.215,0,0,0,.081,1.406c.1.545.131.6.68.6h6.858a35.869,35.869,0,0,0,3.8-.038,5.26,5.26,0,0,1,.875.06c.739.033,1.462-.136,2.174-.152,1.228-.033,2.456,0,3.685,0h4.146a.38.38,0,0,0,.408-.331,3.369,3.369,0,0,0,.163-.652.473.473,0,0,1,.293-.473C45.224,59.586,45.126,60.7,45.2,61.8Z" transform="translate(-9.805 -26.326)" fill="#622586"/>
        <path id="Path_397" data-name="Path 397" d="M43.63,34.164c-.266.1-.043.163,0,.223A5.07,5.07,0,0,1,44.8,35.555a2.032,2.032,0,0,1,.321.69c.049.239.049.38-.331.37-1.315-.054-2.63-.06-3.945,0h-5.1c-4.049-.027-8.1.147-12.146.087-.641,0-.81-.283-.462-.842a3.967,3.967,0,0,1,1.315-1.353c.071-.043.163-.092.125-.185s-.125-.033-.2-.043c1.158-.652,2.326-1.293,3.473-1.956,1.331-.772,2.636-1.587,3.978-2.337a4.473,4.473,0,0,1,4.6.1c2.31,1.272,4.549,2.609,6.875,3.842C43.423,33.984,43.564,34.028,43.63,34.164Z" transform="translate(-10.482 -13.419)" fill="#622586"/>
        <path id="Path_399" data-name="Path 399" d="M71.922,42.875V39.967a6.733,6.733,0,0,0-2.511-5.635c-.06-.054-.114-.12-.168-.179a2.37,2.37,0,0,1,0-.62c0-.071,0-.147.082-.168a.165.165,0,0,1,.207.1.576.576,0,0,1,.087.185,1.239,1.239,0,0,0,1.364.929,8.038,8.038,0,0,1,1.7,0,21.851,21.851,0,0,0,2.717-.043c.277,0,.321-.163.266-.391a2.831,2.831,0,0,0-.435-.891.755.755,0,0,1-.185-.451c0-.152.065-.272.217-.082a9.32,9.32,0,0,1,1.712,4.815c.038.6-.033,1.19-.033,1.788,0,1.359,0,2.717-.038,4.076a.706.706,0,0,1-.049.408.37.37,0,0,1-.12-.3c0-1.288,0-2.576,0-3.8-.255.842-.245.734-1.408.734H73.09c-.543,0-.815-.2-.924-.891-.06.967,0,1.88-.038,2.788C72.123,42.549,72.21,42.793,71.922,42.875Z" transform="translate(-31.607 -14.891)" fill="#622586"/>
        <path id="Path_400" data-name="Path 400" d="M3.4,43.17a1.712,1.712,0,0,1-.049-.283C3.32,41,3.26,39.116,3.26,37.252a7.7,7.7,0,0,1,1.886-5.108,2.978,2.978,0,0,1,.489-.543c.179.158.19.185.054.408s-.375.484-.543.755-.114.375.2.342c.62-.06,1.244,0,1.864-.087a1.815,1.815,0,0,1,.663.033,7.777,7.777,0,0,0,2.071.054.663.663,0,0,0,.706-.571.9.9,0,0,1,.076-.234c.038-.082.092-.147.19-.12s.087.1.087.174c0,.484.033.967,0,1.451a10.592,10.592,0,0,0-2.016,2.3c-.217-.06-.207.141-.255.245-.141.283-.266.576-.413.859a1,1,0,0,1-.994.581H4.455c-.766,0-.935-.174-.962-.962.071,1.391.027,2.788.038,4.179v1.712A.533.533,0,0,1,3.4,43.17Z" transform="translate(-1.491 -14.426)" fill="#622586"/>
        <path id="Path_402" data-name="Path 402" d="M75.212,29.329c-.321,0-.109.2-.065.266a3.429,3.429,0,0,1,.6,1.212c.054.288.114.5-.348.456a10.228,10.228,0,0,0-1.467.06,20.45,20.45,0,0,1-2.234-.076,2.407,2.407,0,0,0-.652.054,1.766,1.766,0,0,1-1.522-.543c-.092-.076-.06-.207-.06-.315a.478.478,0,0,0-.223-.44l-.038.783c-.12-.13-.065-.293-.065-.44V25.612c0-.13-.076-.293.06-.386s.245.065.359.13q1.712.929,3.418,1.88a7.608,7.608,0,0,1,2.174,1.929.707.707,0,0,1,.06.163Z" transform="translate(-31.56 -11.503)" fill="#622586"/>
        <path id="Path_404" data-name="Path 404" d="M74.12,48.326c.109-.076.082-.2.087-.3a27.454,27.454,0,0,1,.082-3.065,1.369,1.369,0,0,0-.043-.342c.212,0,.2.163.217.3.071.81.255.88,1.038.864a9.168,9.168,0,0,1,2.005,0c.3.06.62-.092.94-.033.147,0,.212-.152.255-.288a2.75,2.75,0,0,0,.207-.9h.147v4.7l.082,5.978a.087.087,0,0,1-.13,0,3.016,3.016,0,0,1-.1-1.147,21.971,21.971,0,0,0-.076-2.223c0-.956.038-1.913.043-2.869v.859c-.027.429-.234.6-.663.625-.956.065-1.913,0-2.864.06-.859.076-1.049-.125-1.049-1a2.114,2.114,0,0,1,0-.321,34.884,34.884,0,0,0,0,3.989v1.56a13.673,13.673,0,0,1-.114,2.174V57.6c0,.043-.054.043-.076,0,.071-2.717-.109-5.391-.065-8.086C74.071,49.1,74.1,48.712,74.12,48.326Z" transform="translate(-33.805 -20.343)" fill="#622586"/>
        <path id="Path_405" data-name="Path 405" d="M3.55,48.613v-.054c.266-.109.293.109.353.266.185.543.2.5.734.543.864,0,1.734-.065,2.6,0,.6.033.679-.033.788-.63a.859.859,0,0,1,.228-.543c.082-.071.147-.054.158.071.087,2.56.1,5.119.082,7.684a1.266,1.266,0,0,1-.027.451v2.418c-.027.049-.054.054-.087,0v-.245a.478.478,0,0,1-.114-.386V53.841c-.163.478-.326.6-.875.62-1,.027-1.994-.06-2.994-.033-.456,0-.592-.168-.63-.641a17.933,17.933,0,0,1-.092-1.913,1.038,1.038,0,0,0-.087-.446V49.037A.864.864,0,0,0,3.55,48.613Z" transform="translate(-1.623 -21.983)" fill="#622586"/>
        <path id="Path_408" data-name="Path 408" d="M8.379,44.067a.967.967,0,0,0-.228.6c-.082.685-.217.848-.891.7a8.945,8.945,0,0,0-1.478,0,4.565,4.565,0,0,0-1.3,0c-.435.087-.609-.179-.658-.543,0-.174,0-.342-.25-.353v-4.7c.228.06.147.212.158.315a3.043,3.043,0,0,0,.076.652.5.5,0,0,0,.543.413c1.054,0,2.109-.027,3.163,0a.853.853,0,0,0,.848-.543,7.527,7.527,0,0,1,.755-1.375c.147.114,0,.212,0,.31l-.239.5A5.337,5.337,0,0,0,8.4,42.273,9.184,9.184,0,0,1,8.379,44.067Z" transform="translate(-1.633 -17.909)" fill="#622586"/>
        <path id="Path_409" data-name="Path 409" d="M12.371,30.886V29.364c-.136-.049-.158,0-.163.033-.179.88-.386.9-1.266.956s-1.782-.245-2.717-.1c-.576.092-1.185.033-1.777.087-.261,0-.2-.163-.147-.3a3.864,3.864,0,0,1,.614-.94c.082-.114.288-.228.087-.413a9.048,9.048,0,0,1,2.674-2.005l2.418-1.321c.207-.12.342-.13.342.158,0,1.734,0,3.462.033,5.2A1.459,1.459,0,0,1,12.371,30.886Z" transform="translate(-2.858 -11.538)" fill="#622586"/>
        <path id="Path_410" data-name="Path 410" d="M4.654,75.38c-.033-.435-.332-.842-.408-1.293,0-.13-.125-.25-.054-.4.147,0,.114.136.141.223a7.907,7.907,0,0,0,3.005,4.293,15.385,15.385,0,0,0,2.1,1.228c1.576.826,3.108,1.739,4.69,2.565,1.054.543,2.038,1.217,3.076,1.788,1.364.75,2.663,1.63,4.021,2.369a8,8,0,0,0,3.049.973,12.42,12.42,0,0,0,1.56.147,8.8,8.8,0,0,0,4.929-1.69c.69-.478,1.462-.875,2.174-1.3.978-.543,1.951-1.147,2.913-1.744.755-.473,1.565-.87,2.353-1.3.609-.331,1.234-.636,1.815-1.005.826-.543,1.717-.935,2.565-1.424a8.9,8.9,0,0,0,3.978-4.462c.043-.114.109-.217.207-.424,0,.5-.31.815-.293,1.206a8.565,8.565,0,0,1-3.641,3.88c-3.685,2.06-7.391,4.076-10.988,6.288-.815.5-1.63,1.027-2.473,1.451a8.369,8.369,0,0,1-8.26-.332c-4.348-2.511-8.668-5.021-13.075-7.4A7.461,7.461,0,0,1,4.654,75.38Z" transform="translate(-1.907 -33.642)" fill="#622586"/>
        <path id="Path_416" data-name="Path 416" d="M12.413,44.765V42.477a3.391,3.391,0,0,1,.5-1.717c-.706,1.94-.391,3.945-.359,5.929s0,4.13,0,6.2A.326.326,0,0,1,12.51,53c0-1.6,0-3.19,0-4.788C12.5,47.064,12.369,45.917,12.413,44.765Z" transform="translate(-5.666 -18.608)" fill="#622586"/>
        <path id="Path_417" data-name="Path 417" d="M3.477,49c.136.141.071.315.076.478v2.364a.679.679,0,0,1,.076.359c.109,2.1-.049,4.2-.033,6.293a.543.543,0,0,1-.13.418v.25c0,.038-.054.038-.076,0V56.217c.049-1.706.06-3.413.049-5.114Z" transform="translate(-1.55 -22.37)" fill="#622586"/>
        <path id="Path_418" data-name="Path 418" d="M83.117,64.21H83.2a28.09,28.09,0,0,1,0,4.277.473.473,0,0,1-.087.315,18.909,18.909,0,0,0,.065-1.924c0-.63-.147-1.25-.19-1.875A1,1,0,0,1,83.117,64.21Z" transform="translate(-37.878 -29.314)" fill="#622586"/>
        <path id="Path_419" data-name="Path 419" d="M3.353,67.72a.185.185,0,0,0,.076,0,20.819,20.819,0,0,0,.163,3.022,8.385,8.385,0,0,1-.239-3.022Z" transform="translate(-1.513 -30.917)" fill="#622586"/>
        <path id="Path_420" data-name="Path 420" d="M12.43,67.74h.087c.141.587.277,1.168.418,1.755A4.119,4.119,0,0,1,12.43,67.74Z" transform="translate(-5.678 -30.926)" fill="#622586"/>
        <path id="Path_421" data-name="Path 421" d="M73.849,68.5a.353.353,0,0,0,.076,0A3.185,3.185,0,0,1,73.42,70Z" transform="translate(-33.523 -31.273)" fill="#622586"/>
        <path id="Path_422" data-name="Path 422" d="M24.172,38.86a1.967,1.967,0,0,1-.772.777A2.837,2.837,0,0,1,24.172,38.86Z" transform="translate(-10.686 -17.74)" fill="#622586"/>
        <path id="Path_423" data-name="Path 423" d="M62.571,39.43a1.663,1.663,0,0,1-.511-.5A.848.848,0,0,1,62.571,39.43Z" transform="translate(-28.337 -17.772)" fill="#622586"/>
        <path id="Path_424" data-name="Path 424" d="M3.536,61.345c-.038-2.359.141-4.712.087-7.065.2.087.168.272.158.429-.043.668.082,1.326.087,1.989,0,.576.489.4.728.38.87-.071,1.723.06,2.587.033s.815,0,1.011-.788a.337.337,0,0,1,.168-.283v5.315c-.234.125-.19.337-.136.511a3.657,3.657,0,0,1,.054.908c0,.12,0,.266-.163.228-.326-.087-.641.049-.978-.033a11.009,11.009,0,0,0-1.685.049,3.651,3.651,0,0,0-1.027.071c-.5.092-.712-.125-.723-.641v-.706C3.7,61.584,3.709,61.426,3.536,61.345Z" transform="translate(-1.614 -24.78)" fill="#622586"/>
        <path id="Path_425" data-name="Path 425" d="M78.966,62.072c-.033.891.147,1.777.071,2.668-.168-.228,0-.543-.109-.761-.179.049-.125.2-.13.3v1.369c0,.543-.223.755-.739.755H74.325c-.467,0-.543-.082-.38-.543a7.282,7.282,0,0,0,.435-2.261c0-.136.071-.321-.163-.364a7.609,7.609,0,0,1-.043-1.217,1.087,1.087,0,0,0-.033-.446V60c.353.038.337.321.359.543a4.108,4.108,0,0,0,.114,1.027.456.456,0,0,0,.543.348,16.7,16.7,0,0,1,2.445,0c.755.082.886-.027.989-.788a8.984,8.984,0,0,0,0-1.087,1.667,1.667,0,0,1,0-.288c0-.109.054-.239.2-.223s.1.147.1.239a7.61,7.61,0,0,0,.033,1.087Z" transform="translate(-33.727 -27.176)" fill="#622586"/>
        <path id="Path_426" data-name="Path 426" d="M74.37,63.3a7.739,7.739,0,0,1,.076,1.663c0,.168.054.353-.071.505C74.375,64.767,74.37,64.023,74.37,63.3Z" transform="translate(-33.957 -28.899)" fill="#622586"/>
        <path id="Path_427" data-name="Path 427" d="M45.325,58.55c-.12-.13-.071-.288-.071-.435V55.284a.375.375,0,0,0-.168.4,1.755,1.755,0,0,1-.1.7c-.076.25-.163.375-.543.386a12.293,12.293,0,0,0-2.407.033.3.3,0,0,1-.12,0,15.048,15.048,0,0,0-2.32-.054,4.081,4.081,0,0,0-1.413.027.712.712,0,0,1-.413,0,3.929,3.929,0,0,0-2.022.076,2.086,2.086,0,0,1-.37,0H28.234c-1.136,0-2.272.027-3.4,0-.788,0-1.571.054-2.353,0-.359,0-.331-.342-.38-.576a7.646,7.646,0,0,1-.087-1.63c0-.13.038-.293-.168-.321a30.736,30.736,0,0,0-.1-3.657c.266.1.255.266.272.429.076.685.223.8.908.815.87,0,1.734-.043,2.592-.054.6,0,1.206.033,1.81.038,1.087,0,2.125-.12,3.174-.049,1.293.082,2.581.076,3.864.043,1.087,0,2.13-.1,3.19-.054.88.038,1.755,0,2.641,0a11.152,11.152,0,0,0,1.755,0,21.342,21.342,0,0,1,2.206,0c.734,0,.853-.147.929-.859a.9.9,0,0,1,.049-.364s.043,0,.114-.065C45.249,53.274,45.4,55.915,45.325,58.55Z" transform="translate(-9.928 -23.073)" fill="#622586"/>
        <path id="Path_428" data-name="Path 428" d="M55.435,112.517H53.9c-.179,0-.337,0-.217-.25a1.869,1.869,0,0,1,1.706-1.087,1.706,1.706,0,0,1,1.8.908c.147.3.109.418-.266.4H55.435Z" transform="translate(-24.494 -50.748)" fill="#fdfdfd"/>
        <path id="Path_429" data-name="Path 429" d="M79.113,57.221c-.2-.408,0-.864-.141-1.326a.543.543,0,0,0-.1.456,6.173,6.173,0,0,1-.152,1.728c-.076.239-.168.321-.4.31a11.542,11.542,0,0,0-1.223-.043,12.945,12.945,0,0,0-1.837.033.446.446,0,0,1-.592-.348,3.4,3.4,0,0,1-.13-1.141.592.592,0,0,0-.25-.581,23.074,23.074,0,0,1,.049-4.348c.185.174.12.408.109.614-.043,1.125.342.973,1.168.956a8.7,8.7,0,0,1,1.505,0,10.657,10.657,0,0,0,1.435-.054c.228,0,.3-.332.31-.571V51.743c0-.082,0-.163.158-.293C79.048,53.428,78.988,55.33,79.113,57.221Z" transform="translate(-33.885 -23.488)" fill="#622586"/>
      </g>
    </g>
    <text id="i-invest" transform="translate(171 92)" font-size="31" font-family="AvenirNext-DemiBold, Avenir Next" font-weight="300" letter-spacing="0.022em"><tspan x="0" y="0">i-invest</tspan></text>
  </g>
</svg>
