<svg xmlns="http://www.w3.org/2000/svg" width="1957.045" height="490.587" viewBox="0 0 1957.045 490.587">
  <g id="Group_25646" data-name="Group 25646" transform="translate(208.045 -880.614)">
    <ellipse id="Ellipse_60" data-name="Ellipse 60" cx="13" cy="12.5" rx="13" ry="12.5" transform="translate(1508 946)" fill="#dff5e0"/>
    <ellipse id="Ellipse_175" data-name="Ellipse 175" cx="18.5" cy="19" rx="18.5" ry="19" transform="translate(1712 1243)" fill="#e6c9f5"/>
    <ellipse id="Ellipse_286" data-name="Ellipse 286" cx="19" cy="19.5" rx="19" ry="19.5" transform="translate(400 907)" fill="#fade9d"/>
    <path id="Union_10" data-name="Union 10" d="M2275.155,552.862l-.815.452Zm0,0-.227.445Zm-6.017-5.811-3.079,6.041Zm18.529-1.125-12.512,6.936Zm-6.017-5.81-6.494,12.747Zm6.017,5.81-3.494,6.86Zm-18.529,1.125-9.8,5.43Zm-6.018-5.811-5.61,11.01Zm37.061-2.249-6.306,12.377Zm6.017,5.811-11.577,6.418Zm-55.591,3.374-1.369,2.687Zm0,0-3.889,2.156Zm-6.017-5.811-3.379,6.63ZM2306.2,544.8l-2.046,4.018Zm-43.078-3.562-12.513,6.936Zm-6.018-5.81-6.494,12.747Zm-12.512,6.935-9.034,5.008Zm37.06-2.249-12.512,6.935Zm-6.017-5.811-6.494,12.747Zm-37.06,2.25-5.166,10.137Zm61.609,2.436-12.514,6.935Zm-6.018-5.811-6.5,12.747Zm24.548,4.687L2306.2,544.8Zm-6.017-5.811-6.5,12.747Zm6.017,5.811-3.513,6.9Zm-92.652,5.623-.254.5Zm0,0-.634.351Zm12.513-6.935-12.513,6.935Zm-6.018-5.812-6.5,12.748Zm24.548,4.687-12.512,6.935Zm-6.017-5.811-6.494,12.747Zm24.548,4.686-12.513,6.935Zm-6.017-5.811-6.5,12.747Zm-49.574,9.186-1.65,3.236Zm74.121-4.5-12.513,6.936Zm-6.017-5.81-6.5,12.747Zm-68.1,10.31-3.955,2.192Zm92.652-5.624-12.513,6.935Zm-6.018-5.812-6.494,12.748Zm24.548,4.687-3.871,7.6Zm0,0-12.513,6.936Zm-6.017-5.811-6.5,12.748Zm-92.652,5.623-12.513,6.937Zm-6.018-5.81-6.494,12.748Zm-12.513,6.936-2.866,5.627Zm37.061-2.25-12.512,6.936Zm-6.018-5.811-6.494,12.748Zm-31.044,8.061-6.635,3.677Zm55.592-3.375-12.514,6.936Zm-6.018-5.81-6.5,12.747Zm24.548,4.686-12.513,6.935Zm-6.018-5.811-6.494,12.747Zm-74.121,4.5-3.916,7.686Zm98.67.186-12.513,6.936Zm-6.017-5.81-6.5,12.747Zm24.548,4.686-12.513,6.936Zm-6.018-5.811-6.494,12.748Zm-92.652,5.624-12.513,6.936Zm-6.017-5.811-6.5,12.748Zm123.218,4.874-12.513,6.936Zm-6.018-5.81-6.495,12.747Zm-129.713,7.873-8.774,4.864Zm37.061-2.25-12.513,6.935Zm-6.018-5.81-6.494,12.746Zm-37.06,2.249-4.8,9.426Zm61.609,2.437-12.513,6.935Zm-6.018-5.811-6.5,12.747Zm86.157,7.123-2.372,4.656Zm-61.609-2.436-12.512,6.935Zm-6.017-5.811-6.494,12.747Zm24.548,4.686-12.513,6.936Zm-6.017-5.811-6.5,12.748Zm24.547,4.686-12.513,6.935Zm-6.017-5.811-6.5,12.747Zm-92.652,5.624-12.513,6.936Zm-6.018-5.81-6.494,12.747Zm-12.512,6.935-10.443,5.789Zm-6.017-5.811-5.531,10.853Zm141.747,3.749-12.512,6.935Zm-6.018-5.812-6.494,12.748ZM2239.048,518l-12.513,6.935Zm-6.017-5.811-6.5,12.747Zm117.749,7.906-7.043,3.9Zm-.548-8.843-6.5,12.747Zm-92.652,5.624-12.513,6.935Zm-6.018-5.811-6.494,12.747Zm24.549,4.686-12.513,6.936Zm-6.018-5.811-6.5,12.748Zm24.549,4.686-12.514,6.936Zm-6.018-5.81-6.5,12.747Zm-92.651,5.623-11.69,6.479Zm-6.018-5.811-6.1,11.972ZM2313.17,513.5l-12.513,6.936Zm-6.018-5.81-6.494,12.747ZM2214.5,513.31l-12.512,6.935Zm-6.016-5.812-6.5,12.748Zm123.217,4.874-12.513,6.936Zm-6.018-5.81-6.494,12.747Zm-92.651,5.624-12.513,6.935Zm-6.017-5.811-6.5,12.747Zm123.218,4.874-12.513,6.936Zm-6.018-5.811-6.5,12.748Zm-92.652,5.624L2239.048,518Zm-6.018-5.811L2239.048,518Zm24.549,4.686-12.513,6.936Zm-6.018-5.811-6.494,12.748Zm24.549,4.687-12.513,6.935ZM2282.6,503l-6.5,12.747ZM2177.44,515.558l-.019.037Zm0,0-.039.021Zm12.512-6.935-12.512,6.935Zm-6.018-5.81-6.494,12.746Zm123.217,4.874-12.512,6.935Zm-6.017-5.81-6.494,12.746Zm-92.651,5.622-12.513,6.936Zm-6.018-5.811-6.5,12.748Zm123.216,4.874L2313.17,513.5Zm-6.017-5.811L2313.17,513.5Zm-92.651,5.624L2214.5,513.31Zm-6.018-5.811-6.5,12.748Zm123.218,4.874-12.513,6.935Zm-6.017-5.811-6.5,12.747Zm-92.653,5.624-12.512,6.936Zm-6.017-5.811-6.494,12.748Zm123.218,4.874-12.512,6.935Zm-6.018-5.811-6.494,12.747Zm-92.652,5.623-12.513,6.936Zm-6.017-5.81-6.5,12.747Zm-86.634,11.434-.272.535Zm191.321-5.435-3.021,5.927Zm-191.321,5.435-.538.3ZM2282.6,503l-12.513,6.935Zm-6.018-5.811-6.494,12.747Zm-92.651,5.624-12.513,6.935ZM2177.916,497l-6.494,12.747Zm123.218,4.875-12.513,6.935Zm-6.018-5.812-6.494,12.748Zm-92.651,5.623-12.513,6.936Zm-6.019-5.81-6.494,12.747Zm123.218,4.874-12.513,6.936Zm-6.017-5.811-6.5,12.748Zm-92.652,5.624-12.512,6.935Zm-6.017-5.811-6.494,12.747Zm123.218,4.874-12.514,6.936Zm-6.018-5.81-6.5,12.747Zm-92.652,5.623-12.512,6.936Zm-6.016-5.811-6.5,12.748Zm123.217,4.874-12.513,6.935Zm-6.017-5.811-6.5,12.747Zm-92.652,5.624-12.514,6.935Zm-6.017-5.811-6.5,12.747ZM2165.4,503.936l-.361.709Zm0,0-.7.386Zm200.156-1.186-2.816,1.561Zm3.678-11.186-6.494,12.748Zm-92.652,5.624-12.513,6.935Zm-6.017-5.81-6.5,12.746ZM2177.916,497l-12.513,6.936Zm-6.017-5.811-6.5,12.748Zm123.217,4.874L2282.6,503Zm-6.017-5.811L2282.6,503Zm-92.652,5.624-12.512,6.936Zm-6.017-5.811-6.5,12.748Zm123.217,4.874-12.513,6.937Zm-6.018-5.81-6.5,12.748Zm-92.652,5.623-12.512,6.935Zm-6.018-5.811-6.494,12.747Zm123.217,4.874-12.513,6.935ZM2326.16,488l-6.5,12.747Zm-92.651,5.623-12.514,6.936Zm-6.018-5.811-6.5,12.748Zm123.218,4.874-12.513,6.935Zm-6.018-5.811-6.494,12.747Zm-92.651,5.624-12.514,6.935Zm-6.018-5.811-6.5,12.747Zm-86.634,11.435-.279.547Zm209.851-6.562-12.512,6.936Zm-6.017-5.811-6.5,12.748Zm-203.835,12.373-.523.29Zm111.182-6.748-12.513,6.935Zm-6.018-5.812-6.494,12.748Zm-92.651,5.623-12.513,6.937Zm-6.017-5.81-6.5,12.748Zm123.217,4.874-12.513,6.936Zm-6.018-5.81-6.5,12.747Zm-92.651,5.623L2177.916,497Zm-6.018-5.811-6.5,12.747Zm123.218,4.874-12.513,6.935Zm-6.018-5.811-6.5,12.747Zm-92.652,5.623-12.513,6.936Zm-6.017-5.81-6.5,12.747ZM2326.16,488l-12.513,6.935Zm-6.017-5.81-6.5,12.746Zm-92.652,5.622-12.513,6.936ZM2221.472,482l-6.494,12.748Zm123.218,4.874-12.513,6.936Zm-6.017-5.811-6.5,12.748Zm-92.652,5.624-12.512,6.935ZM2240,480.879l-6.494,12.747Zm123.218,4.874-12.513,6.936Zm-6.018-5.81-6.494,12.747Zm-92.652,5.623-12.512,6.936Zm-6.016-5.811-6.5,12.748ZM2153.37,492.313l-.014.027Zm0,0-.025.014Zm12.512-6.935-12.512,6.935Zm-6.016-5.812-6.5,12.747Zm215.252,8.739-5.881,3.259Zm.615-9.488-6.5,12.747Zm-92.652,5.624-12.513,6.936Zm-6.018-5.811-6.494,12.748Zm-92.651,5.623-12.513,6.935Zm-6.017-5.81-6.5,12.746Zm123.217,4.874-12.513,6.935Zm-6.018-5.81-6.5,12.746Zm-92.651,5.623-12.513,6.935Zm-6.018-5.812-6.494,12.748Zm123.218,4.875-12.513,6.935Zm-6.018-5.812-6.495,12.748ZM2221.472,482l-12.512,6.936Zm-6.017-5.81-6.5,12.747Zm123.217,4.874L2326.16,488Zm-6.017-5.811L2326.16,488ZM2240,480.879l-12.513,6.935Zm-6.018-5.811-6.5,12.747Zm123.217,4.874-12.513,6.935Zm-6.017-5.811-6.5,12.747Zm-92.651,5.623-12.514,6.936Zm-6.018-5.812-6.5,12.749Zm-92.65,5.624-11.712,6.492Zm215.868-.749-12.513,6.935Zm-6.017-5.81-6.5,12.746Zm-215.87.748-6.042,11.859Zm123.216,4.875-12.513,6.935Zm-6.017-5.812-6.5,12.748Zm-92.651,5.625-12.513,6.935Zm-6.017-5.811-6.5,12.747Zm123.217,4.874-12.513,6.935Zm-6.018-5.811-6.494,12.747Zm-92.651,5.622-12.513,6.936Zm-6.017-5.811-6.5,12.748Zm123.217,4.874-12.513,6.936Zm-6.018-5.811-6.5,12.748Zm-92.651,5.624-12.513,6.936Zm-6.018-5.811-6.494,12.748Zm123.218,4.874-12.513,6.937Zm-6.018-5.81-6.494,12.748Zm-92.652,5.623L2221.472,482Zm-6.018-5.811-6.5,12.747Zm123.218,4.874-12.513,6.935Zm-6.018-5.811-6.494,12.747Zm-92.651,5.622L2240,480.879Zm-6.018-5.81L2240,480.879Zm123.219,4.875-12.514,6.935Zm-6.018-5.812-6.5,12.748Zm-92.652,5.623-12.512,6.936Zm-6.017-5.81-6.494,12.747Zm-111.182,6.747L2143.3,479.6Zm18.53-1.123-12.511,6.935Zm-6.016-5.813-6.5,12.748Zm216.005,8.322-6.633,3.676Zm-.139-9.07-6.494,12.747Zm-92.652,5.624-12.513,6.935Zm-6.016-5.812-6.5,12.748Zm-135.729,2.061-5.353,10.5Zm43.077,3.562-12.513,6.937Zm-6.017-5.81-6.5,12.748Zm123.217,4.874-12.513,6.937Zm-6.018-5.81-6.494,12.748Zm-92.651,5.623-12.513,6.935Zm-6.018-5.811-6.494,12.747Zm123.218,4.874-12.513,6.935Zm-6.018-5.811-6.494,12.747Zm-92.652,5.623-12.512,6.936Zm-6.017-5.811-6.494,12.748Zm123.217,4.874-12.512,6.935Zm-6.017-5.81-6.494,12.746Zm-92.652,5.622-12.512,6.936Zm-6.018-5.81-6.494,12.747Zm123.218,4.874-12.513,6.936Zm-6.017-5.811-6.5,12.748Zm-92.652,5.624-12.513,6.934Zm-6.018-5.811-6.5,12.746Zm-92.649,5.622-12.515,6.936Zm-6.02-5.81-6.494,12.747Zm221.887,5.063-12.512,6.936Zm-6.018-5.811-6.493,12.748Zm-228.379,7.684-9.045,5.013Zm135.729-2.061-12.514,6.935Zm-6.018-5.812-6.5,12.748ZM2184.89,465.7l-12.513,6.936Zm-6.018-5.812-6.494,12.749Zm123.217,4.875-12.513,6.936Zm-6.017-5.812-6.5,12.749Zm-92.652,5.624-12.512,6.935Zm-6.017-5.81-6.494,12.746Zm-55.589,3.372-4.4,8.642Zm178.806,1.5-12.512,6.935Zm-6.018-5.81-6.494,12.746Zm-92.651,5.622-12.513,6.936Zm-6.018-5.81-6.494,12.747Zm123.218,4.874-12.513,6.935Zm-6.018-5.812-6.494,12.748Zm-92.652,5.624-12.513,6.935Zm-6.018-5.811-6.495,12.747Zm123.219,4.874-12.514,6.936Zm-6.018-5.811-6.5,12.748Zm-92.652,5.624-12.513,6.935Zm-6.018-5.811-6.5,12.747Zm-92.652,5.623-12.511,6.935Zm-6.016-5.812-6.494,12.748Zm221.885,5.063-12.512,6.935Zm-6.017-5.811-6.494,12.747Zm-92.651,5.622-12.513,6.937Zm-6.018-5.81-6.5,12.748Zm-92.652,5.623-12.51,6.935Zm-6.016-5.811-6.494,12.747Zm-31.043,8.06-7.172,3.975Zm246.407.616-5.992,3.322Zm.5-9.425-6.5,12.747Zm-92.652,5.622-12.512,6.936Zm-6.017-5.811-6.494,12.748ZM2197.4,458.76,2184.89,465.7Zm-6.017-5.812L2184.89,465.7Zm123.217,4.875-12.513,6.935Zm-6.017-5.812-6.5,12.748Zm-92.652,5.624-12.513,6.935Zm-6.016-5.812-6.5,12.748Zm123.216,4.874-12.513,6.936Zm-6.018-5.81-6.5,12.747Zm-92.652,5.623-12.512,6.935Zm-6.017-5.811-6.5,12.747Zm123.217,4.873-12.513,6.937Zm-6.018-5.81-6.494,12.748Zm-209.85,6.559-3.142,6.166Zm117.2-.936-12.513,6.936Zm-6.018-5.81-6.5,12.747Zm-92.65,5.621-12.512,6.936Zm-6.018-5.81-6.494,12.747Zm221.886,5.063-12.512,6.935Zm-6.017-5.81-6.494,12.746Zm-92.652,5.622-12.513,6.936Zm-6.018-5.811-6.495,12.748Zm-92.65,5.623-12.515,6.936Zm-6.02-5.81-6.494,12.747Zm221.888,5.063-12.514,6.935Zm-6.018-5.812-6.5,12.748Zm-92.651,5.623-12.513,6.935Zm-6.018-5.81-6.494,12.746Zm-92.651,5.623-12.513,6.935Zm-6.018-5.811-6.5,12.747Zm-49.572,9.185-4.9,2.718Zm172.789-4.31-12.513,6.935Zm-6.017-5.811-6.5,12.747Zm-92.651,5.623L2197.4,458.76Zm-6.018-5.811-6.5,12.749Zm123.217,4.875-12.513,6.936Zm-6.016-5.812-6.5,12.749Zm-92.652,5.624-12.514,6.936Zm-6.018-5.81-6.5,12.747Zm123.217,4.874-12.513,6.935Zm-6.018-5.81-6.5,12.746Zm-92.651,5.623-12.513,6.935Zm-6.017-5.811-6.5,12.747Zm-92.651,5.622-12.512,6.935Zm-6.017-5.811-6.495,12.747Zm221.886,5.063-12.513,6.934Zm-6.018-5.811-6.5,12.746Zm-92.652,5.622-12.513,6.936Zm-6.018-5.81-6.494,12.747Zm-92.652,5.623-12.511,6.935Zm-6.015-5.812-6.5,12.747Zm221.885,5.063-12.513,6.936Zm-6.017-5.811-6.5,12.748Zm-92.652,5.624-12.512,6.935Zm-6.017-5.811-6.495,12.747Zm-92.652,5.623-12.511,6.935Zm-6.016-5.811-6.494,12.747Zm-49.574,9.185-2.194,1.216,2.194-1.216-1.481,2.906Zm263.337.379-4.39,2.434Zm2.1-10.313-6.494,12.748Zm-92.651,5.623-12.513,6.935Zm-6.017-5.81-6.5,12.746Zm-92.652,5.622-12.513,6.936Zm-6.018-5.811-6.5,12.748Zm123.218,4.874-12.514,6.936Zm-6.018-5.811-6.5,12.748Zm-92.652,5.625-12.512,6.935Zm-6.017-5.812-6.494,12.747Zm123.217,4.875-12.513,6.935Zm-6.017-5.812-6.5,12.748Zm-92.651,5.624-12.513,6.935Zm-6.018-5.812-6.494,12.748Zm-92.65,5.623-12.513,6.936Zm-6.018-5.811-6.5,12.748Zm221.886,5.063-12.513,6.935Zm-6.018-5.812-6.5,12.748Zm-92.652,5.624-12.512,6.936Zm-6.018-5.811-6.494,12.748Zm-92.649,5.622-12.514,6.936Zm-6.018-5.81-6.5,12.747Zm221.885,5.062-12.513,6.937Zm-6.018-5.81-6.494,12.748Zm-92.651,5.623-12.513,6.935ZM2272,435.7l-6.5,12.747Zm-92.65,5.623-12.515,6.936Zm-6.018-5.81-6.5,12.747Zm221.886,5.062-12.513,6.935Zm-6.017-5.811-6.5,12.747Zm-92.651,5.624-12.514,6.935Zm-6.018-5.812-6.5,12.748Zm-92.652,5.623-12.513,6.936Zm-6.018-5.81-6.494,12.747Zm123.218,4.874-12.513,6.936Zm-6.018-5.81-6.494,12.747Zm-92.651,5.623-12.513,6.935Zm-6.018-5.811-6.5,12.747Zm123.217,4.874-12.512,6.935Zm-6.017-5.811-6.494,12.747Zm-92.652,5.623-12.513,6.937Zm-6.017-5.81-6.5,12.748Zm-92.651,5.622-11.5,6.374Zm215.868-.749-12.513,6.937Zm-6.017-5.812-6.5,12.749Zm-92.652,5.625-12.512,6.936Zm-6.017-5.811-6.494,12.748Zm-92.65,5.623-12.513,6.935Zm-6.018-5.811-6.5,12.747Zm-18.53,1.125-7.7,4.268,7.7-4.268-5.764,11.309Zm240.415,3.938-12.512,6.936Zm-6.018-5.811-6.494,12.748ZM2272,435.7l-12.513,6.936Zm-6.017-5.81-6.5,12.747Zm-92.651,5.623-12.512,6.935Zm-6.017-5.812-6.494,12.747Zm221.886,5.063-12.513,6.935Zm-6.018-5.81-6.5,12.746Zm-92.652,5.622-12.513,6.936Zm-6.018-5.81-6.494,12.747Zm-92.652,5.623-12.511,6.935Zm-6.015-5.812-6.5,12.748Zm215.867-.748-6.494,12.747,2.16-1.2-2.16,1.2Zm-92.651,5.623-12.512,6.936Zm-6.017-5.811-6.494,12.748Zm-92.652,5.623-12.513,6.935Zm-6.017-5.811-6.5,12.747Zm123.217,4.874-12.513,6.935Zm-6.017-5.811-6.5,12.747Zm-92.652,5.624-12.513,6.935Zm-6.018-5.811-6.5,12.747Zm123.217,4.873-12.513,6.937Zm-6.017-5.81-6.5,12.748Zm-92.652,5.624-12.513,6.935Zm-6.017-5.811-6.5,12.747Zm-92.651,5.623-12.513,6.935Zm-6.017-5.81-6.5,12.746Zm221.885,5.062-12.513,6.935Zm-6.017-5.812-6.5,12.748Zm-92.651,5.625-12.514,6.935Zm-6.019-5.812-6.494,12.748Zm-92.649,5.623-12.512,6.936Zm-6.018-5.811-6.494,12.748Zm221.886,5.063-12.513,6.935Zm-6.018-5.811-6.5,12.747Zm-92.652,5.623L2272,435.7Zm-6.018-5.811L2272,435.7Zm-92.649,5.622-12.514,6.937Zm-6.019-5.81-6.494,12.748Zm221.886,5.063.068-.134-.068.134-12.512,6.935Zm-6.017-5.811-6.494,12.747Zm-92.651,5.623-12.513,6.935Zm-6.018-5.811-6.5,12.747Zm-92.651,5.623-12.514,6.936Zm-6.018-5.81-6.5,12.747Zm123.218,4.873-12.514,6.936Zm-6.018-5.811-6.5,12.748Zm-92.652,5.624-12.513,6.935Zm-6.018-5.812-6.495,12.748Zm123.218,4.874-12.513,6.936Zm-6.018-5.811-6.494,12.748Zm-92.651,5.624-12.513,6.936Zm-6.018-5.811-6.494,12.748Zm-92.65,5.624-12.513,6.935Zm-6.018-5.812-6.494,12.748Zm-12.513,6.936-3.171,1.758,3.171-1.758-2.66,5.222Zm234.4-1.875-12.513,6.935Zm-6.017-5.81-6.5,12.746Zm-92.653,5.623-12.512,6.936Zm-6.016-5.811-6.5,12.748Zm-92.651,5.623-12.513,6.936Zm-6.017-5.811-6.5,12.748Zm221.885,5.063-12.513,6.935Zm-6.017-5.813-6.5,12.749Zm-92.652,5.625-12.512,6.936Zm-6.017-5.811-6.494,12.748Zm-92.651,5.623-12.512,6.935Zm-6.017-5.811-6.494,12.747Zm221.886,5.063-12.512,6.936Zm-6.018-5.811-6.494,12.748Zm-92.651,5.623-12.513,6.936Zm-6.017-5.81-6.5,12.747Zm-92.652,5.623-12.511,6.934Zm-6.016-5.813-6.494,12.748Zm209.394,11.988-.021.012Zm-86.177-7.113-12.513,6.936Zm-6.018-5.811-6.5,12.748Zm-92.652,5.623-12.512,6.936Zm-6.018-5.81-6.494,12.747Zm123.217,4.874-12.512,6.936Zm-6.017-5.81-6.494,12.747Zm-92.652,5.623-12.512,6.936Zm-6.017-5.811-6.5,12.748Zm-92.651,5.623-12.513,6.936Zm-6.017-5.811-6.5,12.748Zm221.886,5.063-12.513,6.935Zm-6.017-5.811-6.5,12.747Zm-92.652,5.623-12.513,6.936Zm-6.017-5.81-6.5,12.747Zm-92.651,5.622-12.513,6.937Zm-6.017-5.81-6.5,12.748Zm221.885,5.061-12.513,6.936Zm-6.017-5.811-6.5,12.748Zm-92.652,5.625-12.514,6.935Zm-6.017-5.811-6.5,12.747Zm-92.651,5.623-12.512,6.935Zm-6.018-5.81-6.494,12.746Zm221.886,5.062-12.513,6.936Zm-6.017-5.812-6.5,12.748Zm-92.651,5.625-12.514,6.935Zm-6.018-5.812-6.5,12.748Zm-92.65,5.622-12.514,6.937Zm-6.018-5.81-6.5,12.748Zm215.868-.749-5.965,3.307,5.965-3.307-6.5,12.748,4.26-2.361-4.26,2.361Zm-92.651,5.623-12.513,6.936Zm-6.018-5.81-6.494,12.747Zm-92.651,5.623-12.513,6.936Zm-6.017-5.811-6.5,12.748Zm123.217,4.874-12.513,6.935Zm-6.018-5.811-6.5,12.747Zm-92.651,5.623-12.513,6.935Zm-6.018-5.81-6.5,12.746Zm123.218,4.874-12.514,6.935Zm-6.018-5.811-6.5,12.747Zm65.752,9.287-6.23,3.453Zm-158.4-3.663-12.514,6.935Zm-6.019-5.811-6.494,12.747Zm-92.649,5.623-12.514,6.935Zm-6.018-5.812-6.5,12.748Zm-12.513,6.936-10.2,5.651Zm234.4-1.875-12.513,6.937Zm-6.018-5.81-6.494,12.748Zm-92.651,5.624-12.513,6.935Zm-6.018-5.811-6.494,12.747Zm-92.651,5.624-12.512,6.935Zm-6.017-5.812-6.494,12.747Zm221.886,5.062-12.513,6.935Zm-6.018-5.811-6.494,12.747Zm-92.651,5.624-12.513,6.936Zm-6.017-5.811-6.5,12.748Zm-92.651,5.623-12.513,6.936Zm-6.017-5.811-6.5,12.748Zm215.867-.749-3.825,2.121,3.825-2.121-6.495,12.748,6.4-3.546-6.4,3.546Zm-92.652,5.624-12.512,6.936Zm-6.018-5.811-6.493,12.748Zm-92.65,5.623-12.512,6.935Zm-6.017-5.811-6.494,12.746Zm-74.12,4.5-3.323,1.841,3.323-1.841-4.053,7.953Zm197.337.375-12.513,6.935Zm-6.018-5.811-6.494,12.747Zm-92.651,5.624-12.513,6.935Zm-6.018-5.811-6.494,12.747Zm123.218,4.874-12.513,6.936Zm-6.018-5.811-6.5,12.748Zm-92.653,5.624-12.511,6.935Zm-6.017-5.811-6.494,12.747Zm-92.65,5.622-12.513,6.936Zm-6.017-5.811-6.5,12.748Zm221.885,5.063-12.512,6.936Zm-6.017-5.81-6.494,12.747Zm-92.652,5.623-12.512,6.936Zm-6.017-5.811-6.494,12.748Zm-92.651,5.623-12.512,6.936Zm-6.017-5.811-6.494,12.748Zm221.885,5.062-12.512,6.935Zm-6.017-5.81-6.494,12.746Zm-92.651,5.623-12.513,6.936Zm-6.017-5.81-6.5,12.747Zm-92.651,5.622-12.514,6.937Zm-6.017-5.81-6.5,12.748Zm215.867-.749-1.686.934,1.686-.934-6.494,12.746,8.537-4.731-8.537,4.731Zm-92.652,5.623-12.512,6.935Zm-6.017-5.811-6.494,12.747Zm-92.65,5.623-12.513,6.935Zm-6.018-5.81-6.494,12.746Zm218.413,6.987-9.039,5.01Zm-2.543-7.736-6.5,12.747Zm-92.652,5.623-12.513,6.936Zm-6.017-5.81-6.5,12.747Zm-92.652,5.623-12.512,6.935Zm-6.017-5.811-6.494,12.747Zm123.218,4.874-12.513,6.936Zm-6.018-5.811-6.494,12.748Zm-92.651,5.624-12.513,6.936Zm-6.018-5.811-6.494,12.748Zm-92.649,5.622-12.513,6.937Zm-6.018-5.81-6.6,3.656,6.6-3.656-6.494,12.748Zm221.886,5.063-12.513,6.935Zm-6.018-5.811-6.494,12.747Zm-92.651,5.623-12.514,6.936Zm-6.018-5.81-6.5,12.747Zm-92.65,5.622-12.513,6.935Zm-6.018-5.81-6.494,12.746Zm221.886,5.062-12.513,6.935Zm-6.017-5.811-6.5,12.747Zm-92.651,5.624-12.514,6.935Zm-6.019-5.811-6.494,12.747Zm-92.649,5.623-12.514,6.935Zm-6.018-5.812-6.5,12.748Zm215.869-.749-6.5,12.747,10.677-5.918-10.677,5.918Zm-92.653,5.624-12.512,6.935Zm-6.017-5.81-6.494,12.746Zm-92.651,5.623-12.511,6.935Zm-6.017-5.811-6.494,12.746Zm221.886,5.062-12.513,6.935Zm-6.017-5.811-6.5,12.747Zm-92.652,5.624-12.514,6.935ZM2304,390.524l-6.5,12.748Zm-92.651,5.624-12.512,6.935Zm-6.017-5.812-6.5,12.748Zm123.216,4.874-12.513,6.936Zm-6.018-5.81-6.494,12.747Zm-92.651,5.623-12.513,6.936Zm-6.017-5.811-6.5,12.748Zm123.217,4.874-12.512,6.935Zm-6.018-5.811-6.494,12.747Zm-92.651,5.624-12.513,6.935Zm-6.018-5.811-6.494,12.747Zm-92.65,5.623-12.512,6.935Zm-6.017-5.811-6.494,12.746Zm221.886,5.062-12.513,6.936Zm-6.018-5.811-6.5,12.748Zm-92.653,5.624-12.512,6.935Zm-6.017-5.811-6.5,12.747Zm-92.65,5.622-12.513,6.936Zm-6.017-5.811-6.5,12.748Zm221.886,5.063,6.493-12.746,6.5-12.748-6.5,12.748,12.514-6.936-12.514,6.936-6.493,12.746-12.514,6.936Zm-6.018-5.811-6.5,12.748Zm-92.652,5.625-12.512,6.935Zm-6.017-5.812-6.494,12.748Zm-92.651,5.624-12.512,6.935Zm-6.017-5.812-6.494,12.748Zm221.886,5.063-12.514,6.936Zm-6.019-5.811-6.494,12.748ZM2304,390.524l-12.513,6.936Zm-6.017-5.811-6.5,12.748Zm-92.651,5.623-12.513,6.937Zm-6.019-5.81-6.494,12.748Zm217.176,7.673-7.8,4.324Zm-1.307-8.423-6.494,12.748Zm-92.652,5.624-12.512,6.936Zm-6.017-5.811-6.494,12.748Zm-92.651,5.623-12.513,6.936Zm-6.017-5.81-6.5,12.747Zm123.217,4.874-12.513,6.935Zm-6.017-5.811-6.5,12.747Zm-92.652,5.624-12.513,6.935Zm-6.017-5.811-6.5,12.747Zm-92.65,5.623-12.513,6.935Zm-6.018-5.812-3.494,1.937,3.494-1.937-6.5,12.748Zm221.886,5.063-12.513,6.936Zm-6.019-5.811-6.494,12.748Zm-92.651,5.624-12.513,6.936Zm-6.018-5.81-6.494,12.747Zm-92.649,5.621-12.514,6.937Zm-6.018-5.81-6.5,12.748Zm221.886,5.062-12.513,6.936Zm-6.018-5.81-6.494,12.747Zm-92.651,5.623-12.514,6.936Zm-6.018-5.81-6.5,12.747Zm-92.65,5.622-12.513,6.935Zm-6.018-5.811-6.494,12.747Zm209.677,11.831-.3.167Zm-86.46-6.956-12.513,6.937Zm-6.018-5.81-6.494,12.748Zm104.687,6-12.059,6.685Zm-197.338-.375-12.511,6.936Zm-6.017-5.812-6.494,12.749Zm221.886,5.063-12.512,6.936Zm-6.017-5.81-6.494,12.747Zm-92.652,5.623L2304,390.524Zm-6.017-5.811-6.5,12.747Zm-92.651,5.624-12.512,6.935Zm-6.017-5.812-6.5,12.747Zm123.216,4.874-12.514,6.936Zm-6.018-5.811-6.5,12.748Zm-92.651,5.624-12.513,6.935Zm-6.017-5.81-6.5,12.746Zm123.216,4.873-12.512,6.936Zm-6.017-5.81-6.495,12.747Zm-92.652,5.624-12.513,6.935Zm-6.017-5.812-6.5,12.748Zm-92.65,5.623-12.513,6.936Zm-6.018-5.811-6.5,12.748Zm221.885,5.063-12.512,6.935Zm-6.018-5.811-6.494,12.747Zm-92.652,5.624-12.512,6.935Zm-6.017-5.812-6.5,12.748Zm-92.651,5.623-12.512,6.935Zm-6.017-5.81-6.494,12.746Zm215.868-.749-7.781,4.313,7.781-4.313-6.494,12.746,2.442-1.354-2.442,1.354Zm-92.652,5.623-12.512,6.935Zm-6.017-5.811-6.494,12.747Zm-92.651,5.622-12.512,6.936Zm-6.017-5.811-6.494,12.748Zm221.886,5.063-12.514,6.935Zm-6.017-5.811-6.5,12.747Zm-92.652,5.623-12.513,6.935Zm-6.017-5.81-6.5,12.746Zm86.156,7.124-9.92,5.5Zm-178.807-1.5-12.514,6.936Zm-6.019-5.811-6.5,12.748Zm216.4,8.1-7.027,3.894Zm-.531-8.852-6.5,12.747Zm-92.653,5.623-12.513,6.936Zm-6.017-5.811-6.5,12.748Zm-92.651,5.625-12.513,6.935Zm-6.017-5.811-6.5,12.747Zm123.216,4.873-12.512,6.935Zm-6.018-5.811-6.494,12.747Zm-92.651,5.623-12.513,6.936Zm-6.017-5.811-6.5,12.748Zm-92.651,5.623-12.513,6.935Zm-11.265,4.486-1.248,2.45Zm227.133-5.234-12.513,6.935Zm-6.017-5.811-6.5,12.747Zm-92.651,5.623-12.514,6.937Zm-6.018-5.81-6.5,12.748Zm-92.65,5.623-12.513,6.935Zm-6.018-5.812-6.494,12.748Zm215.869-.748-5.642,3.128,5.642-3.128-6.5,12.747,4.582-2.54-4.582,2.54Zm-92.652,5.623-12.513,6.936Zm-6.018-5.81-6.5,12.747Zm-92.65,5.621-12.513,6.936Zm-6.017-5.811-6.5,12.748Zm123.216,4.876-12.514,6.935Zm-6.018-5.812-6.5,12.748Zm-92.651,5.623-12.512,6.935Zm-6.016-5.811-6.5,12.747Zm221.886,5.063-12.514,6.936Zm-6.019-5.811-6.494,12.748Zm-92.651,5.623-12.513,6.936Zm-6.018-5.81-6.494,12.747Zm-92.65,5.624-12.512,6.934Zm-6.017-5.813-6.5,12.748Zm123.215,4.875-12.513,6.935Zm-6.017-5.811-6.5,12.747Zm-92.651,5.623-12.513,6.937Zm-6.018-5.81-6.494,12.748Zm123.218,4.874-12.513,6.936Zm-6.018-5.81-6.5,12.747Zm-92.651,5.623-12.513,6.935Zm-6.017-5.811-6.5,12.747Zm-92.651,5.622-12.512,6.936Zm-10.535,3.056-1.977,3.88Zm220.386-9.616-3.5,1.942,3.5-1.942-6.495,12.747,6.721-3.725-6.721,3.725Zm-92.652,5.624-12.512,6.935Zm-6.016-5.811-6.5,12.746Zm-92.651,5.621-12.513,6.937Zm-7.343-3.208-5.169,10.146Zm223.212,2.461-12.513,6.936Zm-6.019-5.81-6.494,12.747Zm-92.651,5.622-12.513,6.936Zm-6.018-5.81-6.5,12.747Zm-92.649,5.622-12.514,6.935Zm-6.018-5.811-6.5,12.747Zm221.885,5.063-12.512,6.936Zm-6.017-5.811-6.494,12.748Zm-92.652,5.624-12.512,6.936Zm-6.017-5.811-6.494,12.748Zm-92.65,5.622-12.514,6.936Zm-6.019-5.81-6.5,12.747Zm215.259.449-5.883,11.549,6.865-3.806-6.865,3.806Zm-92.041,4.425-12.513,6.935Zm-6.017-5.81-6.5,12.746Zm-92.652,5.623-12.512,6.936Zm-6.017-5.812-6.494,12.749Zm123.217,4.875-12.513,6.935Zm-6.017-5.812-6.5,12.748Zm-92.651,5.624-12.513,6.935Zm-6.018-5.81-6.494,12.746Zm117.2-.939-1.365.756,1.365-.756-6.5,12.748,8.86-4.911-8.86,4.911Zm-92.651,5.625-12.514,6.935Zm-6.019-5.812-6.494,12.748Zm-100.213,9.815-4.95,2.743Zm-4.2,1.281-.746,1.462Zm227.634-6.221-12.512,6.935Zm-6.017-5.811-6.494,12.747Zm-92.652,5.623-12.513,6.936Zm-6.017-5.811-6.5,12.748Zm-92.65,5.622-12.513,6.935Zm-9.647,1.312-2.865,5.623Zm225.515-2.061-12.512,6.936Zm-6.017-5.81-6.495,12.747Zm-92.652,5.623-12.513,6.935Zm-6.018-5.81-6.5,12.746Zm-92.651,5.622-12.511,6.935Zm-7.773-2.363-4.738,9.3Zm215.9-.82-4.774,9.37,12.514-6.935-12.514,6.935ZM2329.5,358.1l-12.514,6.935Zm-6.018-5.811-6.5,12.747Zm-92.651,5.622-12.511,6.935Zm-6.016-5.811-6.5,12.747Zm123.215,4.874-12.513,6.936Zm-6.018-5.81-6.494,12.747Zm-92.651,5.624-12.513,6.935Zm-6.017-5.812-6.5,12.748Zm117.2-.937-6.494,12.748,11-6.1-11,6.1Zm-92.651,5.623-12.512,6.936Zm-6.016-5.811-6.5,12.748Zm123.216,4.875-12.513,6.935Zm-6.018-5.812-6.5,12.748Zm-92.651,5.624-12.512,6.936Zm-6.018-5.811-6.493,12.748Zm123.218,4.874-12.514,6.936Zm-6.018-5.811-6.5,12.748Zm-92.652,5.624-12.513,6.935Zm-6.018-5.811-6.494,12.747Zm-102.163,10.9-3,1.662Zm-2.444.575-.554,1.087Zm218.977-6.852-3.664,7.19,12.512-6.935-12.512,6.935Zm14.867,6.066-.533,1.045Zm-104.688-6-12.513,6.935Zm-6.018-5.811-6.5,12.747Zm-92.649,5.622-12.515,6.936Zm-10.076,2.15-2.439,4.786Zm221.012-.165-7.582,4.2Zm-1.087-8.545-6.494,12.747Zm-92.652,5.623L2329.5,358.1ZM2336,345.348,2329.5,358.1Zm-92.651,5.623-12.513,6.935Zm-8.039-1.845-4.475,8.78Zm125.237.908,6.5-12.748,3.5-6.862-3.5,6.862,12.512-6.935,6.5-12.748-6.5,12.748,12.514-6.936-12.514,6.936-12.512,6.935-6.5,12.748-12.512,6.935Zm-6.017-5.811-6.494,12.747Zm-92.65,5.623-12.514,6.937Zm-6.018-5.811-6.5,12.749Zm123.216,4.874-12.512,6.935Zm-6.017-5.811-6.494,12.747Zm49.095,9.374-1.642,3.223Zm-141.747-3.75-12.513,6.935Zm-6.018-5.81-6.494,12.746Zm123.218,4.874-12.513,6.936Zm-6.018-5.812-6.5,12.748Zm-92.652,5.625-12.512,6.935Zm-6.017-5.811-6.494,12.747Zm113.259,6.8-2.553,5.012,12.512-6.935-12.512,6.935Zm-88.71-2.111-12.513,6.936Zm-6.017-5.811-6.5,12.748Zm123.217,4.874-12.514,6.936Zm-6.018-5.811-6.5,12.748ZM2336,345.348l-12.513,6.936Zm-6.018-5.811-6.494,12.748Zm-104.2,12.026-.961.533Zm-.789.2-.172.337Zm191.146-5.1-2.753,5.4Zm-61.609-2.438-12.513,6.936Zm-6.017-5.81-6.5,12.747Zm-92.651,5.622-12.513,6.936Zm-10.069,2.139-2.444,4.8Zm115.381,3.514-.626.346Zm-86.783-6.776-12.511,6.935Zm-6.016-5.812-6.494,12.747Zm104.687,6-11.737,6.506Zm11.735-5.409-5.718,11.22,12.513-6.936.333-.653-.333.653,12.513-6.935-12.513,6.935-12.513,6.936Zm-91.875,4.1-12.513,6.935Zm-6.017-5.812-6.5,12.748Zm123.217,4.875-3.864,7.582Zm-11.069,4.1-1.444,2.832,12.513-6.935-12.513,6.935Zm-87.6-4.291-12.514,6.936Zm-6.019-5.811-6.495,12.748Zm123.218,4.874-12.513,6.936Zm-6.017-5.811-6.5,12.748Zm-92.652,5.623-12.512,6.936Zm-6.017-5.81-6.495,12.747Zm120.4,6.437-9.693,5.373Zm-3.2-7.374-6.494,12.747Zm-92.651,5.623L2336,345.348Zm-6.017-5.811-6.5,12.747Zm61.608,2.436-4.974,9.762Zm-43.078-3.562-7.459,4.135,7.459-4.135-6.5,12.748,2.766-1.533-2.766,1.533Zm-92.651,5.624-12.512,6.935Zm-11.673,5.288-.839,1.647Zm120.967-8.331-4.607,9.041,12.513-6.935-12.513,6.935Zm-90.764,1.918-12.514,6.937Zm-6.017-5.811-6.5,12.749Zm86.157,7.124-9.6,5.321Zm-61.61-2.436-12.512,6.936Zm-6.018-5.81-6.494,12.747Zm98.671.186L2392,341.168Zm24.548,4.687-12.513,6.936Zm-6.018-5.812-6.5,12.749Zm-92.652,5.625-12.512,6.935Zm-6.018-5.811-6.494,12.747Zm123.217,4.874-12.513,6.935Zm-6.017-5.811-6.5,12.747Zm-105.165,12.559,6.5-12.747-6.5,12.747,12.514-6.935ZM2355,325.665l-5.319,2.948,5.319-2.948-6.5,12.748,4.905-2.719-4.905,2.719Zm30.566,10.5-.7,1.373Zm-104.687-6-12.513,6.936Zm-10.453,2.893-2.06,4.043Zm127.652-3.83,6.494-12.747-6.494,12.747,12.513-6.936-12.513,6.936-12.513,6.936Zm-6.017-5.811-6.5,12.748Zm-92.653,5.625-12.512,6.935Zm-6.016-5.813-6.5,12.748Zm123.217,4.874-12.513,6.936Zm-6.017-5.811-6.5,12.748Zm-92.652,5.625-12.513,6.935Zm-6.017-5.811-6.5,12.747Zm123.217,4.874-12.513,6.935Zm-6.018-5.812-6.5,12.748Zm-49.574,9.185-1.81,3.553Zm-55.591,3.375,6.5-12.747-6.5,12.747,12.513-6.936Zm129.712-7.874-12.513,6.937Zm-6.017-5.81-6.5,12.748Zm-98.669-.188-3.18,1.763,3.18-1.763-6.5,12.748,7.043-3.9-7.043,3.9Zm14.421,6.939-2.386,4.683,12.513-6.935-12.513,6.935Zm10.127-2.253-2.921,5.732Zm-80.139-1.313-12.513,6.936Zm-6.018-5.81-6.494,12.747Zm166.3,8.436-2.106,4.135ZM2311.925,322.1l-12.514,6.936Zm-6.017-5.812-6.5,12.749Zm123.217,4.874-12.513,6.935Zm-6.017-5.811-6.5,12.747Zm-148.243,9-1.017.563,1.017-.563-1.823,3.578Zm55.59-3.372-12.513,6.935Zm-6.018-5.811-6.494,12.747Zm123.218,4.874-12.513,6.936Zm-6.018-5.812-6.5,12.749Zm-99.615,1.668-5.55,10.893,9.182-5.09-9.182,5.09Zm25.492,2.831-4.03,7.912Zm88.23,5.975-2.073,1.148Zm4.423-11.6-6.5,12.746Zm-103.889,10.055-1.275,2.5,12.512-6.936L2355,325.665Zm29.768-5.557-12.513,6.936Zm-6.017-5.81-6.5,12.747Zm-92.652,5.623-12.512,6.935Zm-6.017-5.811-6.524,3.616,6.524-3.616-6.5,12.747Zm123.216,4.874-12.512,6.935Zm-6.017-5.81-6.494,12.746Zm-92.651,5.622-12.513,6.935Zm-6.018-5.812-6.5,12.748Zm61.608,2.438-5.142,10.091Zm61.609,2.437-12.513,6.935Zm-6.018-5.811-6.494,12.747Zm-92.652,5.625-12.512,6.935Zm-6.017-5.813-6.494,12.749Zm123.218,4.874-12.513,6.936Zm-6.017-5.811-6.5,12.748Zm-100.725,3.848-4.44,8.714,11.323-6.277-11.323,6.277Zm125.273.841-12.513,6.935Zm-6.018-5.812-6.5,12.748Zm-105,12.235-.165.325,12.512-6.936-12.512,6.936Zm6.33-12.422-6.251,12.27Zm24.549,4.686-12.514,6.935Zm-6.018-5.811-6.5,12.747Zm24.548,4.687-12.513,6.934Zm-6.017-5.811-6.5,12.746Zm-92.652,5.621-12.513,6.937Zm-6.019-5.81-6.494,12.747Zm123.218,4.874-12.513,6.936Zm-6.017-5.811-6.5,12.748Zm-92.652,5.623-12.512,6.936Zm-6.017-5.81-6.494,12.747Zm30.566,10.5,6.5-12.748-6.5,12.748,12.513-6.936,6.494-12.747-6.494,12.747,12.513-6.935-12.513,6.935-12.513,6.936-.867,1.7Zm92.652-5.625-12.513,6.936Zm-6.018-5.81-6.494,12.747Zm-101.835,6.025-3.33,6.535,12.513-6.935-12.513,6.935Zm15.2,5.41-1.041.577Zm111.182-6.749-12.513,6.935Zm-6.017-5.811-6.5,12.747Zm24.548,4.687-12.513,6.936Zm-6.018-5.812-6.5,12.749Zm-92.652,5.624-12.513,6.935Zm-6.018-5.81-6.5,12.746Zm-31.044,8.061-1.977,3.88Zm55.592-3.375-12.513,6.935Zm-6.018-5.812-6.494,12.748Zm-92.652,5.624-12.511,6.935Zm-6.017-5.812-6.494,12.748Zm123.217,4.874-12.513,6.937Zm-6.017-5.811-6.5,12.749Zm-98.672-.184-6.493,12.742,12.512-6.935,1.108-2.175-1.108,2.175,12.513-6.935-12.513,6.935-12.512,6.935Zm123.219,4.871-12.513,6.935Zm-6.017-5.811-6.5,12.747ZM2320.638,305l-2.219,4.354,12.514-6.935-12.514,6.935Zm152.042,1.169-1.448,2.84Zm-141.747-3.75-3.089,6.061Zm117.2-.937-12.513,6.935Zm-6.018-5.811-6.494,12.747Zm-98.671-.186-9.273,5.141,9.273-5.141-6.494,12.748.949-.526-.949.526Zm6.019,5.81-11.415,6.327Zm117.2-.938-12.513,6.936Zm-6.017-5.811-6.5,12.748Zm-185.3,11.246-.334.185.334-.185-.339.666Zm209.85-6.558-12.512,6.935Zm-6.017-5.812-6.5,12.748Zm-92.652,5.623-12.513,6.936Zm-6.018-5.811-6.5,12.748Zm-92.651,5.623-12.513,6.935Zm-6.017-5.81-6.673,3.7,6.673-3.7-6.5,12.746Zm123.217,4.874-12.513,6.937Zm-6.018-5.81-6.494,12.748Zm-74.121,4.5-4.2,8.24Zm-25.661-2.5-5.383,10.564L2318.9,290.8l-25.025,13.873Zm124.331,2.691-12.513,6.935Zm-6.018-5.81-6.494,12.746Zm24.548,4.685-12.513,6.936Zm-6.017-5.811-6.5,12.748Zm-98.671-.186-7.135,3.956,7.135-3.956-6.493,12.746,3.087-1.711-3.087,1.711Zm123.219,4.873-12.513,6.936Zm-6.018-5.81-6.494,12.747Zm-92.652,5.624-12.512,6.935Zm-6.017-5.812-6.494,12.748ZM2318.9,290.8l-5.308,10.419Zm160.279,2.625-12.513,6.935Zm-6.018-5.811-6.495,12.747Zm-92.652,5.623-12.513,6.937Zm-6.018-5.81-6.494,12.748Zm110.7,11.811-.47.922Zm12.514-6.936-12.514,6.936Zm-6.018-5.811-6.5,12.748Zm-92.651,5.623-12.513,6.935Zm-6.018-5.81-6.494,12.746Zm-100.891,4.173-4.272,8.384,12.513-6.935-12.513,6.935Zm125.439.513-12.512,6.935Zm-6.017-5.811-6.494,12.746Zm-98.67-.188-6.419,12.6Zm227.9,10.874-.515,1.009Zm0,0-1.691.937Zm-104.686-6-12.513,6.936Zm-6.017-5.811-6.5,12.748Zm-98.671-.186-5,2.769,5-2.769-6.494,12.747,5.227-2.9-5.227,2.9Zm221.886,5.063-3.86,7.574Zm-18.53,1.124-3.044,5.974Zm-37.059,2.249-1.87,3.671Zm55.589-3.373-12.512,6.935Zm-6.017-5.811-6.494,12.747Zm-92.651,5.622-12.513,6.935Zm-6.018-5.811-6.494,12.747Zm-92.651,5.623-12.514,6.937Zm-6.017-5.81-6.5,12.748Zm184.825,7.312-9.3,5.152Zm-6.018-5.81-5.449,10.695Zm-55.589,3.372-12.512,6.935Zm-6.018-5.811-6.494,12.747Zm-92.652,5.624-12.513,6.936Zm-6.017-5.811-6.5,12.748Zm141.746,3.75-4.564,8.959Zm6.018,5.81-1.536,3.017Zm0,0-5.29,2.933Zm-215.868.75-1.035,2.03Zm191.32-5.436-12.512,6.935Zm-6.017-5.811-6.5,12.747Zm-92.653,5.624-12.512,6.935ZM2387,280.489l-6.494,12.746Zm-102,6.353-3.162,6.206,12.511-6.935-12.511,6.935Zm225.218-1.479-12.511,6.935Zm-6.016-5.812-6.5,12.748Zm-92.652,5.624-12.513,6.935Zm-6.018-5.811-6.5,12.747Zm160.276,2.625-5.117,10.045Zm-252.928,3,6.494-12.747,6.5-12.747-6.5,12.747,12.513-6.935-12.513,6.935-6.494,12.747-12.512,6.936Zm-6.018-5.811-6.494,12.748Zm221.885,5.063-12.512,6.934Zm-6.017-5.811-6.5,12.746Zm-92.65,5.621-12.514,6.937Zm-6.018-5.81-6.5,12.748Zm-98.67-.187-2.857,1.584,2.857-1.584-6.5,12.746,7.367-4.082L2318.9,290.8Zm-31.044,8.06-2.144,4.209Zm252.93-3-12.513,6.935Zm-6.018-5.812-6.494,12.748Zm-92.651,5.623L2436.1,289.86Zm-6.017-5.811L2436.1,289.86Zm-92.651,5.624-12.514,6.936Zm-6.018-5.811-6.5,12.748Zm221.885,5.063-12.512,6.936Zm-6.017-5.811-6.494,12.748Zm-92.65,5.622-12.513,6.936Zm-6.017-5.81-6.5,12.747Zm-92.652,5.623-12.513,6.935Zm-6.018-5.81-6.494,12.746Zm-86.632,11.434-.278.154.278-.154-.3.593Zm209.851-6.56-12.513,6.935Zm-6.018-5.812-6.5,12.748ZM2387,280.489l-12.513,6.935Zm-6.017-5.811-6.5,12.747Zm-103.112,8.532-2.051,4.027,12.511-6.935-12.511,6.935Zm10.46-2.909-3.255,6.388Zm215.87-.75-12.513,6.936Zm-6.019-5.811-6.494,12.748Zm-92.651,5.624-12.513,6.936Zm-6.018-5.812-6.5,12.749Zm-92.651,5.624-12.513,6.936Zm-6.018-5.811-6.5,12.748Zm221.887,5.063-12.514,6.935Zm-6.018-5.812-6.5,12.748Zm-92.65,5.623-12.513,6.936Zm-6.018-5.811-6.494,12.748Zm-95.658,7.291-9.506,5.269Zm218.875-2.417-12.513,6.937Zm-6.018-5.81-6.5,12.748Zm-92.65,5.622-12.512,6.935Zm-6.017-5.81-6.494,12.746Zm-92.652,5.623-12.513,6.936Zm-6.018-5.81-6.494,12.747Zm221.886,5.062-12.512,6.936Zm-6.017-5.811-6.494,12.748Zm-271.457,4.122-6.086,3.373,6.086-3.373-4.366,8.569Zm178.808,1.5-12.514,6.935Zm-6.017-5.811-6.5,12.747Zm-92.653,5.624-12.512,6.935Zm-6.017-5.811-6.494,12.747Zm216.068,8.286-6.7,3.712Zm-.2-9.035-6.5,12.747Zm-92.651,5.621-12.513,6.936Zm-6.018-5.81-6.494,12.747Zm-92.651,5.624-12.513,6.935Zm-6.018-5.812-6.494,12.748Zm123.217,4.874-12.511,6.936Zm-6.017-5.811-6.494,12.748Zm-92.652,5.623L2387,280.489Zm-6.017-5.81-6.5,12.748Zm-92.652,5.623L2288.33,280.3Zm-6.017-5.81-6.5,12.747Zm221.886,5.062-12.511,6.935ZM2510.7,266.8l-6.5,12.747Zm-92.653,5.623-12.512,6.936Zm-6.018-5.81-6.494,12.747Zm-98.67-.188-6.494,12.747,11.645-6.455-11.645,6.455Zm221.886,5.063-12.512,6.936Zm-6.015-5.813-6.5,12.749Zm-92.652,5.625-12.513,6.935Zm-6.018-5.811-6.5,12.747Zm-92.653,5.624-12.512,6.935Zm-6.017-5.811-6.494,12.747Zm221.886,5.062-12.513,6.935Zm-6.018-5.81-6.5,12.746Zm-92.649,5.622-12.514,6.935Zm-6.018-5.812-6.5,12.748Zm-92.652,5.625-12.513,6.935Zm-6.017-5.811-6.5,12.747Zm221.886,5.063-12.514,6.935Zm-6.018-5.811-6.5,12.747Zm-92.651,5.622-12.512,6.936Zm-6.017-5.811-6.494,12.748Zm-92.652,5.623-12.513,6.937Zm-6.017-5.81-6.5,12.748Zm123.218,4.873-12.513,6.935Zm-6.017-5.811-6.5,12.747Zm-92.652,5.624-12.513,6.936Zm-6.017-5.811-6.5,12.748Zm-92.652,5.624-12.511,6.935Zm-6.016-5.812-6.5,12.747ZM2510.7,266.8l-12.514,6.935Zm-6.018-5.811-6.5,12.747Zm-92.652,5.624-12.513,6.934Zm-6.017-5.811-6.5,12.746Zm-92.652,5.623,6.494-12.746,6.5-12.748-6.5,12.748,12.514-6.937-12.514,6.937-6.494,12.746-12.513,6.935Zm-6.018-5.811-6.494,12.747Zm12.036,11.623-.717.4Zm209.853-6.562-12.515,6.937Zm-6.02-5.81-6.494,12.748Zm-92.65,5.624-12.513,6.935Zm-6.017-5.811-6.5,12.747Zm123.215,4.875-12.513,6.935Zm-6.017-5.812-6.5,12.748Zm-92.65,5.622-12.513,6.937Zm-6.018-5.81-6.494,12.748Zm-92.651,5.624-12.514,6.936Zm-6.018-5.811-6.5,12.748Zm221.887,5.063-12.513,6.935Zm-6.018-5.812-6.5,12.748Zm-92.65,5.623-12.512,6.936Zm-6.017-5.811-6.494,12.748Zm-92.652,5.624-12.513,6.936Zm-6.017-5.811-6.5,12.748Zm215.433,8.639-6.06,3.36Zm.435-9.388-6.494,12.748Zm-92.65,5.622-12.514,6.936Zm-6.017-5.81-6.5,12.747Zm-92.652,5.623-12.514,6.935Zm-6.018-5.81-6.5,12.746Zm-92.65,5.622-11.546,6.4Zm215.868-.749-12.513,6.935Zm-6.018-5.811-6.494,12.747Zm-92.651,5.624-12.513,6.935Zm-6.018-5.812-6.494,12.748Zm-92.652,5.624-12.512,6.936Zm-6.017-5.811-6.494,12.748Zm221.886,5.062L2510.7,266.8Zm-6.016-5.811L2510.7,266.8Zm-92.651,5.624-12.514,6.936Zm-6.018-5.811-6.5,12.748Zm-103.893,11.855-1.272.7Zm-31.836-9.793-4.133,2.29,4.133-2.29-5.3,10.395Zm258.945,2.813-12.511,6.934Zm-6.016-5.811-6.494,12.746Zm-209.852,6.561-11.091,6.148Zm117.2-.938-12.512,6.936Zm-6.017-5.811-6.495,12.748Zm-92.652,5.624-12.513,6.936Zm-6.018-5.811-6.5,12.748Zm221.886,5.062-12.513,6.937Zm-6.017-5.81-6.5,12.748Zm-92.65,5.622-12.513,6.935Zm-6.018-5.81-6.5,12.746Zm-92.652,5.623-12.513,6.936Zm-6.018-5.81-6.5,12.747Zm221.885,5.062-12.512,6.936Zm-6.018-5.81-6.494,12.747Zm-92.649,5.622-12.514,6.935Zm-6.018-5.811-6.5,12.747Zm-92.653,5.624-12.513,6.935Zm-6.017-5.811-6.5,12.747Zm123.217,4.874-12.512,6.935Zm-6.017-5.811-6.494,12.747Zm-92.652,5.623-12.512,6.936Zm-6.017-5.81-6.494,12.747Zm-92.652,5.623-12.51,6.935Zm-6.016-5.811-6.494,12.747Zm221.886,5.062-12.513,6.936Zm-6.018-5.81-6.494,12.747Zm-92.651,5.623-12.513,6.936Zm-6.017-5.811-6.5,12.748Zm-98.671-.186-6.812,3.775,6.812-3.775-6.5,12.746,3.412-1.891-3.412,1.891Zm221.888,5.061-12.515,6.935Zm-6.019-5.81-6.5,12.746Zm-92.65,5.622-12.512,6.936Zm-6.018-5.81-6.494,12.747Zm-92.652,5.623-12.513,6.936Zm-6.017-5.811-6.5,12.748Zm221.886,5.063-12.513,6.935ZM2548.232,246l-6.5,12.747Zm-228.382,7.686-8.95,4.961Zm135.732-2.063-12.513,6.935Zm-6.018-5.811-6.5,12.747Zm-92.652,5.624-12.513,6.935Zm-6.018-5.811-6.5,12.747Zm221.886,5.063-12.513,6.935Zm-6.017-5.812-6.5,12.747Zm-92.65,5.623-12.513,6.935Zm-6.019-5.811-6.494,12.747Zm-92.651,5.624-12.513,6.935Zm-6.018-5.811-6.494,12.747Zm212.92,10.032-3.547,1.966Zm2.948-10.782-6.5,12.748Zm-92.651,5.623-12.512,6.936Zm-6.017-5.811-6.494,12.748Zm-92.652,5.624-12.513,6.936Zm-6.017-5.811-6.5,12.748Zm-92.651,5.623-12.513,6.936Zm-6.018-5.811-8.869,4.917,8.869-4.917-6.494,12.748Zm221.886,5.063-12.513,6.935Zm-6.016-5.811-6.5,12.747Zm-92.652,5.623-12.514,6.935Zm-6.018-5.81-6.5,12.746Zm-98.67-.188-4.673,2.591,4.673-2.591-6.5,12.747,5.551-3.076-5.551,3.076Zm221.886,5.063-12.511,6.934Zm-6.017-5.812-6.494,12.747Zm-92.651,5.624-12.513,6.935Zm-6.018-5.811-6.494,12.747ZM2548.232,246l-12.512,6.935Zm-6.017-5.812-6.494,12.748Zm-92.651,5.624-12.513,6.935ZM2443.546,240l-6.5,12.748Zm-92.652,5.625-12.513,6.935Zm-6.018-5.811-6.494,12.747Zm221.887,5.062-12.513,6.936Zm-6.017-5.811-6.5,12.748Zm-92.651,5.623-12.512,6.936Zm-6.017-5.811-6.495,12.748Zm-92.652,5.624-12.512,6.936Zm-6.018-5.811-6.494,12.748Zm221.886,5.062-12.513,6.937Zm-6.018-5.81-6.5,12.748Zm-92.65,5.622-12.512,6.936Zm-6.018-5.811-6.494,12.748Zm-92.651,5.624-12.513,6.936Zm-6.018-5.811-6.5,12.748Zm123.218,4.874-12.514,6.935Zm-6.018-5.811-6.5,12.747Zm-92.652,5.624-12.513,6.935Zm-6.018-5.811-6.494,12.747Zm-98.667-.189-2.536,1.406,2.536-1.406-6.5,12.748,7.688-4.262-7.688,4.262Zm221.885,5.063-12.513,6.936Zm-6.017-5.81-6.5,12.747Zm-92.652,5.623-12.512,6.935ZM2419,235.31l-6.494,12.748Zm-92.652,5.625-12.513,6.936Zm-6.018-5.81-6.494,12.747Zm221.888,5.06-12.514,6.937Zm-6.018-5.81-6.5,12.748ZM2443.546,240l-12.513,6.937Zm-6.017-5.81-6.5,12.748Zm-92.653,5.624-12.512,6.935Zm-6.017-5.81-6.494,12.746Zm221.887,5.061L2548.232,246Zm-6.019-5.81L2548.232,246Zm-92.649,5.622-12.513,6.936Zm-6.018-5.81-6.494,12.747Zm-92.652,5.623-12.513,6.936Zm-6.018-5.811-6.494,12.748Zm221.887,5.063-12.513,6.935Zm-6.018-5.811-6.494,12.747Zm-92.65,5.622-12.513,6.936Zm-6.017-5.81-6.5,12.747Zm-92.652,5.623-12.513,6.936Zm-6.019-5.81-6.494,12.747Zm209.4,11.981-.03.016Zm.017-.076-.047.092Zm-86.2-7.032-12.513,6.935Zm-6.018-5.81-6.494,12.746Zm-92.652,5.623-12.512,6.935Zm-6.017-5.811-6.494,12.747Zm-98.668-.189-.4.22.4-.22-6.5,12.748,9.828-5.448-9.828,5.448Zm221.886,5.063-12.512,6.935Zm-6.017-5.812-6.494,12.748ZM2419,235.31l-12.513,6.937Zm-6.017-5.81-6.5,12.748Zm-92.653,5.625-12.512,6.935Zm-6.016-5.813-6.5,12.748Zm221.885,5.063-12.512,6.935Zm-6.017-5.812-6.5,12.748Zm-92.651,5.624-12.514,6.936Zm-6.018-5.811-6.5,12.748ZM2338.858,234l-12.513,6.935Zm-6.017-5.811-6.5,12.747Zm221.885,5.062-12.511,6.934Zm-6.016-5.812-6.5,12.747Zm-92.652,5.624L2443.546,240Zm-6.018-5.811L2443.546,240Zm-92.652,5.623-12.513,6.936Zm-6.018-5.81-6.495,12.747Zm-68.1,10.309-.737.409.737-.409-1.13,2.219Zm289.989-5.248-12.512,6.935Zm-6.017-5.811-6.494,12.747Zm-92.65,5.623-12.513,6.935Zm-6.018-5.812-6.5,12.748Zm-92.653,5.625-12.512,6.935Zm-6.017-5.811-6.495,12.747Zm217.128,7.7-7.754,4.3Zm-1.26-8.449-6.494,12.748Zm-92.65,5.624-12.513,6.934ZM2487.1,225l-6.5,12.747Zm-92.652,5.624-12.512,6.935Zm-6.018-5.81-6.494,12.746Zm-98.67-.189L2285,227.268l4.766-2.642,6.5-12.748,6.5-12.747-6.5,12.747,12.513-6.935-12.513,6.935-6.5,12.748-6.494,12.748,11.967-6.634-11.967,6.634Zm221.888,5.062-12.513,6.936Zm-6.018-5.811-6.494,12.748ZM2412.98,229.5l-12.514,6.936Zm-6.018-5.811-6.5,12.748Zm-92.651,5.623-12.512,6.935Zm-6.016-5.812-6.5,12.748Zm221.885,5.063-12.513,6.937Zm-6.018-5.81-6.494,12.748Zm-92.651,5.623L2419,235.31Zm-6.018-5.81L2419,235.31Zm-92.651,5.624-12.514,6.936Zm-6.017-5.813-6.5,12.749Zm221.887,5.063-12.513,6.936Zm-6.019-5.81-6.494,12.747Zm-92.651,5.623-12.512,6.935Zm-6.017-5.811-6.494,12.747Zm-92.653,5.624L2338.858,234Zm-6.017-5.811-6.5,12.748Zm221.886,5.062-12.514,6.936Zm-6.017-5.81-6.5,12.747Zm-92.651,5.621-12.513,6.937Zm-6.018-5.81-6.5,12.748Zm-92.652,5.624-12.513,6.935Zm-6.018-5.81-6.5,12.746Zm221.886,5.061-12.513,6.936Zm-6.016-5.811-6.5,12.748ZM2487.1,225l-12.513,6.936Zm-6.018-5.811-6.5,12.748Zm-92.652,5.625-12.513,6.935ZM2382.414,219l-6.5,12.747Zm123.217,4.873-12.513,6.937Zm-6.017-5.81-6.5,12.748Zm-92.652,5.623-12.513,6.936Zm-6.017-5.811-6.5,12.748Zm-92.65,5.622-12.514,6.936Zm-6.019-5.81-6.494,12.747Zm221.886,5.063-12.512,6.935Zm-6.017-5.811-6.494,12.747Zm-92.652,5.624L2412.98,229.5Zm-6.017-5.811L2412.98,229.5Zm-92.651,5.622-12.512,6.936Zm-6.018-5.81-6.494,12.747Zm221.885,5.063-12.511,6.935Zm-6.016-5.811-6.5,12.746Zm-92.652,5.623-12.513,6.935ZM2438,215.628l-6.494,12.747Zm-92.651,5.624-12.513,6.936Zm-6.017-5.812-6.5,12.749Zm221.886,5.063-12.512,6.935Zm-6.018-5.812-6.494,12.747Zm-92.651,5.623-12.513,6.936Zm-6.017-5.811-6.5,12.748Zm-92.652,5.625-12.513,6.935Zm-6.017-5.811-6.5,12.747Zm221.887,5.061-12.514,6.936Zm-6.019-5.81-6.494,12.747Zm-92.65,5.622-12.513,6.935Zm-6.018-5.81-6.494,12.746ZM2382.414,219l-12.513,6.935Zm-6.018-5.812-6.5,12.748Zm211.3,10.931-1.923,1.066Zm.03-2.768-1.953,3.834Zm-88.108-3.29L2487.1,225Zm-6.018-5.811L2487.1,225Zm-92.652,5.623-12.513,6.937Zm-6.018-5.81-6.495,12.748Zm-103.569,11.676-1.595.883Zm226.787-6.8-12.513,6.935Zm-6.017-5.81-6.5,12.746Zm-92.652,5.623-12.513,6.935Zm-6.017-5.811-6.5,12.747Zm-111.182,6.747-10.769,5.97Zm18.53-1.124-12.511,6.935Zm-6.016-5.812-6.494,12.747Zm221.886,5.063-12.514,6.935Zm-6.019-5.811-6.494,12.747ZM2438,215.628l-12.513,6.936Zm-6.017-5.811-6.5,12.748Zm-92.651,5.623-12.513,6.935Zm-6.018-5.81-6.494,12.746Zm221.887,5.062-12.513,6.936Zm-6.018-5.811-6.5,12.748Zm-92.651,5.623-12.513,6.936Zm-6.017-5.811-6.5,12.748Zm-92.652,5.625-12.513,6.935Zm-6.017-5.813-6.5,12.749Zm221.885,5.063-12.512,6.936Zm-6.017-5.811-6.494,12.748Zm-92.651,5.623-12.513,6.935Zm-6.017-5.811-6.5,12.747Zm-92.652,5.623-12.513,6.937Zm-6.018-5.81-6.494,12.748Zm217.149,7.688-7.774,4.309Zm-1.28-8.437-6.494,12.746Zm-92.651,5.622-12.513,6.935Zm-6.018-5.812-6.494,12.748Zm-92.652,5.625L2382.414,219Zm-6.018-5.81L2382.414,219Zm123.218,4.874-12.513,6.935Zm-6.018-5.812-6.5,12.748Zm-92.652,5.624-12.513,6.935Zm-6.018-5.81-6.5,12.746Zm-92.65,5.621-12.514,6.936Zm-6.018-5.81-6.5,12.747Zm221.885,5.063-12.512,6.935Zm-6.016-5.812-6.5,12.748Zm-92.652,5.624-12.513,6.936Zm-6.017-5.811-6.5,12.748Zm-92.652,5.624-12.512,6.935Zm-6.018-5.811-6.494,12.747Zm-31.042,8.059-8.456,4.687Zm252.928-3-12.511,6.936Zm-6.017-5.811-6.494,12.748Zm-92.651,5.623L2438,215.628Zm-6.018-5.81-6.5,12.747Zm-92.651,5.622-12.513,6.936Zm-6.018-5.811-6.494,12.748Zm221.886,5.063-12.512,6.935Zm-6.017-5.811-6.5,12.747Zm-92.651,5.623-12.513,6.935Zm-6.017-5.811-6.5,12.747Zm-92.653,5.624-12.512,6.936Zm-6.017-5.812-6.494,12.748Zm221.887,5.063-12.514,6.935Zm-6.017-5.811-6.5,12.747Zm-92.652,5.621-12.513,6.937Zm-6.017-5.81-6.5,12.748Zm-92.652,5.625-12.513,6.934Zm-6.018-5.811-6.494,12.746Zm123.219,4.873-12.513,6.936Zm-6.017-5.811-6.5,12.748Zm-92.652,5.625-12.513,6.935Zm-6.018-5.812-6.5,12.748Zm123.218,4.873-12.513,6.937Zm-6.018-5.81-6.5,12.748Zm-92.652,5.623-12.513,6.936Zm-6.018-5.81-6.494,12.747Zm-92.652,5.623-12.511,6.934Zm-6.016-5.812-6.494,12.747Zm221.886,5.063-12.514,6.936Zm-6.017-5.81-6.5,12.747Zm-92.652,5.623-12.513,6.935Zm-6.017-5.811-6.5,12.747Zm-92.652,5.622-12.513,6.937Zm-6.018-5.81-6.5,12.748Zm221.887,5.063-12.513,6.935Zm-6.018-5.81-6.5,12.746Zm-92.65,5.622-12.513,6.935Zm-6.018-5.811-6.494,12.747Zm-92.652,5.623-12.512,6.935Zm-6.017-5.811-6.5,12.747Zm221.886,5.063-12.514,6.935Zm-6.018-5.812-6.5,12.748Zm-92.651,5.623-12.513,6.936Zm-6.017-5.811-6.5,12.748Zm-92.653,5.625-12.513,6.935Zm-6.016-5.812-6.5,12.748Zm209.8,11.761-.427.238Zm-.066-.473-.362.71Zm-86.517-6.415-12.514,6.935Zm-6.018-5.81-6.5,12.746Zm-92.652,5.623-12.513,6.937Zm-6.017-5.81-6.5,12.748Zm-92.65,5.622-11.81,6.546Zm215.868-.749-12.513,6.935Zm-6.018-5.812-6.494,12.748Zm-92.652,5.625-12.512,6.936Zm-6.018-5.811-6.494,12.748Zm-92.65,5.622-12.513,6.936Zm-6.018-5.811-6.494,12.748Zm221.887,5.063-12.513,6.934Zm-6.018-5.812-6.5,12.747Zm-92.652,5.624-12.513,6.935Zm-6.018-5.81-6.494,12.746Zm-92.652,5.622-12.513,6.936Zm-6.017-5.811-6.5,12.748Zm-37.059,2.248-2.327,1.291,2.327-1.291-5.049,9.909Zm258.945,2.815-12.512,6.934Zm-6.016-5.813-6.5,12.748Zm-92.652,5.624-12.513,6.936ZM2451,190.134l-6.5,12.748Zm-92.652,5.623-12.513,6.935Zm-6.018-5.81-6.5,12.746Zm221.886,5.062-12.512,6.936ZM2568.2,189.2l-6.5,12.748Zm-92.651,5.623-12.513,6.936Zm-6.019-5.81-6.493,12.747Zm-92.65,5.623-12.514,6.935Zm-6.018-5.811-6.5,12.747Zm214.379,9.223-5.006,2.776Zm-1.112-4.867-3.893,7.643Zm-90.05.518-12.513,6.935Zm-6.018-5.811-6.494,12.747Zm-92.651,5.624-12.514,6.936Zm-6.017-5.813-6.5,12.749ZM2512.6,192.57l-12.512,6.936Zm-6.017-5.81-6.494,12.747Zm-92.652,5.624-12.513,6.935Zm-6.018-5.81-6.494,12.746Zm-92.65,5.621-12.512,6.936Zm-6.017-5.81-6.494,12.747Zm221.887,5.062-12.513,6.936Zm-6.017-5.811-6.5,12.748Zm-92.653,5.625-12.513,6.935Zm-6.018-5.812-6.5,12.748Zm-92.651,5.623-12.512,6.935Zm-6.016-5.811-6.5,12.747Zm221.885,5.062-12.513,6.937Zm-6.018-5.81-6.5,12.748ZM2451,190.134l-12.513,6.936Zm-6.018-5.811-6.5,12.748Zm-92.652,5.624-12.513,6.935Zm-6.018-5.811-6.495,12.747ZM2568.2,189.2l-12.514,6.937Zm-6.019-5.81-6.494,12.748Zm-92.651,5.623-12.512,6.935Zm-6.017-5.811-6.494,12.747Zm-92.651,5.623-12.513,6.935Zm-6.018-5.811-6.495,12.747Zm218.446,6.97-9.073,5.028Zm-2.578-7.717-6.494,12.746Zm-92.651,5.622-12.512,6.935Zm-6.017-5.812-6.494,12.748Zm-92.651,5.623-12.513,6.937Zm-6.018-5.81-6.494,12.748Zm123.218,4.874-12.513,6.936Zm-6.017-5.811-6.5,12.748Zm-92.653,5.625-12.512,6.935Zm-6.016-5.812-6.5,12.748Zm-92.651,5.623-12.512,6.935Zm-6.018-5.811-5.042,2.794,5.042-2.794-6.494,12.746Zm221.887,5.062L2512.6,192.57Zm-6.019-5.81L2512.6,192.57Zm-92.651,5.623-12.513,6.936Zm-6.017-5.811-6.5,12.748Zm-92.65,5.623-12.514,6.935Zm-6.019-5.81-6.5,12.746Zm221.887,5.062-12.513,6.935Zm-6.018-5.812-6.494,12.748Zm-92.651,5.624-12.513,6.937Zm-6.019-5.81-6.494,12.748Zm-92.651,5.623-12.512,6.935Zm-6.018-5.811-6.494,12.747Zm221.886,5.063-12.511,6.934Zm-6.016-5.813-6.5,12.748Zm-92.653,5.625L2451,190.134Zm-6.017-5.81L2451,190.134Zm-92.651,5.622-12.513,6.936Zm-6.018-5.811-6.5,12.748Zm221.885,5.063L2568.2,189.2Zm-6.017-5.811L2568.2,189.2Zm-92.651,5.621-12.514,6.937Zm-6.017-5.81-6.5,12.748Zm-92.652,5.623-12.512,6.936Zm-6.017-5.81-6.495,12.747Zm123.218,4.874-12.514,6.936Zm-6.017-5.811-6.5,12.748Zm-92.652,5.624-12.513,6.935Zm-6.018-5.811-6.494,12.746Zm123.217,4.874-12.512,6.935Zm-6.017-5.811-6.494,12.747Zm-92.651,5.623-12.514,6.937Zm-6.018-5.811-6.5,12.749Zm-92.65,5.624-12.513,6.935Zm-6.018-5.811-6.5,12.747Zm221.886,5.061-12.512,6.936Zm-6.017-5.81-6.494,12.747Zm-92.653,5.624-12.512,6.935Zm-6.018-5.811-6.494,12.747Zm-92.651,5.623-12.51,6.935Zm-6.016-5.812-6.494,12.748Zm221.886,5.062-12.513,6.937Zm-6.018-5.81-6.494,12.748Zm-92.652,5.625-12.512,6.935Zm-6.018-5.811-6.494,12.746Zm-92.651,5.622-12.513,6.936Zm-6.018-5.811-6.5,12.748Zm221.887,5.063-12.514,6.935Zm-6.017-5.812-6.5,12.748Zm-92.651,5.623-12.514,6.936ZM2470,170.451l-6.5,12.748Zm-92.651,5.624-12.513,6.935Zm-6.018-5.811-6.494,12.747Zm209.543,11.9-.17.094Zm-.049-.143-.121.238Zm-86.276-6.888-12.514,6.935Zm-6.019-5.81-6.494,12.746Zm-92.651,5.623-12.513,6.935Zm-6.017-5.811-6.5,12.747Zm123.217,4.874-12.512,6.935Zm-6.018-5.812-6.493,12.748Zm-92.651,5.624-12.512,6.936Zm-6.017-5.811-6.494,12.748Zm-92.651,5.624-12.513,6.935Zm-6.017-5.812-7.451,4.13,7.451-4.13-6.5,12.748Zm221.886,5.063-12.514,6.936Zm-6.018-5.811-6.5,12.748Zm-92.652,5.624-12.512,6.935Zm-6.016-5.812-6.5,12.748Zm-92.651,5.623-12.513,6.937Zm-6.019-5.81-6.494,12.748Zm221.887,5.062-12.513,6.935Zm-6.017-5.811-6.5,12.747Zm-92.652,5.625-12.513,6.935Zm-6.018-5.812-6.5,12.748Zm-92.651,5.623-12.513,6.936Zm-6.018-5.81-6.494,12.747Zm221.888,5.062-12.512,6.935Zm-6.018-5.811-6.494,12.746ZM2470,170.451l-12.513,6.937Zm-6.018-5.81-6.494,12.748Zm-92.651,5.623-12.512,6.935Zm-6.018-5.811-6.494,12.747Zm212.739,10.134-3.364,1.865Zm-1.084-2.612-2.281,4.477Zm-88.437-2.648-12.512,6.935Zm-6.017-5.811-6.494,12.747Zm-92.651,5.623-12.513,6.936Zm-6.018-5.811-6.494,12.748Zm123.217,4.874-12.511,6.936Zm-6.016-5.81-6.494,12.747Zm-92.652,5.623-12.513,6.936Zm-6.017-5.811-6.5,12.748Zm123.217,4.874-12.513,6.936Zm-6.017-5.811-6.5,12.748Zm-92.651,5.623-12.514,6.936Zm-6.018-5.81-6.5,12.747Zm-92.651,5.623-12.512,6.936Zm-6.018-5.811-6.494,12.748Zm221.887,5.062-12.513,6.936Zm-6.018-5.81-6.494,12.747Zm-92.652,5.623-12.513,6.936Zm-6.017-5.81-6.5,12.747Zm-92.652,5.623-12.51,6.935Zm-6.016-5.812-6.494,12.747Zm221.886,5.063-12.513,6.935Zm-6.018-5.812-6.495,12.748Zm-92.652,5.625-12.512,6.936Zm-6.018-5.811-6.494,12.748Zm-92.651,5.623-12.513,6.935Zm-6.017-5.81-6.5,12.746Zm215.55,8.573-6.176,3.424Zm-2.161-4.457-4.015,7.88Zm-90.172.757L2470,170.451Zm-6.018-5.81-6.5,12.746Zm-92.652,5.622-12.513,6.936Zm-6.018-5.811-6.5,12.748Zm123.218,4.874-12.514,6.936Zm-6.018-5.811-6.5,12.748Zm-92.651,5.623-12.513,6.936Zm-6.018-5.81-6.494,12.747Zm123.218,4.874-12.514,6.935Zm-6.018-5.81-6.5,12.746Zm-92.651,5.623-12.513,6.935Zm-6.017-5.811-6.5,12.747Zm-92.652,5.623-12.512,6.935Zm-6.016-5.811-9.562,5.3,9.562-5.3-6.5,12.747Zm221.885,5.063-12.513,6.935Zm-6.017-5.811-6.5,12.747Zm-92.652,5.624-12.512,6.935Zm-6.017-5.811-6.494,12.746Zm-92.651,5.622-12.513,6.936Zm-6.018-5.811-6.5,12.748Zm221.886,5.062-12.512,6.936Zm-6.018-5.81-6.494,12.747Zm-92.652,5.624-12.513,6.935Zm-6.017-5.812-6.5,12.748Zm-92.651,5.625-12.514,6.935Zm-6.018-5.812-6.5,12.748Zm218.006,7.213-8.631,4.785Zm-3.224-5.827-5.407,10.612Zm-91.564,3.489-12.513,6.935Zm-6.018-5.812-6.5,12.748Zm-92.651,5.623-12.513,6.936Zm-6.017-5.811-6.5,12.748Zm123.217,4.874-12.513,6.936Zm-6.018-5.811-6.5,12.748Zm-92.652,5.624-12.513,6.935Zm-6.018-5.811-6.5,12.747Zm123.217,4.874-12.512,6.935Zm-6.017-5.811-6.494,12.747Zm-92.651,5.623-12.513,6.935Zm-6.018-5.811-6.5,12.747Zm123.217,4.874-12.513,6.935Zm-6.017-5.811-6.5,12.747Zm-92.652,5.624-12.513,6.935Zm-6.018-5.812-6.494,12.748Zm-92.651,5.623-12.513,6.936Zm-6.017-5.811-6.5,12.748Zm221.886,5.063-12.513,6.936Zm-6.017-5.811-6.5,12.748Zm-92.652,5.623-12.513,6.937Zm-6.017-5.81-6.5,12.748Zm-92.652,5.623-12.511,6.935Zm-6.016-5.812-6.5,12.748Zm220.121,6.041-10.749,5.957Zm-4.253-6.79-6.5,12.747Zm-92.652,5.624-12.513,6.936Zm-6.016-5.811-6.5,12.748Zm-92.652,5.623-12.513,6.937Zm-6.018-5.81-6.494,12.748Zm123.218,4.874-12.513,6.937Zm-6.018-5.81-6.494,12.748Zm-92.651,5.623-12.513,6.935Zm-6.017-5.811-6.5,12.747Zm123.217,4.874-12.513,6.935Zm-6.018-5.81-6.5,12.746Zm-92.651,5.622-12.513,6.936Zm-6.019-5.811-6.494,12.748Zm123.219,4.874-12.514,6.936Zm-6.018-5.811-6.5,12.748Zm-92.652,5.623-12.512,6.936Zm-6.017-5.81-6.494,12.747Zm-92.651,5.622-12.512,6.936Zm-6.017-5.811-6.494,12.748Zm221.886,5.063-12.513,6.936Zm-6.017-5.811-6.5,12.748Zm-92.652,5.624-12.513,6.936Zm-6.017-5.811-6.5,12.748Zm-92.651,5.622-12.514,6.936Zm-6.019-5.809-6.495,12.746Zm221.887,5.061-12.513,6.936Zm-6.017-5.81-6.5,12.747Zm-92.651,5.623-12.514,6.935Zm-6.018-5.81-6.5,12.746Zm-92.652,5.623-12.513,6.935Zm-6.016-5.811-6.5,12.747Zm123.216,4.874-12.513,6.935Zm-6.017-5.812-6.5,12.748Zm-92.651,5.624-12.513,6.935Zm-6.017-5.81-6.5,12.746Zm123.217,4.874-12.513,6.935Zm-6.018-5.811-6.495,12.746Zm-92.652,5.622-12.512,6.936Zm-6.018-5.81-6.494,12.747Zm123.218,4.874-12.513,6.936Zm-6.018-5.811-6.5,12.748Zm-92.652,5.624-12.512,6.935Zm-6.018-5.811-6.494,12.747Zm-92.65,5.622-11.207,6.213Zm215.869-.749-12.513,6.936Zm-6.018-5.81-6.494,12.747Zm-92.651,5.623-12.514,6.935Zm-6.018-5.811-6.5,12.747Zm-92.652,5.624-12.512,6.934Zm-6.017-5.811-6.5,12.746Zm221.886,5.062-12.513,6.935Zm-6.017-5.811-6.5,12.747Zm-92.652,5.624-12.513,6.935Zm-6.017-5.811-6.5,12.747Zm-92.651,5.623-12.512,6.934Zm-6.018-5.812-6.494,12.747Zm209.4,11.983-.029.015Zm-.012-.019-.017.034Zm-86.174-7.089-12.512,6.936Zm-6.017-5.811-6.494,12.748Zm-92.651,5.625-12.514,6.935Zm-6.018-5.812-6.5,12.748Zm123.217,4.875-12.513,6.935Zm-6.017-5.812-6.5,12.748Zm-92.653,5.624-12.512,6.935Zm-6.017-5.811-6.494,12.747Zm123.218,4.874-12.513,6.937Zm-6.017-5.811-6.5,12.748Zm-92.652,5.624-12.513,6.935Zm-6.018-5.811-6.5,12.747Zm123.218,4.874-12.513,6.935Zm-6.018-5.811-6.5,12.747Zm-92.651,5.623-12.513,6.936Zm-6.018-5.81-6.5,12.747Zm-92.65,5.623-12.513,6.935Zm-6.017-5.812-6.5,12.747Zm221.886,5.063-12.513,6.935Zm-6.018-5.81-6.494,12.746Zm-92.651,5.623-12.513,6.935Zm-6.018-5.812-6.494,12.748Zm-92.651,5.623-12.513,6.937Zm-6.018-5.81-6.5,12.748Zm210.883,11.162-1.508.836Zm-.634-.88-.874,1.716Zm-87.031-5.408-12.513,6.937Zm-6.017-5.81-6.5,12.748Zm-92.652,5.623-12.512,6.936Zm-6.017-5.811-6.494,12.748Zm123.218,4.874-12.514,6.935Zm-6.018-5.811-6.5,12.747Zm-92.652,5.624-12.512,6.936Zm-6.016-5.811-6.5,12.748Zm123.217,4.874-12.513,6.937Zm-6.018-5.81-6.5,12.748Zm-92.652,5.623-12.513,6.936Zm-6.016-5.81-6.5,12.747Zm123.217,4.874-12.513,6.935Zm-6.018-5.81-6.495,12.746Zm-92.652,5.623-12.513,6.935Zm-6.017-5.811-6.5,12.747Zm-92.65,5.622-11.772,6.526Zm215.868-.748-12.513,6.935Zm-6.017-5.812-6.5,12.748Zm-92.652,5.623-12.512,6.936Zm-6.018-5.81-6.494,12.747Zm-92.651,5.623-12.512,6.936Zm-6.018-5.811-6.493,12.748Zm212.055,10.512-2.68,1.486Zm-1.17-1.478-1.51,2.964Zm-87.667-4.16-12.513,6.936Zm-6.018-5.811-6.494,12.748Zm-92.651,5.623-12.512,6.935Zm-6.017-5.811-6.5,12.747ZM2483.47,126.4l-12.513,6.935Zm-6.017-5.81-6.5,12.746Zm-92.651,5.623-12.514,6.935Zm-6.018-5.811-6.5,12.747ZM2502,125.275l-12.512,6.935Zm-6.017-5.811-6.494,12.747Zm-92.651,5.624-12.514,6.935Zm-6.018-5.812-6.5,12.748Zm123.217,4.875-12.512,6.935Zm-6.018-5.812-6.494,12.747Zm-92.651,5.624-12.514,6.935Zm-6.018-5.811-6.5,12.747Zm123.218,4.874-12.513,6.936Zm-6.018-5.811-6.495,12.748Zm-92.652,5.624-12.513,6.936Zm-6.018-5.811-6.494,12.748Zm-92.651,5.623-12.511,6.935Zm-6.016-5.811-6.494,12.747Zm212.922,10.031-3.549,1.967Zm-1.6-1.852-1.946,3.82Zm-88.1-3.3-12.513,6.935Zm-6.018-5.81-6.494,12.746Zm-92.65,5.622-12.514,6.936Zm-6.019-5.81-6.494,12.747Zm123.218,4.874-12.513,6.935Zm-6.018-5.811-6.494,12.747Zm-92.651,5.623-12.513,6.935Zm-6.018-5.81-6.494,12.746Zm123.218,4.873L2483.47,126.4Zm-6.017-5.812-6.5,12.748Zm-92.652,5.624-12.512,6.936Zm-6.017-5.811-6.494,12.748Zm123.217,4.874L2502,125.275Zm-6.018-5.811L2502,125.275Zm-92.651,5.624-12.512,6.936Zm-6.018-5.811-6.493,12.748Zm123.218,4.873-12.513,6.937Zm-6.018-5.81-6.5,12.748Zm-92.652,5.623-12.512,6.936Zm-6.017-5.811-6.494,12.748Zm114.815,9.532-4.109,2.278Zm-1.914-2.032-2.2,4.31ZM2452.9,115.9l-12.512,6.935Zm-6.018-5.811-6.494,12.747Zm-111.18,6.747-10.682,5.921Zm18.529-1.124-12.513,6.935Zm-6.016-5.811-6.5,12.747Zm123.216,4.874-12.513,6.935Zm-6.018-5.812-6.5,12.748Zm-92.652,5.625-12.511,6.934Zm-6.016-5.813-6.5,12.748Zm123.216,4.874-12.513,6.937Zm-6.018-5.81-6.494,12.748Zm-92.651,5.623-12.513,6.936Zm-6.018-5.811-6.494,12.748Zm123.217,4.874-12.512,6.936Zm-6.017-5.81-6.494,12.747Zm-92.652,5.623-12.512,6.935Zm-6.016-5.811-6.5,12.747Zm123.217,4.874-12.513,6.935Zm-6.017-5.811-6.5,12.747Zm-92.652,5.623-12.513,6.936Zm-6.018-5.811-6.494,12.748Zm115.069,9.392-4.363,2.418Zm-2.091-2.041-2.272,4.46Zm-88.43-2.663-12.513,6.935Zm-6.017-5.811-6.5,12.747Zm-92.65,5.623-12.513,6.935Zm-6.018-5.812-6.63,3.676,6.63-3.676-6.494,12.748Zm123.217,4.874L2452.9,115.9Zm-6.018-5.81-6.5,12.748Zm-92.65,5.622-12.515,6.937Zm-6.019-5.81-6.5,12.748Zm123.217,4.874-12.513,6.936Zm-6.018-5.81-6.494,12.747Zm-92.651,5.622-12.513,6.937Zm-6.018-5.81-6.5,12.748Zm123.217,4.874-12.512,6.934Zm-6.017-5.811-6.494,12.746Zm-92.651,5.623-12.513,6.935Zm-6.018-5.811-6.5,12.747Zm123.217,4.874-12.514,6.935Zm-6.018-5.812-6.5,12.748Zm-92.652,5.624-12.513,6.936Zm-6.017-5.811-6.5,12.748Zm115,9.427-4.3,2.384Zm-2.117-1.9-2.183,4.284Zm-88.34-2.84-12.513,6.935Zm-6.017-5.812-6.5,12.748Zm24.548,4.687-12.513,6.936Zm-6.018-5.811-6.5,12.748Zm-92.651,5.623-12.512,6.936Zm-6.017-5.811-6.494,12.748Zm123.216,4.875-12.512,6.935Zm-6.017-5.811-6.495,12.746Zm-92.652,5.623-12.511,6.935Zm-6.016-5.812-6.5,12.747Zm123.216,4.875-12.513,6.935Zm-6.017-5.811-6.5,12.747Zm-92.652,5.623-12.513,6.935Zm-6.019-5.811-6.494,12.747Zm123.218,4.874-12.513,6.937Zm-6.017-5.81-6.5,12.748Zm-92.652,5.623-12.512,6.936Zm-6.017-5.811-6.494,12.748Zm114.612,9.645-3.907,2.165Zm-1.974-1.628-1.933,3.794Zm-88.09-3.331-12.514,6.936Zm-6.018-5.81-6.5,12.747Zm24.548,4.686-12.513,6.936Zm-6.018-5.811-6.494,12.748Zm-92.65,5.623L2342.2,104.09Zm-8.09-1.741-4.423,8.677Zm125.289.805-12.513,6.935Zm-6.018-5.811-6.5,12.747Zm-92.65,5.622-12.514,6.936Zm-6.019-5.809-6.5,12.746Zm123.217,4.873-12.514,6.936Zm-6.018-5.811-6.5,12.748Zm-92.652,5.623-12.512,6.936Zm-6.018-5.811-6.494,12.748Zm123.218,4.874-12.513,6.936Zm-6.018-5.811-6.494,12.748ZM2410.3,93.781l-12.512,6.936Zm-6.018-5.81-6.494,12.747Zm113.872,10.054-3.167,1.755Zm-1.641-1.24-1.526,3Zm-87.683-4.127-12.513,6.935Zm-6.017-5.81-6.5,12.746Zm24.547,4.685-12.512,6.935Zm-6.017-5.811-6.494,12.747Zm24.548,4.687-12.513,6.935Zm-6.017-5.812-6.5,12.748Zm-92.651,5.625-12.513,6.934Zm-6.017-5.813L2355,87.852l6.212-3.444-6.5,12.748Zm123.216,4.875-12.513,6.936Zm-6.018-5.811-6.5,12.748Zm-92.652,5.623-12.51,6.935Zm-6.015-5.811-6.495,12.747Zm123.215,4.874-12.512,6.936Zm-6.639-4.59-5.872,11.526Zm-92.03,4.4-12.513,6.935Zm-6.017-5.811-6.5,12.747Zm112.763,10.669-2.058,1.141Zm-1.093-.754-.966,1.9Zm-87.123-5.227L2410.3,93.781Zm-6.018-5.813-6.5,12.748Zm24.548,4.687-12.513,6.936Zm-6.017-5.811-6.5,12.748Zm24.548,4.686-12.514,6.936Zm-6.018-5.81-6.5,12.747Zm24.548,4.686-12.513,6.936Zm-6.017-5.811-6.5,12.748Zm-92.65,5.623-12.514,6.937Zm-6.019-5.81-6.494,12.748Zm121.811,5.654-11.106,6.156Zm-6.265-3.345-4.841,9.5Zm-91,2.378-12.514,6.935Zm-6.018-5.811-6.5,12.747ZM2503.5,87.854l-.548.3Zm-.3-.187-.25.49ZM2416.8,81.033l-12.513,6.937Zm-6.018-5.81-6.494,12.748Zm24.549,4.686-12.513,6.937Zm-6.018-5.811-6.5,12.749Zm24.548,4.687-12.513,6.935Zm-6.017-5.811-6.5,12.747Zm24.548,4.686L2459.876,84.6Zm-6.018-5.811L2459.876,84.6Zm-92.651,5.624-12.512,6.935Zm-11.457,4.865-1.055,2.07Zm124.794-3.66-8.65,4.794Zm-5-2.359-3.645,7.153Zm-89.8.03-12.511,6.935Zm-6.016-5.812-6.494,12.748Zm24.546,4.687-12.512,6.936Zm-6.017-5.811-6.494,12.748Zm24.548,4.686L2416.8,81.033Zm-6.017-5.81-6.5,12.746Zm24.548,4.686-12.513,6.935Zm-6.019-5.81-6.494,12.746Zm24.548,4.685-12.513,6.936Zm-7.034-3.815-5.478,10.751ZM2478,74.551l-5.609,3.11Zm-3.333-1.358-2.276,4.468Zm-88.432-2.657-12.514,6.937ZM2375.2,74.571l-1.479,2.9Zm29.564-5.16-12.513,6.936Zm-7.382-3.133-5.131,10.069Zm25.913,2.009-12.514,6.935Zm-6.426-5.011-6.088,11.947Zm24.955,3.887L2429.311,74.1Zm-7.116-3.655-5.4,10.589Zm22.9,4.054-9.761,5.412Zm-6.237-1.506-3.524,6.917Zm16.874,4.757-1.869,1.036Zm-1.143-.391-.726,1.426Zm-76.928-2.068-3.936,2.182Zm-3.43,1.188-.506.994Zm28.948-6.185-10.924,6.054Zm-8.312.929-2.612,5.125Zm24.881-.967-8.962,4.968Zm-6.3-.26-2.663,5.228Zm19.836,1.9-3.97,2.2Zm-2.628-.433-1.342,2.633Z" transform="translate(-2328.459 817.668)" fill="#fff" stroke="#e6c9f5" stroke-width="0.5"/>
  </g>
</svg>
