<svg xmlns="http://www.w3.org/2000/svg" width="185.666" height="48" viewBox="0 0 185.666 48">
  <g id="Group_25610" data-name="Group 25610" transform="translate(-139.334 -876)">
    <g id="playstore_1_" data-name="playstore (1)" transform="translate(115.785 881.57)">
      <g id="Group_119" data-name="Group 119" transform="translate(23.549 0.001)">
        <path id="Path_1481" data-name="Path 1481" d="M70.749,11.979C66.7,9.712,60.191,6.072,50.1.422A2.433,2.433,0,0,0,47.962.143L65.274,17.454Z" transform="translate(-46.298 -0.012)" fill="#32bbff"/>
        <path id="Path_1482" data-name="Path 1482" d="M25.213,1.93a2.487,2.487,0,0,0-.368.157,2.434,2.434,0,0,0-1.3,2.164v29.98a2.434,2.434,0,0,0,1.3,2.164,2.518,2.518,0,0,0,.368.158L42.524,19.242Z" transform="translate(-23.549 -1.799)" fill="#32bbff"/>
        <path id="Path_1483" data-name="Path 1483" d="M65.268,255.98,47.956,273.292a2.407,2.407,0,0,0,2.14-.28c9.785-5.479,16.217-9.076,20.317-11.362l.336-.189Z" transform="translate(-46.293 -238.538)" fill="#32bbff"/>
      </g>
      <path id="Path_1484" data-name="Path 1484" d="M23.549,255.98v14.99a2.434,2.434,0,0,0,1.3,2.164,2.515,2.515,0,0,0,.368.158L42.524,255.98Z" transform="translate(0 -238.537)" fill="#2c9fd9"/>
      <path id="Path_1485" data-name="Path 1485" d="M45.068.411A2.441,2.441,0,0,0,42.561.289L59.978,17.706l5.738-5.738C61.663,9.7,55.158,6.06,45.068.411Z" transform="translate(-17.716 0)" fill="#29cc5e"/>
      <path id="Path_1486" data-name="Path 1486" d="M59.978,252.126,42.561,269.543a2.424,2.424,0,0,0,2.507-.122c9.785-5.479,16.217-9.076,20.317-11.362l.336-.189Z" transform="translate(-17.716 -234.945)" fill="#d93f21"/>
      <path id="Path_1487" data-name="Path 1487" d="M307.533,178.521a2.428,2.428,0,0,0-1.25-2.134s-1.554-.867-6.316-3.53l-5.664,5.664,5.67,5.67c4.71-2.644,6.31-3.536,6.31-3.536A2.427,2.427,0,0,0,307.533,178.521Z" transform="translate(-252.304 -161.078)" fill="#ffd500"/>
      <path id="Path_1488" data-name="Path 1488" d="M306.283,258.114a2.428,2.428,0,0,0,1.25-2.134H294.3l5.67,5.67C304.682,259.005,306.283,258.114,306.283,258.114Z" transform="translate(-252.304 -238.537)" fill="#fa0"/>
    </g>
    <text id="GET_IT_ON" data-name="GET IT ON" transform="translate(178 891)" fill="#fff" font-size="15" font-family="AvenirNext-Medium, Avenir Next" font-weight="500" letter-spacing="0.022em"><tspan x="0" y="0">GET IT ON</tspan></text>
    <text id="Google_Play" data-name="Google Play" transform="translate(178 915)" fill="#fff" font-size="25" font-family="AvenirNext-DemiBold, Avenir Next" font-weight="300" letter-spacing="0.022em"><tspan x="0" y="0">Google Play</tspan></text>
  </g>
</svg>
