<svg xmlns="http://www.w3.org/2000/svg" width="105" height="99" viewBox="0 0 105 99">
  <g id="Group_25614" data-name="Group 25614" transform="translate(-498 -1514)">
    <path id="Rectangle_269" data-name="Rectangle 269" d="M20,0H85a20,20,0,0,1,20,20V99a0,0,0,0,1,0,0H20A20,20,0,0,1,0,79V20A20,20,0,0,1,20,0Z" transform="translate(498 1514)" fill="#e6c9f5"/>
    <g id="noun_Secured_1662346" transform="translate(511 1526.011)">
      <g id="Group_120" data-name="Group 120" transform="translate(14 6.989)">
        <path id="Path_1492" data-name="Path 1492" d="M39.838,7a.721.721,0,0,0-.2.068L14.405,19.229A.721.721,0,0,0,14,19.86v2.253a.721.721,0,1,0,1.442,0v-1.8l24.509-11.8L64.46,20.31v9.3A41.408,41.408,0,0,1,39.951,67.437,41.411,41.411,0,0,1,15.442,29.614v-2.5a.721.721,0,1,0-1.442,0v2.5a42.9,42.9,0,0,0,25.658,39.31.721.721,0,0,0,.586,0A42.9,42.9,0,0,0,65.9,29.614V19.86a.721.721,0,0,0-.405-.631L40.266,7.065A.721.721,0,0,0,39.838,7ZM52.859,28.6a.721.721,0,0,0-.428.2L36.347,44.166l-7.411-7.411A.725.725,0,1,0,27.9,37.769L35.829,45.7a.721.721,0,0,0,1.014.023l16.58-15.859a.721.721,0,0,0-.563-1.262Z" transform="translate(-14 -6.989)" fill="#fff" stroke="#fff" stroke-width="2"/>
      </g>
    </g>
  </g>
</svg>
