<svg xmlns="http://www.w3.org/2000/svg" width="36.836" height="45.555" viewBox="0 0 36.836 45.555">
  <g id="noun_Security_1269177" transform="translate(-8.473 -3.79)">
    <path id="Path_5694" data-name="Path 5694" d="M49.466,24.529V13.78L30.8,3.79l-18.172,10V24.776A25.478,25.478,0,0,0,27.958,48.149l2.745,1.2,3.11-1.3h0A25.422,25.422,0,0,0,49.466,24.529ZM33.054,46.215l-2.336.986-1.971-.858A23.5,23.5,0,0,1,14.6,24.776V14.953L30.816,6.032l16.678,8.926v9.571A23.455,23.455,0,0,1,33.054,46.22Z" transform="translate(-4.157)" fill="#8f5eab"/>
    <path id="Path_5695" data-name="Path 5695" d="M37.263,46.786l-6.008-6.008L29.86,42.173l7.368,7.368L49.717,37.619,48.352,36.19Z" transform="translate(-12.895 -16.431)" fill="#8f5eab"/>
  </g>
</svg>
