<svg id="noun_start_3325158" xmlns="http://www.w3.org/2000/svg" width="30.867" height="36.237" viewBox="0 0 30.867 36.237">
  <g id="Start" transform="translate(0 0)">
    <path id="Path_5691" data-name="Path 5691" d="M8.683,8.857V8.745h0a1.026,1.026,0,0,1,.218-.43A11,11,0,0,1,23.072,6.521c6.758,4.13,12-1.324,12.218-1.542A.98.98,0,0,1,36.3,4.707,1.006,1.006,0,0,1,37,5.5l2.535,16.018a.986.986,0,0,1-.252.834,12.9,12.9,0,0,1-8.6,3.707,11.59,11.59,0,0,1-6.109-1.827,8.845,8.845,0,0,0-11.252,1.013l2.35,14.509a1,1,0,0,1-.821,1.145h-.159a.993.993,0,0,1-.98-.827L8.689,9.089a1.185,1.185,0,0,1-.007-.232ZM25.614,22.538a9.711,9.711,0,0,0,11.914-1.218l-2.2-13.827a11.41,11.41,0,0,1-13.238.662A8.846,8.846,0,0,0,10.748,9.235l2.2,13.754A10.735,10.735,0,0,1,25.614,22.538Z" transform="translate(-8.68 -4.663)" fill="#8f5eab"/>
  </g>
</svg>
