<svg xmlns="http://www.w3.org/2000/svg" xmlns:xlink="http://www.w3.org/1999/xlink" width="629.607" height="629.605" viewBox="0 0 629.607 629.605">
  <defs>
    <clipPath id="clip-path">
      <ellipse id="Ellipse_285" data-name="Ellipse 285" cx="304.366" cy="304.366" rx="304.366" ry="304.366" transform="translate(0 0)" fill="none" stroke="#80e084" stroke-width="1"/>
    </clipPath>
  </defs>
  <g id="Mask_Group_13" data-name="Mask Group 13" transform="translate(21.244) rotate(2)" opacity="0.996" clip-path="url(#clip-path)">
    <g id="Group_25521" data-name="Group 25521" transform="translate(-437.852 -505.644)">
      <path id="Path_1742" data-name="Path 1742" d="M0,0H910.645" transform="translate(777.419 0) rotate(34)" fill="none" stroke="#80e084" stroke-width="0.5"/>
      <path id="Path_1743" data-name="Path 1743" d="M0,0H910.645" transform="translate(774.024 5.033) rotate(34)" fill="none" stroke="#80e084" stroke-width="0.5"/>
      <path id="Path_1744" data-name="Path 1744" d="M0,0H910.645" transform="translate(770.63 10.066) rotate(34)" fill="none" stroke="#80e084" stroke-width="0.5"/>
      <path id="Path_1745" data-name="Path 1745" d="M0,0H910.645" transform="translate(767.235 15.099) rotate(34)" fill="none" stroke="#80e084" stroke-width="0.5"/>
      <path id="Path_1746" data-name="Path 1746" d="M0,0H910.645" transform="translate(763.84 20.132) rotate(34)" fill="none" stroke="#80e084" stroke-width="0.5"/>
      <path id="Path_1747" data-name="Path 1747" d="M0,0H910.645" transform="translate(760.445 25.165) rotate(34)" fill="none" stroke="#80e084" stroke-width="0.5"/>
      <path id="Path_1748" data-name="Path 1748" d="M0,0H910.645" transform="translate(757.05 30.198) rotate(34)" fill="none" stroke="#80e084" stroke-width="0.5"/>
      <path id="Path_1749" data-name="Path 1749" d="M0,0H910.645" transform="translate(753.655 35.231) rotate(34)" fill="none" stroke="#80e084" stroke-width="0.5"/>
      <path id="Path_1750" data-name="Path 1750" d="M0,0H910.645" transform="translate(750.261 40.265) rotate(34)" fill="none" stroke="#80e084" stroke-width="0.5"/>
      <path id="Path_1751" data-name="Path 1751" d="M0,0H910.645" transform="translate(746.866 45.298) rotate(34)" fill="none" stroke="#80e084" stroke-width="0.5"/>
      <path id="Path_1752" data-name="Path 1752" d="M0,0H910.645" transform="translate(743.471 50.331) rotate(34)" fill="none" stroke="#80e084" stroke-width="0.5"/>
      <path id="Path_1753" data-name="Path 1753" d="M0,0H910.645" transform="translate(740.076 55.364) rotate(34)" fill="none" stroke="#80e084" stroke-width="0.5"/>
      <path id="Path_1754" data-name="Path 1754" d="M0,0H910.645" transform="translate(736.681 60.397) rotate(34)" fill="none" stroke="#80e084" stroke-width="0.5"/>
      <path id="Path_1755" data-name="Path 1755" d="M0,0H910.645" transform="translate(733.286 65.43) rotate(34)" fill="none" stroke="#80e084" stroke-width="0.5"/>
      <path id="Path_1756" data-name="Path 1756" d="M0,0H910.645" transform="translate(729.891 70.463) rotate(34)" fill="none" stroke="#80e084" stroke-width="0.5"/>
      <path id="Path_1757" data-name="Path 1757" d="M0,0H910.645" transform="translate(726.497 75.496) rotate(34)" fill="none" stroke="#80e084" stroke-width="0.5"/>
      <path id="Path_1758" data-name="Path 1758" d="M0,0H910.645" transform="translate(723.102 80.529) rotate(34)" fill="none" stroke="#80e084" stroke-width="0.5"/>
      <path id="Path_1759" data-name="Path 1759" d="M0,0H910.645" transform="translate(719.707 85.562) rotate(34)" fill="none" stroke="#80e084" stroke-width="0.5"/>
      <path id="Path_1760" data-name="Path 1760" d="M0,0H910.645" transform="translate(716.312 90.595) rotate(34)" fill="none" stroke="#80e084" stroke-width="0.5"/>
      <path id="Path_1761" data-name="Path 1761" d="M0,0H910.645" transform="translate(712.917 95.628) rotate(34)" fill="none" stroke="#80e084" stroke-width="0.5"/>
      <path id="Path_1762" data-name="Path 1762" d="M0,0H910.645" transform="translate(709.522 100.661) rotate(34)" fill="none" stroke="#80e084" stroke-width="0.5"/>
      <path id="Path_1763" data-name="Path 1763" d="M0,0H910.645" transform="translate(706.128 105.694) rotate(34)" fill="none" stroke="#80e084" stroke-width="0.5"/>
      <path id="Path_1764" data-name="Path 1764" d="M0,0H910.645" transform="translate(702.733 110.727) rotate(34)" fill="none" stroke="#80e084" stroke-width="0.5"/>
      <path id="Path_1765" data-name="Path 1765" d="M0,0H910.645" transform="translate(699.338 115.76) rotate(34)" fill="none" stroke="#80e084" stroke-width="0.5"/>
      <path id="Path_1766" data-name="Path 1766" d="M0,0H910.645" transform="translate(695.943 120.793) rotate(34)" fill="none" stroke="#80e084" stroke-width="0.5"/>
      <path id="Path_1767" data-name="Path 1767" d="M0,0H910.645" transform="translate(692.548 125.826) rotate(34)" fill="none" stroke="#80e084" stroke-width="0.5"/>
      <path id="Path_1768" data-name="Path 1768" d="M0,0H910.645" transform="translate(689.153 130.859) rotate(34)" fill="none" stroke="#80e084" stroke-width="0.5"/>
      <path id="Path_1769" data-name="Path 1769" d="M0,0H910.645" transform="translate(685.759 135.893) rotate(34)" fill="none" stroke="#80e084" stroke-width="0.5"/>
      <path id="Path_1770" data-name="Path 1770" d="M0,0H910.645" transform="translate(682.364 140.926) rotate(34)" fill="none" stroke="#80e084" stroke-width="0.5"/>
      <path id="Path_1771" data-name="Path 1771" d="M0,0H910.645" transform="translate(678.969 145.959) rotate(34)" fill="none" stroke="#80e084" stroke-width="0.5"/>
      <path id="Path_1772" data-name="Path 1772" d="M0,0H910.645" transform="translate(675.574 150.992) rotate(34)" fill="none" stroke="#80e084" stroke-width="0.5"/>
      <path id="Path_1773" data-name="Path 1773" d="M0,0H910.645" transform="translate(672.179 156.025) rotate(34)" fill="none" stroke="#80e084" stroke-width="0.5"/>
      <path id="Path_1774" data-name="Path 1774" d="M0,0H910.645" transform="translate(668.784 161.058) rotate(34)" fill="none" stroke="#80e084" stroke-width="0.5"/>
      <path id="Path_1775" data-name="Path 1775" d="M0,0H910.645" transform="translate(665.389 166.091) rotate(34)" fill="none" stroke="#80e084" stroke-width="0.5"/>
      <path id="Path_1776" data-name="Path 1776" d="M0,0H910.645" transform="translate(661.995 171.124) rotate(34)" fill="none" stroke="#80e084" stroke-width="0.5"/>
      <path id="Path_1777" data-name="Path 1777" d="M0,0H910.645" transform="translate(658.6 176.157) rotate(34)" fill="none" stroke="#80e084" stroke-width="0.5"/>
      <path id="Path_1778" data-name="Path 1778" d="M0,0H910.645" transform="translate(655.205 181.19) rotate(34)" fill="none" stroke="#80e084" stroke-width="0.5"/>
      <path id="Path_1779" data-name="Path 1779" d="M0,0H910.645" transform="translate(651.81 186.223) rotate(34)" fill="none" stroke="#80e084" stroke-width="0.5"/>
      <path id="Path_1780" data-name="Path 1780" d="M0,0H910.645" transform="translate(648.415 191.256) rotate(34)" fill="none" stroke="#80e084" stroke-width="0.5"/>
      <path id="Path_1781" data-name="Path 1781" d="M0,0H910.645" transform="translate(645.02 196.289) rotate(34)" fill="none" stroke="#80e084" stroke-width="0.5"/>
      <path id="Path_1782" data-name="Path 1782" d="M0,0H910.645" transform="translate(641.626 201.322) rotate(34)" fill="none" stroke="#80e084" stroke-width="0.5"/>
      <path id="Path_1783" data-name="Path 1783" d="M0,0H910.645" transform="translate(638.231 206.355) rotate(34)" fill="none" stroke="#80e084" stroke-width="0.5"/>
      <path id="Path_1784" data-name="Path 1784" d="M0,0H910.645" transform="translate(634.836 211.388) rotate(34)" fill="none" stroke="#80e084" stroke-width="0.5"/>
      <path id="Path_1785" data-name="Path 1785" d="M0,0H910.645" transform="translate(631.441 216.421) rotate(34)" fill="none" stroke="#80e084" stroke-width="0.5"/>
      <path id="Path_1786" data-name="Path 1786" d="M0,0H910.645" transform="translate(628.046 221.454) rotate(34)" fill="none" stroke="#80e084" stroke-width="0.5"/>
      <path id="Path_1787" data-name="Path 1787" d="M0,0H910.645" transform="translate(624.651 226.487) rotate(34)" fill="none" stroke="#80e084" stroke-width="0.5"/>
      <path id="Path_1788" data-name="Path 1788" d="M0,0H910.645" transform="translate(621.257 231.521) rotate(34)" fill="none" stroke="#80e084" stroke-width="0.5"/>
      <path id="Path_1789" data-name="Path 1789" d="M0,0H910.645" transform="translate(617.862 236.554) rotate(34)" fill="none" stroke="#80e084" stroke-width="0.5"/>
      <path id="Path_1790" data-name="Path 1790" d="M0,0H910.645" transform="translate(614.467 241.587) rotate(34)" fill="none" stroke="#80e084" stroke-width="0.5"/>
      <path id="Path_1791" data-name="Path 1791" d="M0,0H910.645" transform="translate(611.072 246.62) rotate(34)" fill="none" stroke="#80e084" stroke-width="0.5"/>
      <path id="Path_1792" data-name="Path 1792" d="M0,0H910.645" transform="translate(607.677 251.653) rotate(34)" fill="none" stroke="#80e084" stroke-width="0.5"/>
      <path id="Path_1793" data-name="Path 1793" d="M0,0H910.645" transform="translate(604.282 256.686) rotate(34)" fill="none" stroke="#80e084" stroke-width="0.5"/>
      <path id="Path_1794" data-name="Path 1794" d="M0,0H910.645" transform="translate(600.887 261.719) rotate(34)" fill="none" stroke="#80e084" stroke-width="0.5"/>
      <path id="Path_1795" data-name="Path 1795" d="M0,0H910.645" transform="translate(597.493 266.752) rotate(34)" fill="none" stroke="#80e084" stroke-width="0.5"/>
      <path id="Path_1796" data-name="Path 1796" d="M0,0H910.645" transform="translate(594.098 271.785) rotate(34)" fill="none" stroke="#80e084" stroke-width="0.5"/>
      <path id="Path_1797" data-name="Path 1797" d="M0,0H910.645" transform="translate(590.703 276.818) rotate(34)" fill="none" stroke="#80e084" stroke-width="0.5"/>
      <path id="Path_1798" data-name="Path 1798" d="M0,0H910.645" transform="translate(587.308 281.851) rotate(34)" fill="none" stroke="#80e084" stroke-width="0.5"/>
      <path id="Path_1799" data-name="Path 1799" d="M0,0H910.645" transform="translate(583.913 286.884) rotate(34)" fill="none" stroke="#80e084" stroke-width="0.5"/>
      <path id="Path_1800" data-name="Path 1800" d="M0,0H910.645" transform="translate(580.519 291.917) rotate(34)" fill="none" stroke="#80e084" stroke-width="0.5"/>
      <path id="Path_1801" data-name="Path 1801" d="M0,0H910.645" transform="translate(577.124 296.95) rotate(34)" fill="none" stroke="#80e084" stroke-width="0.5"/>
      <path id="Path_1802" data-name="Path 1802" d="M0,0H910.645" transform="translate(573.729 301.983) rotate(34)" fill="none" stroke="#80e084" stroke-width="0.5"/>
      <path id="Path_1803" data-name="Path 1803" d="M0,0H910.645" transform="translate(570.334 307.016) rotate(34)" fill="none" stroke="#80e084" stroke-width="0.5"/>
      <path id="Path_1804" data-name="Path 1804" d="M0,0H910.645" transform="translate(566.939 312.049) rotate(34)" fill="none" stroke="#80e084" stroke-width="0.5"/>
      <path id="Path_1805" data-name="Path 1805" d="M0,0H910.645" transform="translate(563.544 317.082) rotate(34)" fill="none" stroke="#80e084" stroke-width="0.5"/>
      <path id="Path_1806" data-name="Path 1806" d="M0,0H910.645" transform="translate(560.149 322.115) rotate(34)" fill="none" stroke="#80e084" stroke-width="0.5"/>
      <path id="Path_1807" data-name="Path 1807" d="M0,0H910.645" transform="translate(556.755 327.148) rotate(34)" fill="none" stroke="#80e084" stroke-width="0.5"/>
      <path id="Path_1808" data-name="Path 1808" d="M0,0H910.645" transform="translate(553.36 332.182) rotate(34)" fill="none" stroke="#80e084" stroke-width="0.5"/>
      <path id="Path_1809" data-name="Path 1809" d="M0,0H910.645" transform="translate(549.965 337.215) rotate(34)" fill="none" stroke="#80e084" stroke-width="0.5"/>
      <path id="Path_1810" data-name="Path 1810" d="M0,0H910.645" transform="translate(546.57 342.248) rotate(34)" fill="none" stroke="#80e084" stroke-width="0.5"/>
      <path id="Path_1811" data-name="Path 1811" d="M0,0H910.645" transform="translate(543.175 347.281) rotate(34)" fill="none" stroke="#80e084" stroke-width="0.5"/>
      <path id="Path_1812" data-name="Path 1812" d="M0,0H910.645" transform="translate(539.78 352.314) rotate(34)" fill="none" stroke="#80e084" stroke-width="0.5"/>
      <path id="Path_1813" data-name="Path 1813" d="M0,0H910.645" transform="translate(536.385 357.347) rotate(34)" fill="none" stroke="#80e084" stroke-width="0.5"/>
      <path id="Path_1814" data-name="Path 1814" d="M0,0H910.645" transform="translate(532.991 362.38) rotate(34)" fill="none" stroke="#80e084" stroke-width="0.5"/>
      <path id="Path_1815" data-name="Path 1815" d="M0,0H910.645" transform="translate(529.596 367.413) rotate(34)" fill="none" stroke="#80e084" stroke-width="0.5"/>
      <path id="Path_1816" data-name="Path 1816" d="M0,0H910.645" transform="translate(526.201 372.446) rotate(34)" fill="none" stroke="#80e084" stroke-width="0.5"/>
      <path id="Path_1817" data-name="Path 1817" d="M0,0H910.645" transform="translate(522.806 377.479) rotate(34)" fill="none" stroke="#80e084" stroke-width="0.5"/>
      <path id="Path_1818" data-name="Path 1818" d="M0,0H910.645" transform="translate(519.411 382.512) rotate(34)" fill="none" stroke="#80e084" stroke-width="0.5"/>
      <path id="Path_1819" data-name="Path 1819" d="M0,0H910.645" transform="translate(516.016 387.545) rotate(34)" fill="none" stroke="#80e084" stroke-width="0.5"/>
      <path id="Path_1820" data-name="Path 1820" d="M0,0H910.645" transform="translate(512.622 392.578) rotate(34)" fill="none" stroke="#80e084" stroke-width="0.5"/>
      <path id="Path_1821" data-name="Path 1821" d="M0,0H910.645" transform="translate(509.227 397.611) rotate(34)" fill="none" stroke="#80e084" stroke-width="0.5"/>
      <path id="Path_1822" data-name="Path 1822" d="M0,0H910.645" transform="translate(505.832 402.644) rotate(34)" fill="none" stroke="#80e084" stroke-width="0.5"/>
      <path id="Path_1823" data-name="Path 1823" d="M0,0H910.645" transform="translate(502.437 407.677) rotate(34)" fill="none" stroke="#80e084" stroke-width="0.5"/>
      <path id="Path_1824" data-name="Path 1824" d="M0,0H910.645" transform="translate(499.042 412.71) rotate(34)" fill="none" stroke="#80e084" stroke-width="0.5"/>
      <path id="Path_1825" data-name="Path 1825" d="M0,0H910.645" transform="translate(495.647 417.744) rotate(34)" fill="none" stroke="#80e084" stroke-width="0.5"/>
      <path id="Path_1826" data-name="Path 1826" d="M0,0H910.645" transform="translate(492.252 422.777) rotate(34)" fill="none" stroke="#80e084" stroke-width="0.5"/>
      <path id="Path_1827" data-name="Path 1827" d="M0,0H910.645" transform="translate(488.858 427.809) rotate(34)" fill="none" stroke="#80e084" stroke-width="0.5"/>
      <path id="Path_1828" data-name="Path 1828" d="M0,0H910.645" transform="translate(485.463 432.843) rotate(34)" fill="none" stroke="#80e084" stroke-width="0.5"/>
      <path id="Path_1829" data-name="Path 1829" d="M0,0H910.645" transform="translate(482.068 437.876) rotate(34)" fill="none" stroke="#80e084" stroke-width="0.5"/>
      <path id="Path_1830" data-name="Path 1830" d="M0,0H910.645" transform="translate(478.673 442.909) rotate(34)" fill="none" stroke="#80e084" stroke-width="0.5"/>
      <path id="Path_1831" data-name="Path 1831" d="M0,0H910.645" transform="translate(475.278 447.942) rotate(34)" fill="none" stroke="#80e084" stroke-width="0.5"/>
      <path id="Path_1832" data-name="Path 1832" d="M0,0H910.645" transform="translate(471.884 452.975) rotate(34)" fill="none" stroke="#80e084" stroke-width="0.5"/>
      <path id="Path_1833" data-name="Path 1833" d="M0,0H910.645" transform="translate(468.489 458.008) rotate(34)" fill="none" stroke="#80e084" stroke-width="0.5"/>
      <path id="Path_1834" data-name="Path 1834" d="M0,0H910.645" transform="translate(465.094 463.041) rotate(34)" fill="none" stroke="#80e084" stroke-width="0.5"/>
      <path id="Path_1835" data-name="Path 1835" d="M0,0H910.645" transform="translate(461.699 468.074) rotate(34)" fill="none" stroke="#80e084" stroke-width="0.5"/>
      <path id="Path_1836" data-name="Path 1836" d="M0,0H910.645" transform="translate(458.304 473.107) rotate(34)" fill="none" stroke="#80e084" stroke-width="0.5"/>
      <path id="Path_1837" data-name="Path 1837" d="M0,0H910.645" transform="translate(454.909 478.14) rotate(34)" fill="none" stroke="#80e084" stroke-width="0.5"/>
      <path id="Path_1838" data-name="Path 1838" d="M0,0H910.645" transform="translate(451.514 483.173) rotate(34)" fill="none" stroke="#80e084" stroke-width="0.5"/>
      <path id="Path_1839" data-name="Path 1839" d="M0,0H910.645" transform="translate(448.12 488.206) rotate(34)" fill="none" stroke="#80e084" stroke-width="0.5"/>
      <path id="Path_1840" data-name="Path 1840" d="M0,0H910.645" transform="translate(444.725 493.239) rotate(34)" fill="none" stroke="#80e084" stroke-width="0.5"/>
      <path id="Path_1841" data-name="Path 1841" d="M0,0H910.645" transform="translate(441.33 498.272) rotate(34)" fill="none" stroke="#80e084" stroke-width="0.5"/>
      <path id="Path_1842" data-name="Path 1842" d="M0,0H910.645" transform="translate(437.935 503.305) rotate(34)" fill="none" stroke="#80e084" stroke-width="0.5"/>
      <path id="Path_1843" data-name="Path 1843" d="M0,0H910.645" transform="translate(434.54 508.338) rotate(34)" fill="none" stroke="#80e084" stroke-width="0.5"/>
      <path id="Path_1844" data-name="Path 1844" d="M0,0H910.645" transform="translate(431.145 513.371) rotate(34)" fill="none" stroke="#80e084" stroke-width="0.5"/>
      <path id="Path_1845" data-name="Path 1845" d="M0,0H910.645" transform="translate(427.75 518.405) rotate(34)" fill="none" stroke="#80e084" stroke-width="0.5"/>
      <path id="Path_1846" data-name="Path 1846" d="M0,0H910.645" transform="translate(424.356 523.438) rotate(34)" fill="none" stroke="#80e084" stroke-width="0.5"/>
      <path id="Path_1847" data-name="Path 1847" d="M0,0H910.645" transform="translate(420.961 528.471) rotate(34)" fill="none" stroke="#80e084" stroke-width="0.5"/>
      <path id="Path_1848" data-name="Path 1848" d="M0,0H910.645" transform="translate(417.566 533.504) rotate(34)" fill="none" stroke="#80e084" stroke-width="0.5"/>
      <path id="Path_1849" data-name="Path 1849" d="M0,0H910.645" transform="translate(414.171 538.537) rotate(34)" fill="none" stroke="#80e084" stroke-width="0.5"/>
      <path id="Path_1850" data-name="Path 1850" d="M0,0H910.645" transform="translate(410.776 543.57) rotate(34)" fill="none" stroke="#80e084" stroke-width="0.5"/>
      <path id="Path_1851" data-name="Path 1851" d="M0,0H910.645" transform="translate(407.382 548.603) rotate(34)" fill="none" stroke="#80e084" stroke-width="0.5"/>
      <path id="Path_1852" data-name="Path 1852" d="M0,0H910.645" transform="translate(403.987 553.636) rotate(34)" fill="none" stroke="#80e084" stroke-width="0.5"/>
      <path id="Path_1853" data-name="Path 1853" d="M0,0H910.645" transform="translate(400.592 558.669) rotate(34)" fill="none" stroke="#80e084" stroke-width="0.5"/>
      <path id="Path_1854" data-name="Path 1854" d="M0,0H910.645" transform="translate(397.197 563.702) rotate(34)" fill="none" stroke="#80e084" stroke-width="0.5"/>
      <path id="Path_1855" data-name="Path 1855" d="M0,0H910.645" transform="translate(393.802 568.735) rotate(34)" fill="none" stroke="#80e084" stroke-width="0.5"/>
      <path id="Path_1856" data-name="Path 1856" d="M0,0H910.645" transform="translate(390.407 573.768) rotate(34)" fill="none" stroke="#80e084" stroke-width="0.5"/>
      <path id="Path_1857" data-name="Path 1857" d="M0,0H910.645" transform="translate(387.012 578.801) rotate(34)" fill="none" stroke="#80e084" stroke-width="0.5"/>
      <path id="Path_1858" data-name="Path 1858" d="M0,0H910.645" transform="translate(383.618 583.834) rotate(34)" fill="none" stroke="#80e084" stroke-width="0.5"/>
      <path id="Path_1859" data-name="Path 1859" d="M0,0H910.645" transform="translate(380.223 588.867) rotate(34)" fill="none" stroke="#80e084" stroke-width="0.5"/>
      <path id="Path_1860" data-name="Path 1860" d="M0,0H910.645" transform="translate(376.828 593.9) rotate(34)" fill="none" stroke="#80e084" stroke-width="0.5"/>
      <path id="Path_1861" data-name="Path 1861" d="M0,0H910.645" transform="translate(373.433 598.933) rotate(34)" fill="none" stroke="#80e084" stroke-width="0.5"/>
      <path id="Path_1862" data-name="Path 1862" d="M0,0H910.645" transform="translate(370.038 603.966) rotate(34)" fill="none" stroke="#80e084" stroke-width="0.5"/>
      <path id="Path_1863" data-name="Path 1863" d="M0,0H910.645" transform="translate(366.643 608.999) rotate(34)" fill="none" stroke="#80e084" stroke-width="0.5"/>
      <path id="Path_1864" data-name="Path 1864" d="M0,0H910.645" transform="translate(363.248 614.032) rotate(34)" fill="none" stroke="#80e084" stroke-width="0.5"/>
      <path id="Path_1865" data-name="Path 1865" d="M0,0H910.645" transform="translate(359.854 619.065) rotate(34)" fill="none" stroke="#80e084" stroke-width="0.5"/>
      <path id="Path_1866" data-name="Path 1866" d="M0,0H910.645" transform="translate(356.459 624.098) rotate(34)" fill="none" stroke="#80e084" stroke-width="0.5"/>
      <path id="Path_1867" data-name="Path 1867" d="M0,0H910.645" transform="translate(353.064 629.132) rotate(34)" fill="none" stroke="#80e084" stroke-width="0.5"/>
      <path id="Path_1868" data-name="Path 1868" d="M0,0H910.645" transform="translate(349.669 634.165) rotate(34)" fill="none" stroke="#80e084" stroke-width="0.5"/>
      <path id="Path_1869" data-name="Path 1869" d="M0,0H910.645" transform="translate(346.274 639.198) rotate(34)" fill="none" stroke="#80e084" stroke-width="0.5"/>
      <path id="Path_1870" data-name="Path 1870" d="M0,0H910.645" transform="translate(342.88 644.231) rotate(34)" fill="none" stroke="#80e084" stroke-width="0.5"/>
      <path id="Path_1871" data-name="Path 1871" d="M0,0H910.645" transform="translate(339.485 649.264) rotate(34)" fill="none" stroke="#80e084" stroke-width="0.5"/>
      <path id="Path_1872" data-name="Path 1872" d="M0,0H910.645" transform="translate(336.09 654.297) rotate(34)" fill="none" stroke="#80e084" stroke-width="0.5"/>
      <path id="Path_1873" data-name="Path 1873" d="M0,0H910.645" transform="translate(332.695 659.33) rotate(34)" fill="none" stroke="#80e084" stroke-width="0.5"/>
      <path id="Path_1874" data-name="Path 1874" d="M0,0H910.645" transform="translate(329.3 664.363) rotate(34)" fill="none" stroke="#80e084" stroke-width="0.5"/>
      <path id="Path_1875" data-name="Path 1875" d="M0,0H910.645" transform="translate(325.905 669.396) rotate(34)" fill="none" stroke="#80e084" stroke-width="0.5"/>
      <path id="Path_1876" data-name="Path 1876" d="M0,0H910.645" transform="translate(322.51 674.429) rotate(34)" fill="none" stroke="#80e084" stroke-width="0.5"/>
      <path id="Path_1877" data-name="Path 1877" d="M0,0H910.645" transform="translate(319.116 679.462) rotate(34)" fill="none" stroke="#80e084" stroke-width="0.5"/>
      <path id="Path_1878" data-name="Path 1878" d="M0,0H910.645" transform="translate(315.721 684.495) rotate(34)" fill="none" stroke="#80e084" stroke-width="0.5"/>
      <path id="Path_1879" data-name="Path 1879" d="M0,0H910.645" transform="translate(312.326 689.528) rotate(34)" fill="none" stroke="#80e084" stroke-width="0.5"/>
      <path id="Path_1880" data-name="Path 1880" d="M0,0H910.645" transform="translate(308.931 694.561) rotate(34)" fill="none" stroke="#80e084" stroke-width="0.5"/>
      <path id="Path_1881" data-name="Path 1881" d="M0,0H910.645" transform="translate(305.536 699.595) rotate(34)" fill="none" stroke="#80e084" stroke-width="0.5"/>
      <path id="Path_1882" data-name="Path 1882" d="M0,0H910.645" transform="translate(302.141 704.628) rotate(34)" fill="none" stroke="#80e084" stroke-width="0.5"/>
      <path id="Path_1883" data-name="Path 1883" d="M0,0H910.645" transform="translate(298.746 709.661) rotate(34)" fill="none" stroke="#80e084" stroke-width="0.5"/>
      <path id="Path_1884" data-name="Path 1884" d="M0,0H910.645" transform="translate(295.352 714.694) rotate(34)" fill="none" stroke="#80e084" stroke-width="0.5"/>
      <path id="Path_1885" data-name="Path 1885" d="M0,0H910.645" transform="translate(291.957 719.727) rotate(34)" fill="none" stroke="#80e084" stroke-width="0.5"/>
      <path id="Path_1886" data-name="Path 1886" d="M0,0H910.645" transform="translate(288.562 724.759) rotate(34)" fill="none" stroke="#80e084" stroke-width="0.5"/>
      <path id="Path_1887" data-name="Path 1887" d="M0,0H910.645" transform="translate(285.167 729.793) rotate(34)" fill="none" stroke="#80e084" stroke-width="0.5"/>
      <path id="Path_1888" data-name="Path 1888" d="M0,0H910.645" transform="translate(281.772 734.826) rotate(34)" fill="none" stroke="#80e084" stroke-width="0.5"/>
      <path id="Path_1889" data-name="Path 1889" d="M0,0H910.645" transform="translate(278.377 739.859) rotate(34)" fill="none" stroke="#80e084" stroke-width="0.5"/>
      <path id="Path_1890" data-name="Path 1890" d="M0,0H910.645" transform="translate(274.983 744.892) rotate(34)" fill="none" stroke="#80e084" stroke-width="0.5"/>
      <path id="Path_1891" data-name="Path 1891" d="M0,0H910.645" transform="translate(271.588 749.925) rotate(34)" fill="none" stroke="#80e084" stroke-width="0.5"/>
      <path id="Path_1892" data-name="Path 1892" d="M0,0H910.645" transform="translate(268.193 754.958) rotate(34)" fill="none" stroke="#80e084" stroke-width="0.5"/>
      <path id="Path_1893" data-name="Path 1893" d="M0,0H910.645" transform="translate(264.798 759.991) rotate(34)" fill="none" stroke="#80e084" stroke-width="0.5"/>
      <path id="Path_1894" data-name="Path 1894" d="M0,0H910.645" transform="translate(261.403 765.024) rotate(34)" fill="none" stroke="#80e084" stroke-width="0.5"/>
      <path id="Path_1895" data-name="Path 1895" d="M0,0H910.645" transform="translate(258.008 770.057) rotate(34)" fill="none" stroke="#80e084" stroke-width="0.5"/>
      <path id="Path_1896" data-name="Path 1896" d="M0,0H910.645" transform="translate(254.614 775.09) rotate(34)" fill="none" stroke="#80e084" stroke-width="0.5"/>
      <path id="Path_1897" data-name="Path 1897" d="M0,0H910.645" transform="translate(251.219 780.123) rotate(34)" fill="none" stroke="#80e084" stroke-width="0.5"/>
      <path id="Path_1898" data-name="Path 1898" d="M0,0H910.645" transform="translate(247.824 785.156) rotate(34)" fill="none" stroke="#80e084" stroke-width="0.5"/>
      <path id="Path_1899" data-name="Path 1899" d="M0,0H910.645" transform="translate(244.429 790.19) rotate(34)" fill="none" stroke="#80e084" stroke-width="0.5"/>
      <path id="Path_1900" data-name="Path 1900" d="M0,0H910.645" transform="translate(241.034 795.222) rotate(34)" fill="none" stroke="#80e084" stroke-width="0.5"/>
      <path id="Path_1901" data-name="Path 1901" d="M0,0H910.645" transform="translate(237.639 800.256) rotate(34)" fill="none" stroke="#80e084" stroke-width="0.5"/>
      <path id="Path_1902" data-name="Path 1902" d="M0,0H910.645" transform="translate(234.244 805.289) rotate(34)" fill="none" stroke="#80e084" stroke-width="0.5"/>
      <path id="Path_1903" data-name="Path 1903" d="M0,0H910.645" transform="translate(230.85 810.322) rotate(34)" fill="none" stroke="#80e084" stroke-width="0.5"/>
      <path id="Path_1904" data-name="Path 1904" d="M0,0H910.645" transform="translate(227.455 815.355) rotate(34)" fill="none" stroke="#80e084" stroke-width="0.5"/>
      <path id="Path_1905" data-name="Path 1905" d="M0,0H910.645" transform="translate(224.06 820.388) rotate(34)" fill="none" stroke="#80e084" stroke-width="0.5"/>
      <path id="Path_1906" data-name="Path 1906" d="M0,0H910.645" transform="translate(220.665 825.421) rotate(34)" fill="none" stroke="#80e084" stroke-width="0.5"/>
      <path id="Path_1907" data-name="Path 1907" d="M0,0H910.645" transform="translate(217.27 830.454) rotate(34)" fill="none" stroke="#80e084" stroke-width="0.5"/>
      <path id="Path_1908" data-name="Path 1908" d="M0,0H910.645" transform="translate(213.875 835.487) rotate(34)" fill="none" stroke="#80e084" stroke-width="0.5"/>
      <path id="Path_1909" data-name="Path 1909" d="M0,0H910.645" transform="translate(210.481 840.52) rotate(34)" fill="none" stroke="#80e084" stroke-width="0.5"/>
      <path id="Path_1910" data-name="Path 1910" d="M0,0H910.645" transform="translate(207.086 845.553) rotate(34)" fill="none" stroke="#80e084" stroke-width="0.5"/>
      <path id="Path_1911" data-name="Path 1911" d="M0,0H910.645" transform="translate(203.691 850.586) rotate(34)" fill="none" stroke="#80e084" stroke-width="0.5"/>
      <path id="Path_1912" data-name="Path 1912" d="M0,0H910.645" transform="translate(200.296 855.619) rotate(34)" fill="none" stroke="#80e084" stroke-width="0.5"/>
      <path id="Path_1913" data-name="Path 1913" d="M0,0H910.645" transform="translate(196.901 860.652) rotate(34)" fill="none" stroke="#80e084" stroke-width="0.5"/>
      <path id="Path_1914" data-name="Path 1914" d="M0,0H910.645" transform="translate(193.506 865.685) rotate(34)" fill="none" stroke="#80e084" stroke-width="0.5"/>
      <path id="Path_1915" data-name="Path 1915" d="M0,0H910.645" transform="translate(190.112 870.718) rotate(34)" fill="none" stroke="#80e084" stroke-width="0.5"/>
      <path id="Path_1916" data-name="Path 1916" d="M0,0H910.645" transform="translate(186.717 875.751) rotate(34)" fill="none" stroke="#80e084" stroke-width="0.5"/>
      <path id="Path_1917" data-name="Path 1917" d="M0,0H910.645" transform="translate(183.322 880.784) rotate(34)" fill="none" stroke="#80e084" stroke-width="0.5"/>
      <path id="Path_1918" data-name="Path 1918" d="M0,0H910.645" transform="translate(179.927 885.817) rotate(34)" fill="none" stroke="#80e084" stroke-width="0.5"/>
      <path id="Path_1919" data-name="Path 1919" d="M0,0H910.645" transform="translate(176.532 890.851) rotate(34)" fill="none" stroke="#80e084" stroke-width="0.5"/>
      <path id="Path_1920" data-name="Path 1920" d="M0,0H910.645" transform="translate(173.137 895.883) rotate(34)" fill="none" stroke="#80e084" stroke-width="0.5"/>
      <path id="Path_1921" data-name="Path 1921" d="M0,0H910.645" transform="translate(169.742 900.917) rotate(34)" fill="none" stroke="#80e084" stroke-width="0.5"/>
      <path id="Path_1922" data-name="Path 1922" d="M0,0H910.645" transform="translate(166.348 905.95) rotate(34)" fill="none" stroke="#80e084" stroke-width="0.5"/>
      <path id="Path_1923" data-name="Path 1923" d="M0,0H910.645" transform="translate(162.953 910.983) rotate(34)" fill="none" stroke="#80e084" stroke-width="0.5"/>
      <path id="Path_1924" data-name="Path 1924" d="M0,0H910.645" transform="translate(159.558 916.016) rotate(34)" fill="none" stroke="#80e084" stroke-width="0.5"/>
      <path id="Path_1925" data-name="Path 1925" d="M0,0H910.645" transform="translate(156.163 921.049) rotate(34)" fill="none" stroke="#80e084" stroke-width="0.5"/>
      <path id="Path_1926" data-name="Path 1926" d="M0,0H910.645" transform="translate(152.768 926.082) rotate(34)" fill="none" stroke="#80e084" stroke-width="0.5"/>
      <path id="Path_1927" data-name="Path 1927" d="M0,0H910.645" transform="translate(149.373 931.115) rotate(34)" fill="none" stroke="#80e084" stroke-width="0.5"/>
      <path id="Path_1928" data-name="Path 1928" d="M0,0H910.645" transform="translate(145.979 936.148) rotate(34)" fill="none" stroke="#80e084" stroke-width="0.5"/>
      <path id="Path_1929" data-name="Path 1929" d="M0,0H910.645" transform="translate(142.584 941.181) rotate(34)" fill="none" stroke="#80e084" stroke-width="0.5"/>
      <path id="Path_1930" data-name="Path 1930" d="M0,0H910.645" transform="translate(139.189 946.214) rotate(34)" fill="none" stroke="#80e084" stroke-width="0.5"/>
      <path id="Path_1931" data-name="Path 1931" d="M0,0H910.645" transform="translate(135.794 951.247) rotate(34)" fill="none" stroke="#80e084" stroke-width="0.5"/>
      <path id="Path_1932" data-name="Path 1932" d="M0,0H910.645" transform="translate(132.399 956.28) rotate(34)" fill="none" stroke="#80e084" stroke-width="0.5"/>
      <path id="Path_1933" data-name="Path 1933" d="M0,0H910.645" transform="translate(129.004 961.313) rotate(34)" fill="none" stroke="#80e084" stroke-width="0.5"/>
      <path id="Path_1934" data-name="Path 1934" d="M0,0H910.645" transform="translate(125.61 966.346) rotate(34)" fill="none" stroke="#80e084" stroke-width="0.5"/>
      <path id="Path_1935" data-name="Path 1935" d="M0,0H910.645" transform="translate(122.215 971.379) rotate(34)" fill="none" stroke="#80e084" stroke-width="0.5"/>
      <path id="Path_1936" data-name="Path 1936" d="M0,0H910.645" transform="translate(118.82 976.412) rotate(34)" fill="none" stroke="#80e084" stroke-width="0.5"/>
      <path id="Path_1937" data-name="Path 1937" d="M0,0H910.645" transform="translate(115.425 981.445) rotate(34)" fill="none" stroke="#80e084" stroke-width="0.5"/>
      <path id="Path_1938" data-name="Path 1938" d="M0,0H910.645" transform="translate(112.03 986.478) rotate(34)" fill="none" stroke="#80e084" stroke-width="0.5"/>
      <path id="Path_1939" data-name="Path 1939" d="M0,0H910.645" transform="translate(108.635 991.511) rotate(34)" fill="none" stroke="#80e084" stroke-width="0.5"/>
      <path id="Path_1940" data-name="Path 1940" d="M0,0H910.645" transform="translate(105.24 996.545) rotate(34)" fill="none" stroke="#80e084" stroke-width="0.5"/>
      <path id="Path_1941" data-name="Path 1941" d="M0,0H910.645" transform="translate(101.846 1001.578) rotate(34)" fill="none" stroke="#80e084" stroke-width="0.5"/>
      <path id="Path_1942" data-name="Path 1942" d="M0,0H910.645" transform="translate(98.451 1006.611) rotate(34)" fill="none" stroke="#80e084" stroke-width="0.5"/>
      <path id="Path_1943" data-name="Path 1943" d="M0,0H910.645" transform="translate(95.056 1011.644) rotate(34)" fill="none" stroke="#80e084" stroke-width="0.5"/>
      <path id="Path_1944" data-name="Path 1944" d="M0,0H910.645" transform="translate(91.661 1016.677) rotate(34)" fill="none" stroke="#80e084" stroke-width="0.5"/>
      <path id="Path_1945" data-name="Path 1945" d="M0,0H910.645" transform="translate(88.266 1021.71) rotate(34)" fill="none" stroke="#80e084" stroke-width="0.5"/>
      <path id="Path_1946" data-name="Path 1946" d="M0,0H910.645" transform="translate(84.871 1026.743) rotate(34)" fill="none" stroke="#80e084" stroke-width="0.5"/>
      <path id="Path_1947" data-name="Path 1947" d="M0,0H910.645" transform="translate(81.477 1031.776) rotate(34)" fill="none" stroke="#80e084" stroke-width="0.5"/>
      <path id="Path_1948" data-name="Path 1948" d="M0,0H910.645" transform="translate(78.082 1036.809) rotate(34)" fill="none" stroke="#80e084" stroke-width="0.5"/>
      <path id="Path_1949" data-name="Path 1949" d="M0,0H910.645" transform="translate(74.687 1041.842) rotate(34)" fill="none" stroke="#80e084" stroke-width="0.5"/>
      <path id="Path_1950" data-name="Path 1950" d="M0,0H910.645" transform="translate(71.292 1046.875) rotate(34)" fill="none" stroke="#80e084" stroke-width="0.5"/>
      <path id="Path_1951" data-name="Path 1951" d="M0,0H910.645" transform="translate(67.897 1051.908) rotate(34)" fill="none" stroke="#80e084" stroke-width="0.5"/>
      <path id="Path_1952" data-name="Path 1952" d="M0,0H910.645" transform="translate(64.502 1056.941) rotate(34)" fill="none" stroke="#80e084" stroke-width="0.5"/>
      <path id="Path_1953" data-name="Path 1953" d="M0,0H910.645" transform="translate(61.108 1061.974) rotate(34)" fill="none" stroke="#80e084" stroke-width="0.5"/>
      <path id="Path_1954" data-name="Path 1954" d="M0,0H910.645" transform="translate(57.713 1067.007) rotate(34)" fill="none" stroke="#80e084" stroke-width="0.5"/>
      <path id="Path_1955" data-name="Path 1955" d="M0,0H910.645" transform="translate(54.318 1072.04) rotate(34)" fill="none" stroke="#80e084" stroke-width="0.5"/>
      <path id="Path_1956" data-name="Path 1956" d="M0,0H910.645" transform="translate(50.923 1077.073) rotate(34)" fill="none" stroke="#80e084" stroke-width="0.5"/>
      <path id="Path_1957" data-name="Path 1957" d="M0,0H910.645" transform="translate(47.528 1082.106) rotate(34)" fill="none" stroke="#80e084" stroke-width="0.5"/>
      <path id="Path_1958" data-name="Path 1958" d="M0,0H910.645" transform="translate(44.133 1087.14) rotate(34)" fill="none" stroke="#80e084" stroke-width="0.5"/>
      <path id="Path_1959" data-name="Path 1959" d="M0,0H910.645" transform="translate(40.738 1092.172) rotate(34)" fill="none" stroke="#80e084" stroke-width="0.5"/>
      <path id="Path_1960" data-name="Path 1960" d="M0,0H910.645" transform="translate(37.344 1097.206) rotate(34)" fill="none" stroke="#80e084" stroke-width="0.5"/>
      <path id="Path_1961" data-name="Path 1961" d="M0,0H910.645" transform="translate(33.949 1102.239) rotate(34)" fill="none" stroke="#80e084" stroke-width="0.5"/>
      <path id="Path_1962" data-name="Path 1962" d="M0,0H910.645" transform="translate(30.554 1107.272) rotate(34)" fill="none" stroke="#80e084" stroke-width="0.5"/>
      <path id="Path_1963" data-name="Path 1963" d="M0,0H910.645" transform="translate(27.159 1112.305) rotate(34)" fill="none" stroke="#80e084" stroke-width="0.5"/>
      <path id="Path_1964" data-name="Path 1964" d="M0,0H910.645" transform="translate(23.764 1117.338) rotate(34)" fill="none" stroke="#80e084" stroke-width="0.5"/>
      <path id="Path_1965" data-name="Path 1965" d="M0,0H910.645" transform="translate(20.369 1122.371) rotate(34)" fill="none" stroke="#80e084" stroke-width="0.5"/>
      <path id="Path_1966" data-name="Path 1966" d="M0,0H910.645" transform="translate(16.975 1127.404) rotate(34)" fill="none" stroke="#80e084" stroke-width="0.5"/>
      <path id="Path_1967" data-name="Path 1967" d="M0,0H910.645" transform="translate(13.58 1132.437) rotate(34)" fill="none" stroke="#80e084" stroke-width="0.5"/>
      <path id="Path_1968" data-name="Path 1968" d="M0,0H910.645" transform="translate(10.185 1137.47) rotate(34)" fill="none" stroke="#80e084" stroke-width="0.5"/>
      <path id="Path_1969" data-name="Path 1969" d="M0,0H910.645" transform="translate(6.79 1142.503) rotate(34)" fill="none" stroke="#80e084" stroke-width="0.5"/>
      <path id="Path_1970" data-name="Path 1970" d="M0,0H910.645" transform="translate(3.395 1147.536) rotate(34)" fill="none" stroke="#80e084" stroke-width="0.5"/>
      <path id="Path_1971" data-name="Path 1971" d="M0,0H910.645" transform="translate(0 1152.569) rotate(34)" fill="none" stroke="#80e084" stroke-width="0.5"/>
    </g>
  </g>
</svg>
