<svg xmlns="http://www.w3.org/2000/svg" width="527.999" height="735" viewBox="0 0 527.999 735">
  <g id="Group_25626" data-name="Group 25626" transform="translate(-546 -5465)">
    <path id="Intersection_11" data-name="Intersection 11" d="M278,1253a15,15,0,0,1-15-15V1033.363a631.257,631.257,0,0,1,735-.718V1238a15,15,0,0,1-15,15Z" transform="translate(1799 5202) rotate(90)" fill="#8f5eab" opacity="0.061"/>
    <path id="Intersection_12" data-name="Intersection 12" d="M278,1253a15,15,0,0,1-15-15V843.363a631.257,631.257,0,0,1,735-.718V1238a15,15,0,0,1-15,15Z" transform="translate(1799 5202) rotate(90)" fill="#8f5eab" opacity="0.061"/>
  </g>
</svg>
